<?xml version="1.0" encoding="utf-8"?>
<!-- Generator: Adobe Illustrator 19.1.0, SVG Export Plug-In . SVG Version: 6.00 Build 0)  -->
<svg version="1.1" id="Layer_1" xmlns="http://www.w3.org/2000/svg" xmlns:xlink="http://www.w3.org/1999/xlink" x="0px" y="0px"
	 viewBox="0 0 334.2 200" style="enable-background:new 0 0 334.2 200;" xml:space="preserve">
<style type="text/css">
	.st0{fill:#D9DCDD;}
	.st1{fill:#828282;}
	.st2{font-family:'Lato-Bold';}
	.st3{font-size:21px;}
	.st4{font-size:36px;}
</style>
<path class="st0" d="M286.9,100.6h-5.4c0,0,0-2,0-2.5c-1.9-44.9-33.7-83.4-76.7-83.4c-25.9,0-51.2,15.9-65.3,39.3
	c-5.6-1.9-11.6-2.4-17.9-2.4c-26.6,0-52.2,18.9-59.4,48.9h-9.8c-20.3,0-35.6,16-35.6,37.9v11.8c0,21.9,15.3,37.3,35.6,37.3h234.6
	c20.3,0,35.8-15.4,35.8-37.3v-11.8C322.7,116.7,307.1,100.6,286.9,100.6z"/>
<text transform="matrix(1 0 0 1 42.1394 169.7945)"><tspan x="0" y="0" class="st1 st2 st3"> </tspan><tspan x="5.1" y="0" class="st1 st2 st4">DONATE NOW</tspan></text>
</svg>
