<?xml version="1.0" encoding="utf-8"?>
<!-- Generator: Adobe Illustrator 19.1.0, SVG Export Plug-In . SVG Version: 6.00 Build 0)  -->
<svg version="1.1" id="Layer_1" xmlns="http://www.w3.org/2000/svg" xmlns:xlink="http://www.w3.org/1999/xlink" x="0px" y="0px"
	 viewBox="-641 659.8 315.2 183.2" style="enable-background:new -641 659.8 315.2 183.2;" xml:space="preserve">
<style type="text/css">
	.st0{fill:#D9DCDD;}
	.st1{fill:#828282;}
</style>
<path class="st0" d="M-366.8,750.3h-5.4c0,0,0-2,0-2.5c-1.9-44.9-33.8-83.4-76.8-83.4c-25.9,0-51.2,15.9-65.3,39.3
	c-5.6-1.9-11.6-2.4-17.9-2.4c-26.6,0-52.2,18.9-59.4,48.9h-9.8c-20.3,0-35.6,16-35.6,37.9v11.8c0,21.9,15.3,37.3,35.6,37.3h234.6
	c20.3,0,35.8-15.4,35.8-37.3v-11.8C-331,766.3-346.6,750.3-366.8,750.3z"/>
<g>
	<path class="st1" d="M-580.4,806.4c0,1.9-0.3,3.7-1,5.3c-0.6,1.6-1.5,3-2.7,4.1c-1.2,1.2-2.5,2-4.2,2.7c-1.6,0.6-3.4,1-5.4,1h-9.9
		v-26h9.9c2,0,3.8,0.3,5.4,1c1.6,0.6,3,1.5,4.2,2.7c1.2,1.1,2,2.5,2.7,4.1C-580.7,802.8-580.4,804.5-580.4,806.4z M-585.4,806.4
		c0-1.4-0.2-2.7-0.6-3.8c-0.4-1.1-0.9-2.1-1.6-2.9c-0.7-0.8-1.6-1.4-2.6-1.8c-1-0.4-2.2-0.6-3.4-0.6h-5.1v18.3h5.1
		c1.3,0,2.4-0.2,3.4-0.6s1.9-1,2.6-1.8c0.7-0.8,1.3-1.7,1.6-2.9C-585.6,809.1-585.4,807.9-585.4,806.4z"/>
	<path class="st1" d="M-551.3,806.4c0,1.9-0.3,3.7-0.9,5.3c-0.6,1.6-1.5,3-2.7,4.2c-1.2,1.2-2.5,2.1-4.2,2.8c-1.6,0.7-3.4,1-5.4,1
		s-3.8-0.3-5.4-1c-1.6-0.7-3-1.6-4.2-2.8c-1.2-1.2-2.1-2.6-2.7-4.2c-0.6-1.6-1-3.4-1-5.3c0-1.9,0.3-3.7,1-5.3c0.6-1.6,1.5-3,2.7-4.2
		c1.2-1.2,2.5-2.1,4.2-2.8c1.7-0.7,3.4-1,5.4-1c1.3,0,2.6,0.2,3.7,0.5c1.2,0.3,2.2,0.7,3.2,1.3c1,0.6,1.8,1.2,2.6,2
		c0.8,0.8,1.4,1.7,2,2.7c0.5,1,1,2.1,1.2,3.2C-551.5,804-551.3,805.2-551.3,806.4z M-556.3,806.4c0-1.4-0.2-2.7-0.6-3.8
		c-0.4-1.1-0.9-2.1-1.6-2.9s-1.6-1.4-2.6-1.8c-1-0.4-2.2-0.6-3.4-0.6s-2.4,0.2-3.4,0.6c-1,0.4-1.9,1-2.6,1.8s-1.3,1.8-1.6,2.9
		c-0.4,1.1-0.6,2.4-0.6,3.8c0,1.4,0.2,2.7,0.6,3.8c0.4,1.1,0.9,2.1,1.6,2.9s1.6,1.4,2.6,1.8c1,0.4,2.2,0.6,3.4,0.6s2.4-0.2,3.4-0.6
		c1-0.4,1.9-1,2.6-1.8c0.7-0.8,1.3-1.7,1.6-2.9C-556.5,809.1-556.3,807.9-556.3,806.4z"/>
	<path class="st1" d="M-544,793.5c0.1,0,0.3,0.1,0.4,0.1c0.1,0.1,0.2,0.1,0.3,0.2c0.1,0.1,0.2,0.2,0.4,0.4l13.6,17.4
		c0-0.4-0.1-0.8-0.1-1.2c0-0.4,0-0.8,0-1.1v-15.8h4.3v26h-2.5c-0.4,0-0.7-0.1-1-0.2c-0.3-0.1-0.5-0.3-0.7-0.6l-13.6-17.3
		c0,0.4,0.1,0.8,0.1,1.1c0,0.4,0,0.7,0,1v16h-4.3v-26h2.5C-544.3,793.4-544.2,793.4-544,793.5z"/>
	<path class="st1" d="M-497,819.5h-3.7c-0.4,0-0.8-0.1-1-0.3c-0.3-0.2-0.5-0.5-0.6-0.8l-1.9-5.3H-515l-1.9,5.3
		c-0.1,0.3-0.3,0.5-0.6,0.8c-0.3,0.2-0.6,0.3-1,0.3h-3.8l10.2-26h4.9L-497,819.5z M-513.9,809.6h8.3l-3.2-8.7
		c-0.2-0.4-0.3-0.8-0.5-1.4c-0.2-0.5-0.3-1.1-0.5-1.7c-0.2,0.6-0.3,1.2-0.5,1.7c-0.2,0.5-0.3,1-0.5,1.4L-513.9,809.6z"/>
	<path class="st1" d="M-478.7,793.4v4h-7.8v22h-4.8v-22h-7.8v-4H-478.7z"/>
	<path class="st1" d="M-458.9,793.4v3.9h-11.6v7.2h9.1v3.7h-9.1v7.4h11.6v3.9h-16.4v-26L-458.9,793.4L-458.9,793.4z"/>
	<path class="st1" d="M-442.8,793.5c0.1,0,0.3,0.1,0.4,0.1c0.1,0.1,0.2,0.1,0.3,0.2c0.1,0.1,0.2,0.2,0.4,0.4l13.6,17.4
		c0-0.4-0.1-0.8-0.1-1.2c0-0.4,0-0.8,0-1.1v-15.8h4.3v26h-2.5c-0.4,0-0.7-0.1-1-0.2c-0.3-0.1-0.5-0.3-0.7-0.6l-13.6-17.3
		c0,0.4,0.1,0.8,0.1,1.1c0,0.3,0,0.7,0,1v16h-4.3v-26h2.5C-443.1,793.4-442.9,793.4-442.8,793.5z"/>
	<path class="st1" d="M-393.3,806.4c0,1.9-0.3,3.7-0.9,5.3c-0.6,1.6-1.5,3-2.7,4.2c-1.2,1.2-2.5,2.1-4.2,2.8c-1.7,0.7-3.4,1-5.4,1
		s-3.8-0.3-5.4-1c-1.6-0.7-3-1.6-4.2-2.8c-1.2-1.2-2.1-2.6-2.7-4.2c-0.6-1.6-1-3.4-1-5.3c0-1.9,0.3-3.7,1-5.3c0.6-1.6,1.5-3,2.7-4.2
		c1.2-1.2,2.5-2.1,4.2-2.8c1.7-0.7,3.4-1,5.4-1c1.3,0,2.6,0.2,3.7,0.5c1.2,0.3,2.2,0.7,3.2,1.3c1,0.6,1.8,1.2,2.6,2
		c0.8,0.8,1.4,1.7,2,2.7c0.5,1,1,2.1,1.2,3.2C-393.4,804-393.3,805.2-393.3,806.4z M-398.2,806.4c0-1.4-0.2-2.7-0.6-3.8
		c-0.4-1.1-0.9-2.1-1.6-2.9c-0.7-0.8-1.6-1.4-2.6-1.8c-1-0.4-2.2-0.6-3.4-0.6c-1.3,0-2.4,0.2-3.4,0.6c-1,0.4-1.9,1-2.6,1.8
		s-1.3,1.8-1.6,2.9c-0.3,1.1-0.6,2.4-0.6,3.8c0,1.4,0.2,2.7,0.6,3.8c0.4,1.1,0.9,2.1,1.6,2.9s1.6,1.4,2.6,1.8c1,0.4,2.2,0.6,3.4,0.6
		c1.3,0,2.4-0.2,3.4-0.6c1-0.4,1.9-1,2.6-1.8c0.7-0.8,1.3-1.7,1.6-2.9C-398.4,809.1-398.2,807.9-398.2,806.4z"/>
	<path class="st1" d="M-392.1,793.4h4c0.4,0,0.8,0.1,1.1,0.3s0.5,0.5,0.6,0.8l4.4,15.6c0.1,0.4,0.2,0.8,0.3,1.3
		c0.1,0.5,0.2,0.9,0.3,1.4c0.1-0.5,0.2-1,0.3-1.4c0.1-0.4,0.2-0.9,0.4-1.3l5.1-15.6c0.1-0.3,0.3-0.5,0.6-0.8c0.3-0.2,0.6-0.3,1-0.3
		h1.4c0.4,0,0.8,0.1,1,0.3c0.3,0.2,0.5,0.5,0.6,0.8l5.1,15.6c0.3,0.7,0.5,1.6,0.7,2.6c0.2-0.9,0.3-1.8,0.5-2.6l4.4-15.6
		c0.1-0.3,0.3-0.6,0.5-0.8c0.3-0.2,0.6-0.3,1.1-0.3h3.8l-8.1,26h-4.4l-5.7-17.8c-0.1-0.2-0.2-0.5-0.2-0.7c-0.1-0.3-0.1-0.5-0.2-0.8
		c-0.1,0.3-0.1,0.6-0.2,0.8c-0.1,0.3-0.2,0.5-0.2,0.7l-5.7,17.8h-4.4L-392.1,793.4z"/>
</g>
</svg>
