<?xml version="1.0" encoding="utf-8"?>
<!-- Generator: Adobe Illustrator 19.1.0, SVG Export Plug-In . SVG Version: 6.00 Build 0)  -->
<svg version="1.1" xmlns="http://www.w3.org/2000/svg" xmlns:xlink="http://www.w3.org/1999/xlink" x="0px" y="0px"
	 viewBox="0 0 1600 1500" style="enable-background:new 0 0 1600 1500;" xml:space="preserve">
<style type="text/css">
	.st0{fill:url(#SVGID_1_);}
	.st1{fill:none;}
	.st2{fill:#828282;}
	.st3{font-family:'Lato-Regular';}
	.st4{font-size:18px;}
	.st5{fill:#666D6C;}
	.st6{fill:#AAAFAF;}
	.st7{fill:#D6D0D0;}
	.st8{fill:#999999;}
	.st9{fill:#AEA2A2;}
	.st10{fill:#62685D;}
	.st11{fill:#769995;}
	.st12{opacity:0.72;fill:#769995;enable-background:new    ;}
	.st13{fill:#94AAA6;}
	.st14{fill:#C1C1C1;}
	.st15{opacity:0.57;fill:#828282;enable-background:new    ;}
	.st16{fill:#DE8400;}
	.st17{fill:#C5E2EF;}
	.st18{fill:#E8921F;}
	.st19{fill:#E08420;}
	.st20{fill:#A6D2E2;}
	.st21{fill:#B8DBE8;}
	.st22{fill:#C4D2D6;}
	.st23{fill:#BFC2C4;}
	.st24{fill:#CDD2D3;}
	.st25{fill:#AEC8CE;}
	.st26{fill:#99BDC6;}
	.st27{fill:#D9DCDD;}
	.st28{font-size:48px;}
</style>
<g id="Layer_1">
	
		<linearGradient id="SVGID_1_" gradientUnits="userSpaceOnUse" x1="800" y1="-2.2059" x2="800" y2="1502" gradientTransform="matrix(1 0 0 -1 0 1502)">
		<stop  offset="0.3134" style="stop-color:#F5F3F6"/>
		<stop  offset="0.4418" style="stop-color:#F3F1F6"/>
		<stop  offset="0.4894" style="stop-color:#EBEDF3"/>
		<stop  offset="0.6312" style="stop-color:#D9E4EB"/>
		<stop  offset="0.7315" style="stop-color:#D2E1E8"/>
		<stop  offset="0.9744" style="stop-color:#D2E1E8;stop-opacity:0.9"/>
	</linearGradient>
	<rect class="st0" width="1600" height="1504.2"/>
</g>
<g id="text">
	<rect x="550" y="449.2" class="st1" width="729.4" height="115.7"/>
	<text transform="matrix(1 0 0 1 550.0146 462.4586)"><tspan x="0" y="0" class="st2 st3 st4">The UNHCR research details a painful life of isolation, exclusion and insecurity for many </tspan><tspan x="0" y="20" class="st2 st3 st4">refugee children. Of those interviewed, 29 per cent said that they have to abandon their </tspan><tspan x="0" y="40" class="st2 st3 st4">current shelter at least once a week. Through Migrationsverket you can receive information </tspan><tspan x="0" y="60" class="st2 st3 st4">of how to rent out your house to families, or give shelter to children who arrives alone. </tspan></text>
	<rect x="560.4" y="899.7" class="st1" width="694.1" height="187.2"/>
	<text transform="matrix(1 0 0 1 560.4233 913.0121)"><tspan x="0" y="0" class="st2 st3 st4">There are many existing organisations through which you can volunteer. A good way of </tspan><tspan x="0" y="20" class="st2 st3 st4">volunteering is to help newly arrived to adapt to the society. Stockholm city council are </tspan><tspan x="0" y="40" class="st2 st3 st4">creating meetings between new and established Swedes. You can volunteer as a tutor, </tspan><tspan x="0" y="60" class="st2 st3 st4">or just be there as a friend. Its a way to help people in vulnerable situations. This is also </tspan><tspan x="0" y="80" class="st2 st3 st4">done through a organisation called KompisSverige. </tspan></text>
	<rect x="552" y="671.7" class="st1" width="711.5" height="147.6"/>
	<text transform="matrix(1 0 0 1 551.9712 685.0181)"><tspan x="0" y="0" class="st2 st3 st4">When it comes to the refugee crisis, staying silent is one of the worst things you can do. </tspan><tspan x="0" y="20" class="st5 st3 st4">#swedeninwar</tspan><tspan x="115.5" y="20" class="st2 st3 st4"> is an initiative to spread awareness and knowledge online. Social media </tspan><tspan x="0" y="40" class="st2 st3 st4">generates discussions among your own communities about the issues refugees are facing. </tspan></text>
</g>
<g id="mountains">
	<polygon class="st6" points="1066.4,1500.1 721.7,1501.1 893,1087.6 	"/>
	<polygon class="st7" points="808.1,1505.4 451.6,1504.4 631,1067.3 	"/>
	<polygon class="st2" points="579.6,1506.1 229.6,1505.1 405.6,1119.1 	"/>
	<polygon class="st8" points="951,1504.4 637.3,1505.2 793.2,1092.4 	"/>
	<polygon class="st6" points="1607.4,1504.8 1057.6,1504.8 1332.4,917.2 	"/>
	<polygon class="st9" points="1206.8,1505.2 899.1,1504.3 1053.8,1215.8 	"/>
	<polygon class="st9" points="372.1,1504.6 84,1503.8 228.9,1215.2 	"/>
</g>
<g id="trees">
	<rect x="1181.6" y="1471.2" class="st10" width="9.8" height="29.8"/>
	<polygon class="st10" points="1039.7,1293.7 1047.8,1300.3 979.1,1394.3 970.9,1387.6 	"/>
	<polygon class="st10" points="880.7,1305.5 888,1297.9 967,1382.5 959.6,1390.1 	"/>
	<polygon class="st11" points="1360.7,1440 1296.8,1440 1360.7,1177.5 	"/>
	<polygon class="st12" points="1360.7,1440 1424.6,1440 1360.7,1177.5 	"/>
	<rect x="1346.1" y="1439.3" class="st10" width="27.6" height="61.7"/>
	<polygon class="st10" points="986.4,1509.1 958.7,1509.3 957.8,1285.6 985.4,1285.5 	"/>
	<polygon class="st11" points="1186.5,1471.6 1152.8,1471.6 1186.5,1333.2 	"/>
	<polygon class="st12" points="1186.5,1471.6 1220.2,1471.6 1186.5,1333.2 	"/>
	<path class="st13" d="M1104.6,1259.8c0-13.7-5.3-26-13.8-35c7.5-9,12-20.8,12-33.7c0-28.2-21.7-51.1-48.5-51.2
		c-7.3-18.6-24.7-31.7-45-31.7c-17,0-31.9,9.1-40.6,23c-8.7-13.8-23.6-22.9-40.6-22.9c-26.9,0-48.7,22.9-48.7,51.2
		c0,4.5,0.6,8.9,1.6,13.1c-19.5,6.1-33.7,25-33.7,47.5c0,8.1,1.9,15.8,5.2,22.6c-11.9,9-19.7,23.7-19.7,40.3
		c0,27.4,21.1,49.5,47.1,49.5c4,0,7.8-0.5,11.5-1.5c6.4,12.4,18.9,20.8,33.2,20.8c7.4,0,14.3-2.3,20.2-6.2
		c7.4,5.1,16.2,8.2,25.8,8.2c10.3,0,19.8-3.5,27.5-9.4c7.7,6.5,17.5,10.3,28.2,10.3c25,0,45.3-21.3,45.3-47.6
		C1090.7,1300.9,1104.6,1282.1,1104.6,1259.8z"/>
	<polygon class="st11" points="722.6,1445.2 658.7,1445.2 722.6,1182.7 	"/>
	<polygon class="st12" points="722.6,1445.2 786.5,1445.2 722.6,1182.7 	"/>
	<rect x="708" y="1444.4" class="st10" width="27.6" height="56.6"/>
	<polygon class="st11" points="547.9,1464.8 514.2,1464.8 547.9,1326.3 	"/>
	<polygon class="st12" points="547.9,1464.8 581.6,1464.8 547.9,1326.3 	"/>
	<rect x="540" y="1464.8" class="st10" width="16" height="36.2"/>
	<rect x="325.2" y="1471.2" class="st10" width="9.8" height="29.8"/>
	<polygon class="st11" points="330.1,1471.8 296.4,1471.8 330.1,1333.4 	"/>
	<polygon class="st12" points="330.1,1471.8 363.8,1471.8 330.1,1333.4 	"/>
</g>
<g id="dots">
	<path class="st14" d="M503.8,484.7c-2-43.5-36.5-80.2-83.1-80.2c-43.5,0-85.1,36.9-83.1,80.2c2,43.5,36.5,80.2,83.1,80.2
		C464.1,564.9,505.8,528,503.8,484.7z"/>
	<polygon class="st15" points="418.7,524.2 368.5,524.2 368.5,466.6 390.9,449.2 418.7,466.6 	"/>
	<rect x="418.7" y="473.5" class="st2" width="50.2" height="50.7"/>
	<polygon class="st16" points="390.9,449.2 442.4,449.2 470.8,474.1 419.2,474.1 	"/>
	<rect x="384.7" y="498.9" class="st17" width="11.8" height="24.6"/>
	<path class="st14" d="M512.8,942.2c-2-43.5-36.5-80.2-83.1-80.2c-43.5,0-85.1,36.9-83.1,80.2c2,43.5,36.5,80.2,83.1,80.2
		C473.1,1022.4,514.8,985.5,512.8,942.2z"/>
	<rect x="420.7" y="899.3" class="st18" width="9.8" height="67.4"/>
	<rect x="430.5" y="899.3" class="st19" width="9.8" height="67.4"/>
	<rect x="430.5" y="974.7" class="st19" width="9.8" height="13.7"/>
	<rect x="420.7" y="974.7" class="st18" width="9.8" height="13.7"/>
	<g>
		<path class="st14" d="M512.8,717.4c-2-43.5-36.5-80.2-83.1-80.2c-43.5,0-85.1,36.9-83.1,80.2c2,43.5,36.5,80.2,83.1,80.2
			C473.1,797.6,514.8,760.7,512.8,717.4z"/>
		<ellipse class="st16" cx="464.6" cy="664.8" rx="8.2" ry="7.9"/>
		<polygon class="st7" points="439.8,745.8 409.2,745.7 424.6,698.7 		"/>
		<polygon class="st2" points="419.9,746.2 366.6,746.1 393.4,688.2 		"/>
		<polygon class="st2" points="449.5,745.8 424.8,745.8 437.1,712.1 		"/>
		<polygon class="st2" points="497,745.5 454.8,745.5 475.9,688.5 		"/>
		<polygon class="st9" points="467.5,745.8 442.7,745.7 455.2,712.1 		"/>
	</g>
</g>
<g id="clouds_1_">
	<path class="st20" d="M1091.3,188.5h-5.4c0,0,0-3.2,0-3.7c-1.9-44.9-33.7-84-76.7-84c-25.9,0-51.2,15.6-65.3,39
		c-5.6-1.9-11.6-1.3-17.9-1.3c-26.6,0-52.2,18-59.4,50h-9.8c-20.3,0-35.2,13.5-35.2,35.4v11.8c0,21.9,14.9,38.8,35.2,38.8h234.6
		c20.3,0,36.2-16.9,36.2-38.8v-11.8C1127.5,202,1111.5,188.5,1091.3,188.5z"/>
	<path class="st21" d="M692.2,188.5h-5.4c0,0,0-2.8,0-3.3c-1.9-44.9-33.7-83.8-76.7-83.8c-25.9,0-51.2,15.7-65.3,39.1
		c-5.6-1.9-11.6-1.7-17.9-1.7c-26.6,0-52.2,18.7-59.4,49.7h-9.8c-20.3,0-35.1,14.4-35.1,36.3v11.8c0,21.9,14.9,37.9,35.1,37.9h234.6
		c20.3,0,35.3-16,35.3-37.9v-11.8C727.5,202.9,712.4,188.5,692.2,188.5z"/>
	<path class="st22" d="M433.5,154.5H423c-5.3-35-34.2-63.9-72.3-63.9c-35.6,0-69.7,28.9-72.9,63.9h-9.9c-20.3,0-36.4,16.6-36.4,36.6
		v13.1c0,19.9,16.1,36.3,36.4,36.3h165.6c20.3,0,37-16.4,37-36.3v-13.1C470.5,171.1,453.7,154.5,433.5,154.5z"/>
	<path class="st23" d="M972.6,386.1c0.7,0,0.2,0,1.5,0c1.4-0.2,3.4-0.9,3.9-1.1s1.7-0.8,1.7-0.8s0.4-0.3,1.1-0.7
		c0.7-0.5,1.4-1.1,1.4-1.1l0.8-0.7c0,0,0.9-0.8,1.1-1.1s1.2-1.6,1.2-1.6c0.5-0.6,1.4-2.7,1.4-2.7l0.3-0.9c0.4-1,0.7-2.1,0.7-2.1
		l0.3-1.5l0.1-1.6v-2.5c-0.1-1.4-0.3-2.7-0.3-2.7l-0.3-0.9c0,0-0.4-1.2-0.6-1.6c-0.2-0.4-0.9-1.8-0.9-1.8s-1.2-1.6-1.2-1.8
		c-0.1-0.2-1.2-1.4-1.2-1.4l-3-3l-4.7-4.6l-4.1-4.1v-0.1l-0.1,0.1l-0.1-0.1v0.1l-3.9,4.3l-4.5,4.8l-2.9,3.1c0,0-1,1.2-1.1,1.4
		c-0.1,0.2-1.1,1.8-1.1,1.8s-0.7,1.4-0.8,1.8c-0.1,0.4-0.5,1.6-0.5,1.6l-0.3,0.9c0,0-0.2,1.3-0.2,2.7l0.1,2.5l0.2,1.6l0.4,1.5
		c0,0,0.3,1,0.8,2l0.3,0.8c0,0,1.1,2,1.6,2.6c0,0,1,1.2,1.2,1.5s1.2,1,1.2,1l0.8,0.6c0,0,0.7,0.6,1.4,1c0.7,0.4,1.1,0.7,1.1,0.7
		s1.2,0.5,1.7,0.7s4,0.9,4,0.9"/>
	<path class="st24" d="M296.8,324.3c0.7,0,0.2,0,1.5,0c1.4-0.2,3.4-0.9,3.9-1.1s1.7-0.8,1.7-0.8s0.4-0.3,1.1-0.7s1.4-1.1,1.4-1.1
		l0.8-0.7c0,0,0.9-0.8,1.1-1.1c0.2-0.3,1.2-1.6,1.2-1.6c0.5-0.6,1.4-2.7,1.4-2.7l0.3-0.9c0.4-1,0.7-2.1,0.7-2.1l0.3-1.5l0.1-1.6
		v-2.5c-0.1-1.4-0.3-2.7-0.3-2.7l-0.3-0.9c0,0-0.4-1.2-0.6-1.6c-0.2-0.4-0.9-1.8-0.9-1.8s-1.2-1.6-1.2-1.8c0-0.2-1.2-1.4-1.2-1.4
		l-3-3l-4.7-4.6L296,284v-0.1l-0.1,0.1l-0.1-0.1v0.1l-3.9,4.3l-4.5,4.8l-2.9,3.1c0,0-1,1.2-1.1,1.4c-0.1,0.2-1.1,1.8-1.1,1.8
		s-0.7,1.4-0.8,1.8c-0.1,0.4-0.5,1.6-0.5,1.6l-0.3,0.9c0,0-0.2,1.3-0.2,2.7l0.1,2.5l0.2,1.6l0.4,1.5c0,0,0.3,1,0.8,2l0.3,0.8
		c0,0,1.1,2,1.6,2.6c0,0,1,1.2,1.2,1.5c0.2,0.3,1.2,1,1.2,1l0.8,0.6c0,0,0.7,0.6,1.4,1c0.7,0.4,1.1,0.7,1.1,0.7s1.2,0.5,1.7,0.7
		s4,0.9,4,0.9"/>
	<path class="st25" d="M508.1,338c0.6,0,0.1,0,1.3,0c1.2-0.2,2.9-0.8,3.3-1s1.4-0.8,1.4-0.8s0.4-0.2,0.9-0.7c0.6-0.5,1.1-1,1.1-1
		l0.7-0.7c0,0,0.8-0.7,0.9-1c0.2-0.3,1-1.5,1-1.5c0.4-0.6,1.2-2.6,1.2-2.6l0.2-0.8c0.3-1,0.6-2,0.6-2l0.3-1.5l0.1-1.6v-2.4
		c-0.1-1.3-0.3-2.6-0.3-2.6l-0.3-0.9c0,0-0.4-1.2-0.5-1.6c-0.1-0.4-0.8-1.7-0.8-1.7s-1-1.5-1-1.7c-0.1-0.2-1-1.3-1-1.3l-2.6-2.9
		l-4-4.4l-3.5-4v-0.1l-0.1,0.1l-0.1-0.1v0.1l-3.3,4.2l-3.7,4.6l-2.4,3c0,0-0.9,1.2-0.9,1.4c0,0.2-1,1.8-1,1.8s-0.6,1.3-0.7,1.7
		c-0.1,0.4-0.4,1.6-0.4,1.6l-0.2,0.9c0,0-0.1,1.3-0.1,2.6l0.1,2.4l0.2,1.6l0.3,1.5c0,0,0.3,1,0.7,2l0.3,0.8c0,0,0.9,1.9,1.3,2.5
		c0,0,0.8,1.2,1,1.5s1,1,1,1l0.7,0.6c0,0,0.6,0.5,1.2,1c0.6,0.4,0.9,0.6,0.9,0.6s1,0.5,1.4,0.7s3.3,0.9,3.3,0.9"/>
	<path class="st26" d="M379.2,295.7c0.6,0,0.1,0,1.3,0c1.2-0.2,2.9-0.8,3.3-1c0.4-0.2,1.4-0.8,1.4-0.8s0.4-0.2,0.9-0.7
		c0.6-0.5,1.1-1,1.1-1l0.7-0.7c0,0,0.8-0.7,0.9-1c0.2-0.3,1-1.5,1-1.5c0.4-0.6,1.2-2.6,1.2-2.6l0.2-0.8c0.3-1,0.6-2,0.6-2l0.3-1.5
		l0.1-1.6v-2.4c-0.1-1.3-0.3-2.6-0.3-2.6l-0.3-0.9c0,0-0.4-1.2-0.5-1.6c-0.1-0.4-0.8-1.7-0.8-1.7s-1-1.5-1-1.7c-0.1-0.2-1-1.3-1-1.3
		l-2.6-2.9l-4-4.4l-3.5-4v-0.1l-0.1,0.1l-0.1-0.1v0.1l-3.3,4.2l-3.7,4.6l-2.4,3c0,0-0.9,1.2-0.9,1.4c0,0.2-1,1.8-1,1.8
		s-0.6,1.3-0.7,1.7c-0.1,0.4-0.4,1.6-0.4,1.6l-0.2,0.9c0,0-0.1,1.3-0.1,2.6l0.1,2.4l0.2,1.6l0.3,1.5c0,0,0.3,1,0.7,2l0.3,0.8
		c0,0,0.9,1.9,1.3,2.5c0,0,0.8,1.2,1,1.5c0.2,0.3,1,1,1,1l0.7,0.6c0,0,0.6,0.5,1.2,1c0.6,0.4,0.9,0.6,0.9,0.6s1,0.5,1.4,0.7
		c0.4,0.2,3.3,0.9,3.3,0.9"/>
	<path class="st25" d="M1084.1,336.6c0.6,0,0.1,0,1.3,0c1.2-0.2,2.9-0.8,3.3-1c0.4-0.2,1.4-0.8,1.4-0.8s0.4-0.2,0.9-0.7s1.1-1,1.1-1
		l0.7-0.7c0,0,0.8-0.7,1-1c0.2-0.3,1-1.5,1-1.5c0.4-0.6,1.2-2.6,1.2-2.6l0.2-0.8c0.3-1,0.6-2,0.6-2l0.3-1.5l0.1-1.6V319
		c-0.1-1.3-0.3-2.6-0.3-2.6l-0.3-0.9c0,0-0.4-1.2-0.5-1.6s-0.8-1.7-0.8-1.7s-1-1.5-1-1.7c-0.1-0.2-1-1.3-1-1.3l-2.6-2.9l-4-4.4
		l-3.5-4v-0.1l-0.1,0.1l-0.1-0.1v0.1l-3.3,4.2l-3.7,4.6l-2.4,3c0,0-0.9,1.2-0.9,1.4s-1,1.8-1,1.8s-0.6,1.3-0.7,1.7
		c-0.1,0.4-0.4,1.6-0.4,1.6l-0.2,0.9c0,0-0.1,1.3-0.1,2.6l0.1,2.4l0.2,1.6l0.3,1.5c0,0,0.3,1,0.7,2l0.3,0.8c0,0,0.9,1.9,1.3,2.5
		c0,0,0.8,1.2,1,1.5c0.2,0.3,1,1,1,1l0.7,0.6c0,0,0.6,0.5,1.2,1c0.6,0.4,0.9,0.6,0.9,0.6s1,0.5,1.4,0.7s3.3,0.9,3.3,0.9"/>
	<path class="st22" d="M1302.5,155.5H1292c-5.3-33-34.2-63.9-72.3-63.9c-35.6,0-69.7,30.9-72.9,63.9h-9.9
		c-20.3,0-37.3,16.9-37.3,36.9v13.1c0,19.9,17,39,37.3,39h165.6c20.3,0,38.1-19.1,38.1-39v-13.1
		C1340.6,172.4,1322.7,155.5,1302.5,155.5z"/>
	<path class="st24" d="M774.7,305.6c0.7,0,0.2,0,1.5,0c1.4-0.2,3.4-0.9,3.9-1.1c0.5-0.2,1.7-0.8,1.7-0.8s0.4-0.3,1.1-0.7
		c0.7-0.5,1.4-1.1,1.4-1.1l0.8-0.7c0,0,0.9-0.8,1.1-1.1c0.2-0.3,1.2-1.6,1.2-1.6c0.5-0.6,1.4-2.7,1.4-2.7l0.3-0.9
		c0.4-1,0.7-2.1,0.7-2.1l0.3-1.5l0.1-1.6v-2.5c-0.1-1.4-0.3-2.7-0.3-2.7l-0.4-0.9c0,0-0.4-1.2-0.6-1.6c-0.2-0.4-0.9-1.8-0.9-1.8
		s-1.2-1.6-1.2-1.8c-0.1-0.2-1.2-1.4-1.2-1.4l-3-3l-4.7-4.6l-4.1-4.1v-0.1l-0.1,0.1l-0.1-0.1v0.1l-3.9,4.3l-4.5,4.8l-2.9,3.1
		c0,0-1,1.2-1.1,1.4c-0.1,0.2-1.1,1.8-1.1,1.8s-0.7,1.4-0.8,1.8c-0.1,0.4-0.5,1.6-0.5,1.6l-0.3,0.9c0,0-0.2,1.3-0.2,2.7l0.1,2.5
		l0.2,1.6l0.4,1.5c0,0,0.3,1,0.8,2l0.3,0.8c0,0,1.1,2,1.6,2.6c0,0,1,1.2,1.2,1.5c0.2,0.3,1.2,1,1.2,1l0.8,0.6c0,0,0.7,0.6,1.4,1
		s1.1,0.7,1.1,0.7s1.2,0.5,1.7,0.7c0.5,0.2,4,0.9,4,0.9"/>
	<path class="st26" d="M881.6,357.5c0.6,0,0.1,0,1.3,0c1.2-0.2,2.9-0.8,3.3-1s1.4-0.8,1.4-0.8s0.4-0.2,0.9-0.7c0.6-0.5,1.1-1,1.1-1
		l0.7-0.7c0,0,0.8-0.7,0.9-1c0.2-0.3,1-1.5,1-1.5c0.4-0.6,1.2-2.6,1.2-2.6l0.2-0.8c0.3-1,0.6-2,0.6-2l0.3-1.5l0.1-1.6v-2.4
		c-0.1-1.3-0.3-2.6-0.3-2.6l-0.3-0.9c0,0-0.4-1.2-0.5-1.6c-0.1-0.4-0.8-1.7-0.8-1.7s-1-1.5-1-1.7c-0.1-0.2-1-1.3-1-1.3l-2.6-2.9
		l-4-4.4l-3.5-4v-0.1l-0.1,0.1l-0.1-0.1v0.1l-3.3,4.2l-3.7,4.6l-2.4,3c0,0-0.9,1.2-0.9,1.4c0,0.2-1,1.8-1,1.8s-0.6,1.3-0.7,1.7
		s-0.4,1.6-0.4,1.6l-0.2,0.9c0,0-0.1,1.3-0.1,2.6l0.1,2.4l0.2,1.6l0.3,1.5c0,0,0.3,1,0.7,2l0.3,0.8c0,0,0.9,1.9,1.3,2.5
		c0,0,0.8,1.2,1,1.5c0.2,0.3,1,1,1,1l0.7,0.6c0,0,0.6,0.5,1.2,1s0.9,0.6,0.9,0.6s1,0.5,1.4,0.7s3.3,0.9,3.3,0.9"/>
	<path class="st23" d="M646.5,345.6c0.7,0,0.2,0,1.5,0c1.4-0.2,3.4-0.9,3.9-1.1s1.7-0.8,1.7-0.8s0.4-0.3,1.1-0.7s1.4-1.1,1.4-1.1
		l0.8-0.7c0,0,0.9-0.8,1.1-1.1c0.2-0.3,1.2-1.6,1.2-1.6c0.5-0.6,1.4-2.7,1.4-2.7l0.3-0.9c0.4-1,0.7-2.1,0.7-2.1l0.3-1.5l0.1-1.6
		v-2.5c-0.1-1.4-0.3-2.7-0.3-2.7l-0.3-0.9c0,0-0.4-1.2-0.6-1.6s-0.9-1.8-0.9-1.8s-1.2-1.6-1.2-1.8c0-0.2-1.2-1.4-1.2-1.4l-3-3
		l-4.7-4.6l-4.1-4.1v-0.1l-0.1,0.1l-0.1-0.1v0.1l-3.9,4.3l-4.5,4.8l-2.9,3.1c0,0-1,1.2-1.1,1.4c-0.1,0.2-1.1,1.8-1.1,1.8
		s-0.7,1.4-0.8,1.8s-0.5,1.6-0.5,1.6l-0.3,0.9c0,0-0.2,1.3-0.2,2.7l0.1,2.5l0.2,1.6l0.4,1.5c0,0,0.3,1,0.8,2l0.3,0.8
		c0,0,1.1,2,1.6,2.6c0,0,1,1.2,1.2,1.5s1.2,1,1.2,1l0.8,0.6c0,0,0.7,0.6,1.4,1s1.1,0.7,1.1,0.7s1.2,0.5,1.7,0.7s4,0.9,4,0.9"/>
	<path class="st27" d="M890.7,164.5h-5.4c0,0,0-1.9,0-2.4c-1.9-45-33.8-83.4-76.8-83.4c-25.9,0-51.2,15.9-65.3,39.3
		c-5.6-1.9-11.6-2.4-17.9-2.4c-26.6,0-52.2,18.9-59.4,48.9h-9.8c-20.3,0-35.6,16.1-35.6,38v11.8c0,21.9,15.3,37.2,35.6,37.2h234.6
		c20.3,0,35.8-15.3,35.8-37.2v-11.8C926.5,180.6,910.9,164.5,890.7,164.5z"/>
	<path class="st25" d="M1297.3,303.2c0.6,0,0.1,0,1.3,0c1.2-0.2,2.9-0.8,3.3-1c0.4-0.2,1.4-0.8,1.4-0.8s0.4-0.2,0.9-0.7
		c0.6-0.5,1.1-1,1.1-1l0.7-0.7c0,0,0.8-0.7,0.9-1c0.2-0.3,1-1.5,1-1.5c0.4-0.6,1.2-2.6,1.2-2.6l0.2-0.8c0.3-1,0.6-2,0.6-2l0.3-1.5
		l0.1-1.6v-2.4c-0.1-1.3-0.3-2.6-0.3-2.6l-0.3-0.9c0,0-0.4-1.2-0.5-1.6s-0.8-1.7-0.8-1.7s-1-1.5-1.1-1.7c-0.1-0.2-1-1.3-1-1.3
		l-2.6-2.9l-4-4.4l-3.5-4v-0.1l-0.1,0.1l-0.1-0.1v0.1l-3.3,4.2l-3.7,4.6l-2.4,3c0,0-0.9,1.2-0.9,1.4c-0.1,0.2-1,1.8-1,1.8
		s-0.6,1.3-0.7,1.7s-0.4,1.6-0.4,1.6l-0.2,0.9c0,0-0.1,1.3-0.1,2.6l0.1,2.4l0.2,1.6l0.3,1.5c0,0,0.3,1,0.7,2l0.3,0.8
		c0,0,0.9,1.9,1.3,2.5c0,0,0.8,1.2,1,1.5c0.2,0.3,1,1,1,1l0.7,0.6c0,0,0.6,0.5,1.2,1c0.6,0.4,0.9,0.6,0.9,0.6s1,0.5,1.4,0.7
		c0.4,0.2,3.3,0.9,3.3,0.9"/>
	<path class="st24" d="M1196.9,345.5c0.7,0,0.2,0,1.5,0c1.4-0.2,3.4-0.9,3.9-1.1s1.7-0.8,1.7-0.8s0.4-0.3,1.1-0.7
		c0.7-0.5,1.4-1.1,1.4-1.1l0.8-0.7c0,0,0.9-0.8,1.1-1.1c0.2-0.3,1.2-1.6,1.2-1.6c0.5-0.6,1.4-2.7,1.4-2.7l0.3-0.9
		c0.4-1,0.7-2.1,0.7-2.1l0.3-1.5l0.1-1.6v-2.5c-0.1-1.4-0.3-2.7-0.3-2.7l-0.4-0.9c0,0-0.4-1.2-0.6-1.6c-0.2-0.4-0.9-1.8-0.9-1.8
		s-1.2-1.6-1.2-1.8c-0.1-0.2-1.2-1.4-1.2-1.4l-3-3l-4.7-4.6l-4.1-4.1v-0.1l-0.1,0.1l-0.1-0.1v0.1l-3.9,4.3l-4.5,4.8l-2.9,3.1
		c0,0-1,1.2-1.1,1.4c-0.1,0.2-1.1,1.8-1.1,1.8s-0.7,1.4-0.8,1.8c-0.1,0.4-0.5,1.6-0.5,1.6l-0.3,0.9c0,0-0.2,1.3-0.2,2.7l0.1,2.5
		l0.2,1.6l0.4,1.5c0,0,0.3,1,0.8,2l0.3,0.8c0,0,1.1,2,1.6,2.6c0,0,1,1.2,1.2,1.5c0.2,0.3,1.2,1,1.2,1l0.8,0.6c0,0,0.7,0.6,1.4,1
		c0.7,0.4,1.1,0.7,1.1,0.7s1.2,0.5,1.7,0.7c0.5,0.2,4,0.9,4,0.9"/>
	<text transform="matrix(1 0 0 1 465.8217 215.0942)" class="st2 st3 st28">THIS IS HOW YOU CAN HELP</text>
</g>
</svg>
