<?xml version="1.0" encoding="utf-8"?>
<!-- Generator: Adobe Illustrator 19.1.0, SVG Export Plug-In . SVG Version: 6.00 Build 0)  -->
<svg version="1.1" xmlns="http://www.w3.org/2000/svg" xmlns:xlink="http://www.w3.org/1999/xlink" x="0px" y="0px"
	 viewBox="0 0 1601 1471.3" style="enable-background:new 0 0 1601 1471.3;" xml:space="preserve">
<style type="text/css">
	.st0{fill:none;}
	.st1{fill:none;stroke:#231F20;stroke-linecap:round;stroke-miterlimit:10;stroke-dasharray:0.1,3,0.1,3,0.1,6;}
	.st2{fill:url(#SVGID_1_);}
	.st3{fill:url(#Circle_Lines);fill-opacity:0.1;}
	.st4{fill:#AAAFAF;}
	.st5{fill:#D6D0D0;}
	.st6{fill:#828282;}
	.st7{fill:#999999;}
	.st8{fill:#AEA2A2;}
	.st9{fill:#A6D2E2;}
	.st10{fill:#B8DBE8;}
	.st11{fill:#C4D2D6;}
	.st12{fill:#BFC2C4;}
	.st13{fill:#CDD2D3;}
	.st14{fill:#AEC8CE;}
	.st15{fill:#99BDC6;}
	.st16{fill:#D9DCDD;}
	.st17{fill:#62685D;}
	.st18{fill:#769995;}
	.st19{opacity:0.72;fill:#769995;}
	.st20{fill:#9AA8A6;}
	.st21{fill:#C1C1C1;}
	.st22{fill:#B7D9E5;}
	.st23{fill:#DE8400;}
	.st24{opacity:0.57;fill:#828282;}
	.st25{fill:#C5E2EF;}
	.st26{fill:#2D2D2D;}
	.st27{font-family:'Lato-Bold';}
	.st28{font-size:40px;}
</style>
<pattern  y="352.9" width="85.5" height="93" patternUnits="userSpaceOnUse" id="Circle_Lines" viewBox="86 -93 85.5 93" style="overflow:visible;">
	<g>
		<polygon class="st0" points="86,-93 171.5,-93 171.5,0 86,0 		"/>
		<g>
			<path class="st1" d="M171.5-89.3c19.3-0.7,40.5-0.7,69,0.3c4.3,0.2,11.3-0.3,16.5-0.3"/>
			<path class="st1" d="M171.5-82.4c24.5-2.6,45.7,1.2,63-0.6c3.7-0.4,12.8,0.5,22.5,0.6"/>
			<path class="st1" d="M171.5-75.5c21.5-1.5,27.3,1.4,59-1.2c9-0.8,23.5,1.4,26.5,1.2"/>
			<path class="st1" d="M171.5-70.1c14.4,0.7,30.7,2.3,49.6,0.4c9.8-1,22.6-0.1,35.9-0.4"/>
			<path class="st1" d="M171.5-56.3c18.1-0.3,22.3-1.9,56-0.2c14.8,0.8,22.5,1,29.5,0.2"/>
			<path class="st1" d="M171.5-50.1c12.8,0.5,24.5-1.4,45.6,0.1c16.5,1.2,29.9-1.4,39.9-0.1"/>
			<path class="st1" d="M171.5-36.6c20.5-0.4,17.5-0.7,45,0.1c31.5,1,40-0.1,40.5-0.1"/>
			<path class="st1" d="M171.5-29.3c20.9-0.3,17.6,1,50.2-0.9c2.1-0.1,26.2,2.2,35.3,0.9"/>
			<path class="st1" d="M171.5-24.1c14.3,1,32,1.6,50.6,0.7c9.5-0.5,20.4,0.4,34.9-0.7"/>
			<path class="st1" d="M171.5-17.1c20.9,0.5,52.5-0.4,73.5,0.3c1.4,0.1,10.5-0.3,12-0.3"/>
			<path class="st1" d="M171.5-9.6c30-1.9,65,1.1,79.5,0.1c1.8-0.1,4.1,0,6-0.1"/>
			<path class="st1" d="M171.5-3.5c10.7,0.2,21.5-1.1,38.5,0c24,1.5,41.8,0.1,47,0"/>
			<path class="st1" d="M171.5-42.7c22.1-0.6,46.5-1.8,57.7-0.8c13.8,1.2,26.9,0.8,27.8,0.8"/>
			<path class="st1" d="M171.5-63.3c18.1-0.3,22-1.2,46-0.2c21.5,0.9,30.5,1,39.5,0.2"/>
		</g>
		<g>
			<path class="st1" d="M86-89.3c19.3-0.7,40.5-0.7,69,0.3c4.3,0.2,11.3-0.3,16.5-0.3"/>
			<path class="st1" d="M86-82.4c24.5-2.6,45.7,1.2,63-0.6c3.7-0.4,12.8,0.5,22.5,0.6"/>
			<path class="st1" d="M86-75.5c21.5-1.5,27.3,1.4,59-1.2c9-0.8,23.5,1.4,26.5,1.2"/>
			<path class="st1" d="M86-70.1c14.4,0.7,30.7,2.3,49.6,0.4c9.8-1,22.6-0.1,35.9-0.4"/>
			<path class="st1" d="M86-56.3c18.1-0.3,22.3-1.9,56-0.2c14.8,0.8,22.5,1,29.5,0.2"/>
			<path class="st1" d="M86-50.1c12.8,0.5,24.5-1.4,45.6,0.1c16.5,1.2,29.9-1.4,39.9-0.1"/>
			<path class="st1" d="M86-36.6c20.5-0.4,17.5-0.7,45,0.1c31.5,1,40-0.1,40.5-0.1"/>
			<path class="st1" d="M86-29.3c20.9-0.3,17.6,1,50.2-0.9c2.1-0.1,26.2,2.2,35.3,0.9"/>
			<path class="st1" d="M86-24.1c14.3,1,32,1.6,50.6,0.7c9.5-0.5,20.4,0.4,34.9-0.7"/>
			<path class="st1" d="M86-17.1c20.9,0.5,52.5-0.4,73.5,0.3c1.4,0.1,10.5-0.3,12-0.3"/>
			<path class="st1" d="M86-9.6c30-1.9,65,1.1,79.5,0.1c1.8-0.1,4.1,0,6-0.1"/>
			<path class="st1" d="M86-3.5c10.7,0.2,21.5-1.1,38.5,0c24,1.5,41.8,0.1,47,0"/>
			<path class="st1" d="M86-42.7c22.1-0.6,46.5-1.8,57.7-0.8c13.8,1.2,26.9,0.8,27.8,0.8"/>
			<path class="st1" d="M86-63.3c18.1-0.3,22-1.2,46-0.2c21.5,0.9,30.5,1,39.5,0.2"/>
		</g>
		<g>
			<path class="st1" d="M0.5-89.3C19.8-90,41-90,69.5-89c4.3,0.2,11.3-0.3,16.5-0.3"/>
			<path class="st1" d="M0.5-82.4C25-85,46.2-81.2,63.5-83c3.7-0.4,12.8,0.5,22.5,0.6"/>
			<path class="st1" d="M0.5-75.5c21.5-1.5,27.3,1.4,59-1.2c9-0.8,23.5,1.4,26.5,1.2"/>
			<path class="st1" d="M0.5-70.1c14.4,0.7,30.7,2.3,49.6,0.4c9.8-1,22.6-0.1,35.9-0.4"/>
			<path class="st1" d="M0.5-56.3c18.1-0.3,22.3-1.9,56-0.2c14.8,0.8,22.5,1,29.5,0.2"/>
			<path class="st1" d="M0.5-50.1c12.8,0.5,24.5-1.4,45.6,0.1c16.5,1.2,29.9-1.4,39.9-0.1"/>
			<path class="st1" d="M0.5-36.6C21-37,18-37.4,45.5-36.5c31.5,1,40-0.1,40.5-0.1"/>
			<path class="st1" d="M0.5-29.3c20.9-0.3,17.6,1,50.2-0.9C52.8-30.4,77-28,86-29.3"/>
			<path class="st1" d="M0.5-24.1c14.3,1,32,1.6,50.6,0.7c9.5-0.5,20.4,0.4,34.9-0.7"/>
			<path class="st1" d="M0.5-17.1C21.4-16.6,53-17.5,74-16.8c1.4,0.1,10.5-0.3,12-0.3"/>
			<path class="st1" d="M0.5-9.6c30-1.9,65,1.1,79.5,0.1c1.8-0.1,4.1,0,6-0.1"/>
			<path class="st1" d="M0.5-3.5C11.2-3.3,22-4.6,39-3.5c24,1.5,41.8,0.1,47,0"/>
			<path class="st1" d="M0.5-42.7c22.1-0.6,46.5-1.8,57.7-0.8c13.8,1.2,26.9,0.8,27.8,0.8"/>
			<path class="st1" d="M0.5-63.3c18.1-0.3,22-1.2,46-0.2C68-62.6,77-62.5,86-63.3"/>
		</g>
	</g>
</pattern>
<g id="background">
	<linearGradient id="SVGID_1_" gradientUnits="userSpaceOnUse" x1="800" y1="1469.15" x2="800" y2="-3.591686e-08">
		<stop  offset="0.3134" style="stop-color:#F5F3F6"/>
		<stop  offset="0.4418" style="stop-color:#F3F1F6"/>
		<stop  offset="0.4894" style="stop-color:#EBEDF3"/>
		<stop  offset="0.6312" style="stop-color:#D9E4EB"/>
		<stop  offset="0.7315" style="stop-color:#D2E1E8"/>
		<stop  offset="0.9744" style="stop-color:#D2E1E8;stop-opacity:0.9"/>
	</linearGradient>
	<rect class="st2" width="1600" height="1469.2"/>
	<rect x="1" y="295.9" class="st3" width="1600" height="1182.3"/>
</g>
<g id="mountains">
	<polygon class="st4" points="1138.5,1467 793.8,1467.9 965.1,1054.5 	"/>
	<polygon class="st5" points="880.2,1472.3 523.7,1471.3 703.1,1034.2 	"/>
	<polygon class="st6" points="651.7,1472.9 301.7,1472 477.7,1085.9 	"/>
	<polygon class="st7" points="1023.1,1471.3 709.4,1472.1 865.3,1059.3 	"/>
	<polygon class="st4" points="1679.5,1471.6 1129.7,1471.7 1404.5,884.1 	"/>
	<polygon class="st8" points="1278.9,1472.1 971.2,1471.2 1125.9,1182.6 	"/>
	<polygon class="st8" points="444.2,1471.5 156.1,1470.7 301,1182.1 	"/>
</g>
<g id="clouds">
	<path class="st9" d="M1122.8,124.9h-5.4c0,0,0-3.2,0-3.7c-1.9-44.9-33.7-84-76.7-84c-25.9,0-51.2,15.6-65.3,39
		c-5.6-1.9-11.6-1.3-17.9-1.3c-26.6,0-52.2,18-59.4,50h-9.8c-20.3,0-35.2,13.5-35.2,35.4v11.8c0,21.9,14.9,38.8,35.2,38.8h234.6
		c20.3,0,36.2-16.9,36.2-38.8v-11.8C1159,138.4,1143,124.9,1122.8,124.9z"/>
	<path class="st10" d="M723.7,124.9h-5.4c0,0,0-2.8,0-3.3c-1.9-44.9-33.7-83.8-76.7-83.8c-25.9,0-51.2,15.7-65.3,39.1
		c-5.6-1.9-11.6-1.7-17.9-1.7c-26.6,0-52.2,18.7-59.4,49.7h-9.8c-20.3,0-35.1,14.4-35.1,36.3V173c0,21.9,14.9,37.9,35.1,37.9h234.6
		c20.3,0,35.3-16,35.3-37.9v-11.8C759,139.3,743.9,124.9,723.7,124.9z"/>
	<path class="st11" d="M465,90.9h-10.5c-5.3-35-34.2-63.9-72.3-63.9c-35.6,0-69.7,28.9-72.9,63.9h-9.9c-20.3,0-36.4,16.6-36.4,36.6
		v13.1c0,19.9,16.1,36.3,36.4,36.3H465c20.3,0,37-16.4,37-36.3v-13.1C502,107.5,485.2,90.9,465,90.9z"/>
	<path class="st12" d="M1102,267c0.7,0,0.2,0,1.5,0c1.4-0.2,3.4-0.9,3.9-1.1c0.5-0.2,1.7-0.8,1.7-0.8s0.4-0.3,1.1-0.7
		c0.7-0.5,1.4-1.1,1.4-1.1l0.8-0.7c0,0,0.9-0.8,1.1-1.1s1.2-1.6,1.2-1.6c0.5-0.6,1.4-2.7,1.4-2.7l0.3-0.9c0.4-1,0.7-2.1,0.7-2.1
		l0.3-1.5l0.1-1.6l0-2.5c-0.1-1.4-0.3-2.7-0.3-2.7l-0.3-0.9c0,0-0.4-1.2-0.6-1.6c-0.2-0.4-0.9-1.8-0.9-1.8s-1.2-1.6-1.2-1.8
		c-0.1-0.2-1.2-1.4-1.2-1.4l-3-3l-4.7-4.6l-4.1-4.1l0-0.1l-0.1,0.1l-0.1-0.1l0,0.1l-3.9,4.3l-4.5,4.8l-2.9,3.1c0,0-1,1.2-1.1,1.4
		c-0.1,0.2-1.1,1.8-1.1,1.8s-0.7,1.4-0.8,1.8c-0.1,0.4-0.5,1.6-0.5,1.6l-0.3,0.9c0,0-0.2,1.3-0.2,2.7l0.1,2.5l0.2,1.6l0.4,1.5
		c0,0,0.3,1,0.8,2l0.3,0.8c0,0,1.1,2,1.6,2.6c0,0,1,1.2,1.2,1.5c0.2,0.3,1.2,1,1.2,1l0.8,0.6c0,0,0.7,0.6,1.4,1
		c0.7,0.4,1.1,0.7,1.1,0.7s1.2,0.5,1.7,0.7c0.5,0.2,4,0.9,4,0.9"/>
	<path class="st13" d="M328.3,260.7c0.7,0,0.2,0,1.5,0c1.4-0.2,3.4-0.9,3.9-1.1c0.5-0.2,1.7-0.8,1.7-0.8s0.4-0.3,1.1-0.7
		s1.4-1.1,1.4-1.1l0.8-0.7c0,0,0.9-0.8,1.1-1.1c0.2-0.3,1.2-1.6,1.2-1.6c0.5-0.6,1.4-2.7,1.4-2.7l0.3-0.9c0.4-1,0.7-2.1,0.7-2.1
		l0.3-1.5l0.1-1.6l0-2.5c-0.1-1.4-0.3-2.7-0.3-2.7l-0.3-0.9c0,0-0.4-1.2-0.6-1.6c-0.2-0.4-0.9-1.8-0.9-1.8s-1.2-1.6-1.2-1.8
		s-1.2-1.4-1.2-1.4l-3-3l-4.7-4.6l-4.1-4.1l0-0.1l-0.1,0.1l-0.1-0.1l0,0.1l-3.9,4.3l-4.5,4.8l-2.9,3.1c0,0-1,1.2-1.1,1.4
		c-0.1,0.2-1.1,1.8-1.1,1.8s-0.7,1.4-0.8,1.8s-0.5,1.6-0.5,1.6l-0.3,0.9c0,0-0.2,1.3-0.2,2.7l0.1,2.5l0.2,1.6l0.4,1.5
		c0,0,0.3,1,0.8,2l0.3,0.8c0,0,1.1,2,1.6,2.6c0,0,1,1.2,1.2,1.5c0.2,0.3,1.2,1,1.2,1l0.8,0.6c0,0,0.7,0.6,1.4,1
		c0.7,0.4,1.1,0.7,1.1,0.7s1.2,0.5,1.7,0.7c0.5,0.2,4,0.9,4,0.9"/>
	<path class="st14" d="M539.6,274.4c0.6,0,0.1,0,1.3,0c1.2-0.2,2.9-0.8,3.3-1s1.4-0.8,1.4-0.8s0.4-0.2,0.9-0.7c0.6-0.5,1.1-1,1.1-1
		l0.7-0.7c0,0,0.8-0.7,0.9-1c0.2-0.3,1-1.5,1-1.5c0.4-0.6,1.2-2.6,1.2-2.6l0.2-0.8c0.3-1,0.6-2,0.6-2l0.3-1.5l0.1-1.6l0-2.4
		c-0.1-1.3-0.3-2.6-0.3-2.6l-0.3-0.9c0,0-0.4-1.2-0.5-1.6s-0.8-1.7-0.8-1.7s-1-1.5-1-1.7c-0.1-0.2-1-1.3-1-1.3l-2.6-2.9l-4-4.4
		l-3.5-4l0-0.1l-0.1,0.1l-0.1-0.1l0,0.1l-3.3,4.2l-3.7,4.6l-2.4,3c0,0-0.9,1.2-0.9,1.4s-1,1.8-1,1.8s-0.6,1.3-0.7,1.7
		c-0.1,0.4-0.4,1.6-0.4,1.6l-0.2,0.9c0,0-0.1,1.3-0.1,2.6l0.1,2.4l0.2,1.6l0.3,1.5c0,0,0.3,1,0.7,2l0.3,0.8c0,0,0.9,1.9,1.3,2.5
		c0,0,0.8,1.2,1,1.5c0.2,0.3,1,1,1,1l0.7,0.6c0,0,0.6,0.5,1.2,1c0.6,0.4,0.9,0.6,0.9,0.6s1,0.5,1.4,0.7c0.4,0.2,3.3,0.9,3.3,0.9"/>
	<path class="st15" d="M410.7,232.1c0.6,0,0.1,0,1.3,0c1.2-0.2,2.9-0.8,3.3-1c0.4-0.2,1.4-0.8,1.4-0.8s0.4-0.2,0.9-0.7
		c0.6-0.5,1.1-1,1.1-1l0.7-0.7c0,0,0.8-0.7,0.9-1c0.2-0.3,1-1.5,1-1.5c0.4-0.6,1.2-2.6,1.2-2.6l0.2-0.8c0.3-1,0.6-2,0.6-2l0.3-1.5
		l0.1-1.6l0-2.4c-0.1-1.3-0.3-2.6-0.3-2.6l-0.3-0.9c0,0-0.4-1.2-0.5-1.6c-0.1-0.4-0.8-1.7-0.8-1.7s-1-1.5-1-1.7
		c-0.1-0.2-1-1.3-1-1.3l-2.6-2.9l-4-4.4l-3.5-4l0-0.1l-0.1,0.1l-0.1-0.1l0,0.1l-3.3,4.2l-3.7,4.6l-2.4,3c0,0-0.9,1.2-0.9,1.4
		s-1,1.8-1,1.8s-0.6,1.3-0.7,1.7c-0.1,0.4-0.4,1.6-0.4,1.6l-0.2,0.9c0,0-0.1,1.3-0.1,2.6l0.1,2.4l0.2,1.6l0.3,1.5c0,0,0.3,1,0.7,2
		l0.3,0.8c0,0,0.9,1.9,1.3,2.5c0,0,0.8,1.2,1,1.5c0.2,0.3,1,1,1,1l0.7,0.6c0,0,0.6,0.5,1.2,1c0.6,0.4,0.9,0.6,0.9,0.6s1,0.5,1.4,0.7
		s3.3,0.9,3.3,0.9"/>
	<path class="st14" d="M939.6,286c0.6,0,0.1,0,1.3,0c1.2-0.2,2.9-0.8,3.3-1c0.4-0.2,1.4-0.8,1.4-0.8s0.4-0.2,0.9-0.7s1.1-1,1.1-1
		l0.7-0.7c0,0,0.8-0.7,1-1s1-1.5,1-1.5c0.4-0.6,1.2-2.6,1.2-2.6l0.2-0.8c0.3-1,0.6-2,0.6-2l0.3-1.5l0.1-1.6l0-2.4
		c-0.1-1.3-0.3-2.6-0.3-2.6l-0.3-0.9c0,0-0.4-1.2-0.5-1.6c-0.1-0.4-0.8-1.7-0.8-1.7s-1-1.5-1-1.7c-0.1-0.2-1-1.3-1-1.3l-2.6-2.9
		l-4-4.4l-3.5-4l0-0.1l-0.1,0.1l-0.1-0.1l0,0.1l-3.3,4.2l-3.7,4.6l-2.4,3c0,0-0.9,1.2-0.9,1.4s-1,1.8-1,1.8s-0.6,1.3-0.7,1.7
		s-0.4,1.6-0.4,1.6l-0.2,0.9c0,0-0.1,1.3-0.1,2.6l0.1,2.4l0.2,1.6l0.3,1.5c0,0,0.3,1,0.7,2l0.3,0.8c0,0,0.9,1.9,1.3,2.5
		c0,0,0.8,1.2,1,1.5c0.2,0.3,1,1,1,1l0.7,0.6c0,0,0.6,0.5,1.2,1c0.6,0.4,0.9,0.6,0.9,0.6s1,0.5,1.4,0.7c0.4,0.2,3.3,0.9,3.3,0.9"/>
	<path class="st11" d="M1361.9,91.9h-10.5c-5.3-33-34.2-63.9-72.3-63.9c-35.6,0-69.7,30.9-72.9,63.9h-9.9
		c-20.3,0-37.3,16.9-37.3,36.9v13.1c0,19.9,17,39,37.3,39h165.6c20.3,0,38.1-19.1,38.1-39v-13.1C1400,108.8,1382.1,91.9,1361.9,91.9
		z"/>
	<path class="st13" d="M806.2,242c0.7,0,0.2,0,1.5,0c1.4-0.2,3.4-0.9,3.9-1.1c0.5-0.2,1.7-0.8,1.7-0.8s0.4-0.3,1.1-0.7
		c0.7-0.5,1.4-1.1,1.4-1.1l0.8-0.7c0,0,0.9-0.8,1.1-1.1c0.2-0.3,1.2-1.6,1.2-1.6c0.5-0.6,1.4-2.7,1.4-2.7l0.3-0.9
		c0.4-1,0.7-2.1,0.7-2.1l0.3-1.5l0.1-1.6l0-2.5c-0.1-1.4-0.3-2.7-0.3-2.7L821,220c0,0-0.4-1.2-0.6-1.6c-0.2-0.4-0.9-1.8-0.9-1.8
		s-1.2-1.6-1.2-1.8c-0.1-0.2-1.2-1.4-1.2-1.4l-3-3l-4.7-4.6l-4.1-4.1l0-0.1l-0.1,0.1l-0.1-0.1l0,0.1l-3.9,4.3l-4.5,4.8l-2.9,3.1
		c0,0-1,1.2-1.1,1.4s-1.1,1.8-1.1,1.8s-0.7,1.4-0.8,1.8s-0.5,1.6-0.5,1.6l-0.3,0.9c0,0-0.2,1.3-0.2,2.7l0.1,2.5l0.2,1.6l0.4,1.5
		c0,0,0.3,1,0.8,2l0.3,0.8c0,0,1.1,2,1.6,2.6c0,0,1,1.2,1.2,1.5c0.2,0.3,1.2,1,1.2,1l0.8,0.6c0,0,0.7,0.6,1.4,1
		c0.7,0.4,1.1,0.7,1.1,0.7s1.2,0.5,1.7,0.7s4,0.9,4,0.9"/>
	<path class="st15" d="M1238.6,260.4c0.6,0,0.1,0,1.3,0c1.2-0.2,2.9-0.8,3.3-1c0.4-0.2,1.4-0.8,1.4-0.8s0.4-0.2,0.9-0.7
		c0.6-0.5,1.1-1,1.1-1l0.7-0.7c0,0,0.8-0.7,0.9-1c0.2-0.3,1-1.5,1-1.5c0.4-0.6,1.2-2.6,1.2-2.6l0.2-0.8c0.3-1,0.6-2,0.6-2l0.3-1.5
		l0.1-1.6l0-2.4c-0.1-1.3-0.3-2.6-0.3-2.6l-0.3-0.9c0,0-0.4-1.2-0.5-1.6c-0.1-0.4-0.8-1.7-0.8-1.7s-1-1.5-1-1.7
		c-0.1-0.2-1-1.3-1-1.3l-2.6-2.9l-4-4.4l-3.5-4l0-0.1l-0.1,0.1l-0.1-0.1l0,0.1l-3.3,4.2l-3.7,4.6l-2.4,3c0,0-0.9,1.2-0.9,1.4
		s-1,1.8-1,1.8s-0.6,1.3-0.7,1.7s-0.4,1.6-0.4,1.6l-0.2,0.9c0,0-0.1,1.3-0.1,2.6l0.1,2.4l0.2,1.6l0.3,1.5c0,0,0.3,1,0.7,2l0.3,0.8
		c0,0,0.9,1.9,1.3,2.5c0,0,0.8,1.2,1,1.5c0.2,0.3,1,1,1,1l0.7,0.6c0,0,0.6,0.5,1.2,1s0.9,0.6,0.9,0.6s1,0.5,1.4,0.7s3.3,0.9,3.3,0.9
		"/>
	<path class="st12" d="M678,282c0.7,0,0.2,0,1.5,0c1.4-0.2,3.4-0.9,3.9-1.1c0.5-0.2,1.7-0.8,1.7-0.8s0.4-0.3,1.1-0.7
		s1.4-1.1,1.4-1.1l0.8-0.7c0,0,0.9-0.8,1.1-1.1c0.2-0.3,1.2-1.6,1.2-1.6c0.5-0.6,1.4-2.7,1.4-2.7l0.3-0.9c0.4-1,0.7-2.1,0.7-2.1
		l0.3-1.5l0.1-1.6l0-2.5c-0.1-1.4-0.3-2.7-0.3-2.7l-0.3-0.9c0,0-0.4-1.2-0.6-1.6s-0.9-1.8-0.9-1.8s-1.2-1.6-1.2-1.8
		s-1.2-1.4-1.2-1.4l-3-3l-4.7-4.6l-4.1-4.1l0-0.1l-0.1,0.1l-0.1-0.1l0,0.1l-3.9,4.3l-4.5,4.8l-2.9,3.1c0,0-1,1.2-1.1,1.4
		s-1.1,1.8-1.1,1.8s-0.7,1.4-0.8,1.8s-0.5,1.6-0.5,1.6l-0.3,0.9c0,0-0.2,1.3-0.2,2.7l0.1,2.5l0.2,1.6l0.4,1.5c0,0,0.3,1,0.8,2
		l0.3,0.8c0,0,1.1,2,1.6,2.6c0,0,1,1.2,1.2,1.5c0.2,0.3,1.2,1,1.2,1l0.8,0.6c0,0,0.7,0.6,1.4,1c0.7,0.4,1.1,0.7,1.1,0.7
		s1.2,0.5,1.7,0.7c0.5,0.2,4,0.9,4,0.9"/>
	<path class="st16" d="M922.2,100.9h-5.4c0,0,0-1.9,0-2.4C914.9,53.5,883,15.1,840,15.1c-25.9,0-51.2,15.9-65.3,39.3
		c-5.6-1.9-11.6-2.4-17.9-2.4c-26.6,0-52.2,18.9-59.4,48.9h-9.8c-20.3,0-35.6,16.1-35.6,38v11.8c0,21.9,15.3,37.2,35.6,37.2h234.6
		c20.3,0,35.8-15.3,35.8-37.2v-11.8C958,117,942.4,100.9,922.2,100.9z"/>
	<path class="st14" d="M1367.6,240c0.6,0,0.1,0,1.3,0c1.2-0.2,2.9-0.8,3.3-1c0.4-0.2,1.4-0.8,1.4-0.8s0.4-0.2,0.9-0.7
		c0.6-0.5,1.1-1,1.1-1l0.7-0.7c0,0,0.8-0.7,0.9-1c0.2-0.3,1-1.5,1-1.5c0.4-0.6,1.2-2.6,1.2-2.6l0.2-0.8c0.3-1,0.6-2,0.6-2l0.3-1.5
		l0.1-1.6l0-2.4c-0.1-1.3-0.3-2.6-0.3-2.6l-0.3-0.9c0,0-0.4-1.2-0.5-1.6c-0.1-0.4-0.8-1.7-0.8-1.7s-1-1.5-1.1-1.7
		c-0.1-0.2-1-1.3-1-1.3l-2.6-2.9l-4-4.4l-3.5-4l0-0.1l-0.1,0.1l-0.1-0.1l0,0.1l-3.3,4.2l-3.7,4.6l-2.4,3c0,0-0.9,1.2-0.9,1.4
		c-0.1,0.2-1,1.8-1,1.8s-0.6,1.3-0.7,1.7c-0.1,0.4-0.4,1.6-0.4,1.6l-0.2,0.9c0,0-0.1,1.3-0.1,2.6l0.1,2.4l0.2,1.6l0.3,1.5
		c0,0,0.3,1,0.7,2l0.3,0.8c0,0,0.9,1.9,1.3,2.5c0,0,0.8,1.2,1,1.5c0.2,0.3,1,1,1,1l0.7,0.6c0,0,0.6,0.5,1.2,1
		c0.6,0.4,0.9,0.6,0.9,0.6s1,0.5,1.4,0.7c0.4,0.2,3.3,0.9,3.3,0.9"/>
</g>
<g id="tree">
	<rect x="1328.2" y="1441.5" class="st17" width="9.8" height="29.8"/>
	<polygon class="st17" points="1217,1258.8 1225.1,1265.4 1156.4,1359.4 1148.2,1352.7 	"/>
	<polygon class="st17" points="1058,1270.6 1065.3,1263 1144.3,1347.6 1136.9,1355.2 	"/>
	<polygon class="st18" points="1507.3,1409.5 1443.4,1409.5 1507.3,1147 	"/>
	<polygon class="st19" points="1507.3,1409.5 1571.2,1409.5 1507.3,1147 	"/>
	<rect x="1492.7" y="1409.5" class="st17" width="27.6" height="61.7"/>
	<polygon class="st17" points="1163.7,1471.1 1136,1471.3 1135.1,1247.6 1162.7,1247.5 	"/>
	<polygon class="st18" points="1333.1,1442.1 1299.4,1442.1 1333.1,1303.7 	"/>
	<polygon class="st19" points="1333.1,1442.1 1366.8,1442.1 1333.1,1303.7 	"/>
	<path class="st20" d="M1281.9,1224.9c0-13.7-5.3-26-13.8-35c7.5-9,12-20.8,12-33.7c0-28.2-21.7-51.1-48.5-51.2
		c-7.3-18.6-24.7-31.7-45-31.7c-17,0-31.9,9.1-40.6,23c-8.7-13.8-23.6-22.9-40.6-22.9c-26.9,0-48.7,22.9-48.7,51.2
		c0,4.5,0.6,8.9,1.6,13.1c-19.5,6.1-33.7,25-33.7,47.5c0,8.1,1.9,15.8,5.2,22.6c-11.9,9-19.7,23.7-19.7,40.3
		c0,27.4,21.1,49.5,47.1,49.5c4,0,7.8-0.5,11.5-1.5c6.4,12.4,18.9,20.8,33.2,20.8c7.4,0,14.3-2.3,20.2-6.2
		c7.4,5.1,16.2,8.2,25.8,8.2c10.3,0,19.8-3.5,27.5-9.4c7.7,6.5,17.5,10.3,28.2,10.3c25,0,45.3-21.3,45.3-47.6
		C1268,1266,1281.9,1247.2,1281.9,1224.9z"/>
	<polygon class="st18" points="869.2,1414.7 805.3,1414.7 869.2,1152.2 	"/>
	<polygon class="st19" points="869.2,1414.7 933.1,1414.7 869.2,1152.2 	"/>
	<rect x="854.6" y="1414.7" class="st17" width="27.6" height="56.6"/>
	<polygon class="st18" points="694.5,1435.2 660.8,1435.2 694.5,1296.7 	"/>
	<polygon class="st19" points="694.5,1435.2 728.2,1435.2 694.5,1296.7 	"/>
	<rect x="686.6" y="1435.2" class="st17" width="16" height="36.2"/>
	<rect x="471.8" y="1441.5" class="st17" width="9.8" height="29.8"/>
	<polygon class="st18" points="476.7,1442.1 443,1442.1 476.7,1303.7 	"/>
	<polygon class="st19" points="476.7,1442.1 510.4,1442.1 476.7,1303.7 	"/>
</g>
<g id="dots">
	<path class="st21" d="M201.3,392.9c-2-43.5-36.5-80.2-83.1-80.2c-43.5,0-85.1,36.9-83.1,80.2c2,43.5,36.5,80.2,83.1,80.2
		C161.7,473.1,203.3,436.2,201.3,392.9z"/>
	<path class="st21" d="M194.6,1002.4c-2-43.5-36.5-80.2-83.1-80.2c-43.5,0-85.1,36.9-83.1,80.2c2,43.5,36.5,80.2,83.1,80.2
		C154.9,1082.6,196.6,1045.7,194.6,1002.4z"/>
	<path class="st21" d="M194.6,667.5c-2-43.5-36.5-80.2-83.1-80.2c-43.5,0-85.1,36.9-83.1,80.2c2,43.5,36.5,80.2,83.1,80.2
		C154.9,747.7,196.6,710.8,194.6,667.5z"/>
	<path class="st22" d="M115.1,714.4c1.7,0,0.4,0,3.9-0.1c3.5-0.5,8.6-2.1,9.8-2.7c1.2-0.5,4.2-2,4.2-2s1.1-0.6,2.7-1.8
		c1.7-1.2,3.4-2.6,3.4-2.6l2-1.7c0,0,2.3-1.9,2.9-2.7c0.6-0.8,2.9-3.9,2.9-3.9c1.2-1.6,3.6-6.6,3.6-6.6l0.7-2.1
		c1-2.5,1.7-5.1,1.7-5.1l0.8-3.8l0.3-4l-0.1-6.2c-0.2-3.4-0.8-6.6-0.8-6.6l-0.9-2.3c0,0-1.1-2.9-1.5-4c-0.4-1-2.2-4.3-2.2-4.3
		s-2.9-3.8-3.1-4.4c-0.2-0.5-3-3.4-3-3.4l-7.6-7.4l-11.9-11.2l-10.4-10.1l0-0.3l-0.2,0.2l-0.2-0.2l0,0.3l-9.8,10.6L91.2,638
		l-7.2,7.7c0,0-2.6,3-2.8,3.6c-0.2,0.5-2.9,4.5-2.9,4.5s-1.7,3.4-2,4.4c-0.3,1-1.3,4-1.3,4l-0.7,2.3c0,0-0.4,3.3-0.5,6.7l0.2,6.2
		l0.6,4l1,3.8c0,0,0.9,2.5,2,5l0.9,2.1c0,0,2.7,4.9,4,6.4c0,0,2.5,3,3.1,3.8c0.6,0.7,3,2.5,3,2.5l2.1,1.6c0,0,1.9,1.4,3.6,2.4
		c1.7,1.1,2.8,1.6,2.8,1.6s3.1,1.3,4.3,1.8c1.2,0.5,9.9,2.2,9.9,2.2"/>
	<polygon class="st5" points="129.1,428.6 95.9,428.6 112.6,377.5 	"/>
	<polygon class="st6" points="107.5,429.1 49.6,429 78.7,366 	"/>
	<polygon class="st6" points="139.6,428.6 112.8,428.6 126.1,392 	"/>
	<polygon class="st6" points="191.2,428.3 145.4,428.3 168.3,366.4 	"/>
	<polygon class="st8" points="159.1,428.6 132.3,428.6 145.8,392 	"/>
	<ellipse class="st23" cx="153.1" cy="344.9" rx="8.2" ry="7.9"/>
	<polygon class="st24" points="115.7,1034.2 65.5,1034.2 65.5,976.6 87.9,959.2 115.7,976.6 	"/>
	<rect x="115.7" y="983.5" class="st6" width="50.2" height="50.7"/>
	<polygon class="st23" points="87.9,959.2 139.4,959.2 167.8,984.1 116.2,984.1 	"/>
	<rect x="81.7" y="1008.9" class="st25" width="11.8" height="24.6"/>
</g>
<g id="text">
	<text transform="matrix(1 0 0 1 233.36 587.2889)"><tspan x="0" y="0" class="st26 st27 st28">The UNHCR research details a painful life of isolation, exclusion and </tspan><tspan x="0" y="48" class="st26 st27 st28">insecurity for many refugee children. Of those interviewed, 29 per cent </tspan><tspan x="0" y="96" class="st26 st27 st28">said that they have to abandon their current shelter at least once a week. </tspan><tspan x="0" y="144" class="st26 st27 st28">Through Migrationsverket you can receive information of how to rent out </tspan><tspan x="0" y="192" class="st26 st27 st28">your house to families, or give shelter to children who arrives alone. </tspan></text>
	<text transform="matrix(1 0 0 1 233.3599 907.3483)"><tspan x="0" y="0" class="st26 st27 st28">The UNHCR research details a painful life of isolation, exclusion and </tspan><tspan x="0" y="48" class="st26 st27 st28">insecurity for many refugee children. Of those interviewed, 29 per cent </tspan><tspan x="0" y="96" class="st26 st27 st28">said that they have to abandon their current shelter at least once a week. </tspan><tspan x="0" y="144" class="st26 st27 st28">Through Migrationsverket you can receive information of how to rent out </tspan><tspan x="0" y="192" class="st26 st27 st28">your house to families, or give shelter to children who arrives alone. </tspan></text>
	<text transform="matrix(1 0 0 1 233.36 312.7143)"><tspan x="0" y="0" class="st26 st27 st28">The UNHCR research details a painful life of isolation, exclusion and </tspan><tspan x="0" y="48" class="st26 st27 st28">insecurity for many refugee children. Of those interviewed, 29 per cent </tspan><tspan x="0" y="96" class="st26 st27 st28">said that they have to abandon their current shelter at least once a week. </tspan><tspan x="0" y="144" class="st26 st27 st28">Through Migrationsverket you can receive information of how to rent out </tspan><tspan x="0" y="192" class="st26 st27 st28">your house to families, or give shelter to children who arrives alone. </tspan></text>
</g>
</svg>
