<?xml version="1.0" encoding="utf-8"?>
<!-- Generator: Adobe Illustrator 19.1.0, SVG Export Plug-In . SVG Version: 6.00 Build 0)  -->
<svg version="1.1" xmlns="http://www.w3.org/2000/svg" xmlns:xlink="http://www.w3.org/1999/xlink" x="0px" y="0px"
	 viewBox="0 0 1600 1500" style="enable-background:new 0 0 1600 1500;" xml:space="preserve">
<style type="text/css">
	.st0{fill:url(#SVGID_1_);}
	.st1{fill:none;}
	.st2{fill:#828282;}
	.st3{font-family:'Lato-Regular';}
	.st4{font-size:30px;}
	.st5{fill:#666D6C;}
	.st6{fill:#AAAFAF;}
	.st7{fill:#D6D0D0;}
	.st8{fill:#999999;}
	.st9{fill:#AEA2A2;}
	.st10{fill:#62685D;}
	.st11{fill:#769995;}
	.st12{opacity:0.72;fill:#769995;enable-background:new    ;}
	.st13{fill:#94AAA6;}
	.st14{fill:#C1C1C1;}
	.st15{opacity:0.57;fill:#828282;enable-background:new    ;}
	.st16{fill:#DE8400;}
	.st17{fill:#C5E2EF;}
	.st18{fill:#E8921F;}
	.st19{fill:#E08420;}
	.st20{fill:#A6D2E2;}
	.st21{fill:#B8DBE8;}
	.st22{fill:#C4D2D6;}
	.st23{fill:#BFC2C4;}
	.st24{fill:#CDD2D3;}
	.st25{fill:#AEC8CE;}
	.st26{fill:#99BDC6;}
	.st27{fill:#D9DCDD;}
</style>
<g id="Layer_1">
	
		<linearGradient id="SVGID_1_" gradientUnits="userSpaceOnUse" x1="800" y1="-2.2059" x2="800" y2="1502" gradientTransform="matrix(1 0 0 -1 0 1502)">
		<stop  offset="0.3134" style="stop-color:#F5F3F6"/>
		<stop  offset="0.4418" style="stop-color:#F3F1F6"/>
		<stop  offset="0.4894" style="stop-color:#EBEDF3"/>
		<stop  offset="0.6312" style="stop-color:#D9E4EB"/>
		<stop  offset="0.7315" style="stop-color:#D2E1E8"/>
		<stop  offset="0.9744" style="stop-color:#D2E1E8;stop-opacity:0.9"/>
	</linearGradient>
	<rect class="st0" width="1600" height="1504.2"/>
</g>
<g id="text">
	<rect x="270.4" y="881.1" class="st1" width="1035.7" height="187.2"/>
	<text transform="matrix(1 0 0 1 270.4233 903.2292)"><tspan x="0" y="0" class="st2 st3 st4">There are many existing organisations through which you can volunteer. A </tspan><tspan x="0" y="31" class="st2 st3 st4">good way of volunteering is to help newly arrived to adapt to the society. </tspan><tspan x="0" y="62" class="st2 st3 st4">Stockholm city council are creating meetings between new and established </tspan><tspan x="0" y="93" class="st2 st3 st4">Swedes. You can volunteer as a tutor, or just be there as a friend. Its a way to </tspan><tspan x="0" y="124" class="st2 st3 st4">help people in vulnerable situations. This is also done through a organisation </tspan><tspan x="0" y="155" class="st2 st3 st4">called KompisSverige. </tspan></text>
	<rect x="262" y="671.7" class="st1" width="1042.3" height="147.6"/>
	<text transform="matrix(1 0 0 1 261.9712 693.8677)"><tspan x="0" y="0" class="st2 st3 st4">When it comes to the refugee crisis, staying silent is one of the worst things </tspan><tspan x="0" y="31" class="st2 st3 st4">you can do. </tspan><tspan x="159.1" y="31" class="st5 st3 st4">#swedeninwar</tspan><tspan x="351.6" y="31" class="st2 st3 st4"> is an initiative to spread awareness and knowledge </tspan><tspan x="0" y="62" class="st2 st3 st4">online. Social media generates discussions among your own communities about </tspan><tspan x="0" y="93" class="st2 st3 st4">the issues refugees are facing. </tspan></text>
	<rect x="261.3" y="423.7" class="st1" width="1043.7" height="153.5"/>
	<text transform="matrix(1 0 0 1 261.2756 445.8239)"><tspan x="0" y="0" class="st2 st3 st4">The UNHCR research details a painful life of isolation, exclusion and insecurity </tspan><tspan x="0" y="31" class="st2 st3 st4">for many refugee children. Of those interviewed, 29 per cent said that they </tspan><tspan x="0" y="62" class="st2 st3 st4">have to abandon their current shelter at least once a week. Through Migra</tspan><tspan x="976.2" y="62" class="st2 st3 st4">-</tspan><tspan x="0" y="93" class="st2 st3 st4">tionsverket you can receive information of how to rent out your house to fam</tspan><tspan x="1029.8" y="93" class="st2 st3 st4">-</tspan><tspan x="0" y="124" class="st2 st3 st4">lies, or give shelter to children who arrives alone. </tspan></text>
</g>
<g id="mountains">
	<polygon class="st6" points="1066.4,1500.1 721.7,1501.1 893,1087.6 	"/>
	<polygon class="st7" points="808.1,1505.4 451.6,1504.4 631,1067.3 	"/>
	<polygon class="st2" points="579.6,1506.1 229.6,1505.1 405.6,1119.1 	"/>
	<polygon class="st8" points="951,1504.4 637.3,1505.2 793.2,1092.4 	"/>
	<polygon class="st6" points="1607.4,1504.8 1057.6,1504.8 1332.4,917.2 	"/>
	<polygon class="st9" points="1206.8,1505.2 899.1,1504.3 1053.8,1215.8 	"/>
	<polygon class="st9" points="372.1,1504.6 84,1503.8 228.9,1215.2 	"/>
</g>
<g id="trees">
	<rect x="1181.6" y="1471.2" class="st10" width="9.8" height="29.8"/>
	<polygon class="st10" points="1039.7,1293.7 1047.8,1300.3 979.1,1394.3 970.9,1387.6 	"/>
	<polygon class="st10" points="880.7,1305.5 888,1297.9 967,1382.5 959.6,1390.1 	"/>
	<polygon class="st11" points="1360.7,1440 1296.8,1440 1360.7,1177.5 	"/>
	<polygon class="st12" points="1360.7,1440 1424.6,1440 1360.7,1177.5 	"/>
	<rect x="1346.1" y="1439.3" class="st10" width="27.6" height="61.7"/>
	<polygon class="st10" points="986.4,1509.1 958.7,1509.3 957.8,1285.6 985.4,1285.5 	"/>
	<polygon class="st11" points="1186.5,1471.6 1152.8,1471.6 1186.5,1333.2 	"/>
	<polygon class="st12" points="1186.5,1471.6 1220.2,1471.6 1186.5,1333.2 	"/>
	<path class="st13" d="M1104.6,1259.8c0-13.7-5.3-26-13.8-35c7.5-9,12-20.8,12-33.7c0-28.2-21.7-51.1-48.5-51.2
		c-7.3-18.6-24.7-31.7-45-31.7c-17,0-31.9,9.1-40.6,23c-8.7-13.8-23.6-22.9-40.6-22.9c-26.9,0-48.7,22.9-48.7,51.2
		c0,4.5,0.6,8.9,1.6,13.1c-19.5,6.1-33.7,25-33.7,47.5c0,8.1,1.9,15.8,5.2,22.6c-11.9,9-19.7,23.7-19.7,40.3
		c0,27.4,21.1,49.5,47.1,49.5c4,0,7.8-0.5,11.5-1.5c6.4,12.4,18.9,20.8,33.2,20.8c7.4,0,14.3-2.3,20.2-6.2
		c7.4,5.1,16.2,8.2,25.8,8.2c10.3,0,19.8-3.5,27.5-9.4c7.7,6.5,17.5,10.3,28.2,10.3c25,0,45.3-21.3,45.3-47.6
		C1090.7,1300.9,1104.6,1282.1,1104.6,1259.8z"/>
	<polygon class="st11" points="722.6,1445.2 658.7,1445.2 722.6,1182.7 	"/>
	<polygon class="st12" points="722.6,1445.2 786.5,1445.2 722.6,1182.7 	"/>
	<rect x="708" y="1444.4" class="st10" width="27.6" height="56.6"/>
	<polygon class="st11" points="547.9,1464.8 514.2,1464.8 547.9,1326.3 	"/>
	<polygon class="st12" points="547.9,1464.8 581.6,1464.8 547.9,1326.3 	"/>
	<rect x="540" y="1464.8" class="st10" width="16" height="36.2"/>
	<rect x="325.2" y="1471.2" class="st10" width="9.8" height="29.8"/>
	<polygon class="st11" points="330.1,1471.8 296.4,1471.8 330.1,1333.4 	"/>
	<polygon class="st12" points="330.1,1471.8 363.8,1471.8 330.1,1333.4 	"/>
</g>
<g id="dots">
	<path class="st14" d="M213.8,484.7c-2-43.5-36.5-80.2-83.1-80.2c-43.5,0-85.1,36.9-83.1,80.2c2,43.5,36.5,80.2,83.1,80.2
		C174.1,564.9,215.8,528,213.8,484.7z"/>
	<polygon class="st15" points="128.7,524.2 78.5,524.2 78.5,466.6 100.9,449.2 128.7,466.6 	"/>
	<rect x="128.7" y="473.5" class="st2" width="50.2" height="50.7"/>
	<polygon class="st16" points="100.9,449.2 152.4,449.2 180.8,474.1 129.2,474.1 	"/>
	<rect x="94.7" y="498.9" class="st17" width="11.8" height="24.6"/>
	<path class="st14" d="M222.8,942.2c-2-43.5-36.5-80.2-83.1-80.2c-43.5,0-85.1,36.9-83.1,80.2c2,43.5,36.5,80.2,83.1,80.2
		C183.1,1022.4,224.8,985.5,222.8,942.2z"/>
	<rect x="130.7" y="899.3" class="st18" width="9.8" height="67.4"/>
	<rect x="140.5" y="899.3" class="st19" width="9.8" height="67.4"/>
	<rect x="140.5" y="974.7" class="st19" width="9.8" height="13.7"/>
	<rect x="130.7" y="974.7" class="st18" width="9.8" height="13.7"/>
	<g>
		<path class="st14" d="M222.8,717.4c-2-43.5-36.5-80.2-83.1-80.2c-43.5,0-85.1,36.9-83.1,80.2c2,43.5,36.5,80.2,83.1,80.2
			C183.1,797.6,224.8,760.7,222.8,717.4z"/>
		<ellipse class="st16" cx="174.6" cy="664.8" rx="8.2" ry="7.9"/>
		<polygon class="st7" points="149.8,745.8 119.2,745.7 134.6,698.7 		"/>
		<polygon class="st2" points="129.9,746.2 76.6,746.1 103.4,688.2 		"/>
		<polygon class="st2" points="159.5,745.8 134.8,745.8 147.1,712.1 		"/>
		<polygon class="st2" points="207,745.5 164.8,745.5 185.9,688.5 		"/>
		<polygon class="st9" points="177.5,745.8 152.7,745.7 165.2,712.1 		"/>
	</g>
</g>
<g id="clouds_1_">
	<path class="st20" d="M1091.3,188.5h-5.4c0,0,0-3.2,0-3.7c-1.9-44.9-33.7-84-76.7-84c-25.9,0-51.2,15.6-65.3,39
		c-5.6-1.9-11.6-1.3-17.9-1.3c-26.6,0-52.2,18-59.4,50h-9.8c-20.3,0-35.2,13.5-35.2,35.4v11.8c0,21.9,14.9,38.8,35.2,38.8h234.6
		c20.3,0,36.2-16.9,36.2-38.8v-11.8C1127.5,202,1111.5,188.5,1091.3,188.5z"/>
	<path class="st21" d="M692.2,188.5h-5.4c0,0,0-2.8,0-3.3c-1.9-44.9-33.7-83.8-76.7-83.8c-25.9,0-51.2,15.7-65.3,39.1
		c-5.6-1.9-11.6-1.7-17.9-1.7c-26.6,0-52.2,18.7-59.4,49.7h-9.8c-20.3,0-35.1,14.4-35.1,36.3v11.8c0,21.9,14.9,37.9,35.1,37.9h234.6
		c20.3,0,35.3-16,35.3-37.9v-11.8C727.5,202.9,712.4,188.5,692.2,188.5z"/>
	<path class="st22" d="M433.5,154.5H423c-5.3-35-34.2-63.9-72.3-63.9c-35.6,0-69.7,28.9-72.9,63.9h-9.9c-20.3,0-36.4,16.6-36.4,36.6
		v13.1c0,19.9,16.1,36.3,36.4,36.3h165.6c20.3,0,37-16.4,37-36.3v-13.1C470.5,171.1,453.7,154.5,433.5,154.5z"/>
	<path class="st23" d="M972.6,386.1c0.7,0,0.2,0,1.5,0c1.4-0.2,3.4-0.9,3.9-1.1s1.7-0.8,1.7-0.8s0.4-0.3,1.1-0.7
		c0.7-0.5,1.4-1.1,1.4-1.1l0.8-0.7c0,0,0.9-0.8,1.1-1.1s1.2-1.6,1.2-1.6c0.5-0.6,1.4-2.7,1.4-2.7l0.3-0.9c0.4-1,0.7-2.1,0.7-2.1
		l0.3-1.5l0.1-1.6v-2.5c-0.1-1.4-0.3-2.7-0.3-2.7l-0.3-0.9c0,0-0.4-1.2-0.6-1.6c-0.2-0.4-0.9-1.8-0.9-1.8s-1.2-1.6-1.2-1.8
		c-0.1-0.2-1.2-1.4-1.2-1.4l-3-3l-4.7-4.6l-4.1-4.1v-0.1l-0.1,0.1l-0.1-0.1v0.1l-3.9,4.3l-4.5,4.8l-2.9,3.1c0,0-1,1.2-1.1,1.4
		c-0.1,0.2-1.1,1.8-1.1,1.8s-0.7,1.4-0.8,1.8c-0.1,0.4-0.5,1.6-0.5,1.6l-0.3,0.9c0,0-0.2,1.3-0.2,2.7l0.1,2.5l0.2,1.6l0.4,1.5
		c0,0,0.3,1,0.8,2l0.3,0.8c0,0,1.1,2,1.6,2.6c0,0,1,1.2,1.2,1.5s1.2,1,1.2,1l0.8,0.6c0,0,0.7,0.6,1.4,1c0.7,0.4,1.1,0.7,1.1,0.7
		s1.2,0.5,1.7,0.7s4,0.9,4,0.9"/>
	<path class="st24" d="M296.8,324.3c0.7,0,0.2,0,1.5,0c1.4-0.2,3.4-0.9,3.9-1.1s1.7-0.8,1.7-0.8s0.4-0.3,1.1-0.7s1.4-1.1,1.4-1.1
		l0.8-0.7c0,0,0.9-0.8,1.1-1.1c0.2-0.3,1.2-1.6,1.2-1.6c0.5-0.6,1.4-2.7,1.4-2.7l0.3-0.9c0.4-1,0.7-2.1,0.7-2.1l0.3-1.5l0.1-1.6
		v-2.5c-0.1-1.4-0.3-2.7-0.3-2.7l-0.3-0.9c0,0-0.4-1.2-0.6-1.6c-0.2-0.4-0.9-1.8-0.9-1.8s-1.2-1.6-1.2-1.8c0-0.2-1.2-1.4-1.2-1.4
		l-3-3l-4.7-4.6L296,284v-0.1l-0.1,0.1l-0.1-0.1v0.1l-3.9,4.3l-4.5,4.8l-2.9,3.1c0,0-1,1.2-1.1,1.4c-0.1,0.2-1.1,1.8-1.1,1.8
		s-0.7,1.4-0.8,1.8c-0.1,0.4-0.5,1.6-0.5,1.6l-0.3,0.9c0,0-0.2,1.3-0.2,2.7l0.1,2.5l0.2,1.6l0.4,1.5c0,0,0.3,1,0.8,2l0.3,0.8
		c0,0,1.1,2,1.6,2.6c0,0,1,1.2,1.2,1.5c0.2,0.3,1.2,1,1.2,1l0.8,0.6c0,0,0.7,0.6,1.4,1c0.7,0.4,1.1,0.7,1.1,0.7s1.2,0.5,1.7,0.7
		s4,0.9,4,0.9"/>
	<path class="st25" d="M508.1,338c0.6,0,0.1,0,1.3,0c1.2-0.2,2.9-0.8,3.3-1s1.4-0.8,1.4-0.8s0.4-0.2,0.9-0.7c0.6-0.5,1.1-1,1.1-1
		l0.7-0.7c0,0,0.8-0.7,0.9-1c0.2-0.3,1-1.5,1-1.5c0.4-0.6,1.2-2.6,1.2-2.6l0.2-0.8c0.3-1,0.6-2,0.6-2l0.3-1.5l0.1-1.6v-2.4
		c-0.1-1.3-0.3-2.6-0.3-2.6l-0.3-0.9c0,0-0.4-1.2-0.5-1.6c-0.1-0.4-0.8-1.7-0.8-1.7s-1-1.5-1-1.7c-0.1-0.2-1-1.3-1-1.3l-2.6-2.9
		l-4-4.4l-3.5-4v-0.1l-0.1,0.1l-0.1-0.1v0.1l-3.3,4.2l-3.7,4.6l-2.4,3c0,0-0.9,1.2-0.9,1.4c0,0.2-1,1.8-1,1.8s-0.6,1.3-0.7,1.7
		c-0.1,0.4-0.4,1.6-0.4,1.6l-0.2,0.9c0,0-0.1,1.3-0.1,2.6l0.1,2.4l0.2,1.6l0.3,1.5c0,0,0.3,1,0.7,2l0.3,0.8c0,0,0.9,1.9,1.3,2.5
		c0,0,0.8,1.2,1,1.5s1,1,1,1l0.7,0.6c0,0,0.6,0.5,1.2,1c0.6,0.4,0.9,0.6,0.9,0.6s1,0.5,1.4,0.7s3.3,0.9,3.3,0.9"/>
	<path class="st26" d="M379.2,295.7c0.6,0,0.1,0,1.3,0c1.2-0.2,2.9-0.8,3.3-1c0.4-0.2,1.4-0.8,1.4-0.8s0.4-0.2,0.9-0.7
		c0.6-0.5,1.1-1,1.1-1l0.7-0.7c0,0,0.8-0.7,0.9-1c0.2-0.3,1-1.5,1-1.5c0.4-0.6,1.2-2.6,1.2-2.6l0.2-0.8c0.3-1,0.6-2,0.6-2l0.3-1.5
		l0.1-1.6v-2.4c-0.1-1.3-0.3-2.6-0.3-2.6l-0.3-0.9c0,0-0.4-1.2-0.5-1.6c-0.1-0.4-0.8-1.7-0.8-1.7s-1-1.5-1-1.7c-0.1-0.2-1-1.3-1-1.3
		l-2.6-2.9l-4-4.4l-3.5-4v-0.1l-0.1,0.1l-0.1-0.1v0.1l-3.3,4.2l-3.7,4.6l-2.4,3c0,0-0.9,1.2-0.9,1.4c0,0.2-1,1.8-1,1.8
		s-0.6,1.3-0.7,1.7c-0.1,0.4-0.4,1.6-0.4,1.6l-0.2,0.9c0,0-0.1,1.3-0.1,2.6l0.1,2.4l0.2,1.6l0.3,1.5c0,0,0.3,1,0.7,2l0.3,0.8
		c0,0,0.9,1.9,1.3,2.5c0,0,0.8,1.2,1,1.5c0.2,0.3,1,1,1,1l0.7,0.6c0,0,0.6,0.5,1.2,1c0.6,0.4,0.9,0.6,0.9,0.6s1,0.5,1.4,0.7
		c0.4,0.2,3.3,0.9,3.3,0.9"/>
	<path class="st25" d="M1084.1,336.6c0.6,0,0.1,0,1.3,0c1.2-0.2,2.9-0.8,3.3-1c0.4-0.2,1.4-0.8,1.4-0.8s0.4-0.2,0.9-0.7s1.1-1,1.1-1
		l0.7-0.7c0,0,0.8-0.7,1-1c0.2-0.3,1-1.5,1-1.5c0.4-0.6,1.2-2.6,1.2-2.6l0.2-0.8c0.3-1,0.6-2,0.6-2l0.3-1.5l0.1-1.6V319
		c-0.1-1.3-0.3-2.6-0.3-2.6l-0.3-0.9c0,0-0.4-1.2-0.5-1.6s-0.8-1.7-0.8-1.7s-1-1.5-1-1.7c-0.1-0.2-1-1.3-1-1.3l-2.6-2.9l-4-4.4
		l-3.5-4v-0.1l-0.1,0.1l-0.1-0.1v0.1l-3.3,4.2l-3.7,4.6l-2.4,3c0,0-0.9,1.2-0.9,1.4s-1,1.8-1,1.8s-0.6,1.3-0.7,1.7
		c-0.1,0.4-0.4,1.6-0.4,1.6l-0.2,0.9c0,0-0.1,1.3-0.1,2.6l0.1,2.4l0.2,1.6l0.3,1.5c0,0,0.3,1,0.7,2l0.3,0.8c0,0,0.9,1.9,1.3,2.5
		c0,0,0.8,1.2,1,1.5c0.2,0.3,1,1,1,1l0.7,0.6c0,0,0.6,0.5,1.2,1c0.6,0.4,0.9,0.6,0.9,0.6s1,0.5,1.4,0.7s3.3,0.9,3.3,0.9"/>
	<path class="st22" d="M1302.5,155.5H1292c-5.3-33-34.2-63.9-72.3-63.9c-35.6,0-69.7,30.9-72.9,63.9h-9.9
		c-20.3,0-37.3,16.9-37.3,36.9v13.1c0,19.9,17,39,37.3,39h165.6c20.3,0,38.1-19.1,38.1-39v-13.1
		C1340.6,172.4,1322.7,155.5,1302.5,155.5z"/>
	<path class="st24" d="M774.7,305.6c0.7,0,0.2,0,1.5,0c1.4-0.2,3.4-0.9,3.9-1.1c0.5-0.2,1.7-0.8,1.7-0.8s0.4-0.3,1.1-0.7
		c0.7-0.5,1.4-1.1,1.4-1.1l0.8-0.7c0,0,0.9-0.8,1.1-1.1c0.2-0.3,1.2-1.6,1.2-1.6c0.5-0.6,1.4-2.7,1.4-2.7l0.3-0.9
		c0.4-1,0.7-2.1,0.7-2.1l0.3-1.5l0.1-1.6v-2.5c-0.1-1.4-0.3-2.7-0.3-2.7l-0.4-0.9c0,0-0.4-1.2-0.6-1.6c-0.2-0.4-0.9-1.8-0.9-1.8
		s-1.2-1.6-1.2-1.8c-0.1-0.2-1.2-1.4-1.2-1.4l-3-3l-4.7-4.6l-4.1-4.1v-0.1l-0.1,0.1l-0.1-0.1v0.1l-3.9,4.3l-4.5,4.8l-2.9,3.1
		c0,0-1,1.2-1.1,1.4c-0.1,0.2-1.1,1.8-1.1,1.8s-0.7,1.4-0.8,1.8c-0.1,0.4-0.5,1.6-0.5,1.6l-0.3,0.9c0,0-0.2,1.3-0.2,2.7l0.1,2.5
		l0.2,1.6l0.4,1.5c0,0,0.3,1,0.8,2l0.3,0.8c0,0,1.1,2,1.6,2.6c0,0,1,1.2,1.2,1.5c0.2,0.3,1.2,1,1.2,1l0.8,0.6c0,0,0.7,0.6,1.4,1
		s1.1,0.7,1.1,0.7s1.2,0.5,1.7,0.7c0.5,0.2,4,0.9,4,0.9"/>
	<path class="st26" d="M881.6,357.5c0.6,0,0.1,0,1.3,0c1.2-0.2,2.9-0.8,3.3-1s1.4-0.8,1.4-0.8s0.4-0.2,0.9-0.7c0.6-0.5,1.1-1,1.1-1
		l0.7-0.7c0,0,0.8-0.7,0.9-1c0.2-0.3,1-1.5,1-1.5c0.4-0.6,1.2-2.6,1.2-2.6l0.2-0.8c0.3-1,0.6-2,0.6-2l0.3-1.5l0.1-1.6v-2.4
		c-0.1-1.3-0.3-2.6-0.3-2.6l-0.3-0.9c0,0-0.4-1.2-0.5-1.6c-0.1-0.4-0.8-1.7-0.8-1.7s-1-1.5-1-1.7c-0.1-0.2-1-1.3-1-1.3l-2.6-2.9
		l-4-4.4l-3.5-4v-0.1l-0.1,0.1l-0.1-0.1v0.1l-3.3,4.2l-3.7,4.6l-2.4,3c0,0-0.9,1.2-0.9,1.4c0,0.2-1,1.8-1,1.8s-0.6,1.3-0.7,1.7
		s-0.4,1.6-0.4,1.6l-0.2,0.9c0,0-0.1,1.3-0.1,2.6l0.1,2.4l0.2,1.6l0.3,1.5c0,0,0.3,1,0.7,2l0.3,0.8c0,0,0.9,1.9,1.3,2.5
		c0,0,0.8,1.2,1,1.5c0.2,0.3,1,1,1,1l0.7,0.6c0,0,0.6,0.5,1.2,1s0.9,0.6,0.9,0.6s1,0.5,1.4,0.7s3.3,0.9,3.3,0.9"/>
	<path class="st23" d="M646.5,345.6c0.7,0,0.2,0,1.5,0c1.4-0.2,3.4-0.9,3.9-1.1s1.7-0.8,1.7-0.8s0.4-0.3,1.1-0.7s1.4-1.1,1.4-1.1
		l0.8-0.7c0,0,0.9-0.8,1.1-1.1c0.2-0.3,1.2-1.6,1.2-1.6c0.5-0.6,1.4-2.7,1.4-2.7l0.3-0.9c0.4-1,0.7-2.1,0.7-2.1l0.3-1.5l0.1-1.6
		v-2.5c-0.1-1.4-0.3-2.7-0.3-2.7l-0.3-0.9c0,0-0.4-1.2-0.6-1.6s-0.9-1.8-0.9-1.8s-1.2-1.6-1.2-1.8c0-0.2-1.2-1.4-1.2-1.4l-3-3
		l-4.7-4.6l-4.1-4.1v-0.1l-0.1,0.1l-0.1-0.1v0.1l-3.9,4.3l-4.5,4.8l-2.9,3.1c0,0-1,1.2-1.1,1.4c-0.1,0.2-1.1,1.8-1.1,1.8
		s-0.7,1.4-0.8,1.8s-0.5,1.6-0.5,1.6l-0.3,0.9c0,0-0.2,1.3-0.2,2.7l0.1,2.5l0.2,1.6l0.4,1.5c0,0,0.3,1,0.8,2l0.3,0.8
		c0,0,1.1,2,1.6,2.6c0,0,1,1.2,1.2,1.5s1.2,1,1.2,1l0.8,0.6c0,0,0.7,0.6,1.4,1s1.1,0.7,1.1,0.7s1.2,0.5,1.7,0.7s4,0.9,4,0.9"/>
	<path class="st27" d="M890.7,164.5h-5.4c0,0,0-1.9,0-2.4c-1.9-45-33.8-83.4-76.8-83.4c-25.9,0-51.2,15.9-65.3,39.3
		c-5.6-1.9-11.6-2.4-17.9-2.4c-26.6,0-52.2,18.9-59.4,48.9h-9.8c-20.3,0-35.6,16.1-35.6,38v11.8c0,21.9,15.3,37.2,35.6,37.2h234.6
		c20.3,0,35.8-15.3,35.8-37.2v-11.8C926.5,180.6,910.9,164.5,890.7,164.5z"/>
	<path class="st25" d="M1297.3,303.2c0.6,0,0.1,0,1.3,0c1.2-0.2,2.9-0.8,3.3-1c0.4-0.2,1.4-0.8,1.4-0.8s0.4-0.2,0.9-0.7
		c0.6-0.5,1.1-1,1.1-1l0.7-0.7c0,0,0.8-0.7,0.9-1c0.2-0.3,1-1.5,1-1.5c0.4-0.6,1.2-2.6,1.2-2.6l0.2-0.8c0.3-1,0.6-2,0.6-2l0.3-1.5
		l0.1-1.6v-2.4c-0.1-1.3-0.3-2.6-0.3-2.6l-0.3-0.9c0,0-0.4-1.2-0.5-1.6s-0.8-1.7-0.8-1.7s-1-1.5-1.1-1.7c-0.1-0.2-1-1.3-1-1.3
		l-2.6-2.9l-4-4.4l-3.5-4v-0.1l-0.1,0.1l-0.1-0.1v0.1l-3.3,4.2l-3.7,4.6l-2.4,3c0,0-0.9,1.2-0.9,1.4c-0.1,0.2-1,1.8-1,1.8
		s-0.6,1.3-0.7,1.7s-0.4,1.6-0.4,1.6l-0.2,0.9c0,0-0.1,1.3-0.1,2.6l0.1,2.4l0.2,1.6l0.3,1.5c0,0,0.3,1,0.7,2l0.3,0.8
		c0,0,0.9,1.9,1.3,2.5c0,0,0.8,1.2,1,1.5c0.2,0.3,1,1,1,1l0.7,0.6c0,0,0.6,0.5,1.2,1c0.6,0.4,0.9,0.6,0.9,0.6s1,0.5,1.4,0.7
		c0.4,0.2,3.3,0.9,3.3,0.9"/>
	<path class="st24" d="M1196.9,345.5c0.7,0,0.2,0,1.5,0c1.4-0.2,3.4-0.9,3.9-1.1s1.7-0.8,1.7-0.8s0.4-0.3,1.1-0.7
		c0.7-0.5,1.4-1.1,1.4-1.1l0.8-0.7c0,0,0.9-0.8,1.1-1.1c0.2-0.3,1.2-1.6,1.2-1.6c0.5-0.6,1.4-2.7,1.4-2.7l0.3-0.9
		c0.4-1,0.7-2.1,0.7-2.1l0.3-1.5l0.1-1.6v-2.5c-0.1-1.4-0.3-2.7-0.3-2.7l-0.4-0.9c0,0-0.4-1.2-0.6-1.6c-0.2-0.4-0.9-1.8-0.9-1.8
		s-1.2-1.6-1.2-1.8c-0.1-0.2-1.2-1.4-1.2-1.4l-3-3l-4.7-4.6l-4.1-4.1v-0.1l-0.1,0.1l-0.1-0.1v0.1l-3.9,4.3l-4.5,4.8l-2.9,3.1
		c0,0-1,1.2-1.1,1.4c-0.1,0.2-1.1,1.8-1.1,1.8s-0.7,1.4-0.8,1.8c-0.1,0.4-0.5,1.6-0.5,1.6l-0.3,0.9c0,0-0.2,1.3-0.2,2.7l0.1,2.5
		l0.2,1.6l0.4,1.5c0,0,0.3,1,0.8,2l0.3,0.8c0,0,1.1,2,1.6,2.6c0,0,1,1.2,1.2,1.5c0.2,0.3,1.2,1,1.2,1l0.8,0.6c0,0,0.7,0.6,1.4,1
		c0.7,0.4,1.1,0.7,1.1,0.7s1.2,0.5,1.7,0.7c0.5,0.2,4,0.9,4,0.9"/>
	<g>
		<path class="st2" d="M493.5,180.7v3.9h-11.1v30.5h-4.6v-30.5h-11.2v-3.9H493.5z"/>
		<path class="st2" d="M526.4,215.1h-4.7v-15.6h-18.6v15.6h-4.7v-34.4h4.7V196h18.6v-15.3h4.7V215.1z"/>
		<path class="st2" d="M539.9,215.1h-4.7v-34.4h4.7V215.1z"/>
		<path class="st2" d="M566.2,186.1c-0.1,0.2-0.3,0.4-0.5,0.5s-0.4,0.2-0.6,0.2c-0.3,0-0.6-0.1-1-0.4c-0.4-0.3-0.8-0.6-1.4-0.9
			c-0.6-0.3-1.2-0.6-2-0.9s-1.7-0.4-2.8-0.4c-1,0-2,0.1-2.7,0.4c-0.8,0.3-1.5,0.7-2,1.1c-0.5,0.5-0.9,1-1.2,1.7s-0.4,1.3-0.4,2.1
			c0,1,0.2,1.8,0.7,2.4c0.5,0.6,1.1,1.2,1.9,1.6c0.8,0.4,1.7,0.8,2.6,1.2c1,0.3,2,0.7,3,1c1,0.4,2,0.7,3,1.2c1,0.4,1.9,1,2.6,1.7
			c0.8,0.7,1.4,1.5,1.9,2.5c0.5,1,0.7,2.2,0.7,3.6c0,1.5-0.3,2.9-0.8,4.2c-0.5,1.3-1.3,2.5-2.2,3.4c-1,1-2.2,1.7-3.6,2.3
			c-1.4,0.6-3.1,0.8-4.9,0.8c-2.2,0-4.3-0.4-6.1-1.2c-1.8-0.8-3.4-1.9-4.7-3.3l1.3-2.2c0.1-0.2,0.3-0.3,0.5-0.4
			c0.2-0.1,0.4-0.2,0.6-0.2c0.2,0,0.4,0.1,0.7,0.3c0.3,0.2,0.6,0.4,0.9,0.6c0.3,0.3,0.7,0.5,1.2,0.8c0.4,0.3,0.9,0.6,1.5,0.8
			c0.6,0.3,1.2,0.5,1.9,0.6s1.5,0.3,2.4,0.3c1.1,0,2.1-0.2,3-0.5c0.9-0.3,1.6-0.7,2.2-1.3c0.6-0.6,1.1-1.2,1.4-2
			c0.3-0.8,0.5-1.6,0.5-2.6c0-1-0.2-1.9-0.7-2.6c-0.5-0.7-1.1-1.2-1.9-1.7c-0.8-0.4-1.6-0.8-2.6-1.1c-1-0.3-2-0.6-3-1s-2-0.7-3-1.1
			s-1.9-1-2.6-1.7c-0.8-0.7-1.4-1.5-1.9-2.6c-0.5-1-0.7-2.3-0.7-3.8c0-1.2,0.2-2.4,0.7-3.5c0.5-1.1,1.2-2.1,2.1-3
			c0.9-0.9,2-1.6,3.3-2.1c1.3-0.5,2.8-0.8,4.5-0.8c1.9,0,3.7,0.3,5.2,0.9c1.6,0.6,3,1.5,4.2,2.6L566.2,186.1z"/>
		<path class="st2" d="M591.6,215.1H587v-34.4h4.7V215.1z"/>
		<path class="st2" d="M618,186.1c-0.1,0.2-0.3,0.4-0.5,0.5s-0.4,0.2-0.6,0.2c-0.3,0-0.6-0.1-1-0.4c-0.4-0.3-0.8-0.6-1.4-0.9
			c-0.6-0.3-1.2-0.6-2-0.9s-1.7-0.4-2.8-0.4c-1,0-2,0.1-2.7,0.4c-0.8,0.3-1.5,0.7-2,1.1c-0.5,0.5-0.9,1-1.2,1.7s-0.4,1.3-0.4,2.1
			c0,1,0.2,1.8,0.7,2.4c0.5,0.6,1.1,1.2,1.9,1.6c0.8,0.4,1.7,0.8,2.6,1.2c1,0.3,2,0.7,3,1c1,0.4,2,0.7,3,1.2c1,0.4,1.9,1,2.6,1.7
			c0.8,0.7,1.4,1.5,1.9,2.5c0.5,1,0.7,2.2,0.7,3.6c0,1.5-0.3,2.9-0.8,4.2c-0.5,1.3-1.3,2.5-2.2,3.4c-1,1-2.2,1.7-3.6,2.3
			c-1.4,0.6-3.1,0.8-4.9,0.8c-2.2,0-4.3-0.4-6.1-1.2c-1.8-0.8-3.4-1.9-4.7-3.3l1.3-2.2c0.1-0.2,0.3-0.3,0.5-0.4
			c0.2-0.1,0.4-0.2,0.6-0.2c0.2,0,0.4,0.1,0.7,0.3c0.3,0.2,0.6,0.4,0.9,0.6c0.3,0.3,0.7,0.5,1.2,0.8c0.4,0.3,0.9,0.6,1.5,0.8
			c0.6,0.3,1.2,0.5,1.9,0.6s1.5,0.3,2.4,0.3c1.1,0,2.1-0.2,3-0.5c0.9-0.3,1.6-0.7,2.2-1.3c0.6-0.6,1.1-1.2,1.4-2
			c0.3-0.8,0.5-1.6,0.5-2.6c0-1-0.2-1.9-0.7-2.6c-0.5-0.7-1.1-1.2-1.9-1.7c-0.8-0.4-1.6-0.8-2.6-1.1c-1-0.3-2-0.6-3-1s-2-0.7-3-1.1
			s-1.9-1-2.6-1.7c-0.8-0.7-1.4-1.5-1.9-2.6c-0.5-1-0.7-2.3-0.7-3.8c0-1.2,0.2-2.4,0.7-3.5c0.5-1.1,1.2-2.1,2.1-3
			c0.9-0.9,2-1.6,3.3-2.1c1.3-0.5,2.8-0.8,4.5-0.8c1.9,0,3.7,0.3,5.2,0.9c1.6,0.6,3,1.5,4.2,2.6L618,186.1z"/>
		<path class="st2" d="M666.6,215.1h-4.7v-15.6h-18.6v15.6h-4.7v-34.4h4.7V196h18.6v-15.3h4.7V215.1z"/>
		<path class="st2" d="M707.2,197.9c0,2.6-0.4,4.9-1.2,7.1s-2,4-3.5,5.6c-1.5,1.6-3.3,2.8-5.4,3.6s-4.4,1.3-6.9,1.3
			c-2.5,0-4.8-0.4-6.9-1.3c-2.1-0.9-3.9-2.1-5.4-3.6c-1.5-1.6-2.6-3.4-3.5-5.6s-1.2-4.5-1.2-7.1c0-2.6,0.4-4.9,1.2-7.1s2-4,3.5-5.6
			c1.5-1.6,3.3-2.8,5.4-3.6c2.1-0.9,4.4-1.3,6.9-1.3c2.5,0,4.8,0.4,6.9,1.3c2.1,0.9,3.9,2.1,5.4,3.6c1.5,1.6,2.6,3.4,3.5,5.6
			S707.2,195.3,707.2,197.9z M702.4,197.9c0-2.1-0.3-4-0.9-5.7c-0.6-1.7-1.4-3.1-2.4-4.3s-2.3-2.1-3.8-2.7c-1.5-0.6-3.2-0.9-5-0.9
			c-1.8,0-3.5,0.3-5,0.9c-1.5,0.6-2.8,1.5-3.9,2.7c-1.1,1.2-1.9,2.6-2.5,4.3c-0.6,1.7-0.9,3.6-0.9,5.7c0,2.1,0.3,4,0.9,5.7
			s1.4,3.1,2.5,4.2c1.1,1.2,2.3,2,3.9,2.7c1.5,0.6,3.2,0.9,5,0.9c1.9,0,3.5-0.3,5-0.9c1.5-0.6,2.8-1.5,3.8-2.7s1.9-2.6,2.4-4.2
			C702.1,201.9,702.4,200,702.4,197.9z"/>
		<path class="st2" d="M709.6,180.7h3.9c0.4,0,0.8,0.1,1,0.3c0.3,0.2,0.5,0.5,0.5,0.8l7.1,23.9c0.1,0.4,0.2,0.9,0.3,1.4
			c0.1,0.5,0.2,1,0.3,1.6c0.1-0.5,0.2-1.1,0.3-1.6s0.3-1,0.4-1.4l8.1-23.9c0.1-0.3,0.3-0.5,0.6-0.8c0.3-0.2,0.6-0.3,1-0.3h1.3
			c0.4,0,0.8,0.1,1,0.3c0.3,0.2,0.4,0.5,0.6,0.8l8.1,23.9c0.1,0.4,0.3,0.9,0.4,1.3s0.2,1,0.3,1.5c0.1-0.5,0.2-1,0.3-1.5
			c0.1-0.5,0.2-0.9,0.3-1.3l7.1-23.9c0.1-0.3,0.3-0.5,0.5-0.8c0.3-0.2,0.6-0.3,1-0.3h3.6l-10.7,34.4h-4.2l-8.7-26.2
			c-0.2-0.5-0.3-1.1-0.5-1.7c-0.1,0.3-0.2,0.6-0.2,0.9c-0.1,0.3-0.1,0.6-0.2,0.8l-8.8,26.2h-4.2L709.6,180.7z"/>
		<path class="st2" d="M786.3,201.4v13.7h-4.7v-13.7L769,180.7h4.1c0.4,0,0.7,0.1,1,0.3c0.2,0.2,0.4,0.5,0.6,0.8l7.9,13.4
			c0.3,0.6,0.5,1.1,0.8,1.6c0.2,0.5,0.4,1,0.6,1.5c0.2-0.5,0.4-1,0.6-1.5c0.2-0.5,0.5-1,0.8-1.6l7.8-13.4c0.1-0.3,0.3-0.5,0.6-0.7
			c0.3-0.2,0.6-0.3,1-0.3h4.1L786.3,201.4z"/>
		<path class="st2" d="M833.3,197.9c0,2.6-0.4,4.9-1.2,7.1c-0.8,2.2-2,4-3.5,5.6c-1.5,1.6-3.3,2.8-5.4,3.6s-4.4,1.3-6.9,1.3
			c-2.5,0-4.8-0.4-6.9-1.3c-2.1-0.9-3.9-2.1-5.4-3.6c-1.5-1.6-2.6-3.4-3.5-5.6s-1.2-4.5-1.2-7.1c0-2.6,0.4-4.9,1.2-7.1s2-4,3.5-5.6
			c1.5-1.6,3.3-2.8,5.4-3.6c2.1-0.9,4.4-1.3,6.9-1.3c2.5,0,4.8,0.4,6.9,1.3c2.1,0.9,3.9,2.1,5.4,3.6c1.5,1.6,2.6,3.4,3.5,5.6
			C832.9,193,833.3,195.3,833.3,197.9z M828.5,197.9c0-2.1-0.3-4-0.9-5.7c-0.6-1.7-1.4-3.1-2.4-4.3c-1.1-1.2-2.3-2.1-3.8-2.7
			c-1.5-0.6-3.2-0.9-5-0.9c-1.8,0-3.5,0.3-5,0.9s-2.8,1.5-3.9,2.7c-1.1,1.2-1.9,2.6-2.5,4.3c-0.6,1.7-0.9,3.6-0.9,5.7
			c0,2.1,0.3,4,0.9,5.7s1.4,3.1,2.5,4.2c1.1,1.2,2.3,2,3.9,2.7c1.5,0.6,3.2,0.9,5,0.9c1.9,0,3.5-0.3,5-0.9c1.5-0.6,2.8-1.5,3.8-2.7
			c1.1-1.2,1.9-2.6,2.4-4.2C828.2,201.9,828.5,200,828.5,197.9z"/>
		<path class="st2" d="M853.2,211.4c1.4,0,2.7-0.2,3.8-0.7s2.1-1.2,2.8-2c0.8-0.9,1.4-1.9,1.8-3.1c0.4-1.2,0.6-2.5,0.6-4v-20.9h4.6
			v20.9c0,2-0.3,3.8-0.9,5.5s-1.5,3.2-2.7,4.4c-1.2,1.2-2.6,2.2-4.3,2.9c-1.7,0.7-3.6,1.1-5.7,1.1c-2.1,0-4-0.4-5.7-1.1
			c-1.7-0.7-3.1-1.7-4.3-2.9c-1.2-1.2-2.1-2.7-2.7-4.4c-0.6-1.7-0.9-3.5-0.9-5.5v-20.9h4.6v20.9c0,1.4,0.2,2.8,0.6,4
			c0.4,1.2,1,2.2,1.8,3.1c0.8,0.9,1.7,1.5,2.9,2C850.5,211.2,851.8,211.4,853.2,211.4z"/>
		<path class="st2" d="M911.6,208c0.3,0,0.5,0.1,0.7,0.3l1.8,2c-1.4,1.6-3.1,2.9-5.1,3.8s-4.4,1.4-7.3,1.4c-2.5,0-4.7-0.4-6.7-1.3
			s-3.7-2.1-5.2-3.6c-1.4-1.5-2.5-3.4-3.3-5.6c-0.8-2.2-1.2-4.5-1.2-7.1c0-2.6,0.4-5,1.2-7.1c0.8-2.2,2-4,3.4-5.6
			c1.5-1.6,3.3-2.8,5.3-3.6c2.1-0.9,4.3-1.3,6.8-1.3c2.4,0,4.6,0.4,6.5,1.2c1.9,0.8,3.5,1.8,4.9,3.2l-1.5,2.1
			c-0.1,0.2-0.2,0.3-0.4,0.4c-0.2,0.1-0.4,0.2-0.6,0.2c-0.3,0-0.6-0.2-1.1-0.5c-0.4-0.3-1-0.7-1.6-1c-0.7-0.4-1.5-0.7-2.5-1
			s-2.2-0.5-3.7-0.5c-1.8,0-3.4,0.3-4.9,0.9c-1.5,0.6-2.7,1.5-3.8,2.7c-1.1,1.2-1.9,2.6-2.5,4.3c-0.6,1.7-0.9,3.6-0.9,5.7
			c0,2.1,0.3,4.1,0.9,5.7c0.6,1.7,1.5,3.1,2.5,4.3c1.1,1.2,2.3,2,3.8,2.7c1.4,0.6,3,0.9,4.7,0.9c1,0,1.9-0.1,2.8-0.2
			c0.8-0.1,1.6-0.3,2.3-0.6c0.7-0.3,1.3-0.6,1.9-1c0.6-0.4,1.2-0.9,1.8-1.4C911.1,208.1,911.4,208,911.6,208z"/>
		<path class="st2" d="M947.5,215.1h-3.6c-0.4,0-0.8-0.1-1-0.3c-0.3-0.2-0.4-0.5-0.6-0.8l-3.2-8.3h-15.4l-3.2,8.3
			c-0.1,0.3-0.3,0.5-0.6,0.8c-0.3,0.2-0.6,0.3-1,0.3h-3.6l13.8-34.4h4.7L947.5,215.1z M925,202.3h12.8l-5.4-14
			c-0.2-0.4-0.3-0.9-0.5-1.4c-0.2-0.5-0.3-1.1-0.5-1.8c-0.2,0.6-0.3,1.2-0.5,1.8c-0.2,0.6-0.3,1-0.5,1.5L925,202.3z"/>
		<path class="st2" d="M955,180.7c0.1,0,0.3,0.1,0.4,0.1c0.1,0.1,0.2,0.1,0.3,0.2c0.1,0.1,0.2,0.2,0.4,0.4l19.9,25.9
			c0-0.4-0.1-0.8-0.1-1.2c0-0.4,0-0.8,0-1.1v-24.4h4.1v34.4h-2.3c-0.4,0-0.7-0.1-0.9-0.2s-0.5-0.3-0.7-0.6L956,188.4
			c0,0.4,0.1,0.8,0.1,1.2c0,0.4,0,0.7,0,1.1v24.5h-4.1v-34.4h2.4C954.7,180.7,954.8,180.7,955,180.7z"/>
		<path class="st2" d="M1028.9,215.1h-4.7v-15.6h-18.6v15.6h-4.7v-34.4h4.7V196h18.6v-15.3h4.7V215.1z"/>
		<path class="st2" d="M1058.8,180.7v3.8h-16.5v11.4h13.4v3.6h-13.4v11.7h16.6l0,3.8h-21.2v-34.4H1058.8z"/>
		<path class="st2" d="M1070,211.2h14.9v3.9h-19.5v-34.4h4.6V211.2z"/>
		<path class="st2" d="M1094.6,202.2v12.9h-4.6v-34.4h10.2c2.2,0,4.1,0.3,5.7,0.8c1.6,0.5,2.9,1.2,4,2.1s1.8,2,2.4,3.4
			c0.5,1.3,0.8,2.8,0.8,4.4c0,1.6-0.3,3.1-0.8,4.4c-0.6,1.3-1.4,2.5-2.5,3.4s-2.4,1.7-4,2.2s-3.4,0.8-5.5,0.8H1094.6z M1094.6,198.5
			h5.5c1.3,0,2.5-0.2,3.5-0.5s1.9-0.8,2.6-1.5c0.7-0.6,1.2-1.4,1.6-2.3c0.4-0.9,0.5-1.8,0.5-2.9c0-2.2-0.7-3.9-2-5.1
			c-1.4-1.2-3.4-1.8-6.2-1.8h-5.5V198.5z"/>
	</g>
</g>
</svg>
