<?xml version="1.0" encoding="utf-8"?>
<!-- Generator: Adobe Illustrator 19.1.0, SVG Export Plug-In . SVG Version: 6.00 Build 0)  -->
<svg version="1.1" xmlns="http://www.w3.org/2000/svg" xmlns:xlink="http://www.w3.org/1999/xlink" x="0px" y="0px"
	 viewBox="0 0 1600 900" style="enable-background:new 0 0 1600 900;" xml:space="preserve">
<style type="text/css">
	.st0{fill:none;}
	.st1{fill:none;stroke:#231F20;stroke-linecap:round;stroke-miterlimit:10;stroke-dasharray:0.1,3,0.1,3,0.1,6;}
	.st2{fill:url(#SVGID_1_);}
	.st3{fill:url(#Circle_Lines);fill-opacity:0.1;}
	.st4{fill:#AAAFAF;}
	.st5{fill:#D6D0D0;}
	.st6{fill:#828282;}
	.st7{fill:#999999;}
	.st8{fill:#AEA2A2;}
	.st9{fill:#A6D2E2;}
	.st10{fill:#B8DBE8;}
	.st11{fill:#C4D2D6;}
	.st12{fill:#D9DCDD;}
	.st13{fill:#A7C0C6;}
	.st14{fill:#BFC2C4;}
	.st15{fill:#CDD2D3;}
	.st16{fill:#AEC8CE;}
	.st17{fill:#CACDCE;}
	.st18{fill:#99BDC6;}
	.st19{fill:#D1D3D3;}
	.st20{fill:#62685D;}
	.st21{fill:#769995;}
	.st22{opacity:0.8;fill:#769995;}
	.st23{fill:#C1C1C1;}
	.st24{fill:#B7D9E5;}
	.st25{fill:#DE8400;}
	.st26{opacity:0.57;fill:#828282;}
	.st27{fill:#C5E2EF;}
	.st28{fill:#FFFFFF;}
	.st29{font-family:'Lato-Regular';}
	.st30{font-size:63.585px;}
</style>
<pattern  width="85.5" height="93" patternUnits="userSpaceOnUse" id="Circle_Lines" viewBox="86 -93 85.5 93" style="overflow:visible;">
	<g>
		<polygon class="st0" points="86,-93 171.5,-93 171.5,0 86,0 		"/>
		<g>
			<path class="st1" d="M171.5-89.3c19.3-0.7,40.5-0.7,69,0.3c4.3,0.2,11.3-0.3,16.5-0.3"/>
			<path class="st1" d="M171.5-82.4c24.5-2.6,45.7,1.2,63-0.6c3.7-0.4,12.8,0.5,22.5,0.6"/>
			<path class="st1" d="M171.5-75.5c21.5-1.5,27.3,1.4,59-1.2c9-0.8,23.5,1.4,26.5,1.2"/>
			<path class="st1" d="M171.5-70.1c14.4,0.7,30.7,2.3,49.6,0.4c9.8-1,22.6-0.1,35.9-0.4"/>
			<path class="st1" d="M171.5-56.3c18.1-0.3,22.3-1.9,56-0.2c14.8,0.8,22.5,1,29.5,0.2"/>
			<path class="st1" d="M171.5-50.1c12.8,0.5,24.5-1.4,45.6,0.1c16.5,1.2,29.9-1.4,39.9-0.1"/>
			<path class="st1" d="M171.5-36.6c20.5-0.4,17.5-0.7,45,0.1c31.5,1,40-0.1,40.5-0.1"/>
			<path class="st1" d="M171.5-29.3c20.9-0.3,17.6,1,50.2-0.9c2.1-0.1,26.2,2.2,35.3,0.9"/>
			<path class="st1" d="M171.5-24.1c14.3,1,32,1.6,50.6,0.7c9.5-0.5,20.4,0.4,34.9-0.7"/>
			<path class="st1" d="M171.5-17.1c20.9,0.5,52.5-0.4,73.5,0.3c1.4,0.1,10.5-0.3,12-0.3"/>
			<path class="st1" d="M171.5-9.6c30-1.9,65,1.1,79.5,0.1c1.8-0.1,4.1,0,6-0.1"/>
			<path class="st1" d="M171.5-3.5c10.7,0.2,21.5-1.1,38.5,0c24,1.5,41.8,0.1,47,0"/>
			<path class="st1" d="M171.5-42.7c22.1-0.6,46.5-1.8,57.7-0.8c13.8,1.2,26.9,0.8,27.8,0.8"/>
			<path class="st1" d="M171.5-63.3c18.1-0.3,22-1.2,46-0.2c21.5,0.9,30.5,1,39.5,0.2"/>
		</g>
		<g>
			<path class="st1" d="M86-89.3c19.3-0.7,40.5-0.7,69,0.3c4.3,0.2,11.3-0.3,16.5-0.3"/>
			<path class="st1" d="M86-82.4c24.5-2.6,45.7,1.2,63-0.6c3.7-0.4,12.8,0.5,22.5,0.6"/>
			<path class="st1" d="M86-75.5c21.5-1.5,27.3,1.4,59-1.2c9-0.8,23.5,1.4,26.5,1.2"/>
			<path class="st1" d="M86-70.1c14.4,0.7,30.7,2.3,49.6,0.4c9.8-1,22.6-0.1,35.9-0.4"/>
			<path class="st1" d="M86-56.3c18.1-0.3,22.3-1.9,56-0.2c14.8,0.8,22.5,1,29.5,0.2"/>
			<path class="st1" d="M86-50.1c12.8,0.5,24.5-1.4,45.6,0.1c16.5,1.2,29.9-1.4,39.9-0.1"/>
			<path class="st1" d="M86-36.6c20.5-0.4,17.5-0.7,45,0.1c31.5,1,40-0.1,40.5-0.1"/>
			<path class="st1" d="M86-29.3c20.9-0.3,17.6,1,50.2-0.9c2.1-0.1,26.2,2.2,35.3,0.9"/>
			<path class="st1" d="M86-24.1c14.3,1,32,1.6,50.6,0.7c9.5-0.5,20.4,0.4,34.9-0.7"/>
			<path class="st1" d="M86-17.1c20.9,0.5,52.5-0.4,73.5,0.3c1.4,0.1,10.5-0.3,12-0.3"/>
			<path class="st1" d="M86-9.6c30-1.9,65,1.1,79.5,0.1c1.8-0.1,4.1,0,6-0.1"/>
			<path class="st1" d="M86-3.5c10.7,0.2,21.5-1.1,38.5,0c24,1.5,41.8,0.1,47,0"/>
			<path class="st1" d="M86-42.7c22.1-0.6,46.5-1.8,57.7-0.8c13.8,1.2,26.9,0.8,27.8,0.8"/>
			<path class="st1" d="M86-63.3c18.1-0.3,22-1.2,46-0.2c21.5,0.9,30.5,1,39.5,0.2"/>
		</g>
		<g>
			<path class="st1" d="M0.5-89.3C19.8-90,41-90,69.5-89c4.3,0.2,11.3-0.3,16.5-0.3"/>
			<path class="st1" d="M0.5-82.4C25-85,46.2-81.2,63.5-83c3.7-0.4,12.8,0.5,22.5,0.6"/>
			<path class="st1" d="M0.5-75.5c21.5-1.5,27.3,1.4,59-1.2c9-0.8,23.5,1.4,26.5,1.2"/>
			<path class="st1" d="M0.5-70.1c14.4,0.7,30.7,2.3,49.6,0.4c9.8-1,22.6-0.1,35.9-0.4"/>
			<path class="st1" d="M0.5-56.3c18.1-0.3,22.3-1.9,56-0.2c14.8,0.8,22.5,1,29.5,0.2"/>
			<path class="st1" d="M0.5-50.1c12.8,0.5,24.5-1.4,45.6,0.1c16.5,1.2,29.9-1.4,39.9-0.1"/>
			<path class="st1" d="M0.5-36.6C21-37,18-37.4,45.5-36.5c31.5,1,40-0.1,40.5-0.1"/>
			<path class="st1" d="M0.5-29.3c20.9-0.3,17.6,1,50.2-0.9C52.8-30.4,77-28,86-29.3"/>
			<path class="st1" d="M0.5-24.1c14.3,1,32,1.6,50.6,0.7c9.5-0.5,20.4,0.4,34.9-0.7"/>
			<path class="st1" d="M0.5-17.1C21.4-16.6,53-17.5,74-16.8c1.4,0.1,10.5-0.3,12-0.3"/>
			<path class="st1" d="M0.5-9.6c30-1.9,65,1.1,79.5,0.1c1.8-0.1,4.1,0,6-0.1"/>
			<path class="st1" d="M0.5-3.5C11.2-3.3,22-4.6,39-3.5c24,1.5,41.8,0.1,47,0"/>
			<path class="st1" d="M0.5-42.7c22.1-0.6,46.5-1.8,57.7-0.8c13.8,1.2,26.9,0.8,27.8,0.8"/>
			<path class="st1" d="M0.5-63.3c18.1-0.3,22-1.2,46-0.2C68-62.6,77-62.5,86-63.3"/>
		</g>
	</g>
</pattern>
<g id="background">
	<linearGradient id="SVGID_1_" gradientUnits="userSpaceOnUse" x1="800" y1="900" x2="800" y2="-3.591686e-08">
		<stop  offset="0.3134" style="stop-color:#F5F3F6"/>
		<stop  offset="0.4418" style="stop-color:#F3F1F6"/>
		<stop  offset="0.4894" style="stop-color:#EBEDF3"/>
		<stop  offset="0.6312" style="stop-color:#D9E4EB"/>
		<stop  offset="0.7315" style="stop-color:#D2E1E8"/>
		<stop  offset="0.9744" style="stop-color:#D2E1E8;stop-opacity:0.9"/>
	</linearGradient>
	<rect class="st2" width="1600" height="900"/>
	<rect x="1" class="st3" width="1600" height="900"/>
</g>
<g id="mountains">
	<polygon class="st4" points="1026.1,894.2 782.9,894.7 903.8,675.3 	"/>
	<polygon class="st5" points="843.8,897 592.3,896.5 719.1,590.8 	"/>
	<polygon class="st6" points="682.6,897.4 435.7,896.9 559.9,692 	"/>
	<polygon class="st7" points="944.7,896.5 723.4,896.9 833.3,677.8 	"/>
	<polygon class="st4" points="1352.4,897.7 1005.8,897.8 1179,527.4 	"/>
	<polygon class="st8" points="1107.6,897.5 904.4,897.1 1006.6,743.9 	"/>
	<polygon class="st8" points="536.3,896.6 333,896.2 435.2,743 	"/>
</g>
<g id="clouds">
	<path class="st9" d="M1077.4,135h-3.6c0,0,0-1.7,0-2.1c-1.2-27.4-22.3-51.1-50.8-51.1c-17.2,0-33.9,9.6-43.2,23.8
		c-3.7-1.1-7.7-1-11.8-1c-17.6,0-34.6,11.3-39.3,30.3h-6.5c-13.4,0-23.1,8.7-23.1,22v7.2c0,13.4,9.7,23.8,23.1,23.8h155.3
		c13.4,0,24.6-10.4,24.6-23.8V157C1102,143.7,1090.9,135,1077.4,135z"/>
	<path class="st10" d="M813.2,122h-3.6c0,0,0-1.7,0-2c-1.2-27.4-22.3-51.1-50.8-51.1c-17.2,0-33.9,9.6-43.2,23.9
		c-3.7-1.1-7.7-1-11.8-1c-17.6,0-34.6,11.3-39.3,30.3h-6.5c-13.4,0-22.9,8.8-22.9,22.1v7.2c0,13.4,9.5,22.7,22.9,22.7h155.3
		c13.4,0,23.8-9.3,23.8-22.7v-7.2C837,130.8,826.6,122,813.2,122z"/>
	<path class="st11" d="M641.9,101h-7c-3.5-21-22.6-39-47.9-39c-23.6,0-46.2,18-48.3,39h-6.6c-13.4,0-24.2,10.4-24.2,22.6v8
		c0,12.2,10.8,22.4,24.2,22.4h109.7c13.4,0,25.1-10.2,25.1-22.4v-8C667,111.4,655.3,101,641.9,101z"/>
	<path class="st12" d="M914.8,184h-3.6c0,0,0-1.4,0-1.7c-1.2-27.4-22.3-50.9-50.8-50.9c-17.2,0-33.9,9.7-43.2,23.9
		c-3.7-1.1-7.7-1.3-11.8-1.3c-17.6,0-34.6,11-39.3,30h-6.5c-13.4,0-23.5,9.5-23.5,22.8v7.2c0,13.4,10.1,23,23.5,23h155.3
		c13.4,0,24.2-9.7,24.2-23v-7.2C939,193.5,928.3,184,914.8,184z"/>
	<path class="st13" d="M840,309.9c0.5,0,0.1,0,1,0c0.9-0.1,2.3-0.5,2.6-0.7c0.3-0.1,1.1-0.5,1.1-0.5s0.3-0.2,0.7-0.4
		c0.4-0.3,0.9-0.6,0.9-0.6l0.5-0.4c0,0,0.6-0.5,0.8-0.7c0.1-0.2,0.8-1,0.8-1c0.3-0.4,1-1.6,1-1.6l0.2-0.5c0.3-0.6,0.4-1.3,0.4-1.3
		l0.2-0.9l0.1-1l0-1.5c-0.1-0.8-0.2-1.6-0.2-1.6l-0.2-0.6c0,0-0.3-0.7-0.4-1c-0.1-0.3-0.6-1.1-0.6-1.1s-0.8-1-0.8-1.1
		c-0.1-0.1-0.8-0.8-0.8-0.8l-2-1.8l-3.1-2.8l-2.7-2.5l0-0.1l0,0l0,0l0,0.1l-2.6,2.6l-3,2.9l-1.9,1.9c0,0-0.7,0.8-0.7,0.9
		c-0.1,0.1-0.8,1.1-0.8,1.1s-0.4,0.8-0.5,1.1s-0.3,1-0.3,1l-0.2,0.6c0,0-0.1,0.8-0.1,1.7l0.1,1.5l0.1,1l0.3,0.9c0,0,0.2,0.6,0.5,1.2
		l0.2,0.5c0,0,0.7,1.2,1.1,1.6c0,0,0.7,0.8,0.8,0.9c0.2,0.2,0.8,0.6,0.8,0.6l0.6,0.4c0,0,0.5,0.3,0.9,0.6s0.7,0.4,0.7,0.4
		s0.8,0.3,1.1,0.4c0.3,0.1,2.6,0.5,2.6,0.5"/>
	<path class="st14" d="M980.3,228.8c0.5,0,0.1,0,1,0c0.9-0.1,2.3-0.5,2.6-0.7c0.3-0.1,1.1-0.5,1.1-0.5s0.3-0.2,0.7-0.4
		c0.4-0.3,0.9-0.6,0.9-0.6l0.5-0.4c0,0,0.6-0.5,0.8-0.7c0.1-0.2,0.8-1,0.8-1c0.3-0.4,1-1.6,1-1.6l0.2-0.5c0.3-0.6,0.4-1.3,0.4-1.3
		l0.2-0.9l0.1-1l0-1.5c-0.1-0.8-0.2-1.6-0.2-1.6l-0.2-0.6c0,0-0.3-0.7-0.4-1c-0.1-0.3-0.6-1.1-0.6-1.1s-0.8-1-0.8-1.1
		c-0.1-0.1-0.8-0.8-0.8-0.8l-2-1.8l-3.1-2.8l-2.7-2.5l0-0.1l0,0l0,0l0,0.1l-2.6,2.6l-3,2.9l-1.9,1.9c0,0-0.7,0.8-0.7,0.9
		c-0.1,0.1-0.8,1.1-0.8,1.1s-0.4,0.8-0.5,1.1c-0.1,0.3-0.3,1-0.3,1l-0.2,0.6c0,0-0.1,0.8-0.1,1.7l0.1,1.5l0.1,1l0.3,0.9
		c0,0,0.2,0.6,0.5,1.2l0.2,0.5c0,0,0.7,1.2,1.1,1.6c0,0,0.7,0.8,0.8,0.9c0.2,0.2,0.8,0.6,0.8,0.6l0.6,0.4c0,0,0.5,0.3,0.9,0.6
		c0.5,0.3,0.7,0.4,0.7,0.4s0.8,0.3,1.1,0.4c0.3,0.1,2.6,0.5,2.6,0.5"/>
	<path class="st15" d="M551.4,204.8c0.5,0,0.1,0,1,0c0.9-0.1,2.3-0.5,2.6-0.7c0.3-0.1,1.1-0.5,1.1-0.5s0.3-0.2,0.7-0.4
		c0.4-0.3,0.9-0.6,0.9-0.6l0.5-0.4c0,0,0.6-0.5,0.8-0.7c0.1-0.2,0.8-1,0.8-1c0.3-0.4,1-1.6,1-1.6l0.2-0.5c0.3-0.6,0.4-1.3,0.4-1.3
		l0.2-0.9l0.1-1l0-1.5c-0.1-0.8-0.2-1.6-0.2-1.6l-0.2-0.6c0,0-0.3-0.7-0.4-1c-0.1-0.3-0.6-1.1-0.6-1.1s-0.8-1-0.8-1.1
		c-0.1-0.1-0.8-0.8-0.8-0.8l-2-1.8l-3.1-2.8l-2.7-2.5l0-0.1l0,0l0,0l0,0.1l-2.6,2.6l-3,2.9l-1.9,1.9c0,0-0.7,0.8-0.7,0.9
		c-0.1,0.1-0.8,1.1-0.8,1.1s-0.4,0.8-0.5,1.1s-0.3,1-0.3,1l-0.2,0.6c0,0-0.1,0.8-0.1,1.7l0.1,1.5l0.1,1l0.3,0.9c0,0,0.2,0.6,0.5,1.2
		l0.2,0.5c0,0,0.7,1.2,1.1,1.6c0,0,0.7,0.8,0.8,0.9c0.2,0.2,0.8,0.6,0.8,0.6l0.6,0.4c0,0,0.5,0.3,0.9,0.6c0.5,0.3,0.7,0.4,0.7,0.4
		s0.8,0.3,1.1,0.4c0.3,0.1,2.6,0.5,2.6,0.5"/>
	<path class="st16" d="M691.3,213.2c0.4,0,0.1,0,0.9,0c0.8-0.1,1.9-0.5,2.2-0.6s0.9-0.5,0.9-0.5s0.2-0.1,0.6-0.4
		c0.4-0.3,0.8-0.6,0.8-0.6l0.4-0.4c0,0,0.5-0.5,0.6-0.6c0.1-0.2,0.6-0.9,0.6-0.9c0.3-0.4,0.8-1.6,0.8-1.6l0.2-0.5
		c0.2-0.6,0.4-1.2,0.4-1.2l0.2-0.9l0.1-1l0-1.5c-0.1-0.8-0.2-1.6-0.2-1.6l-0.2-0.5c0,0-0.2-0.7-0.3-1s-0.5-1-0.5-1s-0.6-0.9-0.7-1
		s-0.7-0.8-0.7-0.8l-1.7-1.8l-2.6-2.7l-2.3-2.4l0-0.1l0,0l0,0l0,0.1l-2.2,2.5l-2.5,2.8l-1.6,1.8c0,0-0.6,0.7-0.6,0.8
		c0,0.1-0.6,1.1-0.6,1.1s-0.4,0.8-0.4,1.1c-0.1,0.3-0.3,1-0.3,1l-0.2,0.6c0,0-0.1,0.8-0.1,1.6l0.1,1.5l0.1,1l0.2,0.9
		c0,0,0.2,0.6,0.4,1.2l0.2,0.5c0,0,0.6,1.2,0.9,1.5c0,0,0.6,0.7,0.7,0.9c0.1,0.2,0.7,0.6,0.7,0.6l0.5,0.4c0,0,0.4,0.3,0.8,0.6
		c0.4,0.3,0.6,0.4,0.6,0.4s0.7,0.3,1,0.4c0.3,0.1,2.2,0.5,2.2,0.5"/>
	<path class="st17" d="M788.9,277.7c0.4,0,0.1,0,0.9,0c0.8-0.1,1.9-0.5,2.2-0.6c0.3-0.1,0.9-0.5,0.9-0.5s0.2-0.1,0.6-0.4
		c0.4-0.3,0.8-0.6,0.8-0.6l0.4-0.4c0,0,0.5-0.5,0.6-0.6c0.1-0.2,0.6-0.9,0.6-0.9c0.3-0.4,0.8-1.6,0.8-1.6l0.2-0.5
		c0.2-0.6,0.4-1.2,0.4-1.2l0.2-0.9l0.1-1l0-1.5c-0.1-0.8-0.2-1.6-0.2-1.6l-0.2-0.5c0,0-0.2-0.7-0.3-1c-0.1-0.2-0.5-1-0.5-1
		s-0.6-0.9-0.7-1s-0.7-0.8-0.7-0.8l-1.7-1.8l-2.6-2.7l-2.3-2.4l0-0.1l0,0l0,0l0,0.1l-2.2,2.5l-2.5,2.8l-1.6,1.8c0,0-0.6,0.7-0.6,0.8
		c0,0.1-0.6,1.1-0.6,1.1s-0.4,0.8-0.4,1.1c-0.1,0.3-0.3,1-0.3,1l-0.2,0.6c0,0-0.1,0.8-0.1,1.6l0.1,1.5l0.1,1l0.2,0.9
		c0,0,0.2,0.6,0.4,1.2l0.2,0.5c0,0,0.6,1.2,0.9,1.5c0,0,0.6,0.7,0.7,0.9c0.1,0.2,0.7,0.6,0.7,0.6l0.5,0.4c0,0,0.4,0.3,0.8,0.6
		c0.4,0.3,0.6,0.4,0.6,0.4s0.7,0.3,1,0.4c0.3,0.1,2.2,0.5,2.2,0.5"/>
	<path class="st18" d="M605.9,187.4c0.4,0,0.1,0,0.9,0c0.8-0.1,1.9-0.5,2.2-0.6s0.9-0.5,0.9-0.5s0.2-0.1,0.6-0.4s0.8-0.6,0.8-0.6
		l0.4-0.4c0,0,0.5-0.5,0.6-0.6c0.1-0.2,0.6-0.9,0.6-0.9c0.3-0.4,0.8-1.6,0.8-1.6l0.2-0.5c0.2-0.6,0.4-1.2,0.4-1.2l0.2-0.9l0.1-1
		l0-1.5c-0.1-0.8-0.2-1.6-0.2-1.6l-0.2-0.5c0,0-0.2-0.7-0.3-1s-0.5-1-0.5-1s-0.6-0.9-0.7-1c-0.1-0.1-0.7-0.8-0.7-0.8l-1.7-1.8
		l-2.6-2.7l-2.3-2.4l0-0.1l0,0l0,0l0,0.1l-2.2,2.5l-2.5,2.8l-1.6,1.8c0,0-0.6,0.7-0.6,0.8c0,0.1-0.6,1.1-0.6,1.1s-0.4,0.8-0.4,1.1
		c-0.1,0.3-0.3,1-0.3,1l-0.2,0.6c0,0-0.1,0.8-0.1,1.6l0.1,1.5l0.1,1l0.2,0.9c0,0,0.2,0.6,0.4,1.2l0.2,0.5c0,0,0.6,1.2,0.9,1.5
		c0,0,0.6,0.7,0.7,0.9s0.7,0.6,0.7,0.6l0.5,0.4c0,0,0.4,0.3,0.8,0.6c0.4,0.3,0.6,0.4,0.6,0.4s0.7,0.3,1,0.4c0.3,0.1,2.2,0.5,2.2,0.5
		"/>
	<path class="st19" d="M888.5,275.9c0.4,0,0.1,0,0.9,0c0.8-0.1,1.9-0.5,2.2-0.6c0.3-0.1,0.9-0.5,0.9-0.5s0.2-0.1,0.6-0.4
		c0.4-0.3,0.8-0.6,0.8-0.6l0.4-0.4c0,0,0.5-0.5,0.6-0.6c0.1-0.2,0.6-0.9,0.6-0.9c0.3-0.4,0.8-1.6,0.8-1.6l0.2-0.5
		c0.2-0.6,0.4-1.2,0.4-1.2l0.2-0.9l0.1-1l0-1.5c-0.1-0.8-0.2-1.6-0.2-1.6l-0.2-0.5c0,0-0.2-0.7-0.3-1c-0.1-0.2-0.5-1-0.5-1
		s-0.6-0.9-0.7-1s-0.7-0.8-0.7-0.8l-1.7-1.8l-2.6-2.7l-2.3-2.4l0-0.1l0,0l0,0l0,0.1l-2.2,2.5l-2.5,2.8l-1.6,1.8c0,0-0.6,0.7-0.6,0.8
		c0,0.1-0.6,1.1-0.6,1.1s-0.4,0.8-0.4,1.1c-0.1,0.3-0.3,1-0.3,1l-0.2,0.6c0,0-0.1,0.8-0.1,1.6l0.1,1.5l0.1,1l0.2,0.9
		c0,0,0.2,0.6,0.4,1.2l0.2,0.5c0,0,0.6,1.2,0.9,1.5c0,0,0.6,0.7,0.7,0.9c0.1,0.2,0.7,0.6,0.7,0.6l0.5,0.4c0,0,0.4,0.3,0.8,0.6
		c0.4,0.3,0.6,0.4,0.6,0.4s0.7,0.3,1,0.4s2.2,0.5,2.2,0.5"/>
	<path class="st16" d="M1042.9,248.9c0.4,0,0.1,0,0.9,0c0.8-0.1,1.9-0.5,2.2-0.6c0.3-0.1,0.9-0.5,0.9-0.5s0.2-0.1,0.6-0.4
		s0.8-0.6,0.8-0.6l0.4-0.4c0,0,0.5-0.5,0.6-0.6c0.1-0.2,0.6-0.9,0.6-0.9c0.3-0.4,0.8-1.6,0.8-1.6l0.2-0.5c0.2-0.6,0.4-1.2,0.4-1.2
		l0.2-0.9l0.1-1l0-1.5c-0.1-0.8-0.2-1.6-0.2-1.6l-0.2-0.5c0,0-0.2-0.7-0.3-1c-0.1-0.2-0.5-1-0.5-1s-0.6-0.9-0.7-1
		c-0.1-0.1-0.7-0.8-0.7-0.8l-1.7-1.8l-2.6-2.7l-2.3-2.4l0-0.1l0,0l0,0l0,0.1l-2.2,2.5l-2.5,2.8l-1.6,1.8c0,0-0.6,0.7-0.6,0.8
		c0,0.1-0.6,1.1-0.6,1.1s-0.4,0.8-0.4,1.1c-0.1,0.3-0.3,1-0.3,1l-0.2,0.6c0,0-0.1,0.8-0.1,1.6l0.1,1.5l0.1,1l0.2,0.9
		c0,0,0.2,0.6,0.4,1.2l0.2,0.5c0,0,0.6,1.2,0.9,1.5c0,0,0.6,0.7,0.7,0.9c0.1,0.2,0.7,0.6,0.7,0.6l0.5,0.4c0,0,0.4,0.3,0.8,0.6
		c0.4,0.3,0.6,0.4,0.6,0.4s0.7,0.3,1,0.4s2.2,0.5,2.2,0.5"/>
	<path class="st11" d="M1235.8,102h-7c-3.5-20-22.6-39-47.9-39c-23.6,0-46.2,19-48.3,39h-6.6c-13.4,0-24.1,10.2-24.1,22.4v8
		c0,12.2,10.7,23.6,24.1,23.6h109.7c13.4,0,25.2-11.5,25.2-23.6v-8C1261,112.2,1249.2,102,1235.8,102z"/>
	<path class="st15" d="M1145.3,205.6c0.5,0,0.1,0,1,0c0.9-0.1,2.3-0.5,2.6-0.7s1.1-0.5,1.1-0.5s0.3-0.2,0.7-0.4
		c0.4-0.3,0.9-0.6,0.9-0.6l0.5-0.4c0,0,0.6-0.5,0.8-0.7c0.1-0.2,0.8-1,0.8-1c0.3-0.4,1-1.6,1-1.6l0.2-0.5c0.3-0.6,0.4-1.3,0.4-1.3
		l0.2-0.9l0.1-1l0-1.5c-0.1-0.8-0.2-1.6-0.2-1.6l-0.2-0.6c0,0-0.3-0.7-0.4-1c-0.1-0.3-0.6-1.1-0.6-1.1s-0.8-1-0.8-1.1
		c-0.1-0.1-0.8-0.8-0.8-0.8l-2-1.8l-3.1-2.8l-2.7-2.5l0-0.1l0,0l0,0l0,0.1l-2.6,2.6l-3,2.9l-1.9,1.9c0,0-0.7,0.8-0.7,0.9
		c-0.1,0.1-0.8,1.1-0.8,1.1s-0.4,0.8-0.5,1.1c-0.1,0.3-0.3,1-0.3,1l-0.2,0.6c0,0-0.1,0.8-0.1,1.7l0.1,1.5l0.1,1l0.3,0.9
		c0,0,0.2,0.6,0.5,1.2l0.2,0.5c0,0,0.7,1.2,1.1,1.6c0,0,0.7,0.8,0.8,0.9c0.2,0.2,0.8,0.6,0.8,0.6l0.6,0.4c0,0,0.5,0.3,0.9,0.6
		c0.5,0.3,0.7,0.4,0.7,0.4s0.8,0.3,1.1,0.4s2.6,0.5,2.6,0.5"/>
	<path class="st18" d="M1199.8,188.2c0.4,0,0.1,0,0.9,0c0.8-0.1,1.9-0.5,2.2-0.6c0.3-0.1,0.9-0.5,0.9-0.5s0.2-0.1,0.6-0.4
		c0.4-0.3,0.8-0.6,0.8-0.6l0.4-0.4c0,0,0.5-0.5,0.6-0.6c0.1-0.2,0.6-0.9,0.6-0.9c0.3-0.4,0.8-1.6,0.8-1.6l0.2-0.5
		c0.2-0.6,0.4-1.2,0.4-1.2l0.2-0.9l0.1-1l0-1.5c-0.1-0.8-0.2-1.6-0.2-1.6l-0.2-0.5c0,0-0.2-0.7-0.3-1c-0.1-0.2-0.5-1-0.5-1
		s-0.6-0.9-0.7-1s-0.7-0.8-0.7-0.8l-1.7-1.8l-2.6-2.7l-2.3-2.4l0-0.1l0,0l0,0l0,0.1l-2.2,2.5l-2.5,2.8l-1.6,1.8c0,0-0.6,0.7-0.6,0.8
		c0,0.1-0.6,1.1-0.6,1.1s-0.4,0.8-0.4,1.1c-0.1,0.3-0.3,1-0.3,1l-0.2,0.6c0,0-0.1,0.8-0.1,1.6l0.1,1.5l0.1,1l0.2,0.9
		c0,0,0.2,0.6,0.4,1.2l0.2,0.5c0,0,0.6,1.2,0.9,1.5c0,0,0.6,0.7,0.7,0.9c0.1,0.2,0.7,0.6,0.7,0.6l0.5,0.4c0,0,0.4,0.3,0.8,0.6
		c0.4,0.3,0.6,0.4,0.6,0.4s0.7,0.3,1,0.4s2.2,0.5,2.2,0.5"/>
</g>
<g id="tree">
	<rect x="1372.1" y="875.9" class="st20" width="6.4" height="19.6"/>
	<polygon class="st20" points="1299.2,759.4 1304.5,763.8 1259.5,825.5 1254.1,821.1 	"/>
	<polygon class="st20" points="1195,767.2 1199.8,762.2 1251.6,817.7 1246.7,822.7 	"/>
	<polygon class="st21" points="1468.5,859.1 1426.6,859.1 1468.5,686.7 	"/>
	<polygon class="st22" points="1468.5,859.1 1510.4,859.1 1468.5,686.7 	"/>
	<rect x="1458.9" y="859.1" class="st20" width="18.1" height="37.1"/>
	<polygon class="st20" points="1264.3,898.9 1246.1,899 1245.5,752.1 1263.6,752 	"/>
	<polygon class="st21" points="1375.3,875.9 1353.2,875.9 1375.3,785 	"/>
	<polygon class="st22" points="1375.3,875.9 1397.4,875.9 1375.3,785 	"/>
	<ellipse class="st21" cx="1289.9" cy="725.6" rx="30.9" ry="32.5"/>
	<ellipse class="st21" cx="1223.8" cy="771.5" rx="24.7" ry="26.1"/>
	<ellipse class="st21" cx="1225.9" cy="734.4" rx="21.6" ry="22.8"/>
	<ellipse class="st21" cx="1264.5" cy="726" rx="25.3" ry="26.7"/>
	<ellipse class="st21" cx="1279.4" cy="762.2" rx="29.7" ry="31.3"/>
	<ellipse class="st21" cx="1253.9" cy="766.7" rx="30.6" ry="32.3"/>
	<ellipse class="st21" cx="1194.5" cy="752.4" rx="30.9" ry="32.5"/>
	<ellipse class="st21" cx="1204.1" cy="711.1" rx="30.9" ry="32.5"/>
	<ellipse class="st21" cx="1236.5" cy="692.1" rx="31.9" ry="33.6"/>
	<ellipse class="st21" cx="1277" cy="686.3" rx="31.9" ry="33.6"/>
	<ellipse class="st21" cx="1308.9" cy="745.7" rx="30.9" ry="32.5"/>
	<ellipse class="st21" cx="1302.2" cy="692.1" rx="31.9" ry="33.6"/>
	<ellipse class="st21" cx="1215.7" cy="671.3" rx="31.9" ry="33.6"/>
	<ellipse class="st21" cx="1268.2" cy="657.5" rx="31.9" ry="33.6"/>
	<rect x="1015.8" y="875.9" class="st20" width="6.4" height="19.6"/>
	<polygon class="st21" points="1113.1,861 1071.3,861 1113.1,688.5 	"/>
	<polygon class="st22" points="1113.1,861 1155,861 1113.1,688.5 	"/>
	<rect x="1103.6" y="861" class="st20" width="18.1" height="37.1"/>
	<polygon class="st21" points="1019,875.9 996.9,875.9 1019,785 	"/>
	<polygon class="st22" points="1019,875.9 1041.1,875.9 1019,785 	"/>
</g>
<g id="dots">
	<path class="st23" d="M274.2,498.3c-1.5-31.4-26.3-57.9-60-57.9c-31.4,0-61.4,26.6-60,57.9c1.5,31.4,26.3,57.9,60,57.9
		C245.6,556.1,275.7,529.5,274.2,498.3z"/>
	<path class="st23" d="M276.6,657.8c-1.5-31.4-26.3-57.9-60-57.9c-31.4,0-61.4,26.6-60,57.9c1.5,31.4,26.3,57.9,60,57.9
		C248,715.6,278,689,276.6,657.8z"/>
	<path class="st23" d="M274.4,338.5c-1.5-31.4-26.3-57.9-60-57.9c-31.4,0-61.4,26.6-60,57.9c1.5,31.4,26.3,57.9,60,57.9
		C245.8,396.4,275.8,369.8,274.4,338.5z"/>
	<path class="st24" d="M217.1,372.4c1.3,0,0.3,0,2.8-0.1c2.5-0.3,6.2-1.6,7.1-1.9c0.8-0.4,3-1.5,3-1.5s0.8-0.4,2-1.3
		c1.2-0.8,2.5-1.9,2.5-1.9l1.4-1.2c0,0,1.7-1.4,2.1-1.9c0.4-0.5,2.1-2.8,2.1-2.8c0.9-1.1,2.6-4.8,2.6-4.8l0.5-1.5
		c0.7-1.8,1.2-3.7,1.2-3.7l0.6-2.7l0.2-2.9l-0.1-4.5c-0.2-2.5-0.6-4.8-0.6-4.8l-0.6-1.6c0,0-0.8-2.1-1.1-2.9
		c-0.3-0.7-1.6-3.1-1.6-3.1s-2.1-2.8-2.3-3.1c-0.2-0.4-2.2-2.5-2.2-2.5l-5.5-5.3l-8.6-8.1l-7.5-7.3l0-0.2l-0.1,0.1l-0.1-0.1l0,0.2
		l-7.1,7.6l-8.1,8.5l-5.2,5.6c0,0-1.9,2.2-2,2.6s-2.1,3.3-2.1,3.3s-1.2,2.4-1.4,3.2c-0.2,0.8-0.9,2.9-0.9,2.9l-0.5,1.7
		c0,0-0.3,2.4-0.3,4.8l0.2,4.5l0.4,2.9l0.7,2.7c0,0,0.6,1.8,1.4,3.6l0.6,1.5c0,0,1.9,3.5,2.9,4.6c0,0,1.8,2.2,2.2,2.7
		c0.4,0.5,2.2,1.8,2.2,1.8l1.5,1.1c0,0,1.3,1,2.6,1.7c1.2,0.8,2,1.2,2,1.2s2.2,1,3.1,1.3c0.9,0.4,7.2,1.6,7.2,1.6"/>
	<polygon class="st5" points="222.1,524.1 198.1,524 210.2,487.1 	"/>
	<polygon class="st6" points="206.5,524.4 164.7,524.3 185.7,478.9 	"/>
	<polygon class="st6" points="229.7,524 210.3,524.1 219.9,497.6 	"/>
	<polygon class="st6" points="266.9,523.8 233.8,523.8 250.4,479.2 	"/>
	<polygon class="st8" points="243.8,524.1 224.4,524 234.1,497.6 	"/>
	<ellipse class="st25" cx="239.4" cy="463.7" rx="5.9" ry="5.7"/>
	<polygon class="st26" points="219.7,680.8 183.5,680.8 183.5,639.2 199.6,626.7 219.7,639.2 	"/>
	<rect x="219.7" y="644.2" class="st6" width="36.2" height="36.6"/>
	<polygon class="st25" points="199.6,626.7 236.8,626.7 257.3,644.6 220.1,644.6 	"/>
	<rect x="195.2" y="662.5" class="st27" width="8.5" height="17.7"/>
</g>
<g id="text">
	<text transform="matrix(1 0 0 1 333.0125 372.4628)" class="st28 st29 st30">Hey give water</text>
	<text transform="matrix(1 0 0 1 333.0125 523.8444)" class="st28 st29 st30">Hey climb mountains</text>
	<text transform="matrix(1 0 0 1 333.0125 693.0865)" class="st28 st29 st30">Hey build a house for ‘em</text>
</g>
</svg>
