<?xml version="1.0" encoding="utf-8"?>
<!-- Generator: Adobe Illustrator 19.1.0, SVG Export Plug-In . SVG Version: 6.00 Build 0)  -->
<!DOCTYPE svg PUBLIC "-//W3C//DTD SVG 1.1//EN" "http://www.w3.org/Graphics/SVG/1.1/DTD/svg11.dtd">
<svg version="1.1" xmlns="http://www.w3.org/2000/svg" xmlns:xlink="http://www.w3.org/1999/xlink" x="0px" y="0px"
	 viewBox="0 0 481 2000" style="enable-background:new 0 0 481 2000;" xml:space="preserve">
<style type="text/css">
	.st0{opacity:0.75;fill:url(#SVGID_1_);enable-background:new    ;}
	.st1{fill:#474646;}
	.st2{fill:#FFFFFF;}
	.st3{fill:#A3A3A3;}
	.st4{fill:#E88F7E;}
	.st5{fill:#6D6C6C;}
	.st6{fill:#1A1A1A;}
	.st7{fill:#A86309;}
	.st8{fill:#DE8400;}
	.st9{fill:#E6E6E6;}
	.st10{fill:#725225;}
	.st11{fill:url(#SVGID_2_);}
	.st12{fill:url(#SVGID_3_);}
	.st13{fill:url(#SVGID_4_);}
	.st14{fill:url(#SVGID_5_);}
	.st15{fill:url(#SVGID_6_);}
	.st16{fill:url(#SVGID_7_);}
	.st17{fill:url(#SVGID_8_);}
	.st18{fill:url(#SVGID_9_);}
	.st19{fill:url(#SVGID_10_);}
	.st20{fill:url(#SVGID_11_);}
	.st21{fill:url(#SVGID_12_);}
	.st22{fill:url(#SVGID_13_);}
	.st23{fill:url(#SVGID_14_);}
	.st24{fill:url(#SVGID_15_);}
	.st25{fill:url(#SVGID_16_);}
	.st26{fill:url(#SVGID_17_);}
	.st27{fill:url(#SVGID_18_);}
	.st28{fill:url(#SVGID_19_);}
	.st29{fill:url(#SVGID_20_);}
	.st30{fill:url(#SVGID_21_);}
	.st31{fill:url(#SVGID_22_);}
	.st32{fill:url(#SVGID_23_);}
	.st33{display:none;}
	.st34{display:inline;opacity:0.75;fill:url(#SVGID_24_);enable-background:new    ;}
	.st35{display:inline;fill:url(#SVGID_25_);}
	.st36{display:inline;}
	.st37{display:inline;fill:#A3A3A3;}
	.st38{display:inline;fill:#E88F7E;}
	.st39{display:inline;fill:#A86309;}
	.st40{display:inline;fill:#DE8400;}
	.st41{display:inline;fill:#1A1A1A;}
	.st42{display:inline;fill:#E6E6E6;}
	.st43{display:inline;fill:#725225;}
	.st44{display:inline;fill:url(#SVGID_26_);}
	.st45{display:inline;fill:url(#SVGID_27_);}
	.st46{display:inline;fill:url(#SVGID_28_);}
	.st47{display:inline;fill:url(#SVGID_29_);}
	.st48{display:inline;fill:url(#SVGID_30_);}
	.st49{display:inline;fill:url(#SVGID_31_);}
	.st50{display:inline;fill:url(#SVGID_32_);}
	.st51{display:inline;fill:url(#SVGID_33_);}
	.st52{display:inline;fill:url(#SVGID_34_);}
	.st53{display:inline;fill:url(#SVGID_35_);}
	.st54{display:inline;fill:url(#SVGID_36_);}
	.st55{display:inline;fill:url(#SVGID_37_);}
	.st56{display:inline;fill:url(#SVGID_38_);}
	.st57{display:inline;fill:url(#SVGID_39_);}
	.st58{display:inline;fill:url(#SVGID_40_);}
	.st59{display:inline;fill:url(#SVGID_41_);}
	.st60{display:inline;fill:url(#SVGID_42_);}
	.st61{display:inline;fill:url(#SVGID_43_);}
	.st62{display:inline;fill:url(#SVGID_44_);}
	.st63{display:inline;fill:url(#SVGID_45_);}
	.st64{display:inline;fill:url(#SVGID_46_);}
</style>
<g id="Layer_1">
	<linearGradient id="SVGID_1_" gradientUnits="userSpaceOnUse" x1="27.4479" y1="130.8436" x2="399.9321" y2="1645.4875">
		<stop  offset="0" style="stop-color:#CEC58E"/>
		<stop  offset="0.4269" style="stop-color:#D6C48C"/>
		<stop  offset="1" style="stop-color:#E8C086"/>
	</linearGradient>
	<rect x="-0.4" y="-3.4" class="st0" width="482.3" height="2003.4"/>
	<g>
		<polygon class="st1" points="167.4,-3.9 167.4,997.3 167.4,998.8 167.4,2000 314,2000 314,998.8 314,997.3 314,-3.9 		"/>
		<g>
			<rect x="238.6" y="-3.4" class="st2" width="4.4" height="10.9"/>
			<rect x="238.6" y="394.8" class="st2" width="4.4" height="21.1"/>
			<rect x="238.6" y="349.4" class="st2" width="4.4" height="21.1"/>
			<rect x="238.6" y="440.2" class="st2" width="4.4" height="21.1"/>
			<rect x="238.6" y="304.1" class="st2" width="4.4" height="21.1"/>
			<rect x="238.6" y="485.6" class="st2" width="4.4" height="21.1"/>
			<rect x="238.6" y="31.8" class="st2" width="4.4" height="21.1"/>
			<rect x="238.6" y="258.7" class="st2" width="4.4" height="21.1"/>
			<rect x="238.6" y="77.2" class="st2" width="4.4" height="21.1"/>
			<rect x="238.6" y="122.5" class="st2" width="4.4" height="21.1"/>
			<rect x="238.6" y="213.3" class="st2" width="4.4" height="21.1"/>
			<rect x="238.6" y="167.9" class="st2" width="4.4" height="21.1"/>
			<polygon class="st2" points="238.6,541.1 238.6,541.1 238.6,552 242.9,552 242.9,541.1 242.9,541.1 242.9,530.2 238.6,530.2 			
				"/>
			<rect x="238.6" y="848.6" class="st2" width="4.4" height="21.1"/>
			<rect x="238.6" y="894" class="st2" width="4.4" height="21.1"/>
			<rect x="238.6" y="1030.1" class="st2" width="4.4" height="21.1"/>
			<rect x="238.6" y="939.4" class="st2" width="4.4" height="21.1"/>
			<rect x="238.6" y="984.7" class="st2" width="4.4" height="21.1"/>
			<rect x="238.6" y="712.5" class="st2" width="4.4" height="21.1"/>
			<rect x="238.6" y="621.7" class="st2" width="4.4" height="21.1"/>
			<rect x="238.6" y="803.2" class="st2" width="4.4" height="21.1"/>
			<rect x="238.6" y="576.3" class="st2" width="4.4" height="21.1"/>
			<rect x="238.6" y="667.1" class="st2" width="4.4" height="21.1"/>
			<rect x="238.6" y="757.9" class="st2" width="4.4" height="21.1"/>
			<rect x="238.6" y="1074.8" class="st2" width="4.4" height="10.9"/>
		</g>
		<g>
			<rect x="238.6" y="1085.7" class="st2" width="4.4" height="10.9"/>
			<rect x="238.6" y="1483.9" class="st2" width="4.4" height="21.1"/>
			<rect x="238.6" y="1438.5" class="st2" width="4.4" height="21.1"/>
			<rect x="238.6" y="1529.3" class="st2" width="4.4" height="21.1"/>
			<rect x="238.6" y="1393.2" class="st2" width="4.4" height="21.1"/>
			<rect x="238.6" y="1574.7" class="st2" width="4.4" height="21.1"/>
			<rect x="238.6" y="1120.9" class="st2" width="4.4" height="21.1"/>
			<rect x="238.6" y="1347.8" class="st2" width="4.4" height="21.1"/>
			<rect x="238.6" y="1166.3" class="st2" width="4.4" height="21.1"/>
			<rect x="238.6" y="1211.6" class="st2" width="4.4" height="21.1"/>
			<rect x="238.6" y="1302.4" class="st2" width="4.4" height="21.1"/>
			<rect x="238.6" y="1257" class="st2" width="4.4" height="21.1"/>
			<polygon class="st2" points="238.6,1630.2 238.6,1630.2 238.6,1641.1 242.9,1641.1 242.9,1630.2 242.9,1630.2 242.9,1619.3 
				238.6,1619.3 			"/>
			<rect x="238.6" y="1937.7" class="st2" width="4.4" height="21.1"/>
			<rect x="238.6" y="1983.1" class="st2" width="4.4" height="21.1"/>
			<rect x="238.6" y="2119.2" class="st2" width="4.4" height="21.1"/>
			<rect x="238.6" y="2028.5" class="st2" width="4.4" height="21.1"/>
			<rect x="238.6" y="2073.9" class="st2" width="4.4" height="21.1"/>
			<rect x="238.6" y="1801.6" class="st2" width="4.4" height="21.1"/>
			<rect x="238.6" y="1710.8" class="st2" width="4.4" height="21.1"/>
			<rect x="238.6" y="1892.3" class="st2" width="4.4" height="21.1"/>
			<rect x="238.6" y="1665.4" class="st2" width="4.4" height="21.1"/>
			<rect x="238.6" y="1756.2" class="st2" width="4.4" height="21.1"/>
			<rect x="238.6" y="1847" class="st2" width="4.4" height="21.1"/>
			<rect x="238.6" y="2163.9" class="st2" width="4.4" height="10.9"/>
		</g>
		<g>
			<polygon class="st2" points="175.4,1000.4 175.4,1000.4 175.4,2004.2 179.8,2004.2 179.8,1000.4 179.8,1000.4 179.8,-3.4 
				175.4,-3.4 			"/>
			<polygon class="st2" points="301.8,-3.4 301.8,1000.4 301.8,1000.4 301.8,2004.2 306.1,2004.2 306.1,1000.4 306.1,1000.4 
				306.1,-3.4 			"/>
		</g>
	</g>
	<g>
		<polygon class="st3" points="146.1,372.6 82.3,372.6 82.3,362.3 114.2,352.4 146.1,362.3 		"/>
		<polygon class="st4" points="146.1,335.3 82.3,335.3 82.3,325 114.2,315.1 146.1,325 		"/>
		<polygon class="st1" points="114.2,315.1 82.3,324.9 82.3,362.6 114.2,352.4 		"/>
		<polygon class="st5" points="146.1,324.9 114.2,315.1 114.2,352.4 146.1,362.6 		"/>
		<polygon class="st1" points="129.3,329.4 123.8,325.8 126.5,332.2 119.4,337.3 126.8,339.5 134,346.2 134,338.9 141.3,338.9 
			137.2,335.9 141.3,329.5 135.3,331.7 130.3,324.5 		"/>
		<polygon class="st6" points="129.5,330.9 125.5,328.2 127.5,333 122.2,336.8 127.7,338.4 132.9,343.3 132.9,338 138.4,338 
			135.4,335.8 138.5,330.9 134.1,332.6 130.3,327.3 		"/>
		<rect x="109.6" y="360.3" class="st1" width="9.2" height="12.3"/>
	</g>
	<g>
		<polygon class="st3" points="410.3,186.4 350.9,186.4 350.9,180.1 381,167.6 410.3,180.1 		"/>
		<polygon class="st1" points="381,145.6 350.9,157.9 350.9,180.4 381,167.6 		"/>
		<polygon class="st5" points="410.3,157.9 381,145.6 381,167.6 410.3,180.4 		"/>
		<polygon class="st5" points="370.1,181.6 367.5,183.4 368.8,180.3 365.4,177.9 369,176.9 372.6,173.7 372.6,177.2 375.9,177.2 
			373.9,178.5 375.8,181.6 373,180.5 370.6,184 		"/>
		<polygon class="st6" points="370.2,180.7 368.3,182.1 369.2,179.8 366.7,178 369.3,177.2 371.8,174.8 371.8,177.4 374.4,177.4 
			373,178.4 374.4,180.7 372.4,179.9 370.6,182.5 		"/>
		<rect x="381.4" y="174" class="st1" width="9.2" height="12.3"/>
	</g>
	<g>
		<polygon class="st3" points="133.9,1787.1 74.5,1787.1 74.5,1780.8 104.6,1768.4 133.9,1780.8 		"/>
		<polygon class="st4" points="133.9,1759.3 74.5,1759.3 74.5,1758.8 104.6,1746.3 133.9,1758.8 		"/>
		<polygon class="st1" points="104.6,1746.3 74.5,1758.6 74.5,1781.1 104.6,1768.4 		"/>
		<polygon class="st5" points="133.9,1758.6 104.6,1746.3 104.6,1768.4 133.9,1781.1 		"/>
		<rect x="94.8" y="1774.8" class="st1" width="9.2" height="12.3"/>
		<rect x="106.9" y="1774.8" class="st1" width="5.4" height="5.1"/>
		<polygon class="st3" points="120.9,1761.4 123.3,1759.8 122.1,1762.6 125.2,1764.9 122.1,1765.8 119,1768.7 119,1765.6 
			115.7,1765.6 117.4,1764.2 115.6,1761.4 118.2,1762.4 120.4,1759.2 		"/>
		<polygon class="st6" points="120.7,1762.1 122.5,1760.9 121.6,1763 124,1764.7 121.6,1765.3 119.4,1767.6 119.4,1765.2 
			116.9,1765.2 118.2,1764.2 116.8,1762.1 118.8,1762.8 120.4,1760.4 		"/>
	</g>
	<g>
		<polygon class="st3" points="469.5,432.5 410.1,432.5 410.1,426.2 440.1,413.8 469.5,426.2 		"/>
		<polygon class="st4" points="469.5,404.7 410.1,404.7 410.1,404.2 440.1,391.7 469.5,404.2 		"/>
		<polygon class="st7" points="440.1,391.7 410.1,404 410.1,426.5 440.1,413.8 		"/>
		<polygon class="st8" points="469.5,404 440.1,391.7 440.1,413.8 469.5,426.5 		"/>
		<polygon class="st8" points="427.2,406 425.3,407.3 426.2,405 423.7,403.2 426.3,402.5 428.8,400.1 428.8,402.7 431.4,402.7 
			430,403.7 431.4,406 429.4,405.2 427.6,407.8 		"/>
		<polygon class="st6" points="427.3,405.3 425.9,406.3 426.6,404.6 424.7,403.2 426.6,402.7 428.5,401 428.5,402.8 430.4,402.8 
			429.4,403.6 430.5,405.3 428.9,404.7 427.6,406.6 		"/>
		<rect x="430.4" y="420.2" class="st6" width="9.2" height="12.3"/>
		<rect x="442.5" y="420.2" class="st6" width="5.4" height="5.1"/>
		<polygon class="st7" points="451.8,403.2 447.1,400.1 449.4,405.6 443.3,410.1 449.8,411.8 456.1,417.6 456.1,411.3 462.1,411.4 
			458.6,408.9 462.1,403.2 457,405.2 452.7,399 		"/>
		<polygon class="st6" points="452,404.5 448.5,402.2 450.3,406.3 445.7,409.6 450.4,410.9 455,415.2 455,410.5 459.6,410.6 
			457,408.7 459.7,404.5 455.9,406 452.7,401.3 		"/>
		<path class="st9" d="M453.2,402.9c-1.9,0-3.4-1.5-3.4-3.4c0-1.4,0.8-2.5,2-3.1c-0.1-0.2-0.1-0.5-0.1-0.7c0-0.2,0-0.4,0.1-0.7
			c-0.7-0.2-1.2-0.8-1.2-1.5c0-0.7,0.5-1.3,1.2-1.5c0-0.1-0.1-0.3-0.1-0.5c0-0.8,0.7-1.5,1.5-1.5c0.8,0,1.5,0.7,1.5,1.5
			c0,0.7-0.4,1.2-1,1.4c0.1,0.2,0.1,0.4,0.1,0.6c0,0,0,0.1,0,0.1l0,0c1.1,0,2,0.9,2,2c0,0.5-0.1,0.9-0.4,1.2
			c0.7,0.6,1.2,1.6,1.2,2.6c0,0.1,0,0.3,0,0.4c0,0,0,0,0,0c1.6,0,2.9,1.3,2.9,2.9c0,1.5-1.1,2.7-2.4,2.9c0,0.1,0,0.1,0,0.2
			c0,1.3-1,2.3-2.3,2.3s-2.3-1-2.3-2.3c0-0.9,0.5-1.7,1.3-2c-0.1-0.3-0.2-0.7-0.2-1C453.5,402.9,453.4,402.9,453.2,402.9z"/>
	</g>
	<g>
		<polygon class="st3" points="88.9,1587.4 25.2,1587.4 25.2,1561.5 57,1551.6 88.9,1561.5 		"/>
		<polygon class="st4" points="88.9,1550.1 25.2,1550.1 25.2,1543 57,1533.1 88.9,1543 		"/>
		<polygon class="st1" points="57,1533.1 25.2,1542.8 25.2,1561.8 57,1551.6 		"/>
		<polygon class="st5" points="88.9,1542.8 57,1533.1 57,1551.6 88.9,1561.8 		"/>
		<rect x="39.3" y="1575" class="st1" width="9.2" height="12.3"/>
		<rect x="52.8" y="1575.5" class="st1" width="5.4" height="5.1"/>
		<path class="st9" d="M71.5,1526.2c1.9,0,3.4-1.5,3.4-3.4c0-1.4-0.8-2.5-2-3.1c0.1-0.2,0.1-0.5,0.1-0.7c0-0.2,0-0.4-0.1-0.7
			c0.7-0.2,1.2-0.8,1.2-1.5c0-0.7-0.5-1.3-1.2-1.5c0-0.1,0.1-0.3,0.1-0.5c0-0.8-0.7-1.5-1.5-1.5c-0.8,0-1.5,0.7-1.5,1.5
			c0,0.7,0.4,1.2,1,1.4c-0.1,0.2-0.1,0.4-0.1,0.6c0,0,0,0.1,0,0.1l0,0c-1.1,0-2,0.9-2,2c0,0.5,0.1,0.9,0.4,1.2
			c-0.7,0.6-1.2,1.6-1.2,2.6c0,0.1,0,0.3,0,0.4c0,0,0,0,0,0c-1.6,0-2.9,1.3-2.9,2.9c0,1.5,1.1,2.7,2.4,2.9c0,0.1,0,0.1,0,0.2
			c0,1.3,1,2.3,2.3,2.3s2.3-1,2.3-2.3c0-0.9-0.5-1.7-1.3-2c0.1-0.3,0.2-0.7,0.2-1C71.2,1526.2,71.4,1526.2,71.5,1526.2z"/>
		<rect x="65.1" y="1530.1" class="st1" width="9.2" height="17.7"/>
	</g>
	<g>
		<g>
			<polygon class="st3" points="127.9,98.9 68.5,98.9 68.5,92.6 98.5,80.1 127.9,92.6 			"/>
			<polygon class="st4" points="127.9,71 68.5,71 68.5,70.5 98.5,58.1 127.9,70.5 			"/>
			<polygon class="st1" points="98.5,58.1 68.5,70.4 68.5,92.9 98.5,80.1 			"/>
			<polygon class="st5" points="127.9,70.4 98.5,58.1 98.5,80.1 127.9,92.9 			"/>
			<polygon class="st5" points="81,78.9 77.7,81.1 79.3,77.2 75,74.1 79.6,72.9 83.9,68.9 83.9,73.2 88.2,73.2 85.7,75 88.2,78.9 
				84.6,77.5 81.6,81.9 			"/>
			<polygon class="st6" points="81.1,77.8 78.7,79.4 79.9,76.5 76.7,74.3 80,73.3 83.2,70.3 83.2,73.6 86.4,73.5 84.6,74.9 
				86.5,77.8 83.8,76.8 81.6,80 			"/>
			<path class="st9" d="M111.6,57.8c1.3,0,2.4-1.1,2.4-2.4c0-1-0.6-1.8-1.4-2.2c0.1-0.1,0.1-0.3,0.1-0.5c0-0.1,0-0.3-0.1-0.4
				c0.5-0.1,0.8-0.5,0.8-1.1c0-0.5-0.4-0.9-0.8-1.1c0-0.1,0.1-0.2,0.1-0.3c0-0.6-0.5-1-1-1c-0.6,0-1,0.5-1,1c0,0.5,0.3,0.8,0.7,1
				c0,0.1-0.1,0.3-0.1,0.4c0,0,0,0,0,0.1l0,0c-0.8,0-1.5,0.7-1.5,1.5c0,0.3,0.1,0.6,0.3,0.9c-0.5,0.4-0.8,1.1-0.8,1.8
				c0,0.1,0,0.2,0,0.3l0,0c-1.1,0-2.1,0.9-2.1,2.1c0,1,0.7,1.9,1.7,2c0,0,0,0.1,0,0.1c0,0.9,0.7,1.6,1.6,1.6c0.9,0,1.6-0.7,1.6-1.6
				c0-0.6-0.4-1.2-0.9-1.5c0.1-0.2,0.1-0.5,0.1-0.7C111.3,57.8,111.5,57.8,111.6,57.8z"/>
			<rect x="107.1" y="60.6" class="st1" width="6.5" height="12.5"/>
		</g>
		<rect x="88.8" y="89.5" class="st1" width="9.2" height="9.4"/>
	</g>
	<rect x="55.6" y="1405.3" class="st10" width="7.5" height="11.7"/>
	<rect x="409.5" y="1553.6" class="st10" width="7.5" height="11.7"/>
	<rect x="53" y="1856.2" class="st10" width="5.8" height="9"/>
	<rect x="126.3" y="282.5" class="st10" width="4.2" height="6.6"/>
	<rect x="380.8" y="243.7" class="st10" width="4.2" height="6.6"/>
	<rect x="345.9" y="93.4" class="st10" width="4.2" height="6.6"/>
	<rect x="41.8" y="169.7" class="st10" width="4.2" height="6.6"/>
	<rect x="51.5" y="249.5" class="st10" width="4.2" height="6.6"/>
	<rect x="422.1" y="324" class="st10" width="6.2" height="9.8"/>
	<rect x="427.7" y="1744" class="st10" width="7.5" height="11.7"/>
	<rect x="423.7" y="106.8" class="st10" width="7.5" height="11.7"/>
	<g>
		<polygon class="st3" points="133.7,943.8 70,943.8 70,933.5 101.9,923.6 133.7,933.5 		"/>
		<polygon class="st4" points="133.7,906.5 70,906.5 70,896.2 101.9,886.3 133.7,896.2 		"/>
		<polygon class="st1" points="101.9,886.3 70,896 70,933.8 101.9,923.6 		"/>
		<polygon class="st5" points="133.7,896 101.9,886.3 101.9,923.6 133.7,933.8 		"/>
		<polygon class="st3" points="116.9,900.6 111.4,896.9 114.2,903.4 107,908.5 114.5,910.6 121.7,917.3 121.7,910 128.9,910.1 
			124.8,907.1 129,900.6 123,902.9 118,895.6 		"/>
		<polygon class="st6" points="117.2,902.1 113.1,899.4 115.2,904.2 109.9,908 115.3,909.5 120.6,914.5 120.6,909.1 126.1,909.2 
			123,906.9 126.1,902.1 121.7,903.8 118,898.4 		"/>
		<rect x="97.3" y="931.4" class="st1" width="9.2" height="12.3"/>
	</g>
	<g>
		<polygon class="st3" points="91.7,675.1 32.3,675.1 32.3,668.8 62.4,656.3 91.7,668.8 		"/>
		<polygon class="st1" points="62.4,634.3 32.3,646.6 32.3,669.1 62.4,656.3 		"/>
		<polygon class="st5" points="91.7,646.6 62.4,634.3 62.4,656.3 91.7,669.1 		"/>
		<polygon class="st5" points="51.5,670.4 48.9,672.1 50.2,669 46.8,666.6 50.4,665.6 54,662.4 54,665.9 57.3,665.9 55.3,667.2 
			57.2,670.4 54.4,669.3 52,672.6 		"/>
		<polygon class="st6" points="51.6,669.5 49.7,670.8 50.6,668.5 48.1,666.7 50.7,665.9 53.2,663.6 53.2,666.1 55.8,666.1 
			54.4,667.2 55.8,669.5 53.8,668.7 52,671.2 		"/>
		<rect x="62.8" y="662.7" class="st1" width="9.2" height="12.3"/>
	</g>
	<g>
		<polygon class="st3" points="413.6,761.2 354.2,761.2 354.2,754.9 384.2,742.5 413.6,754.9 		"/>
		<polygon class="st1" points="384.2,720.5 354.2,732.7 354.2,755.2 384.2,742.5 		"/>
		<polygon class="st5" points="413.6,732.7 384.2,720.5 384.2,742.5 413.6,755.2 		"/>
		<polygon class="st5" points="373.4,756.5 370.7,758.2 372,755.2 368.7,752.7 372.3,751.8 375.8,748.5 375.8,752 379.2,752 
			377.2,753.4 379.1,756.5 376.3,755.4 373.9,758.8 		"/>
		<polygon class="st6" points="373.5,755.6 371.5,756.9 372.5,754.6 370,752.8 372.6,752.1 375.1,749.7 375.1,752.3 377.7,752.3 
			376.3,753.3 377.7,755.6 375.6,754.8 373.9,757.3 		"/>
		<rect x="384.7" y="748.9" class="st1" width="9.2" height="12.3"/>
	</g>
	<g>
		<polygon class="st3" points="114.7,494.6 55.3,494.6 55.3,488.3 85.4,475.9 114.7,488.3 		"/>
		<polygon class="st4" points="114.7,466.8 55.3,466.8 55.3,466.3 85.4,453.9 114.7,466.3 		"/>
		<polygon class="st1" points="85.4,453.9 55.3,466.1 55.3,488.6 85.4,475.9 		"/>
		<polygon class="st5" points="114.7,466.1 85.4,453.9 85.4,475.9 114.7,488.6 		"/>
		<rect x="75.6" y="482.3" class="st1" width="9.2" height="12.3"/>
		<rect x="87.7" y="482.3" class="st1" width="5.4" height="5.1"/>
		<polygon class="st3" points="101.7,468.9 104.1,467.3 102.9,470.1 106,472.4 102.9,473.4 99.8,476.3 99.8,473.1 96.5,473.1 
			98.2,471.8 96.4,468.9 99,469.9 101.2,466.7 		"/>
		<polygon class="st6" points="101.5,469.6 103.3,468.3 102.4,470.5 104.8,472.2 102.4,472.8 100.2,475.1 100.2,472.7 97.7,472.7 
			99,471.8 97.6,469.6 99.5,470.3 101.2,467.9 		"/>
	</g>
	<g>
		<polygon class="st3" points="114.9,1041.8 55.5,1041.8 55.5,1035.6 85.5,1023.1 114.9,1035.6 		"/>
		<polygon class="st4" points="114.9,1014 55.5,1014 55.5,1013.5 85.5,1001.1 114.9,1013.5 		"/>
		<polygon class="st1" points="85.5,1001.1 55.5,1013.3 55.5,1035.8 85.5,1023.1 		"/>
		<polygon class="st5" points="114.9,1013.3 85.5,1001.1 85.5,1023.1 114.9,1035.8 		"/>
		<polygon class="st3" points="72.6,1015.3 70.7,1016.6 71.6,1014.4 69.1,1012.6 71.7,1011.8 74.2,1009.4 74.2,1012 76.8,1012 
			75.4,1013.1 76.8,1015.3 74.8,1014.6 73,1017.1 		"/>
		<polygon class="st6" points="72.7,1014.7 71.3,1015.6 72,1014 70.1,1012.6 72,1012 73.8,1010.3 73.8,1012.2 75.8,1012.2 
			74.8,1013 75.8,1014.7 74.3,1014 73,1016 		"/>
		<rect x="75.8" y="1029.5" class="st1" width="9.2" height="12.3"/>
		<rect x="87.9" y="1029.5" class="st1" width="5.4" height="5.1"/>
		<polygon class="st3" points="97.2,1012.6 92.5,1009.4 94.8,1014.9 88.7,1019.3 95.2,1021.1 101.4,1026.9 101.4,1020.7 
			107.5,1020.7 104,1018.2 107.5,1012.6 102.4,1014.5 98.1,1008.3 		"/>
		<polygon class="st6" points="97.4,1013.8 93.9,1011.5 95.7,1015.6 91.1,1018.9 95.8,1020.2 100.3,1024.5 100.3,1019.9 105,1019.9 
			102.4,1018 105.1,1013.9 101.3,1015.3 98.1,1010.7 		"/>
		<path class="st9" d="M98.6,1012.2c-1.9,0-3.4-1.5-3.4-3.4c0-1.4,0.8-2.5,2-3.1c-0.1-0.2-0.1-0.5-0.1-0.7c0-0.2,0-0.4,0.1-0.7
			c-0.7-0.2-1.2-0.8-1.2-1.5c0-0.7,0.5-1.3,1.2-1.5c0-0.1-0.1-0.3-0.1-0.5c0-0.8,0.7-1.5,1.5-1.5c0.8,0,1.5,0.7,1.5,1.5
			c0,0.7-0.4,1.2-1,1.4c0.1,0.2,0.1,0.4,0.1,0.6c0,0,0,0.1,0,0.1l0,0c1.1,0,2,0.9,2,2c0,0.5-0.1,0.9-0.4,1.2
			c0.7,0.6,1.2,1.6,1.2,2.6c0,0.1,0,0.3,0,0.4c0,0,0,0,0,0c1.6,0,2.9,1.3,2.9,2.9c0,1.5-1.1,2.7-2.4,2.9c0,0.1,0,0.1,0,0.2
			c0,1.3-1,2.3-2.3,2.3s-2.3-1-2.3-2.3c0-0.9,0.5-1.7,1.3-2c-0.1-0.3-0.2-0.7-0.2-1C98.9,1012.2,98.7,1012.2,98.6,1012.2z"/>
	</g>
	<g>
		<polygon class="st3" points="398.4,1686.7 339,1686.7 339,1680.4 369,1667.9 398.4,1680.4 		"/>
		<polygon class="st4" points="398.4,1658.8 339,1658.8 339,1658.4 369,1645.9 398.4,1658.4 		"/>
		<polygon class="st1" points="369,1645.9 339,1658.2 339,1680.7 369,1667.9 		"/>
		<polygon class="st5" points="398.4,1658.2 369,1645.9 369,1667.9 398.4,1680.7 		"/>
		<polygon class="st3" points="356.1,1660.2 354.1,1661.5 355.1,1659.2 352.6,1657.4 355.2,1656.7 357.7,1654.3 357.7,1656.8 
			360.3,1656.8 358.9,1657.9 360.3,1660.2 358.2,1659.4 356.5,1661.9 		"/>
		<polygon class="st6" points="356.2,1659.5 354.8,1660.5 355.5,1658.8 353.6,1657.4 355.5,1656.8 357.3,1655.1 357.3,1657 
			359.3,1657 358.2,1657.8 359.3,1659.5 357.8,1658.9 356.5,1660.8 		"/>
		<rect x="359.3" y="1674.3" class="st1" width="9.2" height="12.3"/>
		<rect x="371.4" y="1674.3" class="st1" width="5.4" height="5.1"/>
		<polygon class="st3" points="380.7,1657.4 376,1654.3 378.3,1659.7 372.2,1664.2 378.7,1666 384.9,1671.7 384.9,1665.5 
			391,1665.6 387.5,1663 391,1657.4 385.9,1659.3 381.6,1653.2 		"/>
		<polygon class="st6" points="380.9,1658.7 377.4,1656.4 379.2,1660.5 374.6,1663.7 379.3,1665.1 383.8,1669.4 383.8,1664.7 
			388.5,1664.8 385.9,1662.8 388.6,1658.7 384.8,1660.1 381.6,1655.5 		"/>
		<path class="st9" d="M382.1,1657c-1.9,0-3.4-1.5-3.4-3.4c0-1.4,0.8-2.5,2-3.1c-0.1-0.2-0.1-0.5-0.1-0.7c0-0.2,0-0.4,0.1-0.7
			c-0.7-0.2-1.2-0.8-1.2-1.5c0-0.7,0.5-1.3,1.2-1.5c0-0.1-0.1-0.3-0.1-0.5c0-0.8,0.7-1.5,1.5-1.5c0.8,0,1.5,0.7,1.5,1.5
			c0,0.7-0.4,1.2-1,1.4c0.1,0.2,0.1,0.4,0.1,0.6c0,0,0,0.1,0,0.1l0,0c1.1,0,2,0.9,2,2c0,0.5-0.1,0.9-0.4,1.2
			c0.7,0.6,1.2,1.6,1.2,2.6c0,0.1,0,0.3,0,0.4c0,0,0,0,0,0c1.6,0,2.9,1.3,2.9,2.9c0,1.5-1.1,2.7-2.4,2.9c0,0.1,0,0.1,0,0.2
			c0,1.3-1,2.3-2.3,2.3s-2.3-1-2.3-2.3c0-0.9,0.5-1.7,1.3-2c-0.1-0.3-0.2-0.7-0.2-1C382.4,1657,382.2,1657,382.1,1657z"/>
	</g>
	<g>
		<polygon class="st3" points="416.7,1105.7 353,1105.7 353,1095.5 384.9,1085.5 416.7,1095.5 		"/>
		<polygon class="st4" points="416.7,1068.4 353,1068.4 353,1058.1 384.9,1048.3 416.7,1058.1 		"/>
		<polygon class="st1" points="384.9,1048.3 353,1058 353,1095.7 384.9,1085.5 		"/>
		<polygon class="st5" points="416.7,1058 384.9,1048.3 384.9,1085.5 416.7,1095.7 		"/>
		<polygon class="st3" points="399.9,1062.5 394.4,1058.9 397.2,1065.3 390,1070.4 397.5,1072.5 404.7,1079.3 404.7,1072 
			411.9,1072 407.8,1069 411.9,1062.6 406,1064.8 401,1057.6 		"/>
		<polygon class="st6" points="400.2,1064.1 396.1,1061.3 398.1,1066.1 392.8,1069.9 398.3,1071.5 403.6,1076.4 403.6,1071.1 
			409,1071.1 406,1068.9 409.1,1064.1 404.7,1065.7 401,1060.4 		"/>
		<polygon class="st3" points="394.6,1076.7 396.9,1075.1 395.8,1077.9 398.9,1080.2 395.8,1081.1 392.7,1084.1 392.7,1080.9 
			389.4,1080.9 391.1,1079.6 389.3,1076.7 391.9,1077.7 394.1,1074.5 		"/>
		<polygon class="st6" points="394.4,1077.4 396.2,1076.2 395.3,1078.3 397.7,1080 395.3,1080.6 393.1,1082.9 393.1,1080.5 
			390.6,1080.5 391.9,1079.5 390.5,1077.4 392.4,1078.1 394.1,1075.7 		"/>
		<rect x="380.2" y="1093.4" class="st1" width="9.2" height="12.3"/>
		<path class="st9" d="M405.6,1061.1c2.5,0,4.5-2,4.5-4.5c0-1.9-1.1-3.4-2.7-4.2c0.1-0.3,0.2-0.7,0.2-1c0-0.3,0-0.6-0.1-0.9
			c0.9-0.2,1.6-1.1,1.6-2c0-1-0.7-1.8-1.6-2c0.1-0.2,0.1-0.4,0.1-0.6c0-1.1-0.9-2-2-2c-1.1,0-2,0.9-2,2c0,0.9,0.6,1.6,1.4,1.9
			c-0.1,0.3-0.1,0.5-0.1,0.8c0,0,0,0.1,0,0.1l0,0c-1.5,0-2.8,1.2-2.8,2.8c0,0.6,0.2,1.2,0.6,1.7c-1,0.8-1.6,2.1-1.6,3.5
			c0,0.1,0,0.3,0,0.5c0,0,0,0,0,0c-2.2,0-4,1.8-4,4c0,2,1.4,3.6,3.3,3.9c0,0.1,0,0.2,0,0.3c0,1.7,1.4,3.1,3.1,3.1
			c1.7,0,3.1-1.4,3.1-3.1c0-1.2-0.7-2.3-1.7-2.8c0.2-0.4,0.3-0.9,0.3-1.4C405.2,1061.1,405.4,1061.1,405.6,1061.1z"/>
	</g>
	<g>
		<polygon class="st3" points="80,1325 16.2,1325 16.2,1314.7 48.1,1304.8 80,1314.7 		"/>
		<polygon class="st4" points="80,1287.7 16.2,1287.7 16.2,1277.5 48.1,1267.6 80,1277.5 		"/>
		<polygon class="st1" points="48.1,1267.6 16.2,1277.3 16.2,1315 48.1,1304.8 		"/>
		<polygon class="st5" points="80,1277.3 48.1,1267.6 48.1,1304.8 80,1315 		"/>
		<polygon class="st3" points="31.2,1296.5 25.7,1300.2 28.4,1293.7 21.3,1288.6 28.8,1286.5 36.1,1279.8 36.1,1287 43.2,1287 
			39.1,1290 43.2,1296.5 37.3,1294.2 32.3,1301.5 		"/>
		<polygon class="st6" points="31.5,1294.6 27.4,1297.3 29.4,1292.6 24.1,1288.8 29.6,1287.2 35,1282.2 35,1287.6 40.4,1287.6 
			37.3,1289.8 40.4,1294.6 36,1293 32.3,1298.3 		"/>
		<rect x="37.6" y="1312.7" class="st1" width="9.2" height="12.3"/>
		<rect x="52.4" y="1312.7" class="st1" width="9.2" height="7.5"/>
		<path class="st9" d="M29.8,1284.5c-2.4,0-4.3-1.9-4.3-4.3c0-1.7,1.1-3.2,2.5-3.9c-0.1-0.3-0.2-0.6-0.2-0.9c0-0.3,0-0.5,0.1-0.8
			c-0.9-0.2-1.5-1-1.5-1.9c0-0.9,0.7-1.7,1.5-1.9c-0.1-0.2-0.1-0.4-0.1-0.6c0-1,0.8-1.9,1.9-1.9c1,0,1.9,0.8,1.9,1.9
			c0,0.8-0.5,1.5-1.3,1.8c0.1,0.2,0.1,0.5,0.1,0.7c0,0,0,0.1,0,0.1l0,0c1.5,0,2.6,1.2,2.6,2.6c0,0.6-0.2,1.1-0.5,1.6
			c0.9,0.8,1.5,2,1.5,3.3c0,0.1,0,0.3,0,0.4c0,0,0,0,0,0c2.1,0,3.7,1.7,3.7,3.7c0,1.9-1.3,3.4-3,3.7c0,0.1,0,0.2,0,0.3
			c0,1.6-1.3,2.9-2.9,2.9c-1.6,0-2.9-1.3-2.9-2.9c0-1.2,0.7-2.1,1.6-2.6c-0.1-0.4-0.3-0.8-0.3-1.3
			C30.1,1284.5,30,1284.5,29.8,1284.5z"/>
	</g>
	<g>
		<polygon class="st3" points="413.3,539.2 349.5,539.2 349.5,513.4 381.4,503.4 413.3,513.4 		"/>
		<polygon class="st4" points="413.3,501.9 349.5,501.9 349.5,494.9 381.4,485 413.3,494.9 		"/>
		<polygon class="st1" points="381.4,485 349.5,494.7 349.5,513.6 381.4,503.4 		"/>
		<polygon class="st5" points="413.3,494.7 381.4,485 381.4,503.4 413.3,513.6 		"/>
		<rect x="363.7" y="526.9" class="st1" width="9.2" height="12.3"/>
		<rect x="377.2" y="527.3" class="st1" width="5.4" height="5.1"/>
		<path class="st9" d="M395.9,478c1.9,0,3.4-1.5,3.4-3.4c0-1.4-0.8-2.5-2-3.1c0.1-0.2,0.1-0.5,0.1-0.7c0-0.2,0-0.4-0.1-0.7
			c0.7-0.2,1.2-0.8,1.2-1.5c0-0.7-0.5-1.3-1.2-1.5c0-0.1,0.1-0.3,0.1-0.5c0-0.8-0.7-1.5-1.5-1.5s-1.5,0.7-1.5,1.5
			c0,0.7,0.4,1.2,1,1.4c-0.1,0.2-0.1,0.4-0.1,0.6c0,0,0,0.1,0,0.1l0,0c-1.1,0-2,0.9-2,2c0,0.5,0.1,0.9,0.4,1.2
			c-0.7,0.6-1.2,1.6-1.2,2.6c0,0.1,0,0.3,0,0.4c0,0,0,0,0,0c-1.6,0-2.9,1.3-2.9,2.9c0,1.5,1.1,2.7,2.4,2.9c0,0.1,0,0.1,0,0.2
			c0,1.3,1,2.3,2.3,2.3s2.3-1,2.3-2.3c0-0.9-0.5-1.7-1.3-2c0.1-0.3,0.2-0.7,0.2-1C395.6,478,395.8,478,395.9,478z"/>
		<rect x="389.5" y="481.9" class="st1" width="9.2" height="17.7"/>
	</g>
	<g>
		<polygon class="st3" points="128,1191.2 68.6,1191.2 68.6,1185 98.6,1172.5 128,1185 		"/>
		<polygon class="st4" points="128,1163.4 68.6,1163.4 68.6,1162.9 98.6,1150.5 128,1162.9 		"/>
		<polygon class="st7" points="98.6,1150.5 68.6,1162.7 68.6,1185.3 98.6,1172.5 		"/>
		<polygon class="st8" points="128,1162.7 98.6,1150.5 98.6,1172.5 128,1185.3 		"/>
		<polygon class="st8" points="81.1,1171.3 77.8,1173.5 79.4,1169.6 75.2,1166.5 79.7,1165.3 84,1161.3 84,1165.6 88.3,1165.5 
			85.8,1167.4 88.3,1171.3 84.7,1169.9 81.7,1174.2 		"/>
		<polygon class="st6" points="81.3,1170.2 78.8,1171.8 80,1168.9 76.9,1166.6 80.1,1165.7 83.3,1162.7 83.3,1165.9 86.6,1165.9 
			84.7,1167.2 86.6,1170.2 83.9,1169.1 81.7,1172.4 		"/>
		<path class="st9" d="M111.7,1150.2c1.3,0,2.4-1.1,2.4-2.4c0-1-0.6-1.8-1.4-2.2c0.1-0.1,0.1-0.3,0.1-0.5c0-0.1,0-0.3-0.1-0.4
			c0.5-0.1,0.8-0.5,0.8-1.1s-0.4-0.9-0.8-1.1c0-0.1,0.1-0.2,0.1-0.3c0-0.6-0.5-1-1-1c-0.6,0-1,0.5-1,1c0,0.5,0.3,0.8,0.7,1
			c0,0.1-0.1,0.3-0.1,0.4c0,0,0,0,0,0.1l0,0c-0.8,0-1.5,0.7-1.5,1.5c0,0.3,0.1,0.6,0.3,0.9c-0.5,0.4-0.8,1.1-0.8,1.8
			c0,0.1,0,0.2,0,0.3l0,0c-1.1,0-2.1,0.9-2.1,2.1c0,1,0.7,1.9,1.7,2c0,0,0,0.1,0,0.1c0,0.9,0.7,1.6,1.6,1.6c0.9,0,1.6-0.7,1.6-1.6
			c0-0.6-0.4-1.2-0.9-1.5c0.1-0.2,0.1-0.5,0.1-0.7C111.5,1150.2,111.6,1150.2,111.7,1150.2z"/>
		<rect x="107.2" y="1152.9" class="st7" width="6.5" height="12.5"/>
		<rect x="88.9" y="1181.9" class="st6" width="9.2" height="9.4"/>
	</g>
	<g>
		<polygon class="st3" points="438.8,1909.1 379.4,1909.1 379.4,1902.8 409.5,1890.4 438.8,1902.8 		"/>
		<polygon class="st4" points="438.8,1881.2 379.4,1881.2 379.4,1880.8 409.5,1868.3 438.8,1880.8 		"/>
		<polygon class="st7" points="409.5,1868.3 379.4,1880.6 379.4,1903.1 409.5,1890.4 		"/>
		<polygon class="st8" points="438.8,1880.6 409.5,1868.3 409.5,1890.4 438.8,1903.1 		"/>
		<polygon class="st8" points="391.9,1889.1 388.6,1891.3 390.3,1887.5 386,1884.4 390.5,1883.1 394.9,1879.1 394.9,1883.5 
			399.2,1883.4 396.7,1885.2 399.1,1889.1 395.6,1887.7 392.6,1892.1 		"/>
		<polygon class="st6" points="392.1,1888 389.6,1889.6 390.8,1886.8 387.7,1884.4 391,1883.5 394.2,1880.6 394.2,1883.8 
			397.4,1883.8 395.6,1885.1 397.4,1888 394.8,1887 392.6,1890.2 		"/>
		<path class="st9" d="M422.5,1868.1c1.3,0,2.4-1.1,2.4-2.4c0-1-0.6-1.8-1.4-2.2c0.1-0.1,0.1-0.3,0.1-0.5c0-0.1,0-0.3-0.1-0.4
			c0.5-0.1,0.8-0.5,0.8-1.1c0-0.5-0.4-0.9-0.8-1.1c0-0.1,0.1-0.2,0.1-0.3c0-0.6-0.5-1-1-1c-0.6,0-1,0.5-1,1c0,0.5,0.3,0.8,0.7,1
			c0,0.1-0.1,0.3-0.1,0.4c0,0,0,0,0,0.1l0,0c-0.8,0-1.5,0.7-1.5,1.5c0,0.3,0.1,0.6,0.3,0.9c-0.5,0.4-0.8,1.1-0.8,1.8
			c0,0.1,0,0.2,0,0.3l0,0c-1.1,0-2.1,0.9-2.1,2.1c0,1,0.7,1.9,1.7,2c0,0,0,0.1,0,0.1c0,0.9,0.7,1.6,1.6,1.6c0.9,0,1.6-0.7,1.6-1.6
			c0-0.6-0.4-1.2-0.9-1.5c0.1-0.2,0.1-0.5,0.1-0.7C422.3,1868.1,422.4,1868.1,422.5,1868.1z"/>
		<rect x="418" y="1870.8" class="st7" width="6.5" height="12.5"/>
		<rect x="399.7" y="1899.7" class="st6" width="9.2" height="9.4"/>
	</g>
	<g>
		<g>
			<polygon class="st3" points="458.1,1372.8 398.7,1372.8 398.7,1366.5 428.8,1354.1 458.1,1366.5 			"/>
			<polygon class="st4" points="458.1,1345 398.7,1345 398.7,1344.4 428.8,1332 458.1,1344.4 			"/>
			<polygon class="st1" points="428.8,1332 398.7,1344.3 398.7,1366.8 428.8,1354.1 			"/>
			<polygon class="st5" points="458.1,1344.3 428.8,1332 428.8,1354.1 458.1,1366.8 			"/>
			<polygon class="st5" points="411.2,1352.8 407.9,1355 409.5,1351.2 405.3,1348.1 409.8,1346.8 414.2,1342.8 414.2,1347.2 
				418.4,1347.1 415.9,1348.9 418.4,1352.8 414.8,1351.4 411.8,1355.7 			"/>
			<polygon class="st6" points="411.4,1351.7 408.9,1353.3 410.1,1350.4 407,1348.1 410.2,1347.2 413.4,1344.3 413.4,1347.5 
				416.7,1347.4 414.8,1348.8 416.7,1351.7 414,1350.7 411.8,1353.9 			"/>
			<path class="st9" d="M441.8,1331.7c1.3,0,2.4-1.1,2.4-2.4c0-1-0.6-1.8-1.4-2.2c0.1-0.1,0.1-0.3,0.1-0.5c0-0.1,0-0.3-0.1-0.4
				c0.5-0.1,0.8-0.5,0.8-1.1c0-0.5-0.4-0.9-0.8-1.1c0-0.1,0.1-0.2,0.1-0.3c0-0.6-0.5-1-1-1c-0.6,0-1,0.5-1,1c0,0.5,0.3,0.8,0.7,1
				c0,0.1-0.1,0.3-0.1,0.4c0,0,0,0,0,0.1l0,0c-0.8,0-1.5,0.7-1.5,1.5c0,0.3,0.1,0.6,0.3,0.9c-0.5,0.4-0.8,1.1-0.8,1.8
				c0,0.1,0,0.2,0,0.3l0,0c-1.1,0-2.1,0.9-2.1,2.1c0,1,0.7,1.9,1.7,2c0,0,0,0.1,0,0.1c0,0.9,0.7,1.6,1.6,1.6c0.9,0,1.6-0.7,1.6-1.6
				c0-0.6-0.4-1.2-0.9-1.5c0.1-0.2,0.1-0.5,0.1-0.7C441.6,1331.7,441.7,1331.7,441.8,1331.7z"/>
			<rect x="437.3" y="1334.5" class="st1" width="6.5" height="12.5"/>
		</g>
		<rect x="419" y="1363.4" class="st1" width="9.2" height="9.4"/>
	</g>
	<rect x="123.3" y="690.3" class="st10" width="7.5" height="11.7"/>
	<rect x="361.7" y="949.6" class="st10" width="7.5" height="11.7"/>
	<rect x="115.1" y="1266.3" class="st10" width="5.8" height="9"/>
	<rect x="124.2" y="788.6" class="st10" width="4.2" height="6.6"/>
	<rect x="414.6" y="653.1" class="st10" width="4.2" height="6.6"/>
	<rect x="121.1" y="1501.2" class="st10" width="4.2" height="6.6"/>
	<rect x="379.8" y="1818.9" class="st10" width="4.2" height="6.6"/>
	<rect x="366.9" y="1294.5" class="st10" width="4.2" height="6.6"/>
	<rect x="396.6" y="34.5" class="st10" width="4.2" height="6.6"/>
	<rect x="400.8" y="885.9" class="st10" width="6.2" height="9.8"/>
	<g>
		<linearGradient id="SVGID_2_" gradientUnits="userSpaceOnUse" x1="-223.9497" y1="175.6931" x2="70.0503" y2="1455.6931">
			<stop  offset="0" style="stop-color:#768C10"/>
			<stop  offset="6.553011e-02" style="stop-color:#838D17"/>
			<stop  offset="0.221" style="stop-color:#9A9024"/>
			<stop  offset="0.3857" style="stop-color:#AC922D"/>
			<stop  offset="0.5644" style="stop-color:#B69332"/>
			<stop  offset="0.7825" style="stop-color:#B99334"/>
			<stop  offset="0.9562" style="stop-color:#DB8534"/>
		</linearGradient>
		<polygon class="st11" points="36.5,1409 59.3,1369.3 82.2,1409 		"/>
		<linearGradient id="SVGID_3_" gradientUnits="userSpaceOnUse" x1="79.8979" y1="105.9031" x2="373.8979" y2="1385.9032">
			<stop  offset="0" style="stop-color:#768C10"/>
			<stop  offset="6.553011e-02" style="stop-color:#838D17"/>
			<stop  offset="0.221" style="stop-color:#9A9024"/>
			<stop  offset="0.3857" style="stop-color:#AC922D"/>
			<stop  offset="0.5644" style="stop-color:#B69332"/>
			<stop  offset="0.7825" style="stop-color:#B99334"/>
			<stop  offset="0.9562" style="stop-color:#DB8534"/>
		</linearGradient>
		<polygon class="st12" points="390.4,1557.4 413.3,1517.8 436.1,1557.4 		"/>
		<linearGradient id="SVGID_4_" gradientUnits="userSpaceOnUse" x1="-325.4722" y1="199.0116" x2="-31.4722" y2="1479.0116">
			<stop  offset="0" style="stop-color:#768C10"/>
			<stop  offset="6.553011e-02" style="stop-color:#838D17"/>
			<stop  offset="0.221" style="stop-color:#9A9024"/>
			<stop  offset="0.3857" style="stop-color:#AC922D"/>
			<stop  offset="0.5644" style="stop-color:#B69332"/>
			<stop  offset="0.7825" style="stop-color:#B99334"/>
			<stop  offset="0.9562" style="stop-color:#DB8534"/>
		</linearGradient>
		<polygon class="st13" points="38.2,1859.1 55.9,1828.6 73.4,1859.1 		"/>
		<linearGradient id="SVGID_5_" gradientUnits="userSpaceOnUse" x1="86.9274" y1="104.2885" x2="380.9275" y2="1384.2886">
			<stop  offset="0" style="stop-color:#768C10"/>
			<stop  offset="6.553011e-02" style="stop-color:#838D17"/>
			<stop  offset="0.221" style="stop-color:#9A9024"/>
			<stop  offset="0.3857" style="stop-color:#AC922D"/>
			<stop  offset="0.5644" style="stop-color:#B69332"/>
			<stop  offset="0.7825" style="stop-color:#B99334"/>
			<stop  offset="0.9562" style="stop-color:#DB8534"/>
		</linearGradient>
		<polygon class="st14" points="115.5,284.8 128.4,262.4 141.3,284.8 		"/>
		<linearGradient id="SVGID_6_" gradientUnits="userSpaceOnUse" x1="337.1384" y1="46.8182" x2="631.1384" y2="1326.8182">
			<stop  offset="0" style="stop-color:#768C10"/>
			<stop  offset="6.553011e-02" style="stop-color:#838D17"/>
			<stop  offset="0.221" style="stop-color:#9A9024"/>
			<stop  offset="0.3857" style="stop-color:#AC922D"/>
			<stop  offset="0.5644" style="stop-color:#B69332"/>
			<stop  offset="0.7825" style="stop-color:#B99334"/>
			<stop  offset="0.9562" style="stop-color:#DB8534"/>
		</linearGradient>
		<polygon class="st15" points="370,246 382.9,223.6 395.8,246 		"/>
		<linearGradient id="SVGID_7_" gradientUnits="userSpaceOnUse" x1="336.8248" y1="46.8903" x2="630.8248" y2="1326.8903">
			<stop  offset="0" style="stop-color:#768C10"/>
			<stop  offset="6.553011e-02" style="stop-color:#838D17"/>
			<stop  offset="0.221" style="stop-color:#9A9024"/>
			<stop  offset="0.3857" style="stop-color:#AC922D"/>
			<stop  offset="0.5644" style="stop-color:#B69332"/>
			<stop  offset="0.7825" style="stop-color:#B99334"/>
			<stop  offset="0.9562" style="stop-color:#DB8534"/>
		</linearGradient>
		<polygon class="st16" points="335.1,95.7 348,73.3 360.9,95.7 		"/>
		<linearGradient id="SVGID_8_" gradientUnits="userSpaceOnUse" x1="31.2744" y1="117.0714" x2="325.2744" y2="1397.0714">
			<stop  offset="0" style="stop-color:#768C10"/>
			<stop  offset="6.553011e-02" style="stop-color:#838D17"/>
			<stop  offset="0.221" style="stop-color:#9A9024"/>
			<stop  offset="0.3857" style="stop-color:#AC922D"/>
			<stop  offset="0.5644" style="stop-color:#B69332"/>
			<stop  offset="0.7825" style="stop-color:#B99334"/>
			<stop  offset="0.9562" style="stop-color:#DB8534"/>
		</linearGradient>
		<polygon class="st17" points="31,172 43.9,149.6 56.8,172 		"/>
		<linearGradient id="SVGID_9_" gradientUnits="userSpaceOnUse" x1="23.0973" y1="118.9495" x2="317.0973" y2="1398.9496">
			<stop  offset="0" style="stop-color:#768C10"/>
			<stop  offset="6.553011e-02" style="stop-color:#838D17"/>
			<stop  offset="0.221" style="stop-color:#9A9024"/>
			<stop  offset="0.3857" style="stop-color:#AC922D"/>
			<stop  offset="0.5644" style="stop-color:#B69332"/>
			<stop  offset="0.7825" style="stop-color:#B99334"/>
			<stop  offset="0.9562" style="stop-color:#DB8534"/>
		</linearGradient>
		<polygon class="st18" points="40.7,251.8 53.6,229.4 66.5,251.8 		"/>
		<linearGradient id="SVGID_10_" gradientUnits="userSpaceOnUse" x1="359.6395" y1="41.65" x2="653.6395" y2="1321.65">
			<stop  offset="0" style="stop-color:#768C10"/>
			<stop  offset="6.553011e-02" style="stop-color:#838D17"/>
			<stop  offset="0.221" style="stop-color:#9A9024"/>
			<stop  offset="0.3857" style="stop-color:#AC922D"/>
			<stop  offset="0.5644" style="stop-color:#B69332"/>
			<stop  offset="0.7825" style="stop-color:#B99334"/>
			<stop  offset="0.9562" style="stop-color:#DB8534"/>
		</linearGradient>
		<polygon class="st19" points="406.2,327.3 425.3,294.3 444.3,327.3 		"/>
		<linearGradient id="SVGID_11_" gradientUnits="userSpaceOnUse" x1="55.6161" y1="111.4804" x2="349.6161" y2="1391.4803">
			<stop  offset="0" style="stop-color:#768C10"/>
			<stop  offset="6.553011e-02" style="stop-color:#838D17"/>
			<stop  offset="0.221" style="stop-color:#9A9024"/>
			<stop  offset="0.3857" style="stop-color:#AC922D"/>
			<stop  offset="0.5644" style="stop-color:#B69332"/>
			<stop  offset="0.7825" style="stop-color:#B99334"/>
			<stop  offset="0.9562" style="stop-color:#DB8534"/>
		</linearGradient>
		<polygon class="st20" points="408.6,1747.7 431.5,1708.1 454.3,1747.7 		"/>
		<linearGradient id="SVGID_12_" gradientUnits="userSpaceOnUse" x1="409.0558" y1="30.2634" x2="703.0558" y2="1310.2634">
			<stop  offset="0" style="stop-color:#768C10"/>
			<stop  offset="6.553011e-02" style="stop-color:#838D17"/>
			<stop  offset="0.221" style="stop-color:#9A9024"/>
			<stop  offset="0.3857" style="stop-color:#AC922D"/>
			<stop  offset="0.5644" style="stop-color:#B69332"/>
			<stop  offset="0.7825" style="stop-color:#B99334"/>
			<stop  offset="0.9562" style="stop-color:#DB8534"/>
		</linearGradient>
		<polygon class="st21" points="404.6,110.6 427.5,70.9 450.4,110.6 		"/>
		<linearGradient id="SVGID_13_" gradientUnits="userSpaceOnUse" x1="-3.622" y1="125.0866" x2="290.378" y2="1405.0867">
			<stop  offset="0" style="stop-color:#768C10"/>
			<stop  offset="6.553011e-02" style="stop-color:#838D17"/>
			<stop  offset="0.221" style="stop-color:#9A9024"/>
			<stop  offset="0.3857" style="stop-color:#AC922D"/>
			<stop  offset="0.5644" style="stop-color:#B69332"/>
			<stop  offset="0.7825" style="stop-color:#B99334"/>
			<stop  offset="0.9562" style="stop-color:#DB8534"/>
		</linearGradient>
		<polygon class="st22" points="104.2,694 127.1,654.4 149.9,694 		"/>
		<linearGradient id="SVGID_14_" gradientUnits="userSpaceOnUse" x1="166.2576" y1="86.0674" x2="460.2575" y2="1366.0674">
			<stop  offset="0" style="stop-color:#768C10"/>
			<stop  offset="6.553011e-02" style="stop-color:#838D17"/>
			<stop  offset="0.221" style="stop-color:#9A9024"/>
			<stop  offset="0.3857" style="stop-color:#AC922D"/>
			<stop  offset="0.5644" style="stop-color:#B69332"/>
			<stop  offset="0.7825" style="stop-color:#B99334"/>
			<stop  offset="0.9562" style="stop-color:#DB8534"/>
		</linearGradient>
		<polygon class="st23" points="342.6,953.4 365.5,913.8 388.3,953.4 		"/>
		<linearGradient id="SVGID_15_" gradientUnits="userSpaceOnUse" x1="-137.7205" y1="155.8874" x2="156.2795" y2="1435.8873">
			<stop  offset="0" style="stop-color:#768C10"/>
			<stop  offset="6.553011e-02" style="stop-color:#838D17"/>
			<stop  offset="0.221" style="stop-color:#9A9024"/>
			<stop  offset="0.3857" style="stop-color:#AC922D"/>
			<stop  offset="0.5644" style="stop-color:#B69332"/>
			<stop  offset="0.7825" style="stop-color:#B99334"/>
			<stop  offset="0.9562" style="stop-color:#DB8534"/>
		</linearGradient>
		<polygon class="st24" points="100.4,1269.2 118,1238.7 135.6,1269.2 		"/>
		<linearGradient id="SVGID_16_" gradientUnits="userSpaceOnUse" x1="-25.4253" y1="130.0946" x2="268.5747" y2="1410.0946">
			<stop  offset="0" style="stop-color:#768C10"/>
			<stop  offset="6.553011e-02" style="stop-color:#838D17"/>
			<stop  offset="0.221" style="stop-color:#9A9024"/>
			<stop  offset="0.3857" style="stop-color:#AC922D"/>
			<stop  offset="0.5644" style="stop-color:#B69332"/>
			<stop  offset="0.7825" style="stop-color:#B99334"/>
			<stop  offset="0.9562" style="stop-color:#DB8534"/>
		</linearGradient>
		<polygon class="st25" points="113.5,790.9 126.4,768.6 139.3,790.9 		"/>
		<linearGradient id="SVGID_17_" gradientUnits="userSpaceOnUse" x1="279.9992" y1="59.9424" x2="573.9992" y2="1339.9424">
			<stop  offset="0" style="stop-color:#768C10"/>
			<stop  offset="6.553011e-02" style="stop-color:#838D17"/>
			<stop  offset="0.221" style="stop-color:#9A9024"/>
			<stop  offset="0.3857" style="stop-color:#AC922D"/>
			<stop  offset="0.5644" style="stop-color:#B69332"/>
			<stop  offset="0.7825" style="stop-color:#B99334"/>
			<stop  offset="0.9562" style="stop-color:#DB8534"/>
		</linearGradient>
		<polygon class="st26" points="403.8,655.3 416.8,633 429.7,655.3 		"/>
		<linearGradient id="SVGID_18_" gradientUnits="userSpaceOnUse" x1="-183.7976" y1="166.4707" x2="110.2024" y2="1446.4707">
			<stop  offset="0" style="stop-color:#768C10"/>
			<stop  offset="6.553011e-02" style="stop-color:#838D17"/>
			<stop  offset="0.221" style="stop-color:#9A9024"/>
			<stop  offset="0.3857" style="stop-color:#AC922D"/>
			<stop  offset="0.5644" style="stop-color:#B69332"/>
			<stop  offset="0.7825" style="stop-color:#B99334"/>
			<stop  offset="0.9562" style="stop-color:#DB8534"/>
		</linearGradient>
		<polygon class="st27" points="110.4,1503.5 123.3,1481.1 136.2,1503.5 		"/>
		<linearGradient id="SVGID_19_" gradientUnits="userSpaceOnUse" x1="-7.4017" y1="125.9548" x2="286.5983" y2="1405.9547">
			<stop  offset="0" style="stop-color:#768C10"/>
			<stop  offset="6.553011e-02" style="stop-color:#838D17"/>
			<stop  offset="0.221" style="stop-color:#9A9024"/>
			<stop  offset="0.3857" style="stop-color:#AC922D"/>
			<stop  offset="0.5644" style="stop-color:#B69332"/>
			<stop  offset="0.7825" style="stop-color:#B99334"/>
			<stop  offset="0.9562" style="stop-color:#DB8534"/>
		</linearGradient>
		<polygon class="st28" points="369,1821.1 381.9,1798.7 394.9,1821.1 		"/>
		<linearGradient id="SVGID_20_" gradientUnits="userSpaceOnUse" x1="94.7355" y1="102.4951" x2="388.7355" y2="1382.4951">
			<stop  offset="0" style="stop-color:#768C10"/>
			<stop  offset="6.553011e-02" style="stop-color:#838D17"/>
			<stop  offset="0.221" style="stop-color:#9A9024"/>
			<stop  offset="0.3857" style="stop-color:#AC922D"/>
			<stop  offset="0.5644" style="stop-color:#B69332"/>
			<stop  offset="0.7825" style="stop-color:#B99334"/>
			<stop  offset="0.9562" style="stop-color:#DB8534"/>
		</linearGradient>
		<polygon class="st29" points="356.1,1296.7 369.1,1274.3 382,1296.7 		"/>
		<linearGradient id="SVGID_21_" gradientUnits="userSpaceOnUse" x1="397.8547" y1="32.8724" x2="691.8547" y2="1312.8724">
			<stop  offset="0" style="stop-color:#768C10"/>
			<stop  offset="6.553011e-02" style="stop-color:#838D17"/>
			<stop  offset="0.221" style="stop-color:#9A9024"/>
			<stop  offset="0.3857" style="stop-color:#AC922D"/>
			<stop  offset="0.5644" style="stop-color:#B69332"/>
			<stop  offset="0.7825" style="stop-color:#B99334"/>
			<stop  offset="0.9562" style="stop-color:#DB8534"/>
		</linearGradient>
		<polygon class="st30" points="385.8,36.8 398.8,14.4 411.7,36.8 		"/>
		<linearGradient id="SVGID_22_" gradientUnits="userSpaceOnUse" x1="216.7562" y1="74.4685" x2="510.7563" y2="1354.4685">
			<stop  offset="0" style="stop-color:#768C10"/>
			<stop  offset="6.553011e-02" style="stop-color:#838D17"/>
			<stop  offset="0.221" style="stop-color:#9A9024"/>
			<stop  offset="0.3857" style="stop-color:#AC922D"/>
			<stop  offset="0.5644" style="stop-color:#B69332"/>
			<stop  offset="0.7825" style="stop-color:#B99334"/>
			<stop  offset="0.9562" style="stop-color:#DB8534"/>
		</linearGradient>
		<polygon class="st31" points="384.9,889.1 403.9,856.1 422.9,889.1 		"/>
		<linearGradient id="SVGID_23_" gradientUnits="userSpaceOnUse" x1="310.9203" y1="52.8402" x2="604.9203" y2="1332.8402">
			<stop  offset="0" style="stop-color:#768C10"/>
			<stop  offset="6.553011e-02" style="stop-color:#838D17"/>
			<stop  offset="0.221" style="stop-color:#9A9024"/>
			<stop  offset="0.3857" style="stop-color:#AC922D"/>
			<stop  offset="0.5644" style="stop-color:#B69332"/>
			<stop  offset="0.7825" style="stop-color:#B99334"/>
			<stop  offset="0.9562" style="stop-color:#DB8534"/>
		</linearGradient>
		<polygon class="st32" points="416.8,613.2 439.6,573.6 462.5,613.2 		"/>
	</g>
	<rect x="435.9" y="609.4" class="st10" width="7.5" height="11.7"/>
</g>
<g id="Layer_2" class="st33">
	<linearGradient id="SVGID_24_" gradientUnits="userSpaceOnUse" x1="-1202.2821" y1="-353.9724" x2="-919.5641" y2="2233.3672">
		<stop  offset="0" style="stop-color:#CEC58E"/>
		<stop  offset="0.5085" style="stop-color:#DDC289"/>
		<stop  offset="0.7876" style="stop-color:#E8C086"/>
	</linearGradient>
	<rect x="-2063.6" y="-584.8" class="st34" width="2000" height="3000"/>
	<linearGradient id="SVGID_25_" gradientUnits="userSpaceOnUse" x1="-1228.0718" y1="-590.0898" x2="-899.1282" y2="2420.2898">
		<stop  offset="0" style="stop-color:#474646"/>
		<stop  offset="0.3678" style="stop-color:#383737"/>
		<stop  offset="1" style="stop-color:#141414"/>
	</linearGradient>
	<polygon class="st35" points="-1265.5,-586 -1265.5,914 -1265.5,916.2 -1265.5,2416.2 -861.7,2416.2 -861.7,916.2 -861.7,914 
		-861.7,-586 	"/>
	<g class="st36">
		<rect x="-1069.3" y="-584.8" class="st2" width="12" height="30"/>
		<rect x="-1069.3" y="512.2" class="st2" width="12" height="58"/>
		<rect x="-1069.3" y="387.2" class="st2" width="12" height="58"/>
		<rect x="-1069.3" y="637.2" class="st2" width="12" height="58"/>
		<rect x="-1069.3" y="262.2" class="st2" width="12" height="58"/>
		<rect x="-1069.3" y="762.2" class="st2" width="12" height="58"/>
		<rect x="-1069.3" y="-487.8" class="st2" width="12" height="58"/>
		<rect x="-1069.3" y="137.2" class="st2" width="12" height="58"/>
		<rect x="-1069.3" y="-362.8" class="st2" width="12" height="58"/>
		<rect x="-1069.3" y="-237.8" class="st2" width="12" height="58"/>
		<rect x="-1069.3" y="12.2" class="st2" width="12" height="58"/>
		<rect x="-1069.3" y="-112.8" class="st2" width="12" height="58"/>
		<polygon class="st2" points="-1069.3,915.2 -1069.3,915.2 -1069.3,945.2 -1057.3,945.2 -1057.3,915.2 -1057.3,915.2 
			-1057.3,885.2 -1069.3,885.2 		"/>
		<rect x="-1069.3" y="1762.2" class="st2" width="12" height="58"/>
		<rect x="-1069.3" y="1887.2" class="st2" width="12" height="58"/>
		<rect x="-1069.3" y="2262.2" class="st2" width="12" height="58"/>
		<rect x="-1069.3" y="2012.2" class="st2" width="12" height="58"/>
		<rect x="-1069.3" y="2137.2" class="st2" width="12" height="58"/>
		<rect x="-1069.3" y="1387.2" class="st2" width="12" height="58"/>
		<rect x="-1069.3" y="1137.2" class="st2" width="12" height="58"/>
		<rect x="-1069.3" y="1637.2" class="st2" width="12" height="58"/>
		<rect x="-1069.3" y="1012.2" class="st2" width="12" height="58"/>
		<rect x="-1069.3" y="1262.2" class="st2" width="12" height="58"/>
		<rect x="-1069.3" y="1512.2" class="st2" width="12" height="58"/>
		<rect x="-1069.3" y="2385.2" class="st2" width="12" height="30"/>
	</g>
	<g class="st36">
		<polygon class="st2" points="-1243.3,915.2 -1243.3,915.2 -1243.3,2415.2 -1231.3,2415.2 -1231.3,915.2 -1231.3,915.2 
			-1231.3,-584.8 -1243.3,-584.8 		"/>
		<polygon class="st2" points="-895.3,-584.8 -895.3,915.2 -895.3,915.2 -895.3,2415.2 -883.3,2415.2 -883.3,915.2 -883.3,915.2 
			-883.3,-584.8 		"/>
	</g>
	<g class="st36">
		<polygon class="st3" points="-1324.1,451 -1499.7,451 -1499.7,422.7 -1411.9,395.4 -1324.1,422.7 		"/>
		<polygon class="st4" points="-1324.1,348.3 -1499.7,348.3 -1499.7,320 -1411.9,292.7 -1324.1,320 		"/>
		<polygon class="st1" points="-1411.9,292.7 -1499.7,319.5 -1499.7,423.5 -1411.9,395.4 		"/>
		<polygon class="st5" points="-1324.1,319.5 -1411.9,292.7 -1411.9,395.4 -1324.1,423.5 		"/>
		<polygon class="st1" points="-1370.4,332 -1385.6,322 -1378,339.7 -1397.7,353.9 -1377.1,359.7 -1357.3,378.2 -1357.3,358.2 
			-1337.4,358.2 -1348.7,350 -1337.3,332.2 -1353.7,338.3 -1367.5,318.4 		"/>
		<polygon class="st6" points="-1369.7,336.2 -1380.9,328.7 -1375.3,341.9 -1389.9,352.5 -1374.8,356.7 -1360.3,370.4 
			-1360.3,355.7 -1345.3,355.7 -1353.6,349.7 -1345.1,336.2 -1357.2,340.9 -1367.5,326.2 		"/>
		<rect x="-1424.6" y="417" class="st1" width="25.4" height="33.9"/>
	</g>
	<g class="st36">
		<polygon class="st3" points="-596.3,-62 -759.9,-62 -759.9,-79.3 -677.1,-113.6 -596.3,-79.3 		"/>
		<polygon class="st1" points="-677.1,-174.3 -759.9,-140.5 -759.9,-78.5 -677.1,-113.6 		"/>
		<polygon class="st5" points="-596.3,-140.5 -677.1,-174.3 -677.1,-113.6 -596.3,-78.5 		"/>
		<polygon class="st5" points="-707.1,-75 -714.3,-70.1 -710.7,-78.7 -720,-85.3 -710,-88.1 -700.3,-96.8 -700.3,-87.3 
			-691.1,-87.3 -696.6,-83.6 -691.3,-75 -699.1,-78 -705.7,-68.6 		"/>
		<polygon class="st6" points="-706.7,-77.5 -712.1,-73.8 -709.4,-80.1 -716.4,-85.1 -709.2,-87.1 -702.3,-93.7 -702.3,-86.7 
			-695.2,-86.7 -699.1,-83.8 -695.1,-77.5 -700.8,-79.7 -705.7,-72.7 		"/>
		<rect x="-675.9" y="-96" class="st1" width="25.4" height="33.9"/>
	</g>
	<g class="st36">
		<polygon class="st3" points="-1558.3,-64 -1721.9,-64 -1721.9,-81.3 -1639.1,-115.6 -1558.3,-81.3 		"/>
		<polygon class="st4" points="-1558.3,-140.7 -1721.9,-140.7 -1721.9,-142 -1639.1,-176.3 -1558.3,-142 		"/>
		<polygon class="st1" points="-1639.1,-176.3 -1721.9,-142.5 -1721.9,-80.5 -1639.1,-115.6 		"/>
		<polygon class="st5" points="-1558.3,-142.5 -1639.1,-176.3 -1639.1,-115.6 -1558.3,-80.5 		"/>
		<rect x="-1666" y="-98" class="st1" width="25.4" height="33.9"/>
		<rect x="-1632.6" y="-98" class="st1" width="14.8" height="14"/>
		<polygon class="st3" points="-1594.2,-134.8 -1587.6,-139.3 -1590.9,-131.5 -1582.2,-125.1 -1590.9,-122.7 -1599.3,-114.6 
			-1599.3,-123.3 -1608.4,-123.3 -1603.6,-127 -1608.8,-134.8 -1601.6,-132.1 -1595.5,-140.8 		"/>
		<polygon class="st6" points="-1594.6,-133 -1589.6,-136.3 -1592.1,-130.5 -1585.6,-125.8 -1592.1,-124 -1598.3,-117.8 
			-1598.3,-124.5 -1605.1,-124.5 -1601.5,-127.1 -1605.4,-133 -1600,-131 -1595.5,-137.5 		"/>
	</g>
	<polygon class="st37" points="-433.3,616 -596.9,616 -596.9,598.7 -514.1,564.4 -433.3,598.7 	"/>
	<polygon class="st38" points="-433.3,539.3 -596.9,539.3 -596.9,538 -514.1,503.7 -433.3,538 	"/>
	<polygon class="st39" points="-514.1,503.7 -596.9,537.5 -596.9,599.5 -514.1,564.4 	"/>
	<polygon class="st40" points="-433.3,537.5 -514.1,503.7 -514.1,564.4 -433.3,599.5 	"/>
	<polygon class="st40" points="-549.7,543 -555.1,546.7 -552.4,540.3 -559.3,535.3 -552.2,533.3 -545.3,526.7 -545.3,533.9 
		-538.2,533.9 -542.1,536.7 -538.1,543 -543.8,540.9 -548.7,547.9 	"/>
	<polygon class="st41" points="-549.5,541.2 -553.4,543.9 -551.5,539.2 -556.6,535.4 -551.4,533.9 -546.3,529.2 -546.3,534.3 
		-540.9,534.3 -543.8,536.5 -540.8,541.2 -545.1,539.5 -548.7,544.7 	"/>
	<rect x="-541" y="582" class="st41" width="25.4" height="33.9"/>
	<rect x="-507.6" y="582" class="st41" width="14.8" height="14"/>
	<polygon class="st39" points="-482,535.4 -495,526.7 -488.5,541.9 -505.4,554.2 -487.5,559 -470.3,574.9 -470.3,557.7 
		-453.5,557.9 -463.3,550.9 -453.6,535.4 -467.6,540.7 -479.5,523.7 	"/>
	<polygon class="st41" points="-481.4,538.9 -491,532.5 -486.2,543.9 -498.7,552.9 -485.8,556.5 -473.3,568.3 -473.3,555.5 
		-460.5,555.7 -467.6,550.4 -460.3,539 -470.7,542.9 -479.5,530.2 	"/>
	<path class="st42" d="M-478.1,534.4c-5.1,0-9.3-4.2-9.3-9.3c0-3.8,2.3-7,5.5-8.5c-0.2-0.6-0.4-1.3-0.4-2c0-0.6,0.1-1.2,0.3-1.8
		c-1.9-0.5-3.3-2.1-3.3-4.2c0-2,1.4-3.7,3.3-4.2c-0.1-0.4-0.2-0.8-0.2-1.3c0-2.2,1.8-4,4-4s4,1.8,4,4c0,1.8-1.2,3.3-2.8,3.8
		c0.2,0.5,0.3,1,0.3,1.6c0,0.1,0,0.2,0,0.3l0,0c3.1,0,5.6,2.5,5.6,5.6c0,1.3-0.4,2.5-1.2,3.4c2,1.7,3.3,4.3,3.3,7.1
		c0,0.3,0,0.7-0.1,1c0,0,0,0,0.1,0c4.5,0,8.1,3.6,8.1,8.1c0,4-2.9,7.3-6.6,8c0,0.2,0,0.4,0,0.6c0,3.5-2.8,6.3-6.3,6.3
		s-6.3-2.8-6.3-6.3c0-2.5,1.4-4.6,3.5-5.6c-0.3-0.9-0.5-1.8-0.5-2.8C-477.3,534.4-477.7,534.4-478.1,534.4z"/>
	<g class="st36">
		<polygon class="st3" points="-1439.1,718 -1614.7,718 -1614.7,646.7 -1526.9,619.4 -1439.1,646.7 		"/>
		<polygon class="st4" points="-1439.1,615.3 -1614.7,615.3 -1614.7,595.9 -1526.9,568.5 -1439.1,595.9 		"/>
		<polygon class="st1" points="-1526.9,568.5 -1614.7,595.2 -1614.7,647.5 -1526.9,619.4 		"/>
		<polygon class="st5" points="-1439.1,595.2 -1526.9,568.5 -1526.9,619.4 -1439.1,647.5 		"/>
		<rect x="-1575.8" y="684" class="st1" width="25.4" height="33.9"/>
		<rect x="-1538.6" y="685.2" class="st1" width="14.8" height="14"/>
		<path class="st9" d="M-1487,549.4c5.1,0,9.3-4.2,9.3-9.3c0-3.8-2.3-7-5.5-8.5c0.2-0.6,0.4-1.3,0.4-2c0-0.6-0.1-1.2-0.3-1.8
			c1.9-0.5,3.3-2.1,3.3-4.2c0-2-1.4-3.7-3.3-4.2c0.1-0.4,0.2-0.8,0.2-1.3c0-2.2-1.8-4-4-4c-2.2,0-4,1.8-4,4c0,1.8,1.2,3.3,2.8,3.8
			c-0.2,0.5-0.3,1-0.3,1.6c0,0.1,0,0.2,0,0.3l0,0c-3.1,0-5.6,2.5-5.6,5.6c0,1.3,0.4,2.5,1.2,3.4c-2,1.7-3.3,4.3-3.3,7.1
			c0,0.3,0,0.7,0.1,1c0,0,0,0-0.1,0c-4.5,0-8.1,3.6-8.1,8.1c0,4,2.9,7.3,6.6,8c0,0.2,0,0.4,0,0.6c0,3.5,2.8,6.3,6.3,6.3
			s6.3-2.8,6.3-6.3c0-2.5-1.4-4.6-3.5-5.6c0.3-0.9,0.5-1.8,0.5-2.8C-1487.8,549.4-1487.4,549.4-1487,549.4z"/>
		<rect x="-1504.6" y="560.2" class="st1" width="25.4" height="48.7"/>
	</g>
	<g class="st36">
		<g>
			<polygon class="st3" points="-1374.3,-303 -1537.9,-303 -1537.9,-320.3 -1455.1,-354.6 -1374.3,-320.3 			"/>
			<polygon class="st4" points="-1374.3,-379.7 -1537.9,-379.7 -1537.9,-381 -1455.1,-415.3 -1374.3,-381 			"/>
			<polygon class="st1" points="-1455.1,-415.3 -1537.9,-381.5 -1537.9,-319.5 -1455.1,-354.6 			"/>
			<polygon class="st5" points="-1374.3,-381.5 -1455.1,-415.3 -1455.1,-354.6 -1374.3,-319.5 			"/>
			<polygon class="st5" points="-1503.5,-358 -1512.5,-352 -1508,-362.6 -1519.8,-371.1 -1507.3,-374.5 -1495.3,-385.6 
				-1495.3,-373.6 -1483.5,-373.7 -1490.4,-368.8 -1483.6,-358 -1493.4,-361.8 -1501.7,-349.8 			"/>
			<polygon class="st6" points="-1503,-361.1 -1509.8,-356.6 -1506.4,-364.5 -1515.1,-370.8 -1506.1,-373.3 -1497.3,-381.6 
				-1497.3,-372.7 -1488.4,-372.8 -1493.4,-369.1 -1488.3,-361.1 -1495.6,-363.8 -1501.7,-355 			"/>
			<path class="st9" d="M-1419.2-416c3.6,0,6.5-2.9,6.5-6.5c0-2.7-1.6-4.9-3.9-6c0.2-0.4,0.3-0.9,0.3-1.4c0-0.4-0.1-0.9-0.2-1.2
				c1.3-0.3,2.3-1.5,2.3-2.9s-1-2.6-2.3-2.9c0.1-0.3,0.2-0.6,0.2-0.9c0-1.6-1.3-2.8-2.8-2.8c-1.6,0-2.8,1.3-2.8,2.8
				c0,1.3,0.8,2.3,2,2.7c-0.1,0.3-0.2,0.7-0.2,1.1c0,0.1,0,0.1,0,0.2l0,0c-2.2,0-4,1.8-4,4c0,0.9,0.3,1.7,0.8,2.4
				c-1.4,1.2-2.3,3-2.3,5c0,0.2,0,0.5,0,0.7l0,0c-3.1,0-5.7,2.6-5.7,5.7c0,2.8,2,5.1,4.7,5.6c0,0.1,0,0.3,0,0.4c0,2.4,2,4.4,4.4,4.4
				s4.4-2,4.4-4.4c0-1.7-1-3.3-2.5-4c0.2-0.6,0.4-1.3,0.4-2C-1419.8-416-1419.5-416-1419.2-416z"/>
			<rect x="-1431.6" y="-408.5" class="st1" width="17.9" height="34.3"/>
		</g>
		<rect x="-1482" y="-328.8" class="st1" width="25.4" height="25.8"/>
	</g>
	<rect x="-1669.3" y="472.9" class="st43" width="20.7" height="32.3"/>
	<rect x="-1670.1" y="-454.6" class="st43" width="20.7" height="32.3"/>
	<rect x="-1434.9" y="20.2" class="st43" width="15.9" height="24.9"/>
	<rect x="-1378.7" y="202.9" class="st43" width="11.7" height="18.2"/>
	<rect x="-677.7" y="95.9" class="st43" width="11.7" height="18.2"/>
	<rect x="-773.7" y="-318.1" class="st43" width="11.7" height="18.2"/>
	<rect x="-1474.7" y="-190.1" class="st43" width="11.7" height="18.2"/>
	<rect x="-1584.7" y="111.9" class="st43" width="11.7" height="18.2"/>
	<rect x="-563.7" y="317.2" class="st43" width="17.2" height="26.9"/>
	<rect x="-729.3" y="449.9" class="st43" width="20.7" height="32.3"/>
	<rect x="-559.3" y="-281.1" class="st43" width="20.7" height="32.3"/>
	<g class="st36">
		<polygon class="st3" points="-1358.1,2024.3 -1533.7,2024.3 -1533.7,1996 -1445.9,1968.7 -1358.1,1996 		"/>
		<polygon class="st4" points="-1358.1,1921.7 -1533.7,1921.7 -1533.7,1893.3 -1445.9,1866 -1358.1,1893.3 		"/>
		<polygon class="st1" points="-1445.9,1866 -1533.7,1892.8 -1533.7,1996.8 -1445.9,1968.7 		"/>
		<polygon class="st5" points="-1358.1,1892.8 -1445.9,1866 -1445.9,1968.7 -1358.1,1996.8 		"/>
		<polygon class="st3" points="-1404.4,1905.3 -1419.6,1895.3 -1412,1913 -1431.7,1927.2 -1411.1,1932.9 -1391.3,1951.4 
			-1391.3,1931.4 -1371.4,1931.5 -1382.7,1923.3 -1371.3,1905.4 -1387.7,1911.7 -1401.5,1891.7 		"/>
		<polygon class="st6" points="-1403.7,1909.5 -1414.9,1902 -1409.3,1915.2 -1423.9,1925.8 -1408.8,1930 -1394.3,1943.7 
			-1394.3,1928.9 -1379.3,1929 -1387.6,1922.9 -1379.1,1909.5 -1391.2,1914.2 -1401.5,1899.4 		"/>
		<rect x="-1458.6" y="1990.3" class="st1" width="25.4" height="33.9"/>
	</g>
	<g class="st36">
		<polygon class="st3" points="-1473.9,1284.2 -1637.5,1284.2 -1637.5,1266.9 -1554.7,1232.5 -1473.9,1266.9 		"/>
		<polygon class="st1" points="-1554.7,1171.9 -1637.5,1205.7 -1637.5,1267.7 -1554.7,1232.5 		"/>
		<polygon class="st5" points="-1473.9,1205.7 -1554.7,1171.9 -1554.7,1232.5 -1473.9,1267.7 		"/>
		<polygon class="st5" points="-1584.7,1271.2 -1591.9,1276 -1588.3,1267.5 -1597.6,1260.8 -1587.6,1258 -1577.9,1249.3 
			-1577.9,1258.8 -1568.7,1258.8 -1574.2,1262.5 -1568.9,1271.2 -1576.7,1268.2 -1583.3,1277.5 		"/>
		<polygon class="st6" points="-1584.3,1268.7 -1589.7,1272.3 -1587,1266 -1594,1261 -1586.8,1259 -1579.9,1252.5 -1579.9,1259.5 
			-1572.8,1259.5 -1576.7,1262.4 -1572.7,1268.7 -1578.4,1266.5 -1583.3,1273.5 		"/>
		<rect x="-1553.5" y="1250.2" class="st1" width="25.4" height="33.9"/>
	</g>
	<g class="st36">
		<polygon class="st3" points="-587.3,1521.5 -750.9,1521.5 -750.9,1504.2 -668.1,1469.9 -587.3,1504.2 		"/>
		<polygon class="st1" points="-668.1,1409.2 -750.9,1443 -750.9,1505 -668.1,1469.9 		"/>
		<polygon class="st5" points="-587.3,1443 -668.1,1409.2 -668.1,1469.9 -587.3,1505 		"/>
		<polygon class="st5" points="-698.1,1508.5 -705.3,1513.3 -701.7,1504.8 -711,1498 -701,1495.4 -691.3,1486.5 -691.3,1496 
			-682.1,1496 -687.6,1499.9 -682.3,1508.5 -690.1,1505.5 -696.7,1514.9 		"/>
		<polygon class="st6" points="-697.7,1506 -703.1,1509.5 -700.4,1503.3 -707.4,1498.3 -700.2,1496.3 -693.3,1489.8 -693.3,1496.8 
			-686.2,1496.8 -690.1,1499.7 -686.1,1506 -691.8,1503.8 -696.7,1510.8 		"/>
		<rect x="-666.9" y="1487.5" class="st1" width="25.4" height="33.9"/>
	</g>
	<g class="st36">
		<polygon class="st3" points="-1391.3,1077.8 -1554.9,1077.8 -1554.9,1060.5 -1472.1,1026.3 -1391.3,1060.5 		"/>
		<polygon class="st4" points="-1391.3,1001.2 -1554.9,1001.2 -1554.9,999.8 -1472.1,965.5 -1391.3,999.8 		"/>
		<polygon class="st1" points="-1472.1,965.5 -1554.9,999.3 -1554.9,1061.3 -1472.1,1026.3 		"/>
		<polygon class="st5" points="-1391.3,999.3 -1472.1,965.5 -1472.1,1026.3 -1391.3,1061.3 		"/>
		<rect x="-1499" y="1043.8" class="st1" width="25.4" height="33.9"/>
		<rect x="-1465.6" y="1043.8" class="st1" width="14.8" height="14"/>
		<polygon class="st3" points="-1427.2,1006.9 -1420.6,1002.5 -1423.9,1010.3 -1415.2,1016.7 -1423.9,1019.2 -1432.3,1027.3 
			-1432.3,1018.4 -1441.4,1018.5 -1436.6,1014.8 -1441.8,1006.9 -1434.6,1009.8 -1428.5,1000.9 		"/>
		<polygon class="st6" points="-1427.6,1008.8 -1422.6,1005.4 -1425.1,1011.3 -1418.6,1015.9 -1425.1,1017.8 -1431.3,1023.9 
			-1431.3,1017.3 -1438.1,1017.3 -1434.5,1014.8 -1438.4,1008.8 -1433,1010.8 -1428.5,1004.3 		"/>
	</g>
	<g class="st36">
		<polygon class="st3" points="-1410.1,2294.4 -1573.7,2294.4 -1573.7,2277.2 -1490.9,2242.8 -1410.1,2277.2 		"/>
		<polygon class="st4" points="-1410.1,2217.8 -1573.7,2217.8 -1573.7,2216.4 -1490.9,2182.2 -1410.1,2216.4 		"/>
		<polygon class="st1" points="-1490.9,2182.2 -1573.7,2215.9 -1573.7,2277.9 -1490.9,2242.8 		"/>
		<polygon class="st5" points="-1410.1,2215.9 -1490.9,2182.2 -1490.9,2242.8 -1410.1,2277.9 		"/>
		<polygon class="st3" points="-1526.5,2221.4 -1531.9,2225 -1529.2,2218.8 -1536.1,2213.8 -1529,2211.8 -1522.1,2205.2 
			-1522.1,2212.3 -1515,2212.3 -1518.9,2215.2 -1514.9,2221.4 -1520.6,2219.3 -1525.5,2226.3 		"/>
		<polygon class="st6" points="-1526.3,2219.7 -1530.2,2222.3 -1528.3,2217.7 -1533.4,2213.8 -1528.2,2212.3 -1523.1,2207.5 
			-1523.1,2212.8 -1517.7,2212.8 -1520.6,2214.9 -1517.6,2219.7 -1521.9,2217.9 -1525.5,2223.2 		"/>
		<rect x="-1517.8" y="2260.4" class="st1" width="25.4" height="33.9"/>
		<rect x="-1484.4" y="2260.4" class="st1" width="14.8" height="14"/>
		<polygon class="st3" points="-1458.8,2213.8 -1471.8,2205.2 -1465.3,2220.3 -1482.2,2232.5 -1464.3,2237.4 -1447.1,2253.3 
			-1447.1,2236.2 -1430.3,2236.3 -1440.1,2229.3 -1430.4,2213.8 -1444.4,2219.2 -1456.3,2202.2 		"/>
		<polygon class="st6" points="-1458.2,2217.3 -1467.8,2210.9 -1463,2222.3 -1475.5,2231.3 -1462.6,2234.9 -1450.1,2246.8 
			-1450.1,2233.9 -1437.3,2234 -1444.4,2228.8 -1437.1,2217.4 -1447.5,2221.3 -1456.3,2208.7 		"/>
		<path class="st9" d="M-1454.9,2212.8c-5.1,0-9.3-4.2-9.3-9.3c0-3.8,2.3-7,5.5-8.5c-0.2-0.6-0.4-1.3-0.4-2c0-0.6,0.1-1.2,0.3-1.8
			c-1.9-0.5-3.3-2.1-3.3-4.2c0-2,1.4-3.7,3.3-4.2c-0.1-0.4-0.2-0.8-0.2-1.3c0-2.2,1.8-4,4-4s4,1.8,4,4c0,1.8-1.2,3.3-2.8,3.8
			c0.2,0.5,0.3,1,0.3,1.6c0,0.1,0,0.2,0,0.3l0,0c3.1,0,5.6,2.5,5.6,5.6c0,1.3-0.4,2.5-1.2,3.4c2,1.7,3.3,4.3,3.3,7.1
			c0,0.3,0,0.7-0.1,1c0,0,0,0,0.1,0c4.5,0,8.1,3.6,8.1,8.1c0,4-2.9,7.3-6.6,8c0,0.2,0,0.4,0,0.6c0,3.5-2.8,6.3-6.3,6.3
			s-6.3-2.8-6.3-6.3c0-2.5,1.4-4.6,3.5-5.6c-0.3-0.9-0.5-1.8-0.5-2.8C-1454.1,2212.8-1454.5,2212.8-1454.9,2212.8z"/>
	</g>
	<g class="st36">
		<polygon class="st3" points="-323.1,1340.2 -486.7,1340.2 -486.7,1322.9 -403.9,1288.5 -323.1,1322.9 		"/>
		<polygon class="st4" points="-323.1,1263.5 -486.7,1263.5 -486.7,1262.2 -403.9,1227.9 -323.1,1262.2 		"/>
		<polygon class="st1" points="-403.9,1227.9 -486.7,1261.7 -486.7,1323.7 -403.9,1288.5 		"/>
		<polygon class="st5" points="-323.1,1261.7 -403.9,1227.9 -403.9,1288.5 -323.1,1323.7 		"/>
		<polygon class="st3" points="-439.5,1267.2 -444.9,1270.8 -442.2,1264.5 -449.1,1259.5 -442,1257.5 -435.1,1250.9 -435.1,1258 
			-428,1258 -431.9,1260.9 -427.9,1267.2 -433.6,1265 -438.5,1272 		"/>
		<polygon class="st6" points="-439.3,1265.4 -443.2,1268 -441.3,1263.4 -446.4,1259.5 -441.2,1258 -436.1,1253.3 -436.1,1258.5 
			-430.7,1258.5 -433.6,1260.7 -430.6,1265.4 -434.9,1263.7 -438.5,1268.9 		"/>
		<rect x="-430.8" y="1306.2" class="st1" width="25.4" height="33.9"/>
		<rect x="-397.4" y="1306.2" class="st1" width="14.8" height="14"/>
		<polygon class="st3" points="-371.8,1259.5 -384.8,1250.9 -378.3,1266 -395.2,1278.3 -377.3,1283.2 -360.1,1299 -360.1,1281.9 
			-343.3,1282 -353.1,1275 -343.4,1259.5 -357.4,1264.9 -369.3,1247.9 		"/>
		<polygon class="st6" points="-371.2,1263 -380.8,1256.7 -376,1268 -388.5,1277 -375.6,1280.7 -363.1,1292.5 -363.1,1279.7 
			-350.3,1279.8 -357.4,1274.5 -350.1,1263.2 -360.5,1267 -369.3,1254.4 		"/>
		<path class="st9" d="M-367.9,1258.5c-5.1,0-9.3-4.2-9.3-9.3c0-3.8,2.3-7,5.5-8.5c-0.2-0.6-0.4-1.3-0.4-2c0-0.6,0.1-1.2,0.3-1.8
			c-1.9-0.5-3.3-2.1-3.3-4.2c0-2,1.4-3.7,3.3-4.2c-0.1-0.4-0.2-0.8-0.2-1.3c0-2.2,1.8-4,4-4s4,1.8,4,4c0,1.8-1.2,3.3-2.8,3.8
			c0.2,0.5,0.3,1,0.3,1.6c0,0.1,0,0.2,0,0.3l0,0c3.1,0,5.6,2.5,5.6,5.6c0,1.3-0.4,2.5-1.2,3.4c2,1.7,3.3,4.3,3.3,7.1
			c0,0.3,0,0.7-0.1,1c0,0,0,0,0.1,0c4.5,0,8.1,3.6,8.1,8.1c0,4-2.9,7.3-6.6,8c0,0.2,0,0.4,0,0.6c0,3.5-2.8,6.3-6.3,6.3
			s-6.3-2.8-6.3-6.3c0-2.5,1.4-4.6,3.5-5.6c-0.3-0.9-0.5-1.8-0.5-2.8C-367.1,1258.5-367.5,1258.5-367.9,1258.5z"/>
	</g>
	<g class="st36">
		<polygon class="st3" points="-324,2211.5 -499.6,2211.5 -499.6,2183.3 -411.8,2155.9 -324,2183.3 		"/>
		<polygon class="st4" points="-324,2108.8 -499.6,2108.8 -499.6,2080.5 -411.8,2053.3 -324,2080.5 		"/>
		<polygon class="st1" points="-411.8,2053.3 -499.6,2080 -499.6,2184 -411.8,2155.9 		"/>
		<polygon class="st5" points="-324,2080 -411.8,2053.3 -411.8,2155.9 -324,2184 		"/>
		<polygon class="st3" points="-370.3,2092.5 -385.5,2082.5 -377.9,2100.3 -397.6,2114.4 -377,2120.2 -357.2,2138.7 -357.2,2118.7 
			-337.3,2118.8 -348.6,2110.5 -337.2,2092.7 -353.6,2098.8 -367.4,2078.9 		"/>
		<polygon class="st6" points="-369.6,2096.8 -380.8,2089.3 -375.2,2102.4 -389.8,2113 -374.7,2117.3 -360.2,2130.9 -360.2,2116.2 
			-345.2,2116.3 -353.5,2110.2 -345,2096.8 -357.1,2101.4 -367.4,2086.7 		"/>
		<polygon class="st3" points="-385.1,2131.7 -378.5,2127.3 -381.8,2135 -373.1,2141.3 -381.8,2143.8 -390.2,2151.9 -390.2,2143.2 
			-399.3,2143.3 -394.5,2139.5 -399.7,2131.7 -392.5,2134.4 -386.4,2125.7 		"/>
		<polygon class="st6" points="-385.5,2133.5 -380.5,2130.2 -383,2136 -376.5,2140.7 -383,2142.5 -389.2,2148.7 -389.2,2142 
			-396,2142 -392.4,2139.4 -396.3,2133.5 -390.9,2135.5 -386.4,2129 		"/>
		<rect x="-424.5" y="2177.5" class="st1" width="25.4" height="33.9"/>
		<path class="st9" d="M-354.8,2088.8c6.9,0,12.5-5.6,12.5-12.5c0-5.1-3.1-9.5-7.5-11.5c0.3-0.9,0.5-1.8,0.5-2.8
			c0-0.8-0.1-1.6-0.4-2.4c2.5-0.6,4.4-2.9,4.4-5.6s-1.9-5-4.4-5.6c0.2-0.5,0.3-1.1,0.3-1.7c0-3-2.4-5.5-5.5-5.5
			c-3,0-5.5,2.4-5.5,5.5c0,2.4,1.6,4.5,3.8,5.2c-0.3,0.7-0.4,1.4-0.4,2.1c0,0.1,0,0.3,0,0.4l0,0c-4.2,0-7.6,3.4-7.6,7.6
			c0,1.7,0.6,3.3,1.6,4.6c-2.7,2.3-4.5,5.8-4.5,9.6c0,0.4,0,0.9,0.1,1.3c0,0,0,0-0.1,0c-6,0-10.9,4.9-10.9,10.9
			c0,5.4,3.9,9.8,9,10.8c0,0.3,0,0.5,0,0.8c0,4.7,3.8,8.5,8.5,8.5s8.5-3.8,8.5-8.5c0-3.4-2-6.2-4.8-7.6c0.5-1.2,0.7-2.5,0.7-3.8
			C-355.9,2088.8-355.3,2088.8-354.8,2088.8z"/>
	</g>
	<g class="st36">
		<polygon class="st3" points="-1615.6,963.3 -1791.2,963.3 -1791.2,935 -1703.4,907.7 -1615.6,935 		"/>
		<polygon class="st4" points="-1615.6,860.5 -1791.2,860.5 -1791.2,832.3 -1703.4,805 -1615.6,832.3 		"/>
		<polygon class="st1" points="-1703.4,805 -1791.2,831.8 -1791.2,935.8 -1703.4,907.7 		"/>
		<polygon class="st5" points="-1615.6,831.8 -1703.4,805 -1703.4,907.7 -1615.6,935.8 		"/>
		<polygon class="st3" points="-1750,884.8 -1765.1,894.9 -1757.6,877 -1777.2,862.9 -1756.5,857.2 -1736.6,838.7 -1736.6,858.7 
			-1716.8,858.5 -1728.2,866.8 -1716.8,884.7 -1733.2,878.5 -1747,898.4 		"/>
		<polygon class="st6" points="-1749.2,879.5 -1760.5,887 -1754.8,873.9 -1769.4,863.4 -1754.3,859 -1739.6,845.4 -1739.6,860.3 
			-1724.7,860.2 -1733.1,866.3 -1724.6,879.5 -1736.7,875 -1747,889.7 		"/>
		<rect x="-1732.3" y="929.3" class="st1" width="25.4" height="33.9"/>
		<rect x="-1691.5" y="929.3" class="st1" width="25.4" height="20.7"/>
		<path class="st9" d="M-1753.9,851.7c-6.5,0-11.8-5.3-11.8-11.8c0-4.8,2.9-8.9,7-10.8c-0.3-0.8-0.5-1.7-0.5-2.6
			c0-0.8,0.1-1.5,0.4-2.2c-2.4-0.6-4.1-2.7-4.1-5.3s1.8-4.7,4.1-5.3c-0.2-0.5-0.3-1-0.3-1.6c0-2.8,2.3-5.1,5.1-5.1
			c2.8,0,5.1,2.3,5.1,5.1c0,2.3-1.5,4.2-3.6,4.9c0.2,0.6,0.4,1.3,0.4,2c0,0.1,0,0.3,0,0.4l0,0c4,0,7.2,3.2,7.2,7.2
			c0,1.6-0.6,3.1-1.5,4.3c2.6,2.2,4.2,5.4,4.2,9c0,0.4,0,0.8-0.1,1.2c0,0,0,0,0.1,0c5.7,0,10.3,4.6,10.3,10.3
			c0,5.1-3.6,9.3-8.4,10.1c0,0.3,0,0.5,0,0.8c0,4.4-3.6,8-8,8s-8-3.6-8-8c0-3.2,1.8-5.9,4.5-7.2c-0.4-1.1-0.7-2.3-0.7-3.6
			C-1752.9,851.7-1753.4,851.7-1753.9,851.7z"/>
	</g>
	<g class="st36">
		<polygon class="st3" points="-588.1,910 -763.7,910 -763.7,838.8 -675.9,811.4 -588.1,838.8 		"/>
		<polygon class="st4" points="-588.1,807.3 -763.7,807.3 -763.7,787.8 -675.9,760.5 -588.1,787.8 		"/>
		<polygon class="st1" points="-675.9,760.5 -763.7,787.3 -763.7,839.5 -675.9,811.4 		"/>
		<polygon class="st5" points="-588.1,787.3 -675.9,760.5 -675.9,811.4 -588.1,839.5 		"/>
		<rect x="-724.8" y="876" class="st1" width="25.4" height="33.9"/>
		<rect x="-687.6" y="877.2" class="st1" width="14.8" height="14"/>
		<path class="st9" d="M-636,741.4c5.1,0,9.3-4.2,9.3-9.3c0-3.8-2.3-7-5.5-8.5c0.2-0.6,0.4-1.3,0.4-2c0-0.6-0.1-1.2-0.3-1.8
			c1.9-0.5,3.3-2.1,3.3-4.2c0-2-1.4-3.7-3.3-4.2c0.1-0.4,0.2-0.8,0.2-1.3c0-2.2-1.8-4-4-4s-4,1.8-4,4c0,1.8,1.2,3.3,2.8,3.8
			c-0.2,0.5-0.3,1-0.3,1.6c0,0.1,0,0.2,0,0.3l0,0c-3.1,0-5.6,2.5-5.6,5.6c0,1.3,0.4,2.5,1.2,3.4c-2,1.7-3.3,4.3-3.3,7.1
			c0,0.3,0,0.7,0.1,1c0,0,0,0-0.1,0c-4.5,0-8.1,3.6-8.1,8.1c0,4,2.9,7.3,6.6,8c0,0.2,0,0.4,0,0.6c0,3.5,2.8,6.3,6.3,6.3
			s6.3-2.8,6.3-6.3c0-2.5-1.4-4.6-3.5-5.6c0.3-0.9,0.5-1.8,0.5-2.8C-636.8,741.4-636.4,741.4-636,741.4z"/>
		<rect x="-653.6" y="752.2" class="st1" width="25.4" height="48.7"/>
	</g>
	<polygon class="st37" points="-1514.3,1650.3 -1677.9,1650.3 -1677.9,1633 -1595.1,1598.7 -1514.3,1633 	"/>
	<polygon class="st38" points="-1514.3,1573.5 -1677.9,1573.5 -1677.9,1572.3 -1595.1,1538 -1514.3,1572.3 	"/>
	<polygon class="st39" points="-1595.1,1538 -1677.9,1571.8 -1677.9,1633.8 -1595.1,1598.7 	"/>
	<polygon class="st40" points="-1514.3,1571.8 -1595.1,1538 -1595.1,1598.7 -1514.3,1633.8 	"/>
	<polygon class="st40" points="-1643.5,1595.3 -1652.5,1601.3 -1648,1590.7 -1659.8,1582.2 -1647.3,1578.8 -1635.3,1567.7 
		-1635.3,1579.7 -1623.5,1579.5 -1630.4,1584.5 -1623.6,1595.3 -1633.4,1591.5 -1641.7,1603.4 	"/>
	<polygon class="st41" points="-1643,1592.2 -1649.8,1596.7 -1646.4,1588.8 -1655.1,1582.4 -1646.1,1579.9 -1637.3,1571.7 
		-1637.3,1580.5 -1628.4,1580.5 -1633.4,1584.2 -1628.3,1592.2 -1635.6,1589.4 -1641.7,1598.3 	"/>
	<path class="st42" d="M-1559.2,1537.3c3.6,0,6.5-2.9,6.5-6.5c0-2.7-1.6-4.9-3.9-6c0.2-0.4,0.3-0.9,0.3-1.4c0-0.4-0.1-0.9-0.2-1.2
		c1.3-0.3,2.3-1.5,2.3-2.9c0-1.4-1-2.6-2.3-2.9c0.1-0.3,0.2-0.6,0.2-0.9c0-1.6-1.3-2.8-2.8-2.8c-1.6,0-2.8,1.3-2.8,2.8
		c0,1.3,0.8,2.3,2,2.7c-0.1,0.3-0.2,0.7-0.2,1.1c0,0.1,0,0.1,0,0.2l0,0c-2.2,0-4,1.8-4,4c0,0.9,0.3,1.7,0.8,2.4
		c-1.4,1.2-2.3,3-2.3,5c0,0.2,0,0.5,0,0.7l0,0c-3.1,0-5.7,2.6-5.7,5.7c0,2.8,2,5.1,4.7,5.6c0,0.1,0,0.3,0,0.4c0,2.4,2,4.4,4.4,4.4
		c2.4,0,4.4-2,4.4-4.4c0-1.7-1-3.3-2.5-4c0.2-0.6,0.4-1.3,0.4-2C-1559.8,1537.3-1559.5,1537.3-1559.2,1537.3z"/>
	<rect x="-1571.6" y="1544.8" class="st39" width="17.9" height="34.3"/>
	<rect x="-1622" y="1624.5" class="st41" width="25.4" height="25.8"/>
	<g class="st36">
		<g>
			<polygon class="st3" points="-323.6,1757.8 -487.2,1757.8 -487.2,1740.5 -404.4,1706.3 -323.6,1740.5 			"/>
			<polygon class="st4" points="-323.6,1681.2 -487.2,1681.2 -487.2,1679.8 -404.4,1645.5 -323.6,1679.8 			"/>
			<polygon class="st1" points="-404.4,1645.5 -487.2,1679.3 -487.2,1741.3 -404.4,1706.3 			"/>
			<polygon class="st5" points="-323.6,1679.3 -404.4,1645.5 -404.4,1706.3 -323.6,1741.3 			"/>
			<polygon class="st5" points="-452.8,1702.8 -461.8,1708.8 -457.3,1698.3 -469.1,1689.8 -456.6,1686.3 -444.6,1675.3 
				-444.6,1687.3 -432.8,1687.2 -439.7,1692 -432.9,1702.8 -442.7,1699 -451,1710.9 			"/>
			<polygon class="st6" points="-452.3,1699.8 -459.1,1704.3 -455.7,1696.3 -464.4,1689.9 -455.4,1687.4 -446.6,1679.3 
				-446.6,1688.2 -437.7,1688 -442.7,1691.8 -437.6,1699.8 -444.9,1696.9 -451,1705.8 			"/>
			<path class="st9" d="M-368.5,1644.8c3.6,0,6.5-2.9,6.5-6.5c0-2.7-1.6-4.9-3.9-6c0.2-0.4,0.3-0.9,0.3-1.4c0-0.4-0.1-0.9-0.2-1.2
				c1.3-0.3,2.3-1.5,2.3-2.9c0-1.4-1-2.6-2.3-2.9c0.1-0.3,0.2-0.6,0.2-0.9c0-1.6-1.3-2.8-2.8-2.8c-1.6,0-2.8,1.3-2.8,2.8
				c0,1.3,0.8,2.3,2,2.7c-0.1,0.3-0.2,0.7-0.2,1.1c0,0.1,0,0.1,0,0.2l0,0c-2.2,0-4,1.8-4,4c0,0.9,0.3,1.7,0.8,2.4
				c-1.4,1.2-2.3,3-2.3,5c0,0.2,0,0.5,0,0.7l0,0c-3.1,0-5.7,2.6-5.7,5.7c0,2.8,2,5.1,4.7,5.6c0,0.1,0,0.3,0,0.4c0,2.4,2,4.4,4.4,4.4
				s4.4-2,4.4-4.4c0-1.7-1-3.3-2.5-4c0.2-0.6,0.4-1.3,0.4-2C-369.1,1644.8-368.8,1644.8-368.5,1644.8z"/>
			<rect x="-380.9" y="1652.3" class="st1" width="17.9" height="34.3"/>
		</g>
		<rect x="-431.3" y="1732" class="st1" width="25.4" height="25.8"/>
	</g>
	<rect x="-1386.9" y="1326" class="st43" width="20.7" height="32.3"/>
	<rect x="-1674.9" y="1866.9" class="st43" width="20.7" height="32.3"/>
	<rect x="-1691.8" y="2112.2" class="st43" width="15.9" height="24.9"/>
	<rect x="-1384.3" y="1597" class="st43" width="11.7" height="18.2"/>
	<rect x="-584.4" y="1223.7" class="st43" width="11.7" height="18.2"/>
	<rect x="-1775.3" y="1154.3" class="st43" width="11.7" height="18.2"/>
	<rect x="-479.5" y="30.7" class="st43" width="11.7" height="18.2"/>
	<rect x="-622.6" y="1864.8" class="st43" width="17.2" height="26.9"/>
	<rect x="-525.9" y="1103.4" class="st43" width="20.7" height="32.3"/>
	<linearGradient id="SVGID_26_" gradientUnits="userSpaceOnUse" x1="-2064.9556" y1="-219.4102" x2="-897.8389" y2="1799.7917">
		<stop  offset="0" style="stop-color:#768C10"/>
		<stop  offset="0.1264" style="stop-color:#868E19"/>
		<stop  offset="0.3874" style="stop-color:#A29128"/>
		<stop  offset="0.6166" style="stop-color:#B39231"/>
		<stop  offset="0.7876" style="stop-color:#B99334"/>
		<stop  offset="0.9562" style="stop-color:#DB8534"/>
	</linearGradient>
	<polygon class="st44" points="-1721.9,483.2 -1658.9,374 -1596,483.2 	"/>
	<linearGradient id="SVGID_27_" gradientUnits="userSpaceOnUse" x1="-1663.7505" y1="-451.3103" x2="-496.6338" y2="1567.8916">
		<stop  offset="0" style="stop-color:#768C10"/>
		<stop  offset="0.1264" style="stop-color:#868E19"/>
		<stop  offset="0.3874" style="stop-color:#A29128"/>
		<stop  offset="0.6166" style="stop-color:#B39231"/>
		<stop  offset="0.7876" style="stop-color:#B99334"/>
		<stop  offset="0.9562" style="stop-color:#DB8534"/>
	</linearGradient>
	<polygon class="st45" points="-1722.7,-444.3 -1659.7,-553.3 -1596.8,-444.3 	"/>
	<linearGradient id="SVGID_28_" gradientUnits="userSpaceOnUse" x1="-1693.9465" y1="-433.8568" x2="-526.8298" y2="1585.3451">
		<stop  offset="0" style="stop-color:#768C10"/>
		<stop  offset="0.1264" style="stop-color:#868E19"/>
		<stop  offset="0.3874" style="stop-color:#A29128"/>
		<stop  offset="0.6166" style="stop-color:#B39231"/>
		<stop  offset="0.7876" style="stop-color:#B99334"/>
		<stop  offset="0.9562" style="stop-color:#DB8534"/>
	</linearGradient>
	<polygon class="st46" points="-1475.4,28.2 -1426.9,-55.8 -1378.5,28.2 	"/>
	<linearGradient id="SVGID_29_" gradientUnits="userSpaceOnUse" x1="-1731.8107" y1="-411.9709" x2="-564.694" y2="1607.231">
		<stop  offset="0" style="stop-color:#768C10"/>
		<stop  offset="0.1264" style="stop-color:#868E19"/>
		<stop  offset="0.3874" style="stop-color:#A29128"/>
		<stop  offset="0.6166" style="stop-color:#B39231"/>
		<stop  offset="0.7876" style="stop-color:#B99334"/>
		<stop  offset="0.9562" style="stop-color:#DB8534"/>
	</linearGradient>
	<polygon class="st47" points="-1408.4,209.2 -1372.8,147.5 -1337.3,209.2 	"/>
	<linearGradient id="SVGID_30_" gradientUnits="userSpaceOnUse" x1="-1160.0018" y1="-742.4816" x2="7.1149" y2="1276.7203">
		<stop  offset="0" style="stop-color:#768C10"/>
		<stop  offset="0.1264" style="stop-color:#868E19"/>
		<stop  offset="0.3874" style="stop-color:#A29128"/>
		<stop  offset="0.6166" style="stop-color:#B39231"/>
		<stop  offset="0.7876" style="stop-color:#B99334"/>
		<stop  offset="0.9562" style="stop-color:#DB8534"/>
	</linearGradient>
	<polygon class="st48" points="-707.4,102.2 -671.8,40.5 -636.3,102.2 	"/>
	<linearGradient id="SVGID_31_" gradientUnits="userSpaceOnUse" x1="-1052.5913" y1="-804.5657" x2="114.5254" y2="1214.6361">
		<stop  offset="0" style="stop-color:#768C10"/>
		<stop  offset="0.1264" style="stop-color:#868E19"/>
		<stop  offset="0.3874" style="stop-color:#A29128"/>
		<stop  offset="0.6166" style="stop-color:#B39231"/>
		<stop  offset="0.7876" style="stop-color:#B99334"/>
		<stop  offset="0.9562" style="stop-color:#DB8534"/>
	</linearGradient>
	<polygon class="st49" points="-803.4,-311.8 -767.8,-373.5 -732.3,-311.8 	"/>
	<linearGradient id="SVGID_32_" gradientUnits="userSpaceOnUse" x1="-1633.4987" y1="-468.7961" x2="-466.382" y2="1550.4058">
		<stop  offset="0" style="stop-color:#768C10"/>
		<stop  offset="0.1264" style="stop-color:#868E19"/>
		<stop  offset="0.3874" style="stop-color:#A29128"/>
		<stop  offset="0.6166" style="stop-color:#B39231"/>
		<stop  offset="0.7876" style="stop-color:#B99334"/>
		<stop  offset="0.9562" style="stop-color:#DB8534"/>
	</linearGradient>
	<polygon class="st50" points="-1504.4,-183.8 -1468.8,-245.5 -1433.3,-183.8 	"/>
	<linearGradient id="SVGID_33_" gradientUnits="userSpaceOnUse" x1="-1846.7959" y1="-345.5084" x2="-679.6793" y2="1673.6935">
		<stop  offset="0" style="stop-color:#768C10"/>
		<stop  offset="0.1264" style="stop-color:#868E19"/>
		<stop  offset="0.3874" style="stop-color:#A29128"/>
		<stop  offset="0.6166" style="stop-color:#B39231"/>
		<stop  offset="0.7876" style="stop-color:#B99334"/>
		<stop  offset="0.9562" style="stop-color:#DB8534"/>
	</linearGradient>
	<polygon class="st51" points="-1614.4,118.2 -1578.8,56.5 -1543.3,118.2 	"/>
	<linearGradient id="SVGID_34_" gradientUnits="userSpaceOnUse" x1="-1169.5693" y1="-736.9514" x2="-2.4526" y2="1282.2505">
		<stop  offset="0" style="stop-color:#768C10"/>
		<stop  offset="0.1264" style="stop-color:#868E19"/>
		<stop  offset="0.3874" style="stop-color:#A29128"/>
		<stop  offset="0.6166" style="stop-color:#B39231"/>
		<stop  offset="0.7876" style="stop-color:#B99334"/>
		<stop  offset="0.9562" style="stop-color:#DB8534"/>
	</linearGradient>
	<polygon class="st52" points="-607.5,326.2 -555.1,235.4 -502.8,326.2 	"/>
	<linearGradient id="SVGID_35_" gradientUnits="userSpaceOnUse" x1="-1350.3928" y1="-632.4338" x2="-183.2761" y2="1386.7681">
		<stop  offset="0" style="stop-color:#768C10"/>
		<stop  offset="0.1264" style="stop-color:#868E19"/>
		<stop  offset="0.3874" style="stop-color:#A29128"/>
		<stop  offset="0.6166" style="stop-color:#B39231"/>
		<stop  offset="0.7876" style="stop-color:#B99334"/>
		<stop  offset="0.9562" style="stop-color:#DB8534"/>
	</linearGradient>
	<polygon class="st53" points="-781.9,460.2 -718.9,351 -656,460.2 	"/>
	<linearGradient id="SVGID_36_" gradientUnits="userSpaceOnUse" x1="-906.2529" y1="-889.1507" x2="260.8638" y2="1130.0513">
		<stop  offset="0" style="stop-color:#768C10"/>
		<stop  offset="0.1264" style="stop-color:#868E19"/>
		<stop  offset="0.3874" style="stop-color:#A29128"/>
		<stop  offset="0.6166" style="stop-color:#B39231"/>
		<stop  offset="0.7876" style="stop-color:#B99334"/>
		<stop  offset="0.9562" style="stop-color:#DB8534"/>
	</linearGradient>
	<polygon class="st54" points="-611.9,-270.8 -548.9,-380 -486,-270.8 	"/>
	<linearGradient id="SVGID_37_" gradientUnits="userSpaceOnUse" x1="-2222.9116" y1="-128.1102" x2="-1055.7949" y2="1891.0918">
		<stop  offset="0" style="stop-color:#768C10"/>
		<stop  offset="0.1264" style="stop-color:#868E19"/>
		<stop  offset="0.3874" style="stop-color:#A29128"/>
		<stop  offset="0.6166" style="stop-color:#B39231"/>
		<stop  offset="0.7876" style="stop-color:#B99334"/>
		<stop  offset="0.9562" style="stop-color:#DB8534"/>
	</linearGradient>
	<polygon class="st55" points="-1439.5,1336.3 -1376.5,1227.2 -1313.6,1336.3 	"/>
	<linearGradient id="SVGID_38_" gradientUnits="userSpaceOnUse" x1="-2673.1819" y1="132.15" x2="-1506.0651" y2="2151.3518">
		<stop  offset="0" style="stop-color:#768C10"/>
		<stop  offset="0.1264" style="stop-color:#868E19"/>
		<stop  offset="0.3874" style="stop-color:#A29128"/>
		<stop  offset="0.6166" style="stop-color:#B39231"/>
		<stop  offset="0.7876" style="stop-color:#B99334"/>
		<stop  offset="0.9562" style="stop-color:#DB8534"/>
	</linearGradient>
	<polygon class="st56" points="-1727.5,1877.3 -1664.5,1768.2 -1601.6,1877.3 	"/>
	<linearGradient id="SVGID_39_" gradientUnits="userSpaceOnUse" x1="-2792.9119" y1="201.3551" x2="-1625.7952" y2="2220.5569">
		<stop  offset="0" style="stop-color:#768C10"/>
		<stop  offset="0.1264" style="stop-color:#868E19"/>
		<stop  offset="0.3874" style="stop-color:#A29128"/>
		<stop  offset="0.6166" style="stop-color:#B39231"/>
		<stop  offset="0.7876" style="stop-color:#B99334"/>
		<stop  offset="0.9562" style="stop-color:#DB8534"/>
	</linearGradient>
	<polygon class="st57" points="-1732.3,2120.2 -1683.8,2036.3 -1635.4,2120.2 	"/>
	<linearGradient id="SVGID_40_" gradientUnits="userSpaceOnUse" x1="-2340.0369" y1="-60.4108" x2="-1172.9202" y2="1958.7911">
		<stop  offset="0" style="stop-color:#768C10"/>
		<stop  offset="0.1264" style="stop-color:#868E19"/>
		<stop  offset="0.3874" style="stop-color:#A29128"/>
		<stop  offset="0.6166" style="stop-color:#B39231"/>
		<stop  offset="0.7876" style="stop-color:#B99334"/>
		<stop  offset="0.9562" style="stop-color:#DB8534"/>
	</linearGradient>
	<polygon class="st58" points="-1414,1603.3 -1378.4,1541.7 -1342.9,1603.3 	"/>
	<linearGradient id="SVGID_41_" gradientUnits="userSpaceOnUse" x1="-1578.6533" y1="-500.4972" x2="-411.5367" y2="1518.7047">
		<stop  offset="0" style="stop-color:#768C10"/>
		<stop  offset="0.1264" style="stop-color:#868E19"/>
		<stop  offset="0.3874" style="stop-color:#A29128"/>
		<stop  offset="0.6166" style="stop-color:#B39231"/>
		<stop  offset="0.7876" style="stop-color:#B99334"/>
		<stop  offset="0.9562" style="stop-color:#DB8534"/>
	</linearGradient>
	<polygon class="st59" points="-614.1,1229.8 -578.5,1168.3 -543,1229.8 	"/>
	<linearGradient id="SVGID_42_" gradientUnits="userSpaceOnUse" x1="-2441.2349" y1="-1.9174" x2="-1274.1182" y2="2017.2845">
		<stop  offset="0" style="stop-color:#768C10"/>
		<stop  offset="0.1264" style="stop-color:#868E19"/>
		<stop  offset="0.3874" style="stop-color:#A29128"/>
		<stop  offset="0.6166" style="stop-color:#B39231"/>
		<stop  offset="0.7876" style="stop-color:#B99334"/>
		<stop  offset="0.9562" style="stop-color:#DB8534"/>
	</linearGradient>
	<polygon class="st60" points="-1804.9,1160.5 -1769.4,1098.9 -1733.8,1160.5 	"/>
	<linearGradient id="SVGID_43_" gradientUnits="userSpaceOnUse" x1="-983.2039" y1="-844.6723" x2="183.9128" y2="1174.5295">
		<stop  offset="0" style="stop-color:#768C10"/>
		<stop  offset="0.1264" style="stop-color:#868E19"/>
		<stop  offset="0.3874" style="stop-color:#A29128"/>
		<stop  offset="0.6166" style="stop-color:#B39231"/>
		<stop  offset="0.7876" style="stop-color:#B99334"/>
		<stop  offset="0.9562" style="stop-color:#DB8534"/>
	</linearGradient>
	<polygon class="st61" points="-509.3,36.9 -473.6,-24.7 -438.1,36.9 	"/>
	<rect x="-634" y="-480.3" class="st43" width="11.7" height="18.2"/>
	<linearGradient id="SVGID_44_" gradientUnits="userSpaceOnUse" x1="-1884.1881" y1="-323.8954" x2="-717.0714" y2="1695.3065">
		<stop  offset="0" style="stop-color:#768C10"/>
		<stop  offset="0.1264" style="stop-color:#868E19"/>
		<stop  offset="0.3874" style="stop-color:#A29128"/>
		<stop  offset="0.6166" style="stop-color:#B39231"/>
		<stop  offset="0.7876" style="stop-color:#B99334"/>
		<stop  offset="0.9562" style="stop-color:#DB8534"/>
	</linearGradient>
	<polygon class="st62" points="-666.4,1873.7 -614,1782.9 -561.7,1873.7 	"/>
	<linearGradient id="SVGID_45_" gradientUnits="userSpaceOnUse" x1="-1481.1082" y1="-556.8792" x2="-313.9914" y2="1462.3226">
		<stop  offset="0" style="stop-color:#768C10"/>
		<stop  offset="0.1264" style="stop-color:#868E19"/>
		<stop  offset="0.3874" style="stop-color:#A29128"/>
		<stop  offset="0.6166" style="stop-color:#B39231"/>
		<stop  offset="0.7876" style="stop-color:#B99334"/>
		<stop  offset="0.9562" style="stop-color:#DB8534"/>
	</linearGradient>
	<polygon class="st63" points="-578.5,1113.7 -515.5,1004.7 -452.6,1113.7 	"/>
	<linearGradient id="SVGID_46_" gradientUnits="userSpaceOnUse" x1="-877.5798" y1="-905.724" x2="289.537" y2="1113.4779">
		<stop  offset="0" style="stop-color:#768C10"/>
		<stop  offset="0.1264" style="stop-color:#868E19"/>
		<stop  offset="0.3874" style="stop-color:#A29128"/>
		<stop  offset="0.6166" style="stop-color:#B39231"/>
		<stop  offset="0.7876" style="stop-color:#B99334"/>
		<stop  offset="0.9562" style="stop-color:#DB8534"/>
	</linearGradient>
	<polygon class="st64" points="-663.7,-474.1 -628.1,-535.7 -592.6,-474.1 	"/>
</g>
</svg>
