<?xml version="1.0" encoding="utf-8"?>
<!-- Generator: Adobe Illustrator 19.1.0, SVG Export Plug-In . SVG Version: 6.00 Build 0)  -->
<!DOCTYPE svg PUBLIC "-//W3C//DTD SVG 1.1//EN" "http://www.w3.org/Graphics/SVG/1.1/DTD/svg11.dtd">
<svg version="1.1" id="Layer_1" xmlns="http://www.w3.org/2000/svg" xmlns:xlink="http://www.w3.org/1999/xlink" x="0px" y="0px"
	 viewBox="0 0 481 2000" style="enable-background:new 0 0 481 2000;" xml:space="preserve">
<style type="text/css">
	.st0{opacity:0.75;fill:#CEC58E;enable-background:new    ;}
	.st1{fill:#474646;}
	.st2{fill:#FFFFFF;}
	.st3{fill:#A3A3A3;}
	.st4{fill:#E88F7E;}
	.st5{fill:#6D6C6C;}
	.st6{fill:#1A1A1A;}
	.st7{fill:#A86309;}
	.st8{fill:#DE8400;}
	.st9{fill:#E6E6E6;}
	.st10{fill:#9B9334;}
	.st11{fill:#725225;}
</style>
<rect x="-0.4" y="-3.4" class="st0" width="482.3" height="2003.4"/>
<g>
	<polygon class="st1" points="167.4,-3.9 167.4,997.3 167.4,998.8 167.4,2000 314,2000 314,998.8 314,997.3 314,-3.9 	"/>
	<g>
		<rect x="238.6" y="-3.4" class="st2" width="4.4" height="10.9"/>
		<rect x="238.6" y="394.8" class="st2" width="4.4" height="21.1"/>
		<rect x="238.6" y="349.4" class="st2" width="4.4" height="21.1"/>
		<rect x="238.6" y="440.2" class="st2" width="4.4" height="21.1"/>
		<rect x="238.6" y="304.1" class="st2" width="4.4" height="21.1"/>
		<rect x="238.6" y="485.6" class="st2" width="4.4" height="21.1"/>
		<rect x="238.6" y="31.8" class="st2" width="4.4" height="21.1"/>
		<rect x="238.6" y="258.7" class="st2" width="4.4" height="21.1"/>
		<rect x="238.6" y="77.2" class="st2" width="4.4" height="21.1"/>
		<rect x="238.6" y="122.5" class="st2" width="4.4" height="21.1"/>
		<rect x="238.6" y="213.3" class="st2" width="4.4" height="21.1"/>
		<rect x="238.6" y="167.9" class="st2" width="4.4" height="21.1"/>
		<polygon class="st2" points="238.6,541.1 238.6,541.1 238.6,552 242.9,552 242.9,541.1 242.9,541.1 242.9,530.2 238.6,530.2 		"/>
		<rect x="238.6" y="848.6" class="st2" width="4.4" height="21.1"/>
		<rect x="238.6" y="894" class="st2" width="4.4" height="21.1"/>
		<rect x="238.6" y="1030.1" class="st2" width="4.4" height="21.1"/>
		<rect x="238.6" y="939.4" class="st2" width="4.4" height="21.1"/>
		<rect x="238.6" y="984.7" class="st2" width="4.4" height="21.1"/>
		<rect x="238.6" y="712.5" class="st2" width="4.4" height="21.1"/>
		<rect x="238.6" y="621.7" class="st2" width="4.4" height="21.1"/>
		<rect x="238.6" y="803.2" class="st2" width="4.4" height="21.1"/>
		<rect x="238.6" y="576.3" class="st2" width="4.4" height="21.1"/>
		<rect x="238.6" y="667.1" class="st2" width="4.4" height="21.1"/>
		<rect x="238.6" y="757.9" class="st2" width="4.4" height="21.1"/>
		<rect x="238.6" y="1074.8" class="st2" width="4.4" height="10.9"/>
	</g>
	<g>
		<rect x="238.6" y="1085.7" class="st2" width="4.4" height="10.9"/>
		<rect x="238.6" y="1483.9" class="st2" width="4.4" height="21.1"/>
		<rect x="238.6" y="1438.5" class="st2" width="4.4" height="21.1"/>
		<rect x="238.6" y="1529.3" class="st2" width="4.4" height="21.1"/>
		<rect x="238.6" y="1393.2" class="st2" width="4.4" height="21.1"/>
		<rect x="238.6" y="1574.7" class="st2" width="4.4" height="21.1"/>
		<rect x="238.6" y="1120.9" class="st2" width="4.4" height="21.1"/>
		<rect x="238.6" y="1347.8" class="st2" width="4.4" height="21.1"/>
		<rect x="238.6" y="1166.3" class="st2" width="4.4" height="21.1"/>
		<rect x="238.6" y="1211.6" class="st2" width="4.4" height="21.1"/>
		<rect x="238.6" y="1302.4" class="st2" width="4.4" height="21.1"/>
		<rect x="238.6" y="1257" class="st2" width="4.4" height="21.1"/>
		<polygon class="st2" points="238.6,1630.2 238.6,1630.2 238.6,1641.1 242.9,1641.1 242.9,1630.2 242.9,1630.2 242.9,1619.3 
			238.6,1619.3 		"/>
		<rect x="238.6" y="1937.7" class="st2" width="4.4" height="21.1"/>
		<rect x="238.6" y="1983.1" class="st2" width="4.4" height="21.1"/>
		<rect x="238.6" y="2119.2" class="st2" width="4.4" height="21.1"/>
		<rect x="238.6" y="2028.5" class="st2" width="4.4" height="21.1"/>
		<rect x="238.6" y="2073.9" class="st2" width="4.4" height="21.1"/>
		<rect x="238.6" y="1801.6" class="st2" width="4.4" height="21.1"/>
		<rect x="238.6" y="1710.8" class="st2" width="4.4" height="21.1"/>
		<rect x="238.6" y="1892.3" class="st2" width="4.4" height="21.1"/>
		<rect x="238.6" y="1665.4" class="st2" width="4.4" height="21.1"/>
		<rect x="238.6" y="1756.2" class="st2" width="4.4" height="21.1"/>
		<rect x="238.6" y="1847" class="st2" width="4.4" height="21.1"/>
		<rect x="238.6" y="2163.9" class="st2" width="4.4" height="10.9"/>
	</g>
	<g>
		<polygon class="st2" points="175.4,1000.4 175.4,1000.4 175.4,2004.2 179.8,2004.2 179.8,1000.4 179.8,1000.4 179.8,-3.4 
			175.4,-3.4 		"/>
		<polygon class="st2" points="301.8,-3.4 301.8,1000.4 301.8,1000.4 301.8,2004.2 306.1,2004.2 306.1,1000.4 306.1,1000.4 
			306.1,-3.4 		"/>
	</g>
</g>
<g>
	<polygon class="st3" points="146.1,372.6 82.3,372.6 82.3,362.3 114.2,352.4 146.1,362.3 	"/>
	<polygon class="st4" points="146.1,335.3 82.3,335.3 82.3,325 114.2,315.1 146.1,325 	"/>
	<polygon class="st1" points="114.2,315.1 82.3,324.9 82.3,362.6 114.2,352.4 	"/>
	<polygon class="st5" points="146.1,324.9 114.2,315.1 114.2,352.4 146.1,362.6 	"/>
	<polygon class="st1" points="129.3,329.4 123.8,325.8 126.5,332.2 119.4,337.3 126.8,339.5 134,346.2 134,338.9 141.3,338.9 
		137.2,335.9 141.3,329.5 135.3,331.7 130.3,324.5 	"/>
	<polygon class="st6" points="129.5,330.9 125.5,328.2 127.5,333 122.2,336.8 127.7,338.4 132.9,343.3 132.9,338 138.4,338 
		135.4,335.8 138.5,330.9 134.1,332.6 130.3,327.3 	"/>
	<rect x="109.6" y="360.3" class="st1" width="9.2" height="12.3"/>
</g>
<g>
	<polygon class="st3" points="410.3,186.4 350.9,186.4 350.9,180.1 381,167.6 410.3,180.1 	"/>
	<polygon class="st1" points="381,145.6 350.9,157.9 350.9,180.4 381,167.6 	"/>
	<polygon class="st5" points="410.3,157.9 381,145.6 381,167.6 410.3,180.4 	"/>
	<polygon class="st5" points="370.1,181.6 367.5,183.4 368.8,180.3 365.4,177.9 369,176.9 372.6,173.7 372.6,177.2 375.9,177.2 
		373.9,178.5 375.8,181.6 373,180.5 370.6,184 	"/>
	<polygon class="st6" points="370.2,180.7 368.3,182.1 369.2,179.8 366.7,178 369.3,177.2 371.8,174.8 371.8,177.4 374.4,177.4 
		373,178.4 374.4,180.7 372.4,179.9 370.6,182.5 	"/>
	<rect x="381.4" y="174" class="st1" width="9.2" height="12.3"/>
</g>
<g>
	<polygon class="st3" points="133.9,1787.1 74.5,1787.1 74.5,1780.8 104.6,1768.4 133.9,1780.8 	"/>
	<polygon class="st4" points="133.9,1759.3 74.5,1759.3 74.5,1758.8 104.6,1746.3 133.9,1758.8 	"/>
	<polygon class="st1" points="104.6,1746.3 74.5,1758.6 74.5,1781.1 104.6,1768.4 	"/>
	<polygon class="st5" points="133.9,1758.6 104.6,1746.3 104.6,1768.4 133.9,1781.1 	"/>
	<rect x="94.8" y="1774.8" class="st1" width="9.2" height="12.3"/>
	<rect x="106.9" y="1774.8" class="st1" width="5.4" height="5.1"/>
	<polygon class="st3" points="120.9,1761.4 123.3,1759.8 122.1,1762.6 125.2,1764.9 122.1,1765.8 119,1768.7 119,1765.6 
		115.7,1765.6 117.4,1764.2 115.6,1761.4 118.2,1762.4 120.4,1759.2 	"/>
	<polygon class="st6" points="120.7,1762.1 122.5,1760.9 121.6,1763 124,1764.7 121.6,1765.3 119.4,1767.6 119.4,1765.2 
		116.9,1765.2 118.2,1764.2 116.8,1762.1 118.8,1762.8 120.4,1760.4 	"/>
</g>
<g>
	<polygon class="st3" points="469.5,432.5 410.1,432.5 410.1,426.2 440.1,413.8 469.5,426.2 	"/>
	<polygon class="st4" points="469.5,404.7 410.1,404.7 410.1,404.2 440.1,391.7 469.5,404.2 	"/>
	<polygon class="st7" points="440.1,391.7 410.1,404 410.1,426.5 440.1,413.8 	"/>
	<polygon class="st8" points="469.5,404 440.1,391.7 440.1,413.8 469.5,426.5 	"/>
	<polygon class="st8" points="427.2,406 425.3,407.3 426.2,405 423.7,403.2 426.3,402.5 428.8,400.1 428.8,402.7 431.4,402.7 
		430,403.7 431.4,406 429.4,405.2 427.6,407.8 	"/>
	<polygon class="st6" points="427.3,405.3 425.9,406.3 426.6,404.6 424.7,403.2 426.6,402.7 428.5,401 428.5,402.8 430.4,402.8 
		429.4,403.6 430.5,405.3 428.9,404.7 427.6,406.6 	"/>
	<rect x="430.4" y="420.2" class="st6" width="9.2" height="12.3"/>
	<rect x="442.5" y="420.2" class="st6" width="5.4" height="5.1"/>
	<polygon class="st7" points="451.8,403.2 447.1,400.1 449.4,405.6 443.3,410.1 449.8,411.8 456.1,417.6 456.1,411.3 462.1,411.4 
		458.6,408.9 462.1,403.2 457,405.2 452.7,399 	"/>
	<polygon class="st6" points="452,404.5 448.5,402.2 450.3,406.3 445.7,409.6 450.4,410.9 455,415.2 455,410.5 459.6,410.6 
		457,408.7 459.7,404.5 455.9,406 452.7,401.3 	"/>
	<path class="st9" d="M453.2,402.9c-1.9,0-3.4-1.5-3.4-3.4c0-1.4,0.8-2.5,2-3.1c-0.1-0.2-0.1-0.5-0.1-0.7c0-0.2,0-0.4,0.1-0.7
		c-0.7-0.2-1.2-0.8-1.2-1.5c0-0.7,0.5-1.3,1.2-1.5c0-0.1-0.1-0.3-0.1-0.5c0-0.8,0.7-1.5,1.5-1.5c0.8,0,1.5,0.7,1.5,1.5
		c0,0.7-0.4,1.2-1,1.4c0.1,0.2,0.1,0.4,0.1,0.6c0,0,0,0.1,0,0.1l0,0c1.1,0,2,0.9,2,2c0,0.5-0.1,0.9-0.4,1.2c0.7,0.6,1.2,1.6,1.2,2.6
		c0,0.1,0,0.3,0,0.4c0,0,0,0,0,0c1.6,0,2.9,1.3,2.9,2.9c0,1.5-1.1,2.7-2.4,2.9c0,0.1,0,0.1,0,0.2c0,1.3-1,2.3-2.3,2.3
		s-2.3-1-2.3-2.3c0-0.9,0.5-1.7,1.3-2c-0.1-0.3-0.2-0.7-0.2-1C453.5,402.9,453.4,402.9,453.2,402.9z"/>
</g>
<g>
	<polygon class="st3" points="88.9,1587.4 25.2,1587.4 25.2,1561.5 57,1551.6 88.9,1561.5 	"/>
	<polygon class="st4" points="88.9,1550.1 25.2,1550.1 25.2,1543 57,1533.1 88.9,1543 	"/>
	<polygon class="st1" points="57,1533.1 25.2,1542.8 25.2,1561.8 57,1551.6 	"/>
	<polygon class="st5" points="88.9,1542.8 57,1533.1 57,1551.6 88.9,1561.8 	"/>
	<rect x="39.3" y="1575" class="st1" width="9.2" height="12.3"/>
	<rect x="52.8" y="1575.5" class="st1" width="5.4" height="5.1"/>
	<path class="st9" d="M71.5,1526.2c1.9,0,3.4-1.5,3.4-3.4c0-1.4-0.8-2.5-2-3.1c0.1-0.2,0.1-0.5,0.1-0.7c0-0.2,0-0.4-0.1-0.7
		c0.7-0.2,1.2-0.8,1.2-1.5c0-0.7-0.5-1.3-1.2-1.5c0-0.1,0.1-0.3,0.1-0.5c0-0.8-0.7-1.5-1.5-1.5c-0.8,0-1.5,0.7-1.5,1.5
		c0,0.7,0.4,1.2,1,1.4c-0.1,0.2-0.1,0.4-0.1,0.6c0,0,0,0.1,0,0.1l0,0c-1.1,0-2,0.9-2,2c0,0.5,0.1,0.9,0.4,1.2
		c-0.7,0.6-1.2,1.6-1.2,2.6c0,0.1,0,0.3,0,0.4c0,0,0,0,0,0c-1.6,0-2.9,1.3-2.9,2.9c0,1.5,1.1,2.7,2.4,2.9c0,0.1,0,0.1,0,0.2
		c0,1.3,1,2.3,2.3,2.3s2.3-1,2.3-2.3c0-0.9-0.5-1.7-1.3-2c0.1-0.3,0.2-0.7,0.2-1C71.2,1526.2,71.4,1526.2,71.5,1526.2z"/>
	<rect x="65.1" y="1530.1" class="st1" width="9.2" height="17.7"/>
</g>
<g>
	<g>
		<polygon class="st3" points="127.9,98.9 68.5,98.9 68.5,92.6 98.5,80.1 127.9,92.6 		"/>
		<polygon class="st4" points="127.9,71 68.5,71 68.5,70.5 98.5,58.1 127.9,70.5 		"/>
		<polygon class="st1" points="98.5,58.1 68.5,70.4 68.5,92.9 98.5,80.1 		"/>
		<polygon class="st5" points="127.9,70.4 98.5,58.1 98.5,80.1 127.9,92.9 		"/>
		<polygon class="st5" points="81,78.9 77.7,81.1 79.3,77.2 75,74.1 79.6,72.9 83.9,68.9 83.9,73.2 88.2,73.2 85.7,75 88.2,78.9 
			84.6,77.5 81.6,81.9 		"/>
		<polygon class="st6" points="81.1,77.8 78.7,79.4 79.9,76.5 76.7,74.3 80,73.3 83.2,70.3 83.2,73.6 86.4,73.5 84.6,74.9 
			86.5,77.8 83.8,76.8 81.6,80 		"/>
		<path class="st9" d="M111.6,57.8c1.3,0,2.4-1.1,2.4-2.4c0-1-0.6-1.8-1.4-2.2c0.1-0.1,0.1-0.3,0.1-0.5c0-0.1,0-0.3-0.1-0.4
			c0.5-0.1,0.8-0.5,0.8-1.1c0-0.5-0.4-0.9-0.8-1.1c0-0.1,0.1-0.2,0.1-0.3c0-0.6-0.5-1-1-1c-0.6,0-1,0.5-1,1c0,0.5,0.3,0.8,0.7,1
			c0,0.1-0.1,0.3-0.1,0.4c0,0,0,0,0,0.1l0,0c-0.8,0-1.5,0.7-1.5,1.5c0,0.3,0.1,0.6,0.3,0.9c-0.5,0.4-0.8,1.1-0.8,1.8
			c0,0.1,0,0.2,0,0.3l0,0c-1.1,0-2.1,0.9-2.1,2.1c0,1,0.7,1.9,1.7,2c0,0,0,0.1,0,0.1c0,0.9,0.7,1.6,1.6,1.6c0.9,0,1.6-0.7,1.6-1.6
			c0-0.6-0.4-1.2-0.9-1.5c0.1-0.2,0.1-0.5,0.1-0.7C111.3,57.8,111.5,57.8,111.6,57.8z"/>
		<rect x="107.1" y="60.6" class="st1" width="6.5" height="12.5"/>
	</g>
	<rect x="88.8" y="89.5" class="st1" width="9.2" height="9.4"/>
</g>
<g>
	<polygon class="st10" points="36.5,1409 59.3,1369.3 82.2,1409 	"/>
	<rect x="55.6" y="1405.3" class="st11" width="7.5" height="11.7"/>
</g>
<g>
	<polygon class="st10" points="390.4,1557.4 413.3,1517.8 436.1,1557.4 	"/>
	<rect x="409.5" y="1553.6" class="st11" width="7.5" height="11.7"/>
</g>
<g>
	<polygon class="st10" points="38.2,1859.1 55.9,1828.6 73.4,1859.1 	"/>
	<rect x="53" y="1856.2" class="st11" width="5.8" height="9"/>
</g>
<g>
	<polygon class="st10" points="115.5,284.8 128.4,262.4 141.3,284.8 	"/>
	<rect x="126.3" y="282.5" class="st11" width="4.2" height="6.6"/>
</g>
<g>
	<polygon class="st10" points="370,246 382.9,223.6 395.8,246 	"/>
	<rect x="380.8" y="243.7" class="st11" width="4.2" height="6.6"/>
</g>
<g>
	<polygon class="st10" points="335.1,95.7 348,73.3 360.9,95.7 	"/>
	<rect x="345.9" y="93.4" class="st11" width="4.2" height="6.6"/>
</g>
<g>
	<polygon class="st10" points="31,172 43.9,149.6 56.8,172 	"/>
	<rect x="41.8" y="169.7" class="st11" width="4.2" height="6.6"/>
</g>
<g>
	<polygon class="st10" points="40.7,251.8 53.6,229.4 66.5,251.8 	"/>
	<rect x="51.5" y="249.5" class="st11" width="4.2" height="6.6"/>
</g>
<g>
	<polygon class="st10" points="406.2,327.3 425.3,294.3 444.3,327.3 	"/>
	<rect x="422.1" y="324" class="st11" width="6.2" height="9.8"/>
</g>
<g>
	<polygon class="st10" points="408.6,1747.7 431.5,1708.1 454.3,1747.7 	"/>
	<rect x="427.7" y="1744" class="st11" width="7.5" height="11.7"/>
</g>
<g>
	<polygon class="st10" points="404.6,110.6 427.5,70.9 450.4,110.6 	"/>
	<rect x="423.7" y="106.8" class="st11" width="7.5" height="11.7"/>
</g>
<g>
	<polygon class="st3" points="133.7,943.8 70,943.8 70,933.5 101.9,923.6 133.7,933.5 	"/>
	<polygon class="st4" points="133.7,906.5 70,906.5 70,896.2 101.9,886.3 133.7,896.2 	"/>
	<polygon class="st1" points="101.9,886.3 70,896 70,933.8 101.9,923.6 	"/>
	<polygon class="st5" points="133.7,896 101.9,886.3 101.9,923.6 133.7,933.8 	"/>
	<polygon class="st3" points="116.9,900.6 111.4,896.9 114.2,903.4 107,908.5 114.5,910.6 121.7,917.3 121.7,910 128.9,910.1 
		124.8,907.1 129,900.6 123,902.9 118,895.6 	"/>
	<polygon class="st6" points="117.2,902.1 113.1,899.4 115.2,904.2 109.9,908 115.3,909.5 120.6,914.5 120.6,909.1 126.1,909.2 
		123,906.9 126.1,902.1 121.7,903.8 118,898.4 	"/>
	<rect x="97.3" y="931.4" class="st1" width="9.2" height="12.3"/>
</g>
<g>
	<polygon class="st3" points="91.7,675.1 32.3,675.1 32.3,668.8 62.4,656.3 91.7,668.8 	"/>
	<polygon class="st1" points="62.4,634.3 32.3,646.6 32.3,669.1 62.4,656.3 	"/>
	<polygon class="st5" points="91.7,646.6 62.4,634.3 62.4,656.3 91.7,669.1 	"/>
	<polygon class="st5" points="51.5,670.4 48.9,672.1 50.2,669 46.8,666.6 50.4,665.6 54,662.4 54,665.9 57.3,665.9 55.3,667.2 
		57.2,670.4 54.4,669.3 52,672.6 	"/>
	<polygon class="st6" points="51.6,669.5 49.7,670.8 50.6,668.5 48.1,666.7 50.7,665.9 53.2,663.6 53.2,666.1 55.8,666.1 
		54.4,667.2 55.8,669.5 53.8,668.7 52,671.2 	"/>
	<rect x="62.8" y="662.7" class="st1" width="9.2" height="12.3"/>
</g>
<g>
	<polygon class="st3" points="413.6,761.2 354.2,761.2 354.2,754.9 384.2,742.5 413.6,754.9 	"/>
	<polygon class="st1" points="384.2,720.5 354.2,732.7 354.2,755.2 384.2,742.5 	"/>
	<polygon class="st5" points="413.6,732.7 384.2,720.5 384.2,742.5 413.6,755.2 	"/>
	<polygon class="st5" points="373.4,756.5 370.7,758.2 372,755.2 368.7,752.7 372.3,751.8 375.8,748.5 375.8,752 379.2,752 
		377.2,753.4 379.1,756.5 376.3,755.4 373.9,758.8 	"/>
	<polygon class="st6" points="373.5,755.6 371.5,756.9 372.5,754.6 370,752.8 372.6,752.1 375.1,749.7 375.1,752.3 377.7,752.3 
		376.3,753.3 377.7,755.6 375.6,754.8 373.9,757.3 	"/>
	<rect x="384.7" y="748.9" class="st1" width="9.2" height="12.3"/>
</g>
<g>
	<polygon class="st3" points="114.7,494.6 55.3,494.6 55.3,488.3 85.4,475.9 114.7,488.3 	"/>
	<polygon class="st4" points="114.7,466.8 55.3,466.8 55.3,466.3 85.4,453.9 114.7,466.3 	"/>
	<polygon class="st1" points="85.4,453.9 55.3,466.1 55.3,488.6 85.4,475.9 	"/>
	<polygon class="st5" points="114.7,466.1 85.4,453.9 85.4,475.9 114.7,488.6 	"/>
	<rect x="75.6" y="482.3" class="st1" width="9.2" height="12.3"/>
	<rect x="87.7" y="482.3" class="st1" width="5.4" height="5.1"/>
	<polygon class="st3" points="101.7,468.9 104.1,467.3 102.9,470.1 106,472.4 102.9,473.4 99.8,476.3 99.8,473.1 96.5,473.1 
		98.2,471.8 96.4,468.9 99,469.9 101.2,466.7 	"/>
	<polygon class="st6" points="101.5,469.6 103.3,468.3 102.4,470.5 104.8,472.2 102.4,472.8 100.2,475.1 100.2,472.7 97.7,472.7 
		99,471.8 97.6,469.6 99.5,470.3 101.2,467.9 	"/>
</g>
<g>
	<polygon class="st3" points="114.9,1041.8 55.5,1041.8 55.5,1035.6 85.5,1023.1 114.9,1035.6 	"/>
	<polygon class="st4" points="114.9,1014 55.5,1014 55.5,1013.5 85.5,1001.1 114.9,1013.5 	"/>
	<polygon class="st1" points="85.5,1001.1 55.5,1013.3 55.5,1035.8 85.5,1023.1 	"/>
	<polygon class="st5" points="114.9,1013.3 85.5,1001.1 85.5,1023.1 114.9,1035.8 	"/>
	<polygon class="st3" points="72.6,1015.3 70.7,1016.6 71.6,1014.4 69.1,1012.6 71.7,1011.8 74.2,1009.4 74.2,1012 76.8,1012 
		75.4,1013.1 76.8,1015.3 74.8,1014.6 73,1017.1 	"/>
	<polygon class="st6" points="72.7,1014.7 71.3,1015.6 72,1014 70.1,1012.6 72,1012 73.8,1010.3 73.8,1012.2 75.8,1012.2 74.8,1013 
		75.8,1014.7 74.3,1014 73,1016 	"/>
	<rect x="75.8" y="1029.5" class="st1" width="9.2" height="12.3"/>
	<rect x="87.9" y="1029.5" class="st1" width="5.4" height="5.1"/>
	<polygon class="st3" points="97.2,1012.6 92.5,1009.4 94.8,1014.9 88.7,1019.3 95.2,1021.1 101.4,1026.9 101.4,1020.7 
		107.5,1020.7 104,1018.2 107.5,1012.6 102.4,1014.5 98.1,1008.3 	"/>
	<polygon class="st6" points="97.4,1013.8 93.9,1011.5 95.7,1015.6 91.1,1018.9 95.8,1020.2 100.3,1024.5 100.3,1019.9 105,1019.9 
		102.4,1018 105.1,1013.9 101.3,1015.3 98.1,1010.7 	"/>
	<path class="st9" d="M98.6,1012.2c-1.9,0-3.4-1.5-3.4-3.4c0-1.4,0.8-2.5,2-3.1c-0.1-0.2-0.1-0.5-0.1-0.7c0-0.2,0-0.4,0.1-0.7
		c-0.7-0.2-1.2-0.8-1.2-1.5c0-0.7,0.5-1.3,1.2-1.5c0-0.1-0.1-0.3-0.1-0.5c0-0.8,0.7-1.5,1.5-1.5c0.8,0,1.5,0.7,1.5,1.5
		c0,0.7-0.4,1.2-1,1.4c0.1,0.2,0.1,0.4,0.1,0.6c0,0,0,0.1,0,0.1l0,0c1.1,0,2,0.9,2,2c0,0.5-0.1,0.9-0.4,1.2c0.7,0.6,1.2,1.6,1.2,2.6
		c0,0.1,0,0.3,0,0.4c0,0,0,0,0,0c1.6,0,2.9,1.3,2.9,2.9c0,1.5-1.1,2.7-2.4,2.9c0,0.1,0,0.1,0,0.2c0,1.3-1,2.3-2.3,2.3
		s-2.3-1-2.3-2.3c0-0.9,0.5-1.7,1.3-2c-0.1-0.3-0.2-0.7-0.2-1C98.9,1012.2,98.7,1012.2,98.6,1012.2z"/>
</g>
<g>
	<polygon class="st3" points="398.4,1686.7 339,1686.7 339,1680.4 369,1667.9 398.4,1680.4 	"/>
	<polygon class="st4" points="398.4,1658.8 339,1658.8 339,1658.4 369,1645.9 398.4,1658.4 	"/>
	<polygon class="st1" points="369,1645.9 339,1658.2 339,1680.7 369,1667.9 	"/>
	<polygon class="st5" points="398.4,1658.2 369,1645.9 369,1667.9 398.4,1680.7 	"/>
	<polygon class="st3" points="356.1,1660.2 354.1,1661.5 355.1,1659.2 352.6,1657.4 355.2,1656.7 357.7,1654.3 357.7,1656.8 
		360.3,1656.8 358.9,1657.9 360.3,1660.2 358.2,1659.4 356.5,1661.9 	"/>
	<polygon class="st6" points="356.2,1659.5 354.8,1660.5 355.5,1658.8 353.6,1657.4 355.5,1656.8 357.3,1655.1 357.3,1657 
		359.3,1657 358.2,1657.8 359.3,1659.5 357.8,1658.9 356.5,1660.8 	"/>
	<rect x="359.3" y="1674.3" class="st1" width="9.2" height="12.3"/>
	<rect x="371.4" y="1674.3" class="st1" width="5.4" height="5.1"/>
	<polygon class="st3" points="380.7,1657.4 376,1654.3 378.3,1659.7 372.2,1664.2 378.7,1666 384.9,1671.7 384.9,1665.5 391,1665.6 
		387.5,1663 391,1657.4 385.9,1659.3 381.6,1653.2 	"/>
	<polygon class="st6" points="380.9,1658.7 377.4,1656.4 379.2,1660.5 374.6,1663.7 379.3,1665.1 383.8,1669.4 383.8,1664.7 
		388.5,1664.8 385.9,1662.8 388.6,1658.7 384.8,1660.1 381.6,1655.5 	"/>
	<path class="st9" d="M382.1,1657c-1.9,0-3.4-1.5-3.4-3.4c0-1.4,0.8-2.5,2-3.1c-0.1-0.2-0.1-0.5-0.1-0.7c0-0.2,0-0.4,0.1-0.7
		c-0.7-0.2-1.2-0.8-1.2-1.5c0-0.7,0.5-1.3,1.2-1.5c0-0.1-0.1-0.3-0.1-0.5c0-0.8,0.7-1.5,1.5-1.5c0.8,0,1.5,0.7,1.5,1.5
		c0,0.7-0.4,1.2-1,1.4c0.1,0.2,0.1,0.4,0.1,0.6c0,0,0,0.1,0,0.1l0,0c1.1,0,2,0.9,2,2c0,0.5-0.1,0.9-0.4,1.2c0.7,0.6,1.2,1.6,1.2,2.6
		c0,0.1,0,0.3,0,0.4c0,0,0,0,0,0c1.6,0,2.9,1.3,2.9,2.9c0,1.5-1.1,2.7-2.4,2.9c0,0.1,0,0.1,0,0.2c0,1.3-1,2.3-2.3,2.3
		s-2.3-1-2.3-2.3c0-0.9,0.5-1.7,1.3-2c-0.1-0.3-0.2-0.7-0.2-1C382.4,1657,382.2,1657,382.1,1657z"/>
</g>
<g>
	<polygon class="st3" points="416.7,1105.7 353,1105.7 353,1095.5 384.9,1085.5 416.7,1095.5 	"/>
	<polygon class="st4" points="416.7,1068.4 353,1068.4 353,1058.1 384.9,1048.3 416.7,1058.1 	"/>
	<polygon class="st1" points="384.9,1048.3 353,1058 353,1095.7 384.9,1085.5 	"/>
	<polygon class="st5" points="416.7,1058 384.9,1048.3 384.9,1085.5 416.7,1095.7 	"/>
	<polygon class="st3" points="399.9,1062.5 394.4,1058.9 397.2,1065.3 390,1070.4 397.5,1072.5 404.7,1079.3 404.7,1072 411.9,1072 
		407.8,1069 411.9,1062.6 406,1064.8 401,1057.6 	"/>
	<polygon class="st6" points="400.2,1064.1 396.1,1061.3 398.1,1066.1 392.8,1069.9 398.3,1071.5 403.6,1076.4 403.6,1071.1 
		409,1071.1 406,1068.9 409.1,1064.1 404.7,1065.7 401,1060.4 	"/>
	<polygon class="st3" points="394.6,1076.7 396.9,1075.1 395.8,1077.9 398.9,1080.2 395.8,1081.1 392.7,1084.1 392.7,1080.9 
		389.4,1080.9 391.1,1079.6 389.3,1076.7 391.9,1077.7 394.1,1074.5 	"/>
	<polygon class="st6" points="394.4,1077.4 396.2,1076.2 395.3,1078.3 397.7,1080 395.3,1080.6 393.1,1082.9 393.1,1080.5 
		390.6,1080.5 391.9,1079.5 390.5,1077.4 392.4,1078.1 394.1,1075.7 	"/>
	<rect x="380.2" y="1093.4" class="st1" width="9.2" height="12.3"/>
	<path class="st9" d="M405.6,1061.1c2.5,0,4.5-2,4.5-4.5c0-1.9-1.1-3.4-2.7-4.2c0.1-0.3,0.2-0.7,0.2-1c0-0.3,0-0.6-0.1-0.9
		c0.9-0.2,1.6-1.1,1.6-2c0-1-0.7-1.8-1.6-2c0.1-0.2,0.1-0.4,0.1-0.6c0-1.1-0.9-2-2-2c-1.1,0-2,0.9-2,2c0,0.9,0.6,1.6,1.4,1.9
		c-0.1,0.3-0.1,0.5-0.1,0.8c0,0,0,0.1,0,0.1l0,0c-1.5,0-2.8,1.2-2.8,2.8c0,0.6,0.2,1.2,0.6,1.7c-1,0.8-1.6,2.1-1.6,3.5
		c0,0.1,0,0.3,0,0.5c0,0,0,0,0,0c-2.2,0-4,1.8-4,4c0,2,1.4,3.6,3.3,3.9c0,0.1,0,0.2,0,0.3c0,1.7,1.4,3.1,3.1,3.1
		c1.7,0,3.1-1.4,3.1-3.1c0-1.2-0.7-2.3-1.7-2.8c0.2-0.4,0.3-0.9,0.3-1.4C405.2,1061.1,405.4,1061.1,405.6,1061.1z"/>
</g>
<g>
	<polygon class="st3" points="80,1325 16.2,1325 16.2,1314.7 48.1,1304.8 80,1314.7 	"/>
	<polygon class="st4" points="80,1287.7 16.2,1287.7 16.2,1277.5 48.1,1267.6 80,1277.5 	"/>
	<polygon class="st1" points="48.1,1267.6 16.2,1277.3 16.2,1315 48.1,1304.8 	"/>
	<polygon class="st5" points="80,1277.3 48.1,1267.6 48.1,1304.8 80,1315 	"/>
	<polygon class="st3" points="31.2,1296.5 25.7,1300.2 28.4,1293.7 21.3,1288.6 28.8,1286.5 36.1,1279.8 36.1,1287 43.2,1287 
		39.1,1290 43.2,1296.5 37.3,1294.2 32.3,1301.5 	"/>
	<polygon class="st6" points="31.5,1294.6 27.4,1297.3 29.4,1292.6 24.1,1288.8 29.6,1287.2 35,1282.2 35,1287.6 40.4,1287.6 
		37.3,1289.8 40.4,1294.6 36,1293 32.3,1298.3 	"/>
	<rect x="37.6" y="1312.7" class="st1" width="9.2" height="12.3"/>
	<rect x="52.4" y="1312.7" class="st1" width="9.2" height="7.5"/>
	<path class="st9" d="M29.8,1284.5c-2.4,0-4.3-1.9-4.3-4.3c0-1.7,1.1-3.2,2.5-3.9c-0.1-0.3-0.2-0.6-0.2-0.9c0-0.3,0-0.5,0.1-0.8
		c-0.9-0.2-1.5-1-1.5-1.9c0-0.9,0.7-1.7,1.5-1.9c-0.1-0.2-0.1-0.4-0.1-0.6c0-1,0.8-1.9,1.9-1.9c1,0,1.9,0.8,1.9,1.9
		c0,0.8-0.5,1.5-1.3,1.8c0.1,0.2,0.1,0.5,0.1,0.7c0,0,0,0.1,0,0.1l0,0c1.5,0,2.6,1.2,2.6,2.6c0,0.6-0.2,1.1-0.5,1.6
		c0.9,0.8,1.5,2,1.5,3.3c0,0.1,0,0.3,0,0.4c0,0,0,0,0,0c2.1,0,3.7,1.7,3.7,3.7c0,1.9-1.3,3.4-3,3.7c0,0.1,0,0.2,0,0.3
		c0,1.6-1.3,2.9-2.9,2.9c-1.6,0-2.9-1.3-2.9-2.9c0-1.2,0.7-2.1,1.6-2.6c-0.1-0.4-0.3-0.8-0.3-1.3C30.1,1284.5,30,1284.5,29.8,1284.5
		z"/>
</g>
<g>
	<polygon class="st3" points="413.3,539.2 349.5,539.2 349.5,513.4 381.4,503.4 413.3,513.4 	"/>
	<polygon class="st4" points="413.3,501.9 349.5,501.9 349.5,494.9 381.4,485 413.3,494.9 	"/>
	<polygon class="st1" points="381.4,485 349.5,494.7 349.5,513.6 381.4,503.4 	"/>
	<polygon class="st5" points="413.3,494.7 381.4,485 381.4,503.4 413.3,513.6 	"/>
	<rect x="363.7" y="526.9" class="st1" width="9.2" height="12.3"/>
	<rect x="377.2" y="527.3" class="st1" width="5.4" height="5.1"/>
	<path class="st9" d="M395.9,478c1.9,0,3.4-1.5,3.4-3.4c0-1.4-0.8-2.5-2-3.1c0.1-0.2,0.1-0.5,0.1-0.7c0-0.2,0-0.4-0.1-0.7
		c0.7-0.2,1.2-0.8,1.2-1.5c0-0.7-0.5-1.3-1.2-1.5c0-0.1,0.1-0.3,0.1-0.5c0-0.8-0.7-1.5-1.5-1.5s-1.5,0.7-1.5,1.5
		c0,0.7,0.4,1.2,1,1.4c-0.1,0.2-0.1,0.4-0.1,0.6c0,0,0,0.1,0,0.1l0,0c-1.1,0-2,0.9-2,2c0,0.5,0.1,0.9,0.4,1.2
		c-0.7,0.6-1.2,1.6-1.2,2.6c0,0.1,0,0.3,0,0.4c0,0,0,0,0,0c-1.6,0-2.9,1.3-2.9,2.9c0,1.5,1.1,2.7,2.4,2.9c0,0.1,0,0.1,0,0.2
		c0,1.3,1,2.3,2.3,2.3s2.3-1,2.3-2.3c0-0.9-0.5-1.7-1.3-2c0.1-0.3,0.2-0.7,0.2-1C395.6,478,395.8,478,395.9,478z"/>
	<rect x="389.5" y="481.9" class="st1" width="9.2" height="17.7"/>
</g>
<g>
	<polygon class="st3" points="128,1191.2 68.6,1191.2 68.6,1185 98.6,1172.5 128,1185 	"/>
	<polygon class="st4" points="128,1163.4 68.6,1163.4 68.6,1162.9 98.6,1150.5 128,1162.9 	"/>
	<polygon class="st7" points="98.6,1150.5 68.6,1162.7 68.6,1185.3 98.6,1172.5 	"/>
	<polygon class="st8" points="128,1162.7 98.6,1150.5 98.6,1172.5 128,1185.3 	"/>
	<polygon class="st8" points="81.1,1171.3 77.8,1173.5 79.4,1169.6 75.2,1166.5 79.7,1165.3 84,1161.3 84,1165.6 88.3,1165.5 
		85.8,1167.4 88.3,1171.3 84.7,1169.9 81.7,1174.2 	"/>
	<polygon class="st6" points="81.3,1170.2 78.8,1171.8 80,1168.9 76.9,1166.6 80.1,1165.7 83.3,1162.7 83.3,1165.9 86.6,1165.9 
		84.7,1167.2 86.6,1170.2 83.9,1169.1 81.7,1172.4 	"/>
	<path class="st9" d="M111.7,1150.2c1.3,0,2.4-1.1,2.4-2.4c0-1-0.6-1.8-1.4-2.2c0.1-0.1,0.1-0.3,0.1-0.5c0-0.1,0-0.3-0.1-0.4
		c0.5-0.1,0.8-0.5,0.8-1.1s-0.4-0.9-0.8-1.1c0-0.1,0.1-0.2,0.1-0.3c0-0.6-0.5-1-1-1c-0.6,0-1,0.5-1,1c0,0.5,0.3,0.8,0.7,1
		c0,0.1-0.1,0.3-0.1,0.4c0,0,0,0,0,0.1l0,0c-0.8,0-1.5,0.7-1.5,1.5c0,0.3,0.1,0.6,0.3,0.9c-0.5,0.4-0.8,1.1-0.8,1.8
		c0,0.1,0,0.2,0,0.3l0,0c-1.1,0-2.1,0.9-2.1,2.1c0,1,0.7,1.9,1.7,2c0,0,0,0.1,0,0.1c0,0.9,0.7,1.6,1.6,1.6c0.9,0,1.6-0.7,1.6-1.6
		c0-0.6-0.4-1.2-0.9-1.5c0.1-0.2,0.1-0.5,0.1-0.7C111.5,1150.2,111.6,1150.2,111.7,1150.2z"/>
	<rect x="107.2" y="1152.9" class="st7" width="6.5" height="12.5"/>
	<rect x="88.9" y="1181.9" class="st6" width="9.2" height="9.4"/>
</g>
<g>
	<polygon class="st3" points="438.8,1909.1 379.4,1909.1 379.4,1902.8 409.5,1890.4 438.8,1902.8 	"/>
	<polygon class="st4" points="438.8,1881.2 379.4,1881.2 379.4,1880.8 409.5,1868.3 438.8,1880.8 	"/>
	<polygon class="st7" points="409.5,1868.3 379.4,1880.6 379.4,1903.1 409.5,1890.4 	"/>
	<polygon class="st8" points="438.8,1880.6 409.5,1868.3 409.5,1890.4 438.8,1903.1 	"/>
	<polygon class="st8" points="391.9,1889.1 388.6,1891.3 390.3,1887.5 386,1884.4 390.5,1883.1 394.9,1879.1 394.9,1883.5 
		399.2,1883.4 396.7,1885.2 399.1,1889.1 395.6,1887.7 392.6,1892.1 	"/>
	<polygon class="st6" points="392.1,1888 389.6,1889.6 390.8,1886.8 387.7,1884.4 391,1883.5 394.2,1880.6 394.2,1883.8 
		397.4,1883.8 395.6,1885.1 397.4,1888 394.8,1887 392.6,1890.2 	"/>
	<path class="st9" d="M422.5,1868.1c1.3,0,2.4-1.1,2.4-2.4c0-1-0.6-1.8-1.4-2.2c0.1-0.1,0.1-0.3,0.1-0.5c0-0.1,0-0.3-0.1-0.4
		c0.5-0.1,0.8-0.5,0.8-1.1c0-0.5-0.4-0.9-0.8-1.1c0-0.1,0.1-0.2,0.1-0.3c0-0.6-0.5-1-1-1c-0.6,0-1,0.5-1,1c0,0.5,0.3,0.8,0.7,1
		c0,0.1-0.1,0.3-0.1,0.4c0,0,0,0,0,0.1l0,0c-0.8,0-1.5,0.7-1.5,1.5c0,0.3,0.1,0.6,0.3,0.9c-0.5,0.4-0.8,1.1-0.8,1.8
		c0,0.1,0,0.2,0,0.3l0,0c-1.1,0-2.1,0.9-2.1,2.1c0,1,0.7,1.9,1.7,2c0,0,0,0.1,0,0.1c0,0.9,0.7,1.6,1.6,1.6c0.9,0,1.6-0.7,1.6-1.6
		c0-0.6-0.4-1.2-0.9-1.5c0.1-0.2,0.1-0.5,0.1-0.7C422.3,1868.1,422.4,1868.1,422.5,1868.1z"/>
	<rect x="418" y="1870.8" class="st7" width="6.5" height="12.5"/>
	<rect x="399.7" y="1899.7" class="st6" width="9.2" height="9.4"/>
</g>
<g>
	<g>
		<polygon class="st3" points="458.1,1372.8 398.7,1372.8 398.7,1366.5 428.8,1354.1 458.1,1366.5 		"/>
		<polygon class="st4" points="458.1,1345 398.7,1345 398.7,1344.4 428.8,1332 458.1,1344.4 		"/>
		<polygon class="st1" points="428.8,1332 398.7,1344.3 398.7,1366.8 428.8,1354.1 		"/>
		<polygon class="st5" points="458.1,1344.3 428.8,1332 428.8,1354.1 458.1,1366.8 		"/>
		<polygon class="st5" points="411.2,1352.8 407.9,1355 409.5,1351.2 405.3,1348.1 409.8,1346.8 414.2,1342.8 414.2,1347.2 
			418.4,1347.1 415.9,1348.9 418.4,1352.8 414.8,1351.4 411.8,1355.7 		"/>
		<polygon class="st6" points="411.4,1351.7 408.9,1353.3 410.1,1350.4 407,1348.1 410.2,1347.2 413.4,1344.3 413.4,1347.5 
			416.7,1347.4 414.8,1348.8 416.7,1351.7 414,1350.7 411.8,1353.9 		"/>
		<path class="st9" d="M441.8,1331.7c1.3,0,2.4-1.1,2.4-2.4c0-1-0.6-1.8-1.4-2.2c0.1-0.1,0.1-0.3,0.1-0.5c0-0.1,0-0.3-0.1-0.4
			c0.5-0.1,0.8-0.5,0.8-1.1c0-0.5-0.4-0.9-0.8-1.1c0-0.1,0.1-0.2,0.1-0.3c0-0.6-0.5-1-1-1c-0.6,0-1,0.5-1,1c0,0.5,0.3,0.8,0.7,1
			c0,0.1-0.1,0.3-0.1,0.4c0,0,0,0,0,0.1l0,0c-0.8,0-1.5,0.7-1.5,1.5c0,0.3,0.1,0.6,0.3,0.9c-0.5,0.4-0.8,1.1-0.8,1.8
			c0,0.1,0,0.2,0,0.3l0,0c-1.1,0-2.1,0.9-2.1,2.1c0,1,0.7,1.9,1.7,2c0,0,0,0.1,0,0.1c0,0.9,0.7,1.6,1.6,1.6c0.9,0,1.6-0.7,1.6-1.6
			c0-0.6-0.4-1.2-0.9-1.5c0.1-0.2,0.1-0.5,0.1-0.7C441.6,1331.7,441.7,1331.7,441.8,1331.7z"/>
		<rect x="437.3" y="1334.5" class="st1" width="6.5" height="12.5"/>
	</g>
	<rect x="419" y="1363.4" class="st1" width="9.2" height="9.4"/>
</g>
<g>
	<polygon class="st10" points="104.2,694 127.1,654.4 149.9,694 	"/>
	<rect x="123.3" y="690.3" class="st11" width="7.5" height="11.7"/>
</g>
<g>
	<polygon class="st10" points="342.6,953.4 365.5,913.8 388.3,953.4 	"/>
	<rect x="361.7" y="949.6" class="st11" width="7.5" height="11.7"/>
</g>
<g>
	<polygon class="st10" points="100.4,1269.2 118,1238.7 135.6,1269.2 	"/>
	<rect x="115.1" y="1266.3" class="st11" width="5.8" height="9"/>
</g>
<g>
	<polygon class="st10" points="113.5,790.9 126.4,768.6 139.3,790.9 	"/>
	<rect x="124.2" y="788.6" class="st11" width="4.2" height="6.6"/>
</g>
<g>
	<polygon class="st10" points="403.8,655.3 416.8,633 429.7,655.3 	"/>
	<rect x="414.6" y="653.1" class="st11" width="4.2" height="6.6"/>
</g>
<g>
	<polygon class="st10" points="110.4,1503.5 123.3,1481.1 136.2,1503.5 	"/>
	<rect x="121.1" y="1501.2" class="st11" width="4.2" height="6.6"/>
</g>
<g>
	<polygon class="st10" points="369,1821.1 381.9,1798.7 394.9,1821.1 	"/>
	<rect x="379.8" y="1818.9" class="st11" width="4.2" height="6.6"/>
</g>
<g>
	<polygon class="st10" points="356.1,1296.7 369.1,1274.3 382,1296.7 	"/>
	<rect x="366.9" y="1294.5" class="st11" width="4.2" height="6.6"/>
</g>
<g>
	<polygon class="st10" points="385.8,36.8 398.8,14.4 411.7,36.8 	"/>
	<rect x="396.6" y="34.5" class="st11" width="4.2" height="6.6"/>
</g>
<g>
	<polygon class="st10" points="384.9,889.1 403.9,856.1 422.9,889.1 	"/>
	<rect x="400.8" y="885.9" class="st11" width="6.2" height="9.8"/>
</g>
<g>
	<polygon class="st10" points="416.8,613.2 439.6,573.6 462.5,613.2 	"/>
	<rect x="435.9" y="609.4" class="st11" width="7.5" height="11.7"/>
</g>
</svg>
