<?xml version="1.0" encoding="utf-8"?>
<!-- Generator: Adobe Illustrator 19.1.0, SVG Export Plug-In . SVG Version: 6.00 Build 0)  -->
<!DOCTYPE svg PUBLIC "-//W3C//DTD SVG 1.1//EN" "http://www.w3.org/Graphics/SVG/1.1/DTD/svg11.dtd">
<svg version="1.1" id="Layer_1" xmlns="http://www.w3.org/2000/svg" xmlns:xlink="http://www.w3.org/1999/xlink" x="0px" y="0px"
	 viewBox="0 -750 2000 3000" style="enable-background:new 0 -750 2000 3000;" xml:space="preserve">
<style type="text/css">
	.st0{opacity:0.75;fill:url(#SVGID_1_);enable-background:new    ;}
	.st1{fill:url(#SVGID_2_);}
	.st2{fill:#FFFFFF;}
	.st3{fill:#A3A3A3;}
	.st4{fill:#E88F7E;}
	.st5{fill:#474646;}
	.st6{fill:#6D6C6C;}
	.st7{fill:#1A1A1A;}
	.st8{fill:#A86309;}
	.st9{fill:#DE8400;}
	.st10{fill:#E6E6E6;}
	.st11{fill:#9B9334;}
	.st12{fill:#725225;}
	.st13{fill:#AD1414;}
	.st14{fill:none;}
	.st15{fill:#D3D3D3;}
	.st16{fill:url(#SVGID_3_);}
	.st17{fill:url(#SVGID_4_);}
	.st18{fill:url(#SVGID_5_);}
	.st19{fill:url(#SVGID_6_);}
	.st20{fill:url(#SVGID_7_);}
	.st21{fill:url(#SVGID_8_);}
	.st22{fill:url(#SVGID_9_);}
	.st23{fill:url(#SVGID_10_);}
	.st24{fill:url(#SVGID_11_);}
	.st25{fill:url(#SVGID_12_);}
	.st26{fill:url(#SVGID_13_);}
	.st27{fill:url(#SVGID_14_);}
	.st28{fill:url(#SVGID_15_);}
	.st29{fill:url(#SVGID_16_);}
	.st30{fill:url(#SVGID_17_);}
	.st31{fill:url(#SVGID_18_);}
	.st32{fill:url(#SVGID_19_);}
	.st33{fill:url(#SVGID_20_);}
	.st34{fill:url(#SVGID_21_);}
	.st35{fill:url(#SVGID_22_);}
	.st36{fill:url(#SVGID_23_);}
</style>
<linearGradient id="SVGID_1_" gradientUnits="userSpaceOnUse" x1="861.3178" y1="-520.8224" x2="1144.0359" y2="2066.5173">
	<stop  offset="0" style="stop-color:#CEC58E"/>
	<stop  offset="0.5085" style="stop-color:#DDC289"/>
	<stop  offset="0.7876" style="stop-color:#E8C086"/>
</linearGradient>
<rect y="-751.7" class="st0" width="2000" height="3000"/>
<linearGradient id="SVGID_2_" gradientUnits="userSpaceOnUse" x1="835.5283" y1="-756.9398" x2="1164.4718" y2="2253.4397">
	<stop  offset="0" style="stop-color:#474646"/>
	<stop  offset="0.3678" style="stop-color:#383737"/>
	<stop  offset="1" style="stop-color:#141414"/>
</linearGradient>
<polygon class="st1" points="798.1,-752.9 798.1,747.1 798.1,749.3 798.1,2249.4 1201.9,2249.4 1201.9,749.3 1201.9,747.1 
	1201.9,-752.9 "/>
<g>
	<rect x="994.3" y="-751.7" class="st2" width="12" height="30"/>
	<rect x="994.3" y="345.3" class="st2" width="12" height="58"/>
	<rect x="994.3" y="220.3" class="st2" width="12" height="58"/>
	<rect x="994.3" y="470.3" class="st2" width="12" height="58"/>
	<rect x="994.3" y="95.3" class="st2" width="12" height="58"/>
	<rect x="994.3" y="595.3" class="st2" width="12" height="58"/>
	<rect x="994.3" y="-654.7" class="st2" width="12" height="58"/>
	<rect x="994.3" y="-29.7" class="st2" width="12" height="58"/>
	<rect x="994.3" y="-529.7" class="st2" width="12" height="58"/>
	<rect x="994.3" y="-404.7" class="st2" width="12" height="58"/>
	<rect x="994.3" y="-154.7" class="st2" width="12" height="58"/>
	<rect x="994.3" y="-279.7" class="st2" width="12" height="58"/>
	<polygon class="st2" points="994.3,748.3 994.3,748.3 994.3,778.3 1006.3,778.3 1006.3,748.3 1006.3,748.3 1006.3,718.3 
		994.3,718.3 	"/>
	<rect x="994.3" y="1595.3" class="st2" width="12" height="58"/>
	<rect x="994.3" y="1720.3" class="st2" width="12" height="58"/>
	<rect x="994.3" y="2095.4" class="st2" width="12" height="58"/>
	<rect x="994.3" y="1845.3" class="st2" width="12" height="58"/>
	<rect x="994.3" y="1970.3" class="st2" width="12" height="58"/>
	<rect x="994.3" y="1220.3" class="st2" width="12" height="58"/>
	<rect x="994.3" y="970.3" class="st2" width="12" height="58"/>
	<rect x="994.3" y="1470.3" class="st2" width="12" height="58"/>
	<rect x="994.3" y="845.3" class="st2" width="12" height="58"/>
	<rect x="994.3" y="1095.3" class="st2" width="12" height="58"/>
	<rect x="994.3" y="1345.3" class="st2" width="12" height="58"/>
	<rect x="994.3" y="2218.4" class="st2" width="12" height="30"/>
</g>
<g>
	<polygon class="st2" points="820.3,748.3 820.3,748.3 820.3,2248.4 832.3,2248.4 832.3,748.3 832.3,748.3 832.3,-751.7 
		820.3,-751.7 	"/>
	<polygon class="st2" points="1168.3,-751.7 1168.3,748.3 1168.3,748.3 1168.3,2248.4 1180.3,2248.4 1180.3,748.3 1180.3,748.3 
		1180.3,-751.7 	"/>
</g>
<g>
	<polygon class="st3" points="739.5,284.1 563.9,284.1 563.9,255.8 651.7,228.5 739.5,255.8 	"/>
	<polygon class="st4" points="739.5,181.4 563.9,181.4 563.9,153.1 651.7,125.8 739.5,153.1 	"/>
	<polygon class="st5" points="651.7,125.8 563.9,152.6 563.9,256.6 651.7,228.5 	"/>
	<polygon class="st6" points="739.5,152.6 651.7,125.8 651.7,228.5 739.5,256.6 	"/>
	<polygon class="st5" points="693.2,165.1 678,155.1 685.6,172.8 665.9,187 686.5,192.8 706.3,211.3 706.3,191.3 726.2,191.3 
		714.9,183.1 726.3,165.3 709.9,171.4 696.1,151.5 	"/>
	<polygon class="st7" points="693.9,169.3 682.7,161.8 688.3,175 673.7,185.6 688.8,189.8 703.3,203.5 703.3,188.8 718.3,188.8 
		710,182.8 718.5,169.3 706.4,174 696.1,159.3 	"/>
	<rect x="639" y="250.1" class="st5" width="25.4" height="33.9"/>
</g>
<g>
	<polygon class="st3" points="1467.3,-228.9 1303.7,-228.9 1303.7,-246.2 1386.5,-280.5 1467.3,-246.2 	"/>
	<polygon class="st5" points="1386.5,-341.2 1303.7,-307.4 1303.7,-245.4 1386.5,-280.5 	"/>
	<polygon class="st6" points="1467.3,-307.4 1386.5,-341.2 1386.5,-280.5 1467.3,-245.4 	"/>
	<polygon class="st6" points="1356.5,-241.9 1349.3,-237 1352.9,-245.6 1343.6,-252.2 1353.6,-255 1363.3,-263.7 1363.3,-254.2 
		1372.5,-254.2 1367,-250.5 1372.3,-241.9 1364.5,-244.9 1357.9,-235.5 	"/>
	<polygon class="st7" points="1356.9,-244.4 1351.5,-240.7 1354.2,-247 1347.2,-252 1354.4,-254 1361.3,-260.6 1361.3,-253.6 
		1368.4,-253.6 1364.5,-250.7 1368.5,-244.4 1362.8,-246.6 1357.9,-239.6 	"/>
	<rect x="1387.7" y="-262.9" class="st5" width="25.4" height="33.9"/>
</g>
<g>
	<polygon class="st3" points="505.3,-230.9 341.7,-230.9 341.7,-248.2 424.5,-282.5 505.3,-248.2 	"/>
	<polygon class="st4" points="505.3,-307.6 341.7,-307.6 341.7,-308.9 424.5,-343.2 505.3,-308.9 	"/>
	<polygon class="st5" points="424.5,-343.2 341.7,-309.4 341.7,-247.4 424.5,-282.5 	"/>
	<polygon class="st6" points="505.3,-309.4 424.5,-343.2 424.5,-282.5 505.3,-247.4 	"/>
	<rect x="397.6" y="-264.9" class="st5" width="25.4" height="33.9"/>
	<rect x="431" y="-264.9" class="st5" width="14.8" height="14"/>
	<polygon class="st3" points="469.4,-301.7 476,-306.2 472.7,-298.4 481.4,-292 472.7,-289.6 464.3,-281.5 464.3,-290.2 
		455.2,-290.2 460,-293.9 454.8,-301.7 462,-299 468.1,-307.7 	"/>
	<polygon class="st7" points="469,-299.9 474,-303.2 471.5,-297.4 478,-292.7 471.5,-290.9 465.3,-284.7 465.3,-291.4 458.5,-291.4 
		462.1,-294 458.2,-299.9 463.6,-297.9 468.1,-304.4 	"/>
</g>
<polygon class="st3" points="1630.3,449.1 1466.7,449.1 1466.7,431.8 1549.5,397.5 1630.3,431.8 "/>
<polygon class="st4" points="1630.3,372.4 1466.7,372.4 1466.7,371.1 1549.5,336.8 1630.3,371.1 "/>
<polygon class="st8" points="1549.5,336.8 1466.7,370.6 1466.7,432.6 1549.5,397.5 "/>
<polygon class="st9" points="1630.3,370.6 1549.5,336.8 1549.5,397.5 1630.3,432.6 "/>
<polygon class="st9" points="1513.9,376.1 1508.5,379.8 1511.2,373.4 1504.3,368.4 1511.4,366.4 1518.3,359.8 1518.3,367 
	1525.4,367 1521.5,369.8 1525.5,376.1 1519.8,374 1514.9,381 "/>
<polygon class="st7" points="1514.1,374.3 1510.2,377 1512.1,372.3 1507,368.5 1512.2,367 1517.3,362.3 1517.3,367.4 1522.7,367.4 
	1519.8,369.6 1522.8,374.3 1518.5,372.6 1514.9,377.8 "/>
<rect x="1522.6" y="415.1" class="st7" width="25.4" height="33.9"/>
<rect x="1556" y="415.1" class="st7" width="14.8" height="14"/>
<polygon class="st8" points="1581.6,368.5 1568.6,359.8 1575.1,375 1558.2,387.3 1576.1,392.1 1593.3,408 1593.3,390.8 1610.1,391 
	1600.3,384 1610,368.5 1596,373.8 1584.1,356.8 "/>
<polygon class="st7" points="1582.2,372 1572.6,365.6 1577.4,377 1564.9,386 1577.8,389.6 1590.3,401.4 1590.3,388.6 1603.1,388.8 
	1596,383.5 1603.3,372.1 1592.9,376 1584.1,363.3 "/>
<path class="st10" d="M1585.5,367.5c-5.1,0-9.3-4.2-9.3-9.3c0-3.8,2.3-7,5.5-8.5c-0.2-0.6-0.4-1.3-0.4-2c0-0.6,0.1-1.2,0.3-1.8
	c-1.9-0.5-3.3-2.1-3.3-4.2c0-2,1.4-3.7,3.3-4.2c-0.1-0.4-0.2-0.8-0.2-1.3c0-2.2,1.8-4,4-4s4,1.8,4,4c0,1.8-1.2,3.3-2.8,3.8
	c0.2,0.5,0.3,1,0.3,1.6c0,0.1,0,0.2,0,0.3l0,0c3.1,0,5.6,2.5,5.6,5.6c0,1.3-0.4,2.5-1.2,3.4c2,1.7,3.3,4.3,3.3,7.1
	c0,0.3,0,0.7-0.1,1c0,0,0,0,0.1,0c4.5,0,8.1,3.6,8.1,8.1c0,4-2.9,7.3-6.6,8c0,0.2,0,0.4,0,0.6c0,3.5-2.8,6.3-6.3,6.3
	s-6.3-2.8-6.3-6.3c0-2.5,1.4-4.6,3.5-5.6c-0.3-0.9-0.5-1.8-0.5-2.8C1586.3,367.5,1585.9,367.5,1585.5,367.5z"/>
<g>
	<polygon class="st3" points="624.5,551.1 448.9,551.1 448.9,479.8 536.7,452.5 624.5,479.8 	"/>
	<polygon class="st4" points="624.5,448.4 448.9,448.4 448.9,429 536.7,401.6 624.5,429 	"/>
	<polygon class="st5" points="536.7,401.6 448.9,428.3 448.9,480.6 536.7,452.5 	"/>
	<polygon class="st6" points="624.5,428.3 536.7,401.6 536.7,452.5 624.5,480.6 	"/>
	<rect x="487.8" y="517.1" class="st5" width="25.4" height="33.9"/>
	<rect x="525" y="518.3" class="st5" width="14.8" height="14"/>
	<path class="st10" d="M576.6,382.5c5.1,0,9.3-4.2,9.3-9.3c0-3.8-2.3-7-5.5-8.5c0.2-0.6,0.4-1.3,0.4-2c0-0.6-0.1-1.2-0.3-1.8
		c1.9-0.5,3.3-2.1,3.3-4.2c0-2-1.4-3.7-3.3-4.2c0.1-0.4,0.2-0.8,0.2-1.3c0-2.2-1.8-4-4-4s-4,1.8-4,4c0,1.8,1.2,3.3,2.8,3.8
		c-0.2,0.5-0.3,1-0.3,1.6c0,0.1,0,0.2,0,0.3l0,0c-3.1,0-5.6,2.5-5.6,5.6c0,1.3,0.4,2.5,1.2,3.4c-2,1.7-3.3,4.3-3.3,7.1
		c0,0.3,0,0.7,0.1,1c0,0,0,0-0.1,0c-4.5,0-8.1,3.6-8.1,8.1c0,4,2.9,7.3,6.6,8c0,0.2,0,0.4,0,0.6c0,3.5,2.8,6.3,6.3,6.3
		s6.3-2.8,6.3-6.3c0-2.5-1.4-4.6-3.5-5.6c0.3-0.9,0.5-1.8,0.5-2.8C575.8,382.5,576.2,382.5,576.6,382.5z"/>
	<rect x="559" y="393.3" class="st5" width="25.4" height="48.7"/>
</g>
<g>
	<g>
		<polygon class="st3" points="689.3,-469.9 525.7,-469.9 525.7,-487.2 608.5,-521.5 689.3,-487.2 		"/>
		<polygon class="st4" points="689.3,-546.6 525.7,-546.6 525.7,-547.9 608.5,-582.2 689.3,-547.9 		"/>
		<polygon class="st5" points="608.5,-582.2 525.7,-548.4 525.7,-486.4 608.5,-521.5 		"/>
		<polygon class="st6" points="689.3,-548.4 608.5,-582.2 608.5,-521.5 689.3,-486.4 		"/>
		<polygon class="st6" points="560.1,-524.9 551.1,-518.9 555.6,-529.5 543.8,-538 556.3,-541.4 568.3,-552.5 568.3,-540.5 
			580.1,-540.6 573.2,-535.7 580,-524.9 570.2,-528.7 561.9,-516.7 		"/>
		<polygon class="st7" points="560.6,-528 553.8,-523.5 557.2,-531.4 548.5,-537.7 557.5,-540.2 566.3,-548.5 566.3,-539.6 
			575.2,-539.7 570.2,-536 575.3,-528 568,-530.7 561.9,-521.9 		"/>
		<path class="st10" d="M644.4-582.9c3.6,0,6.5-2.9,6.5-6.5c0-2.7-1.6-4.9-3.9-6c0.2-0.4,0.3-0.9,0.3-1.4c0-0.4-0.1-0.9-0.2-1.2
			c1.3-0.3,2.3-1.5,2.3-2.9s-1-2.6-2.3-2.9c0.1-0.3,0.2-0.6,0.2-0.9c0-1.6-1.3-2.8-2.8-2.8c-1.6,0-2.8,1.3-2.8,2.8
			c0,1.3,0.8,2.3,2,2.7c-0.1,0.3-0.2,0.7-0.2,1.1c0,0.1,0,0.1,0,0.2l0,0c-2.2,0-4,1.8-4,4c0,0.9,0.3,1.7,0.8,2.4
			c-1.4,1.2-2.3,3-2.3,5c0,0.2,0,0.5,0,0.7l0,0c-3.1,0-5.7,2.6-5.7,5.7c0,2.8,2,5.1,4.7,5.6c0,0.1,0,0.3,0,0.4c0,2.4,2,4.4,4.4,4.4
			s4.4-2,4.4-4.4c0-1.7-1-3.3-2.5-4c0.2-0.6,0.4-1.3,0.4-2C643.8-582.9,644.1-582.9,644.4-582.9z"/>
		<rect x="632" y="-575.4" class="st5" width="17.9" height="34.3"/>
	</g>
	<rect x="581.6" y="-495.7" class="st5" width="25.4" height="25.8"/>
</g>
<polygon class="st11" points="-352.8,178.9 -289.8,69.7 -226.9,178.9 "/>
<rect x="394.3" y="306" class="st12" width="20.7" height="32.3"/>
<rect x="393.5" y="-621.5" class="st12" width="20.7" height="32.3"/>
<rect x="628.7" y="-146.7" class="st12" width="15.9" height="24.9"/>
<rect x="684.9" y="36" class="st12" width="11.7" height="18.2"/>
<rect x="1385.9" y="-71" class="st12" width="11.7" height="18.2"/>
<rect x="1289.9" y="-485" class="st12" width="11.7" height="18.2"/>
<rect x="588.9" y="-357" class="st12" width="11.7" height="18.2"/>
<rect x="478.9" y="-55" class="st12" width="11.7" height="18.2"/>
<rect x="1499.9" y="150.3" class="st12" width="17.2" height="26.9"/>
<rect x="1334.3" y="283" class="st12" width="20.7" height="32.3"/>
<rect x="1504.3" y="-448" class="st12" width="20.7" height="32.3"/>
<g>
	<polygon class="st3" points="705.5,1857.4 529.9,1857.4 529.9,1829.1 617.7,1801.8 705.5,1829.1 	"/>
	<polygon class="st4" points="705.5,1754.8 529.9,1754.8 529.9,1726.4 617.7,1699.1 705.5,1726.4 	"/>
	<polygon class="st5" points="617.7,1699.1 529.9,1725.9 529.9,1829.9 617.7,1801.8 	"/>
	<polygon class="st6" points="705.5,1725.9 617.7,1699.1 617.7,1801.8 705.5,1829.9 	"/>
	<polygon class="st3" points="659.2,1738.4 644,1728.4 651.6,1746.1 631.9,1760.3 652.5,1766.1 672.3,1784.6 672.3,1764.6 
		692.2,1764.6 680.9,1756.4 692.3,1738.6 675.9,1744.8 662.1,1724.8 	"/>
	<polygon class="st7" points="659.9,1742.6 648.7,1735.1 654.3,1748.3 639.7,1758.9 654.8,1763.1 669.3,1776.8 669.3,1762.1 
		684.3,1762.1 676,1756.1 684.5,1742.6 672.4,1747.3 662.1,1732.6 	"/>
	<rect x="605" y="1823.4" class="st5" width="25.4" height="33.9"/>
</g>
<g>
	<polygon class="st3" points="589.7,1117.3 426.1,1117.3 426.1,1100.1 508.9,1065.6 589.7,1100.1 	"/>
	<polygon class="st5" points="508.9,1005 426.1,1038.8 426.1,1100.8 508.9,1065.6 	"/>
	<polygon class="st6" points="589.7,1038.8 508.9,1005 508.9,1065.6 589.7,1100.8 	"/>
	<polygon class="st6" points="478.9,1104.3 471.7,1109.1 475.3,1100.6 466,1093.9 476,1091.1 485.7,1082.4 485.7,1091.9 
		494.9,1091.9 489.4,1095.6 494.7,1104.3 486.9,1101.3 480.3,1110.6 	"/>
	<polygon class="st7" points="479.3,1101.8 473.9,1105.4 476.6,1099.1 469.6,1094.1 476.8,1092.1 483.7,1085.6 483.7,1092.6 
		490.8,1092.6 486.9,1095.6 490.9,1101.8 485.2,1099.6 480.3,1106.6 	"/>
	<rect x="510.1" y="1083.3" class="st5" width="25.4" height="33.9"/>
</g>
<g>
	<polygon class="st3" points="1476.3,1354.6 1312.7,1354.6 1312.7,1337.3 1395.5,1303.1 1476.3,1337.3 	"/>
	<polygon class="st5" points="1395.5,1242.3 1312.7,1276.1 1312.7,1338.1 1395.5,1303.1 	"/>
	<polygon class="st6" points="1476.3,1276.1 1395.5,1242.3 1395.5,1303.1 1476.3,1338.1 	"/>
	<polygon class="st6" points="1365.5,1341.6 1358.3,1346.4 1361.9,1337.9 1352.6,1331.1 1362.6,1328.6 1372.3,1319.6 1372.3,1329.1 
		1381.5,1329.1 1376,1333.1 1381.3,1341.6 1373.5,1338.6 1366.9,1348.1 	"/>
	<polygon class="st7" points="1365.9,1339.1 1360.5,1342.6 1363.2,1336.4 1356.2,1331.4 1363.4,1329.4 1370.3,1322.9 1370.3,1329.9 
		1377.4,1329.9 1373.5,1332.8 1377.5,1339.1 1371.8,1336.9 1366.9,1343.9 	"/>
	<rect x="1396.7" y="1320.6" class="st5" width="25.4" height="33.9"/>
</g>
<g>
	<polygon class="st3" points="672.3,910.9 508.7,910.9 508.7,893.6 591.5,859.4 672.3,893.6 	"/>
	<polygon class="st4" points="672.3,834.3 508.7,834.3 508.7,832.9 591.5,798.6 672.3,832.9 	"/>
	<polygon class="st5" points="591.5,798.6 508.7,832.4 508.7,894.4 591.5,859.4 	"/>
	<polygon class="st6" points="672.3,832.4 591.5,798.6 591.5,859.4 672.3,894.4 	"/>
	<rect x="564.6" y="876.9" class="st5" width="25.4" height="33.9"/>
	<rect x="598" y="876.9" class="st5" width="14.8" height="14"/>
	<polygon class="st3" points="636.4,840 643,835.6 639.7,843.4 648.4,849.8 639.7,852.3 631.3,860.4 631.3,851.5 622.2,851.6 
		627,847.9 621.8,840 629,842.9 635.1,834 	"/>
	<polygon class="st7" points="636,841.9 641,838.5 638.5,844.4 645,849 638.5,850.9 632.3,857 632.3,850.4 625.5,850.4 629.1,847.9 
		625.2,841.9 630.6,843.9 635.1,837.4 	"/>
</g>
<g>
	<polygon class="st3" points="653.5,2127.6 489.9,2127.6 489.9,2110.4 572.7,2075.9 653.5,2110.4 	"/>
	<polygon class="st4" points="653.5,2050.9 489.9,2050.9 489.9,2049.6 572.7,2015.3 653.5,2049.6 	"/>
	<polygon class="st5" points="572.7,2015.3 489.9,2049.1 489.9,2111.1 572.7,2075.9 	"/>
	<polygon class="st6" points="653.5,2049.1 572.7,2015.3 572.7,2075.9 653.5,2111.1 	"/>
	<polygon class="st3" points="537.1,2054.6 531.7,2058.1 534.4,2051.9 527.5,2046.9 534.6,2044.9 541.5,2038.3 541.5,2045.4 
		548.6,2045.4 544.7,2048.4 548.7,2054.6 543,2052.4 538.1,2059.4 	"/>
	<polygon class="st7" points="537.3,2052.9 533.4,2055.4 535.3,2050.9 530.2,2046.9 535.4,2045.4 540.5,2040.6 540.5,2045.9 
		545.9,2045.9 543,2048.1 546,2052.9 541.7,2051.1 538.1,2056.4 	"/>
	<rect x="545.8" y="2093.6" class="st5" width="25.4" height="33.9"/>
	<rect x="579.2" y="2093.6" class="st5" width="14.8" height="14"/>
	<polygon class="st3" points="604.8,2046.9 591.8,2038.3 598.3,2053.4 581.4,2065.6 599.3,2070.6 616.5,2086.4 616.5,2069.4 
		633.3,2069.4 623.5,2062.4 633.2,2046.9 619.2,2052.4 607.3,2035.3 	"/>
	<polygon class="st7" points="605.4,2050.4 595.8,2044.1 600.6,2055.4 588.1,2064.4 601,2068.1 613.5,2079.9 613.5,2067.1 
		626.3,2067.1 619.2,2061.9 626.5,2050.6 616.1,2054.4 607.3,2041.8 	"/>
	<path class="st10" d="M608.7,2045.9c-5.1,0-9.3-4.2-9.3-9.3c0-3.8,2.3-7,5.5-8.5c-0.2-0.6-0.4-1.3-0.4-2c0-0.6,0.1-1.2,0.3-1.8
		c-1.9-0.5-3.3-2.1-3.3-4.2c0-2,1.4-3.7,3.3-4.2c-0.1-0.4-0.2-0.8-0.2-1.3c0-2.2,1.8-4,4-4s4,1.8,4,4c0,1.8-1.2,3.3-2.8,3.8
		c0.2,0.5,0.3,1,0.3,1.6c0,0.1,0,0.2,0,0.3l0,0c3.1,0,5.6,2.5,5.6,5.6c0,1.3-0.4,2.5-1.2,3.4c2,1.7,3.3,4.3,3.3,7.1
		c0,0.3,0,0.7-0.1,1c0,0,0,0,0.1,0c4.5,0,8.1,3.6,8.1,8.1c0,4-2.9,7.3-6.6,8c0,0.2,0,0.4,0,0.6c0,3.5-2.8,6.3-6.3,6.3
		s-6.3-2.8-6.3-6.3c0-2.5,1.4-4.6,3.5-5.6c-0.3-0.9-0.5-1.8-0.5-2.8C609.5,2045.9,609.1,2045.9,608.7,2045.9z"/>
</g>
<g>
	<polygon class="st3" points="1740.5,1173.3 1576.9,1173.3 1576.9,1156.1 1659.7,1121.6 1740.5,1156.1 	"/>
	<polygon class="st4" points="1740.5,1096.6 1576.9,1096.6 1576.9,1095.3 1659.7,1061.1 1740.5,1095.3 	"/>
	<polygon class="st5" points="1659.7,1061.1 1576.9,1094.8 1576.9,1156.8 1659.7,1121.6 	"/>
	<polygon class="st6" points="1740.5,1094.8 1659.7,1061.1 1659.7,1121.6 1740.5,1156.8 	"/>
	<polygon class="st3" points="1624.1,1100.3 1618.7,1103.9 1621.4,1097.6 1614.5,1092.6 1621.6,1090.6 1628.5,1084.1 1628.5,1091.1 
		1635.6,1091.1 1631.7,1094.1 1635.7,1100.3 1630,1098.1 1625.1,1105.1 	"/>
	<polygon class="st7" points="1624.3,1098.6 1620.4,1101.1 1622.3,1096.6 1617.2,1092.6 1622.4,1091.1 1627.5,1086.4 1627.5,1091.6 
		1632.9,1091.6 1630,1093.8 1633,1098.6 1628.7,1096.8 1625.1,1102.1 	"/>
	<rect x="1632.8" y="1139.3" class="st5" width="25.4" height="33.9"/>
	<rect x="1666.2" y="1139.3" class="st5" width="14.8" height="14"/>
	<polygon class="st3" points="1691.8,1092.6 1678.8,1084.1 1685.3,1099.1 1668.4,1111.4 1686.3,1116.3 1703.5,1132.1 1703.5,1115.1 
		1720.3,1115.1 1710.5,1108.1 1720.2,1092.6 1706.2,1098.1 1694.3,1081.1 	"/>
	<polygon class="st7" points="1692.4,1096.1 1682.8,1089.8 1687.6,1101.1 1675.1,1110.1 1688,1113.8 1700.5,1125.6 1700.5,1112.8 
		1713.3,1112.9 1706.2,1107.6 1713.5,1096.3 1703.1,1100.1 1694.3,1087.6 	"/>
	<path class="st10" d="M1695.7,1091.6c-5.1,0-9.3-4.2-9.3-9.3c0-3.8,2.3-7,5.5-8.5c-0.2-0.6-0.4-1.3-0.4-2c0-0.6,0.1-1.2,0.3-1.8
		c-1.9-0.5-3.3-2.1-3.3-4.2c0-2,1.4-3.7,3.3-4.2c-0.1-0.4-0.2-0.8-0.2-1.3c0-2.2,1.8-4,4-4s4,1.8,4,4c0,1.8-1.2,3.3-2.8,3.8
		c0.2,0.5,0.3,1,0.3,1.6c0,0.1,0,0.2,0,0.3l0,0c3.1,0,5.6,2.5,5.6,5.6c0,1.3-0.4,2.5-1.2,3.4c2,1.7,3.3,4.3,3.3,7.1
		c0,0.3,0,0.7-0.1,1c0,0,0,0,0.1,0c4.5,0,8.1,3.6,8.1,8.1c0,4-2.9,7.3-6.6,8c0,0.2,0,0.4,0,0.6c0,3.5-2.8,6.3-6.3,6.3
		s-6.3-2.8-6.3-6.3c0-2.5,1.4-4.6,3.5-5.6c-0.3-0.9-0.5-1.8-0.5-2.8C1696.5,1091.6,1696.1,1091.6,1695.7,1091.6z"/>
</g>
<g>
	<polygon class="st3" points="1739.6,2044.6 1564,2044.6 1564,2016.4 1651.8,1989.1 1739.6,2016.4 	"/>
	<polygon class="st4" points="1739.6,1941.9 1564,1941.9 1564,1913.6 1651.8,1886.4 1739.6,1913.6 	"/>
	<polygon class="st5" points="1651.8,1886.4 1564,1913.1 1564,2017.1 1651.8,1989.1 	"/>
	<polygon class="st6" points="1739.6,1913.1 1651.8,1886.4 1651.8,1989.1 1739.6,2017.1 	"/>
	<polygon class="st3" points="1693.3,1925.6 1678.1,1915.6 1685.7,1933.4 1666,1947.6 1686.6,1953.3 1706.4,1971.8 1706.4,1951.8 
		1726.3,1951.9 1715,1943.6 1726.4,1925.8 1710,1931.9 1696.2,1912.1 	"/>
	<polygon class="st7" points="1694,1929.9 1682.8,1922.4 1688.4,1935.6 1673.8,1946.1 1688.9,1950.4 1703.4,1964.1 1703.4,1949.3 
		1718.4,1949.4 1710.1,1943.3 1718.6,1929.9 1706.5,1934.6 1696.2,1919.8 	"/>
	<polygon class="st3" points="1678.5,1964.8 1685.1,1960.4 1681.8,1968.1 1690.5,1974.4 1681.8,1976.9 1673.4,1985.1 1673.4,1976.3 
		1664.3,1976.4 1669.1,1972.6 1663.9,1964.8 1671.1,1967.6 1677.2,1958.8 	"/>
	<polygon class="st7" points="1678.1,1966.6 1683.1,1963.3 1680.6,1969.1 1687.1,1973.8 1680.6,1975.6 1674.4,1981.8 1674.4,1975.1 
		1667.6,1975.1 1671.2,1972.6 1667.3,1966.6 1672.7,1968.6 1677.2,1962.1 	"/>
	<rect x="1639.1" y="2010.6" class="st5" width="25.4" height="33.9"/>
	<path class="st10" d="M1708.8,1921.9c6.9,0,12.5-5.6,12.5-12.5c0-5.1-3.1-9.5-7.5-11.5c0.3-0.9,0.5-1.8,0.5-2.8
		c0-0.8-0.1-1.6-0.4-2.4c2.5-0.6,4.4-2.9,4.4-5.6s-1.9-5-4.4-5.6c0.2-0.5,0.3-1.1,0.3-1.7c0-3-2.4-5.5-5.5-5.5c-3,0-5.5,2.4-5.5,5.5
		c0,2.4,1.6,4.5,3.8,5.2c-0.3,0.7-0.4,1.4-0.4,2.1c0,0.1,0,0.3,0,0.4l0,0c-4.2,0-7.6,3.4-7.6,7.6c0,1.7,0.6,3.3,1.6,4.6
		c-2.7,2.3-4.5,5.8-4.5,9.6c0,0.4,0,0.9,0.1,1.3c0,0,0,0-0.1,0c-6,0-10.9,4.9-10.9,10.9c0,5.4,3.9,9.8,9,10.8c0,0.3,0,0.5,0,0.8
		c0,4.7,3.8,8.5,8.5,8.5s8.5-3.8,8.5-8.5c0-3.4-2-6.2-4.8-7.6c0.5-1.2,0.7-2.5,0.7-3.8C1707.7,1921.9,1708.3,1921.9,1708.8,1921.9z"
		/>
</g>
<g>
	<polygon class="st3" points="448,796.4 272.4,796.4 272.4,768.1 360.2,740.8 448,768.1 	"/>
	<polygon class="st4" points="448,693.6 272.4,693.6 272.4,665.4 360.2,638.1 448,665.4 	"/>
	<polygon class="st5" points="360.2,638.1 272.4,664.9 272.4,768.9 360.2,740.8 	"/>
	<polygon class="st6" points="448,664.9 360.2,638.1 360.2,740.8 448,768.9 	"/>
	<polygon class="st3" points="313.6,717.9 298.5,728 306,710.1 286.4,696 307.1,690.3 327,671.8 327,691.8 346.8,691.6 335.4,699.9 
		346.8,717.8 330.4,711.6 316.6,731.5 	"/>
	<polygon class="st7" points="314.4,712.6 303.1,720.1 308.8,707 294.2,696.5 309.3,692.1 324,678.5 324,693.4 338.9,693.3 
		330.5,699.4 339,712.6 326.9,708.1 316.6,722.8 	"/>
	<rect x="331.3" y="762.4" class="st5" width="25.4" height="33.9"/>
	<rect x="372.1" y="762.4" class="st5" width="25.4" height="20.7"/>
	<path class="st10" d="M309.7,684.8c-6.5,0-11.8-5.3-11.8-11.8c0-4.8,2.9-8.9,7-10.8c-0.3-0.8-0.5-1.7-0.5-2.6
		c0-0.8,0.1-1.5,0.4-2.2c-2.4-0.6-4.1-2.7-4.1-5.3s1.8-4.7,4.1-5.3c-0.2-0.5-0.3-1-0.3-1.6c0-2.8,2.3-5.1,5.1-5.1
		c2.8,0,5.1,2.3,5.1,5.1c0,2.3-1.5,4.2-3.6,4.9c0.2,0.6,0.4,1.3,0.4,2c0,0.1,0,0.3,0,0.4l0,0c4,0,7.2,3.2,7.2,7.2
		c0,1.6-0.6,3.1-1.5,4.3c2.6,2.2,4.2,5.4,4.2,9c0,0.4,0,0.8-0.1,1.2c0,0,0,0,0.1,0c5.7,0,10.3,4.6,10.3,10.3c0,5.1-3.6,9.3-8.4,10.1
		c0,0.3,0,0.5,0,0.8c0,4.4-3.6,8-8,8s-8-3.6-8-8c0-3.2,1.8-5.9,4.5-7.2c-0.4-1.1-0.7-2.3-0.7-3.6
		C310.7,684.8,310.2,684.8,309.7,684.8z"/>
</g>
<g>
	<polygon class="st3" points="1475.5,743.1 1299.9,743.1 1299.9,671.9 1387.7,644.5 1475.5,671.9 	"/>
	<polygon class="st4" points="1475.5,640.4 1299.9,640.4 1299.9,620.9 1387.7,593.6 1475.5,620.9 	"/>
	<polygon class="st5" points="1387.7,593.6 1299.9,620.4 1299.9,672.6 1387.7,644.5 	"/>
	<polygon class="st6" points="1475.5,620.4 1387.7,593.6 1387.7,644.5 1475.5,672.6 	"/>
	<rect x="1338.8" y="709.1" class="st5" width="25.4" height="33.9"/>
	<rect x="1376" y="710.3" class="st5" width="14.8" height="14"/>
	<path class="st10" d="M1427.6,574.5c5.1,0,9.3-4.2,9.3-9.3c0-3.8-2.3-7-5.5-8.5c0.2-0.6,0.4-1.3,0.4-2c0-0.6-0.1-1.2-0.3-1.8
		c1.9-0.5,3.3-2.1,3.3-4.2c0-2-1.4-3.7-3.3-4.2c0.1-0.4,0.2-0.8,0.2-1.3c0-2.2-1.8-4-4-4s-4,1.8-4,4c0,1.8,1.2,3.3,2.8,3.8
		c-0.2,0.5-0.3,1-0.3,1.6c0,0.1,0,0.2,0,0.3l0,0c-3.1,0-5.6,2.5-5.6,5.6c0,1.3,0.4,2.5,1.2,3.4c-2,1.7-3.3,4.3-3.3,7.1
		c0,0.3,0,0.7,0.1,1c0,0,0,0-0.1,0c-4.5,0-8.1,3.6-8.1,8.1c0,4,2.9,7.3,6.6,8c0,0.2,0,0.4,0,0.6c0,3.5,2.8,6.3,6.3,6.3
		s6.3-2.8,6.3-6.3c0-2.5-1.4-4.6-3.5-5.6c0.3-0.9,0.5-1.8,0.5-2.8C1426.8,574.5,1427.2,574.5,1427.6,574.5z"/>
	<rect x="1410" y="585.3" class="st5" width="25.4" height="48.7"/>
</g>
<polygon class="st3" points="549.3,1483.4 385.7,1483.4 385.7,1466.1 468.5,1431.8 549.3,1466.1 "/>
<polygon class="st4" points="549.3,1406.6 385.7,1406.6 385.7,1405.4 468.5,1371.1 549.3,1405.4 "/>
<polygon class="st8" points="468.5,1371.1 385.7,1404.9 385.7,1466.9 468.5,1431.8 "/>
<polygon class="st9" points="549.3,1404.9 468.5,1371.1 468.5,1431.8 549.3,1466.9 "/>
<polygon class="st9" points="420.1,1428.4 411.1,1434.4 415.6,1423.8 403.8,1415.3 416.3,1411.9 428.3,1400.8 428.3,1412.8 
	440.1,1412.6 433.2,1417.6 440,1428.4 430.2,1424.6 421.9,1436.6 "/>
<polygon class="st7" points="420.6,1425.3 413.8,1429.8 417.2,1421.9 408.5,1415.6 417.5,1413.1 426.3,1404.8 426.3,1413.6 
	435.2,1413.6 430.2,1417.3 435.3,1425.3 428,1422.6 421.9,1431.4 "/>
<path class="st10" d="M504.4,1370.4c3.6,0,6.5-2.9,6.5-6.5c0-2.7-1.6-4.9-3.9-6c0.2-0.4,0.3-0.9,0.3-1.4c0-0.4-0.1-0.9-0.2-1.2
	c1.3-0.3,2.3-1.5,2.3-2.9c0-1.4-1-2.6-2.3-2.9c0.1-0.3,0.2-0.6,0.2-0.9c0-1.6-1.3-2.8-2.8-2.8c-1.6,0-2.8,1.3-2.8,2.8
	c0,1.3,0.8,2.3,2,2.7c-0.1,0.3-0.2,0.7-0.2,1.1c0,0.1,0,0.1,0,0.2l0,0c-2.2,0-4,1.8-4,4c0,0.9,0.3,1.7,0.8,2.4c-1.4,1.2-2.3,3-2.3,5
	c0,0.2,0,0.5,0,0.7l0,0c-3.1,0-5.7,2.6-5.7,5.7c0,2.8,2,5.1,4.7,5.6c0,0.1,0,0.3,0,0.4c0,2.4,2,4.4,4.4,4.4s4.4-2,4.4-4.4
	c0-1.7-1-3.3-2.5-4c0.2-0.6,0.4-1.3,0.4-2C503.8,1370.4,504.1,1370.4,504.4,1370.4z"/>
<rect x="492" y="1377.9" class="st8" width="17.9" height="34.3"/>
<rect x="441.6" y="1457.6" class="st7" width="25.4" height="25.8"/>
<g>
	<g>
		<polygon class="st3" points="1740,1590.9 1576.4,1590.9 1576.4,1573.6 1659.2,1539.4 1740,1573.6 		"/>
		<polygon class="st4" points="1740,1514.3 1576.4,1514.3 1576.4,1512.9 1659.2,1478.6 1740,1512.9 		"/>
		<polygon class="st5" points="1659.2,1478.6 1576.4,1512.4 1576.4,1574.4 1659.2,1539.4 		"/>
		<polygon class="st6" points="1740,1512.4 1659.2,1478.6 1659.2,1539.4 1740,1574.4 		"/>
		<polygon class="st6" points="1610.8,1535.9 1601.8,1541.9 1606.3,1531.4 1594.5,1522.9 1607,1519.4 1619,1508.4 1619,1520.4 
			1630.8,1520.3 1623.9,1525.1 1630.7,1535.9 1620.9,1532.1 1612.6,1544.1 		"/>
		<polygon class="st7" points="1611.3,1532.9 1604.5,1537.4 1607.9,1529.4 1599.2,1523.1 1608.2,1520.6 1617,1512.4 1617,1521.3 
			1625.9,1521.1 1620.9,1524.9 1626,1532.9 1618.7,1530.1 1612.6,1538.9 		"/>
		<path class="st10" d="M1695.1,1477.9c3.6,0,6.5-2.9,6.5-6.5c0-2.7-1.6-4.9-3.9-6c0.2-0.4,0.3-0.9,0.3-1.4c0-0.4-0.1-0.9-0.2-1.2
			c1.3-0.3,2.3-1.5,2.3-2.9c0-1.4-1-2.6-2.3-2.9c0.1-0.3,0.2-0.6,0.2-0.9c0-1.6-1.3-2.8-2.8-2.8c-1.6,0-2.8,1.3-2.8,2.8
			c0,1.3,0.8,2.3,2,2.7c-0.1,0.3-0.2,0.7-0.2,1.1c0,0.1,0,0.1,0,0.2l0,0c-2.2,0-4,1.8-4,4c0,0.9,0.3,1.7,0.8,2.4
			c-1.4,1.2-2.3,3-2.3,5c0,0.2,0,0.5,0,0.7l0,0c-3.1,0-5.7,2.6-5.7,5.7c0,2.8,2,5.1,4.7,5.6c0,0.1,0,0.3,0,0.4c0,2.4,2,4.4,4.4,4.4
			s4.4-2,4.4-4.4c0-1.7-1-3.3-2.5-4c0.2-0.6,0.4-1.3,0.4-2C1694.5,1477.9,1694.8,1477.9,1695.1,1477.9z"/>
		<rect x="1682.7" y="1485.4" class="st5" width="17.9" height="34.3"/>
	</g>
	<rect x="1632.3" y="1565.1" class="st5" width="25.4" height="25.8"/>
</g>
<rect x="676.7" y="1159.1" class="st12" width="20.7" height="32.3"/>
<rect x="388.7" y="1700.1" class="st12" width="20.7" height="32.3"/>
<rect x="371.8" y="1945.3" class="st12" width="15.9" height="24.9"/>
<rect x="679.3" y="1430.1" class="st12" width="11.7" height="18.2"/>
<rect x="1479.2" y="1056.8" class="st12" width="11.7" height="18.2"/>
<rect x="288.3" y="987.4" class="st12" width="11.7" height="18.2"/>
<rect x="1584.1" y="-136.2" class="st12" width="11.7" height="18.2"/>
<rect x="1441" y="1697.9" class="st12" width="17.2" height="26.9"/>
<rect x="1537.7" y="936.5" class="st12" width="20.7" height="32.3"/>
<path class="st2" d="M2842.7-367.2H2638c-58.6,0-106.1-47.5-106.1-106.1v-73.5c0-58.6,47.5-106.1,106.1-106.1h204.6
	c58.6,0,106.1,47.5,106.1,106.1v73.5C2948.8-414.8,2901.3-367.2,2842.7-367.2z"/>
<path class="st2" d="M2626.6-374.4c0,0,1,29.2-21.4,35.1c0,0,33.1,0.6,44.8-28L2626.6-374.4z"/>
<path class="st2" d="M2842.7-886.9H2638c-58.6,0-106.1-47.5-106.1-106.1v-73.5c0-58.6,47.5-106.1,106.1-106.1h204.6
	c58.6,0,106.1,47.5,106.1,106.1v73.5C2948.8-934.4,2901.3-886.9,2842.7-886.9z"/>
<path class="st2" d="M2634.6-889.9c0,0,0.2,25.5-20.9,33.9c0,0,50.7,8.4,61-34.7L2634.6-889.9z"/>
<path class="st2" d="M3027.2,146h-204.6c-58.6,0-106.1,47.5-106.1,106.1v73.5c0,57.4,45.6,104.1,102.5,106.1
	c-0.7,6.9-4,24.3-20.8,31c0,0,47.7,7.9,59.9-31h169.1c58.6,0,106.1-47.5,106.1-106.1v-73.5C3133.3,193.5,3085.8,146,3027.2,146z"/>
<path class="st2" d="M2531.6,712.1h-105.8c-30.3,0-54.9,24.6-54.9,54.9v16c0,29.7,23.5,53.8,53,54.8c-0.3,3.5-2.1,12.6-10.8,16
	c0,0,24.7,4.1,31-16h87.4c30.3,0,54.9-24.6,54.9-54.9v-16C2586.5,736.7,2561.9,712.1,2531.6,712.1z"/>
<path class="st2" d="M2370.5,211.3h-105.8c-30.3,0-54.9,24.6-54.9,54.9v38c0,29.7,23.5,53.8,53,54.8c-0.3,3.5-2.1,12.6-10.8,16
	c0,0,24.7,4.1,31-16h87.4c30.3,0,54.9-24.6,54.9-54.9v-38C2425.3,235.9,2400.7,211.3,2370.5,211.3z"/>
<path class="st2" d="M-514.4,1181.8h176.3c50.5,0,91.4,33.9,91.4,84.4v9.3c0,49.4-39.2,78.7-88.3,80.4c0.6,6,3.4,21,17.9,26.7
	c0,0-41.1,6.8-51.6-26.7h-145.7c-50.5,0-91.4-29.9-91.4-80.4v-9.3C-605.9,1215.8-564.9,1181.8-514.4,1181.8z"/>
<path class="st13" d="M-436.1-280.9c0,0-72.3-31.8-80.3,37.6s53.5,16.2,53.5,58.9s50.9,74,69.6,49s-2.7-73,18.7-87.8
	c21.4-14.8,57.2-38.3,28.7-67.4c-28.6-29.1-46.3,20.5-60.4,18.3C-420.2-274.6-436.1-280.9-436.1-280.9z"/>
<path d="M-473.1-218.8l-17.9-41.5l5.8-16.2c1.8,0.6,3.8,0.9,5.8,0.9c10.6,0,19.1-8.6,19.1-19.1c0-10.6-8.6-19.1-19.1-19.1
	c-10.6,0-19.1,8.6-19.1,19.1c0,8.2,5.2,15.2,12.4,17.9l-5.4,15.2l-0.5-1.1v-0.1l-37-32.1l4.6-38l-1-0.1l-4.7,38.5l37.2,32.3l0.9,2
	l-14.8,41.5l-58.9,16.1l0.3,1l58.5-16v51.1h1v-51.6l14.5-40.7l17.8,41.1h29.9v-1L-473.1-218.8L-473.1-218.8z"/>
<path class="st2" d="M-490.8-288.6c0,0,14-6.6,14.9,6.7C-475.9-281.9-476.4-289.3-490.8-288.6z"/>
<rect x="2665.6" y="-578.8" class="st14" width="182.3" height="291.8"/>
<rect x="2397.9" y="759" class="st14" width="166.8" height="46.8"/>
<text transform="matrix(1 0 0 1 2397.8584 769.2483)"><tspan x="0" y="0" style="font-family:'AkagiPro-Book'; font-size:14px;">50% of the world’s refugees </tspan><tspan x="0" y="20" style="font-family:'AkagiPro-Book'; font-size:14px;">are under 18 years old.</tspan></text>
<rect x="-571.6" y="1208.3" class="st14" width="186.6" height="102.4"/>
<text transform="matrix(1 0 0 1 -571.5846 1309.8503)" class="st15" style="font-family:'ACaslonPro-Bold'; font-size:137.8043px;">“</text>
<rect x="-548.4" y="1236.4" class="st14" width="265.1" height="75.4"/>
<text transform="matrix(1 0 0 1 -548.3727 1246.6665)"><tspan x="0" y="0" style="font-family:'AkagiPro-Book'; font-size:14px;">Every day an average of 42 500 people have </tspan><tspan x="0" y="20" style="font-family:'AkagiPro-Book'; font-size:14px;">to leave their homes due to war, conflict or </tspan><tspan x="0" y="40" style="font-family:'AkagiPro-Book'; font-size:14px;">human rights violations. In total there are 60 </tspan><tspan x="0" y="60" style="font-family:'AkagiPro-Book'; font-size:14px;">million refugees worldwide.</tspan></text>
<g>
	<g>
		<rect x="-339.6" y="553.8" class="st5" width="9.5" height="58.6"/>
		<rect x="-150.5" y="553.8" class="st5" width="9.5" height="58.6"/>
	</g>
	<path class="st8" d="M-132.2,575.4h-216.2c-8.4,0-15.1-6.8-15.1-15.1V439.4c0-8.4,6.8-15.1,15.1-15.1h216.2
		c8.4,0,15.1,6.8,15.1,15.1v120.9C-117.1,568.6-123.8,575.4-132.2,575.4z"/>
	<rect x="-338.2" y="453.1" class="st14" width="205.5" height="106.5"/>
	<text transform="matrix(1 0 0 1 -338.1876 463.3836)"><tspan x="0" y="0" class="st2" style="font-family:'AkagiPro-Book'; font-size:14px;">Every day an average of 42 500 </tspan><tspan x="0" y="20" class="st2" style="font-family:'AkagiPro-Book'; font-size:14px;">people have to leave their homes </tspan><tspan x="0" y="40" class="st2" style="font-family:'AkagiPro-Book'; font-size:14px;">due to war, conflict or human </tspan><tspan x="0" y="60" class="st2" style="font-family:'AkagiPro-Book'; font-size:14px;">rights violations. In total there are </tspan><tspan x="0" y="80" class="st2" style="font-family:'AkagiPro-Book'; font-size:14px;">60 million refugees worldwide.</tspan></text>
</g>
<linearGradient id="SVGID_3_" gradientUnits="userSpaceOnUse" x1="-1.3556" y1="-386.2602" x2="1165.7611" y2="1632.9418">
	<stop  offset="0" style="stop-color:#768C10"/>
	<stop  offset="0.1264" style="stop-color:#868E19"/>
	<stop  offset="0.3874" style="stop-color:#A29128"/>
	<stop  offset="0.6166" style="stop-color:#B39231"/>
	<stop  offset="0.7876" style="stop-color:#B99334"/>
	<stop  offset="0.9562" style="stop-color:#DB8534"/>
</linearGradient>
<polygon class="st16" points="341.7,316.3 404.7,207.1 467.6,316.3 "/>
<linearGradient id="SVGID_4_" gradientUnits="userSpaceOnUse" x1="399.8495" y1="-618.1603" x2="1566.9662" y2="1401.0416">
	<stop  offset="0" style="stop-color:#768C10"/>
	<stop  offset="0.1264" style="stop-color:#868E19"/>
	<stop  offset="0.3874" style="stop-color:#A29128"/>
	<stop  offset="0.6166" style="stop-color:#B39231"/>
	<stop  offset="0.7876" style="stop-color:#B99334"/>
	<stop  offset="0.9562" style="stop-color:#DB8534"/>
</linearGradient>
<polygon class="st17" points="340.9,-611.2 403.9,-720.2 466.8,-611.2 "/>
<linearGradient id="SVGID_5_" gradientUnits="userSpaceOnUse" x1="369.6535" y1="-600.7067" x2="1536.7703" y2="1418.4951">
	<stop  offset="0" style="stop-color:#768C10"/>
	<stop  offset="0.1264" style="stop-color:#868E19"/>
	<stop  offset="0.3874" style="stop-color:#A29128"/>
	<stop  offset="0.6166" style="stop-color:#B39231"/>
	<stop  offset="0.7876" style="stop-color:#B99334"/>
	<stop  offset="0.9562" style="stop-color:#DB8534"/>
</linearGradient>
<polygon class="st18" points="588.2,-138.7 636.7,-222.7 685.1,-138.7 "/>
<linearGradient id="SVGID_6_" gradientUnits="userSpaceOnUse" x1="331.7893" y1="-578.8209" x2="1498.906" y2="1440.381">
	<stop  offset="0" style="stop-color:#768C10"/>
	<stop  offset="0.1264" style="stop-color:#868E19"/>
	<stop  offset="0.3874" style="stop-color:#A29128"/>
	<stop  offset="0.6166" style="stop-color:#B39231"/>
	<stop  offset="0.7876" style="stop-color:#B99334"/>
	<stop  offset="0.9562" style="stop-color:#DB8534"/>
</linearGradient>
<polygon class="st19" points="655.2,42.3 690.8,-19.4 726.3,42.3 "/>
<linearGradient id="SVGID_7_" gradientUnits="userSpaceOnUse" x1="903.5981" y1="-909.3315" x2="2070.7148" y2="1109.8704">
	<stop  offset="0" style="stop-color:#768C10"/>
	<stop  offset="0.1264" style="stop-color:#868E19"/>
	<stop  offset="0.3874" style="stop-color:#A29128"/>
	<stop  offset="0.6166" style="stop-color:#B39231"/>
	<stop  offset="0.7876" style="stop-color:#B99334"/>
	<stop  offset="0.9562" style="stop-color:#DB8534"/>
</linearGradient>
<polygon class="st20" points="1356.2,-64.7 1391.8,-126.4 1427.3,-64.7 "/>
<linearGradient id="SVGID_8_" gradientUnits="userSpaceOnUse" x1="1011.0086" y1="-971.4157" x2="2178.1252" y2="1047.7861">
	<stop  offset="0" style="stop-color:#768C10"/>
	<stop  offset="0.1264" style="stop-color:#868E19"/>
	<stop  offset="0.3874" style="stop-color:#A29128"/>
	<stop  offset="0.6166" style="stop-color:#B39231"/>
	<stop  offset="0.7876" style="stop-color:#B99334"/>
	<stop  offset="0.9562" style="stop-color:#DB8534"/>
</linearGradient>
<polygon class="st21" points="1260.2,-478.7 1295.8,-540.4 1331.3,-478.7 "/>
<linearGradient id="SVGID_9_" gradientUnits="userSpaceOnUse" x1="430.1013" y1="-635.6461" x2="1597.218" y2="1383.5558">
	<stop  offset="0" style="stop-color:#768C10"/>
	<stop  offset="0.1264" style="stop-color:#868E19"/>
	<stop  offset="0.3874" style="stop-color:#A29128"/>
	<stop  offset="0.6166" style="stop-color:#B39231"/>
	<stop  offset="0.7876" style="stop-color:#B99334"/>
	<stop  offset="0.9562" style="stop-color:#DB8534"/>
</linearGradient>
<polygon class="st22" points="559.2,-350.7 594.8,-412.4 630.3,-350.7 "/>
<linearGradient id="SVGID_10_" gradientUnits="userSpaceOnUse" x1="216.804" y1="-512.3584" x2="1383.9208" y2="1506.8435">
	<stop  offset="0" style="stop-color:#768C10"/>
	<stop  offset="0.1264" style="stop-color:#868E19"/>
	<stop  offset="0.3874" style="stop-color:#A29128"/>
	<stop  offset="0.6166" style="stop-color:#B39231"/>
	<stop  offset="0.7876" style="stop-color:#B99334"/>
	<stop  offset="0.9562" style="stop-color:#DB8534"/>
</linearGradient>
<polygon class="st23" points="449.2,-48.7 484.8,-110.4 520.3,-48.7 "/>
<linearGradient id="SVGID_11_" gradientUnits="userSpaceOnUse" x1="894.0306" y1="-903.8014" x2="2061.1475" y2="1115.4005">
	<stop  offset="0" style="stop-color:#768C10"/>
	<stop  offset="0.1264" style="stop-color:#868E19"/>
	<stop  offset="0.3874" style="stop-color:#A29128"/>
	<stop  offset="0.6166" style="stop-color:#B39231"/>
	<stop  offset="0.7876" style="stop-color:#B99334"/>
	<stop  offset="0.9562" style="stop-color:#DB8534"/>
</linearGradient>
<polygon class="st24" points="1456.1,159.3 1508.5,68.5 1560.8,159.3 "/>
<linearGradient id="SVGID_12_" gradientUnits="userSpaceOnUse" x1="713.2072" y1="-799.2838" x2="1880.3239" y2="1219.9181">
	<stop  offset="0" style="stop-color:#768C10"/>
	<stop  offset="0.1264" style="stop-color:#868E19"/>
	<stop  offset="0.3874" style="stop-color:#A29128"/>
	<stop  offset="0.6166" style="stop-color:#B39231"/>
	<stop  offset="0.7876" style="stop-color:#B99334"/>
	<stop  offset="0.9562" style="stop-color:#DB8534"/>
</linearGradient>
<polygon class="st25" points="1281.7,293.3 1344.7,184.1 1407.6,293.3 "/>
<linearGradient id="SVGID_13_" gradientUnits="userSpaceOnUse" x1="1157.347" y1="-1056.0006" x2="2324.4639" y2="963.2012">
	<stop  offset="0" style="stop-color:#768C10"/>
	<stop  offset="0.1264" style="stop-color:#868E19"/>
	<stop  offset="0.3874" style="stop-color:#A29128"/>
	<stop  offset="0.6166" style="stop-color:#B39231"/>
	<stop  offset="0.7876" style="stop-color:#B99334"/>
	<stop  offset="0.9562" style="stop-color:#DB8534"/>
</linearGradient>
<polygon class="st26" points="1451.7,-437.7 1514.7,-546.9 1577.6,-437.7 "/>
<linearGradient id="SVGID_14_" gradientUnits="userSpaceOnUse" x1="-159.3117" y1="-294.9601" x2="1007.805" y2="1724.2418">
	<stop  offset="0" style="stop-color:#768C10"/>
	<stop  offset="0.1264" style="stop-color:#868E19"/>
	<stop  offset="0.3874" style="stop-color:#A29128"/>
	<stop  offset="0.6166" style="stop-color:#B39231"/>
	<stop  offset="0.7876" style="stop-color:#B99334"/>
	<stop  offset="0.9562" style="stop-color:#DB8534"/>
</linearGradient>
<polygon class="st27" points="624.1,1169.4 687.1,1060.3 750,1169.4 "/>
<linearGradient id="SVGID_15_" gradientUnits="userSpaceOnUse" x1="-609.5818" y1="-34.7" x2="557.5349" y2="1984.502">
	<stop  offset="0" style="stop-color:#768C10"/>
	<stop  offset="0.1264" style="stop-color:#868E19"/>
	<stop  offset="0.3874" style="stop-color:#A29128"/>
	<stop  offset="0.6166" style="stop-color:#B39231"/>
	<stop  offset="0.7876" style="stop-color:#B99334"/>
	<stop  offset="0.9562" style="stop-color:#DB8534"/>
</linearGradient>
<polygon class="st28" points="336.1,1710.4 399.1,1601.3 462,1710.4 "/>
<linearGradient id="SVGID_16_" gradientUnits="userSpaceOnUse" x1="-729.312" y1="34.5051" x2="437.8047" y2="2053.707">
	<stop  offset="0" style="stop-color:#768C10"/>
	<stop  offset="0.1264" style="stop-color:#868E19"/>
	<stop  offset="0.3874" style="stop-color:#A29128"/>
	<stop  offset="0.6166" style="stop-color:#B39231"/>
	<stop  offset="0.7876" style="stop-color:#B99334"/>
	<stop  offset="0.9562" style="stop-color:#DB8534"/>
</linearGradient>
<polygon class="st29" points="331.3,1953.3 379.8,1869.4 428.2,1953.3 "/>
<linearGradient id="SVGID_17_" gradientUnits="userSpaceOnUse" x1="-276.4369" y1="-227.2607" x2="890.6798" y2="1791.9412">
	<stop  offset="0" style="stop-color:#768C10"/>
	<stop  offset="0.1264" style="stop-color:#868E19"/>
	<stop  offset="0.3874" style="stop-color:#A29128"/>
	<stop  offset="0.6166" style="stop-color:#B39231"/>
	<stop  offset="0.7876" style="stop-color:#B99334"/>
	<stop  offset="0.9562" style="stop-color:#DB8534"/>
</linearGradient>
<polygon class="st30" points="649.6,1436.4 685.2,1374.8 720.7,1436.4 "/>
<linearGradient id="SVGID_18_" gradientUnits="userSpaceOnUse" x1="484.9466" y1="-667.3472" x2="1652.0634" y2="1351.8547">
	<stop  offset="0" style="stop-color:#768C10"/>
	<stop  offset="0.1264" style="stop-color:#868E19"/>
	<stop  offset="0.3874" style="stop-color:#A29128"/>
	<stop  offset="0.6166" style="stop-color:#B39231"/>
	<stop  offset="0.7876" style="stop-color:#B99334"/>
	<stop  offset="0.9562" style="stop-color:#DB8534"/>
</linearGradient>
<polygon class="st31" points="1449.5,1062.9 1485.1,1001.4 1520.6,1062.9 "/>
<linearGradient id="SVGID_19_" gradientUnits="userSpaceOnUse" x1="-377.6349" y1="-168.7674" x2="789.4818" y2="1850.4346">
	<stop  offset="0" style="stop-color:#768C10"/>
	<stop  offset="0.1264" style="stop-color:#868E19"/>
	<stop  offset="0.3874" style="stop-color:#A29128"/>
	<stop  offset="0.6166" style="stop-color:#B39231"/>
	<stop  offset="0.7876" style="stop-color:#B99334"/>
	<stop  offset="0.9562" style="stop-color:#DB8534"/>
</linearGradient>
<polygon class="st32" points="258.7,993.6 294.2,932 329.8,993.6 "/>
<linearGradient id="SVGID_20_" gradientUnits="userSpaceOnUse" x1="1080.3961" y1="-1011.5223" x2="2247.5127" y2="1007.6796">
	<stop  offset="0" style="stop-color:#768C10"/>
	<stop  offset="0.1264" style="stop-color:#868E19"/>
	<stop  offset="0.3874" style="stop-color:#A29128"/>
	<stop  offset="0.6166" style="stop-color:#B39231"/>
	<stop  offset="0.7876" style="stop-color:#B99334"/>
	<stop  offset="0.9562" style="stop-color:#DB8534"/>
</linearGradient>
<polygon class="st33" points="1554.3,-130 1590,-191.6 1625.5,-130 "/>
<rect x="1429.6" y="-647.2" class="st12" width="11.7" height="18.2"/>
<linearGradient id="SVGID_21_" gradientUnits="userSpaceOnUse" x1="179.4119" y1="-490.7454" x2="1346.5286" y2="1528.4565">
	<stop  offset="0" style="stop-color:#768C10"/>
	<stop  offset="0.1264" style="stop-color:#868E19"/>
	<stop  offset="0.3874" style="stop-color:#A29128"/>
	<stop  offset="0.6166" style="stop-color:#B39231"/>
	<stop  offset="0.7876" style="stop-color:#B99334"/>
	<stop  offset="0.9562" style="stop-color:#DB8534"/>
</linearGradient>
<polygon class="st34" points="1397.2,1706.8 1449.6,1616.1 1501.9,1706.8 "/>
<linearGradient id="SVGID_22_" gradientUnits="userSpaceOnUse" x1="582.4918" y1="-723.7292" x2="1749.6085" y2="1295.4727">
	<stop  offset="0" style="stop-color:#768C10"/>
	<stop  offset="0.1264" style="stop-color:#868E19"/>
	<stop  offset="0.3874" style="stop-color:#A29128"/>
	<stop  offset="0.6166" style="stop-color:#B39231"/>
	<stop  offset="0.7876" style="stop-color:#B99334"/>
	<stop  offset="0.9562" style="stop-color:#DB8534"/>
</linearGradient>
<polygon class="st35" points="1485.1,946.8 1548.1,837.8 1611,946.8 "/>
<linearGradient id="SVGID_23_" gradientUnits="userSpaceOnUse" x1="1186.0203" y1="-1072.574" x2="2353.137" y2="946.6279">
	<stop  offset="0" style="stop-color:#768C10"/>
	<stop  offset="0.1264" style="stop-color:#868E19"/>
	<stop  offset="0.3874" style="stop-color:#A29128"/>
	<stop  offset="0.6166" style="stop-color:#B39231"/>
	<stop  offset="0.7876" style="stop-color:#B99334"/>
	<stop  offset="0.9562" style="stop-color:#DB8534"/>
</linearGradient>
<polygon class="st36" points="1399.9,-641 1435.5,-702.6 1471,-641 "/>
</svg>
